<svg width="130" height="39" viewBox="0 0 130 39" fill="none" xmlns="http://www.w3.org/2000/svg">
<g clip-path="url(#clip0_3977_461)">
<path d="M26.7335 25.4607H23.1691L19.0954 13.9018L16.804 20.2159H20.3684L21.3359 22.9656H15.9893L15.0727 25.4607H11.5083L17.1604 10.7956H21.0813L26.7335 25.4607ZM89.8749 25.4607V22.711H83.6626V10.8465H80.5055V25.5116L89.8749 25.4607ZM108.003 25.4607V22.711H101.79V10.8465H98.6332V25.5116L108.003 25.4607ZM63.1416 13.4435C60.5447 13.4435 58.406 15.5312 58.406 18.1791C58.406 20.827 60.4938 22.9147 63.1416 22.9147C65.7386 22.9147 67.8772 20.827 67.8772 18.1791C67.8263 15.5821 65.7386 13.4435 63.1416 13.4435ZM63.1416 10.5919C67.3171 10.5919 70.7288 14.0036 70.7288 18.1791C70.7288 22.3546 67.3171 25.7662 63.1416 25.7662C58.9661 25.7662 55.5545 22.3546 55.5545 18.1791C55.5545 13.9527 58.9152 10.5919 63.1416 10.5919ZM122.413 13.4435C119.816 13.4435 117.677 15.5312 117.677 18.1791C117.677 20.827 119.765 22.9147 122.413 22.9147C125.01 22.9147 127.149 20.827 127.149 18.1791C127.149 15.5821 125.01 13.4435 122.413 13.4435ZM122.413 10.5919C126.589 10.5919 130 14.0036 130 18.1791C130 22.3546 126.589 25.7662 122.413 25.7662C118.238 25.7662 114.826 22.3546 114.826 18.1791C114.826 13.9527 118.238 10.5919 122.413 10.5919ZM47.4581 15.6331C47.4581 18.23 45.3704 20.4196 42.7225 20.4196H39.0053V25.4607H35.8992V10.8465H42.7225C45.3195 10.8465 47.4581 13.0361 47.4581 15.6331ZM44.5557 15.6331C44.5557 14.6147 43.7409 13.6981 42.7225 13.6981H39.0053V17.568H42.7225C43.7409 17.568 44.5557 16.6515 44.5557 15.6331ZM33.2004 29.9417C32.9458 29.9417 32.6912 30.0436 32.5384 30.2982C32.5384 30.2982 31.8255 31.1129 31.4691 31.4693C24.6457 38.2927 13.5451 38.2927 6.72174 31.4693C-0.101608 24.646 -0.101608 13.5453 6.72174 6.72198C13.0359 0.407841 23.1181 -0.152284 30.0942 5.49989C29.7378 6.5183 30.2979 7.63855 31.3163 7.99499C32.3347 8.35144 33.455 7.79131 33.8114 6.7729C34.1679 5.75449 33.6078 4.63424 32.5893 4.2778C32.1311 4.12504 31.6219 4.12504 31.2145 4.32872C23.0163 -2.34187 10.9991 -1.17069 4.32847 6.97658C-2.34211 15.1239 -1.17094 27.1411 6.97634 33.8626C15.0727 40.5332 27.039 39.362 33.7605 31.3166C34.066 31.0111 34.066 30.5018 33.7605 30.1963C33.6078 30.0436 33.4041 29.9417 33.2004 29.9417Z" fill="#033058"/>
</g>
<defs>
<clipPath id="clip0_3977_461">
<rect width="130" height="38.1904" fill="white"/>
</clipPath>
</defs>
</svg>
