<svg width="160" height="28" viewBox="0 0 160 28" fill="none" xmlns="http://www.w3.org/2000/svg">
<g clip-path="url(#clip0_4271_284)">
<path fill-rule="evenodd" clip-rule="evenodd" d="M14.1093 0.0234375C12.0982 0.0234375 10.2936 1.25731 9.56609 3.12991L0.134766 27.4031H7.29931L14.7229 8.29719H14.726C14.9123 7.83148 15.3681 7.5025 15.9008 7.5025C16.4336 7.5025 16.8893 7.83148 17.0756 8.29719H18.0647V4.42164H16.2287L17.9376 0.0234375H14.1093Z" fill="#01145E"/>
<path fill-rule="evenodd" clip-rule="evenodd" d="M9.56657 3.12992C10.2646 1.33344 11.9538 0.12481 13.8657 0.0295146L13.8633 0.0234375H14.1098H16.866H17.8142C19.8252 0.0234375 21.6298 1.25731 22.3574 3.12991L31.7887 27.4031H24.5016L15.3559 3.86512C14.8323 2.71156 13.6693 1.90917 12.3187 1.90917C10.9648 1.90917 9.79938 2.7155 9.27759 3.87362L9.56657 3.12992Z" fill="#011151"/>
<path d="M43.1413 19.091L44.5393 15.3703H50.7117L52.1312 19.091H54.7768L49.1635 4.03613H46.2168L40.582 19.091H43.1413ZM47.6148 6.70299L50.0234 13.2626H45.2277L47.6148 6.70299Z" fill="#01145E"/>
<path d="M55.9409 15.4554C56.0055 17.8427 58.0273 19.2191 60.9736 19.2191C63.6406 19.2191 65.6406 17.8857 65.6406 15.778C65.6406 13.3262 63.5974 12.81 61.081 12.509C59.4896 12.3369 58.4359 12.2079 58.4359 11.1755C58.4359 10.2937 59.339 9.73454 60.7157 9.73454C62.0919 9.73454 63.0383 10.4443 63.1674 11.4551H65.4472C65.2966 9.19687 63.3822 7.94947 60.6725 7.94947C58.0273 7.92795 56.1561 9.2829 56.1561 11.3691C56.1561 13.6488 58.1347 14.1865 60.6511 14.4876C62.3499 14.7027 63.3608 14.7887 63.3608 15.9716C63.3608 16.8533 62.4145 17.4125 60.9736 17.4125C59.2962 17.4125 58.3067 16.5953 58.2207 15.4554H55.9409Z" fill="#01145E"/>
<path d="M67.4028 15.4554C67.4674 17.8427 69.4888 19.2191 72.4356 19.2191C75.1021 19.2191 77.1025 17.8857 77.1025 15.778C77.1025 13.3262 75.0593 12.81 72.5429 12.509C70.9515 12.3369 69.8974 12.2079 69.8974 11.1755C69.8974 10.2937 70.8009 9.73454 72.1772 9.73454C73.5538 9.73454 74.5002 10.4443 74.6289 11.4551H76.9087C76.7581 9.19687 74.8441 7.94947 72.1344 7.94947C69.4888 7.92795 67.618 9.2829 67.618 11.3691C67.618 13.6488 69.5966 14.1865 72.113 14.4876C73.8118 14.7027 74.8227 14.7887 74.8227 15.9716C74.8227 16.8533 73.8764 17.4125 72.4356 17.4125C70.7577 17.4125 69.7686 16.5953 69.6826 15.4554H67.4028Z" fill="#01145E"/>
<path d="M84.774 19.2198C87.5051 19.2198 89.355 17.5638 89.7421 15.3916H87.4191C87.0966 16.6175 86.0643 17.3272 84.6448 17.3272C82.8168 17.3272 81.6339 16.1013 81.5693 14.2302V14.0797H89.8709C89.9141 13.7786 89.9355 13.4775 89.9355 13.1979C89.8709 9.97184 87.7417 7.9502 84.5588 7.9502C81.3113 7.9502 79.1389 10.2084 79.1389 13.6065C79.1389 16.9831 81.3113 19.2198 84.774 19.2198ZM81.6553 12.3807C81.8273 10.8106 83.0961 9.8213 84.5802 9.8213C86.1935 9.8213 87.3331 10.7461 87.5269 12.3807H81.6553Z" fill="#01145E"/>
<path d="M105.126 7.9502C103.319 7.9502 102.072 8.74596 101.363 9.95037C100.696 8.5309 99.4055 7.9502 97.9646 7.9502C96.3086 7.97171 95.3623 8.70297 94.7385 9.52021L94.4801 8.07927H92.4587V19.0908H94.7813V13.1979C94.7813 11.2408 95.7708 9.95037 97.3623 9.95037C98.8891 9.95037 99.6848 10.9612 99.6848 12.8968V19.0908H102.029V13.1334C102.029 11.1547 103.04 9.95037 104.632 9.95037C106.137 9.95037 106.933 10.9612 106.933 12.8968V19.0908H109.256V12.7463C109.256 9.26211 107.406 7.9502 105.126 7.9502Z" fill="#01145E"/>
<path d="M117.899 7.95039C116.2 7.95039 115.06 8.72464 114.329 9.71399V4.03613H112.006V19.091H114.028L114.308 17.4995C114.996 18.4888 116.179 19.22 117.899 19.22C120.91 19.22 123.104 16.9618 123.104 13.5852C123.104 10.0366 120.91 7.95039 117.899 7.95039ZM117.512 17.2629C115.576 17.2629 114.308 15.7359 114.308 13.5637C114.308 11.4345 115.576 9.92904 117.512 9.92904C119.448 9.92904 120.738 11.4345 120.738 13.5852C120.738 15.7574 119.448 17.2629 117.512 17.2629Z" fill="#01145E"/>
<path d="M125.61 19.091H127.933V4.03613H125.61V19.091Z" fill="#01145E"/>
<path d="M134.038 19.1542L133.608 20.2295C133.264 21.1328 133.049 21.3479 132.145 21.3479H130.511V23.3911H133.006C134.619 23.3911 135.092 22.5953 135.78 20.8102L140.77 8.07812H138.296L135.307 16.4443L132.231 8.07812H129.758L134.038 19.1542Z" fill="#01145E"/>
<path d="M143.614 19.091L145.012 15.3703H151.185L152.604 19.091H155.25L149.636 4.03613H146.69L141.055 19.091H143.614ZM148.088 6.70299L150.497 13.2626H145.7L148.088 6.70299Z" fill="#01145E"/>
<path d="M157.439 19.091H159.912V4.03613H157.439V19.091Z" fill="#01145E"/>
</g>
<defs>
<clipPath id="clip0_4271_284">
<rect width="160" height="27.4286" fill="white"/>
</clipPath>
</defs>
</svg>
