<svg width="128" height="35" viewBox="0 0 128 35" fill="none" xmlns="http://www.w3.org/2000/svg">
<g clip-path="url(#clip0_4165_509)">
<path d="M42.303 18.2423C42.1536 21.0439 41.3153 23.838 39.8875 26.2528C37.4961 30.2983 33.4897 33.458 28.397 34.4161C25.8546 34.8738 24.0055 34.8157 21.9289 34.4964C20.4308 34.1618 19.4877 32.9417 20.4936 31.4915C21.7261 29.7139 23.473 28.5458 25.2167 27.3775C30.3027 23.9699 35.7052 21.1217 41.1575 18.3616C41.7672 18.0535 42.3458 17.4439 42.303 18.2423Z" fill="#033058"/>
<path d="M45.9214 11.7056C47.2022 10.6897 48.4397 9.38461 49.3162 7.98643L49.3176 7.9854L49.3189 7.98434C50.2837 6.44461 49.736 5.05446 47.9688 4.63305C45.9371 4.14826 44.2144 4.3435 42.135 4.63305C41.6284 4.70359 41.4996 4.81296 41.3261 4.92263C40.9754 5.14473 40.9367 5.82275 41.4417 5.90716C42.3663 5.96509 45.3945 5.75769 46.1206 6.08088C48.1897 7.00193 42.5276 10.0684 41.7834 10.6621C41.3372 11.0176 41.1231 10.9749 40.8723 10.4151C38.903 6.02586 35.6963 2.91355 31.2152 1.14641C28.4065 0.0393407 25.5132 -0.214101 22.524 0.164669C20.9131 0.368702 19.6494 0.812277 18.1694 1.39033C17.6814 1.58094 17.0357 1.90566 16.5867 2.16435C15.5343 2.76956 14.5656 3.44837 13.684 4.20459C12.9162 4.86324 13.3672 6.04236 14.3733 6.13707L32.8987 7.88083C33.7208 7.95819 34.127 8.92093 33.6101 9.56631L23.2777 22.8122C22.9019 23.2813 23.3818 24.0549 23.9389 23.8313C28.1424 22.14 32.2289 20.0874 36.2748 18.0477C39.6488 16.3467 42.9674 14.0482 45.9214 11.7056Z" fill="#033058"/>
<path fill-rule="evenodd" clip-rule="evenodd" d="M26.6767 12.838C27.3362 12.1296 26.7553 10.9817 25.7956 11.0969L9.01475 13.1119C8.50716 13.1728 8.08478 13.5396 7.98233 14.0417C7.33697 17.2044 7.59443 20.3896 8.80865 23.5777C9.26333 24.772 9.29183 24.8064 8.06441 24.9577C7.90437 24.9774 7.744 24.9992 7.58337 25.0211C6.65798 25.1468 5.72387 25.2738 4.7928 25.0088C2.54212 24.366 6.00374 22.2285 6.26513 21.3151C6.45813 20.6406 5.54375 20.388 4.97206 20.7928C3.14014 22.0899 1.39609 23.6036 0.314608 25.6052C0.0835035 26.0687 0.112089 26.648 0.199039 26.9613C0.839395 29.2682 5.79716 28.8493 7.43055 28.5552C9.57086 28.1699 11.1162 28.0302 13.1957 27.3931C13.7628 27.2192 13.7733 27.1614 14.6398 26.2663C19.0297 22.1809 23.0471 16.6106 26.6767 12.838Z" fill="#033058"/>
<path d="M58.3109 25.2847C60.2393 25.2847 61.9296 24.3723 62.7095 22.9385V25.0675H63.9878V13.5971H62.7095V15.7478C61.9296 14.314 60.2393 13.3799 58.3109 13.3799C55.1691 13.3799 52.6556 15.8564 52.6556 19.354C52.6556 22.8081 55.1691 25.2847 58.3109 25.2847ZM54.0639 19.354C54.0639 16.6602 55.9274 14.7051 58.4625 14.7051C60.7811 14.7051 62.7311 16.3344 62.7311 19.354C62.7311 22.352 60.7811 23.9595 58.4625 23.9595C55.9274 23.9595 54.0639 22.0261 54.0639 19.354Z" fill="#033058"/>
<path d="M75.2061 20.5277V13.5977H73.8195V20.4842C73.8195 22.7435 72.8012 23.9601 70.8942 23.9601C69.0091 23.9601 67.9691 22.7435 67.9691 20.4842V13.5977H66.5825V20.5277C66.5825 23.5256 68.1859 25.2853 70.8942 25.2853C73.6244 25.2853 75.2061 23.5256 75.2061 20.5277Z" fill="#033058"/>
<path d="M78.2878 25.0682H79.6747V14.9013H81.1695V13.5979H79.6747V9.77441L78.2878 10.3609V13.5979H76.8795V14.9013H78.2878V25.0682Z" fill="#033058"/>
<path d="M82.9429 25.0684H84.3295V18.1819C84.3295 15.9226 85.3481 14.706 87.2765 14.706C89.1616 14.706 90.1799 15.9226 90.1799 18.1819V25.0684H91.5665V18.1167C91.5665 15.1188 90.0716 13.3808 87.5365 13.3808C86.0414 13.3808 84.9362 13.9891 84.3078 15.0319C84.3295 14.4453 84.3295 13.8588 84.3295 13.207V8.34082H82.9429V25.0684Z" fill="#033058"/>
<path d="M93.042 25.0675H102.186L102.619 21.9827H98.0473L102.554 13.9882V13.5537H93.8003L93.367 16.6385H97.5488L93.042 24.633V25.0675Z" fill="#033058"/>
<path d="M109.326 25.3501C111.601 25.3501 113.421 24.3943 114.699 22.6998L112.489 20.8532C111.644 21.9177 110.604 22.4391 109.39 22.4391C107.874 22.4391 106.769 21.6136 106.444 20.2449H114.699C115.176 15.4222 112.294 13.2715 109.152 13.2715C105.815 13.2715 103.215 15.7263 103.215 19.3543C103.215 22.8736 105.664 25.3501 109.326 25.3501ZM106.487 17.877C106.855 16.7691 107.83 16.0522 109.13 16.0522C110.409 16.0522 111.276 16.7039 111.536 17.877H106.487Z" fill="#033058"/>
<path d="M121.494 25.2854C122.773 25.2854 124.03 24.8509 124.809 24.0254L124.831 25.0682H127.865V8.27539H124.441V11.5558C124.441 12.5116 124.463 13.424 124.506 14.3147C123.705 13.663 122.621 13.3371 121.494 13.3371C118.396 13.3371 115.774 15.7702 115.774 19.3113C115.774 22.8523 118.396 25.2854 121.494 25.2854ZM119.197 19.3113C119.197 17.5733 120.368 16.4654 121.949 16.4654C123.509 16.4654 124.658 17.5733 124.658 19.3113C124.658 21.0492 123.509 22.1572 121.949 22.1572C120.368 22.1572 119.197 21.0492 119.197 19.3113Z" fill="#033058"/>
</g>
<defs>
<clipPath id="clip0_4165_509">
<rect width="128" height="35" fill="white"/>
</clipPath>
</defs>
</svg>
