<svg width="140" height="35" viewBox="0 0 140 35" fill="none" xmlns="http://www.w3.org/2000/svg">
<path d="M8.04932 15.5459C11.4068 15.5459 13.869 17.2348 13.869 20.7551C13.869 22.7493 13.0144 24.072 11.7121 24.7028C13.3806 25.2318 14.683 26.7783 14.683 29.3015C14.683 32.9439 12.119 34.7346 8.65978 34.7346H0.5V15.5459H8.04932ZM3.53194 23.5836H8.13072C9.69756 23.5836 10.776 22.8307 10.776 20.9383C10.776 19.1272 9.51442 18.2116 7.7034 18.2116H3.53194V23.5836ZM3.53194 32.0079H8.2935C10.1045 32.0079 11.5493 31.194 11.5493 29.1387C11.5493 27.0428 10.0842 26.2086 8.4156 26.2086H3.53194V32.0079Z" fill="#033058"/>
<path d="M19.4443 29.2411C19.6071 31.2353 20.9501 32.4969 22.9646 32.4969C24.6332 32.4969 25.732 31.805 26.0983 30.6248L28.9878 30.7876C28.4791 33.1277 26.0983 34.9998 23.046 34.9998C19.1798 34.9998 16.4124 32.4358 16.4124 28.183C16.4124 23.9098 19.1594 21.3662 22.9849 21.3662C26.7494 21.3662 29.1302 23.8487 29.1302 27.8574V29.2615H19.4443V29.2411ZM19.4646 26.9824H26.2C26.1186 25.09 25.0401 23.808 22.9239 23.808C21.0111 23.7877 19.6274 24.9272 19.4646 26.9824Z" fill="#033058"/>
<path d="M37.5545 32.2118V34.7757C37.0661 34.8571 36.5574 34.9385 35.6214 34.9385C33.0371 34.9385 31.2261 33.6565 31.2668 30.6856V17.0928H34.2173L34.197 21.5491H37.5341V24.0316H34.1766L34.1563 30.0548C34.1563 31.7641 35.1534 32.3135 36.3336 32.3135C36.8626 32.3339 37.2493 32.2525 37.5545 32.2118Z" fill="#033058"/>
<path d="M45.857 32.2118V34.7757C45.3686 34.8571 44.8599 34.9385 43.9239 34.9385C41.3396 34.9385 39.5286 33.6565 39.5693 30.6856V17.0928H42.5198L42.4995 21.5491H45.8366V24.0316H42.4791L42.4588 30.0548C42.4588 31.7641 43.4559 32.3135 44.6361 32.3135C45.1651 32.3339 45.5518 32.2525 45.857 32.2118Z" fill="#033058"/>
<path d="M50.0891 29.2411C50.2519 31.2353 51.5949 32.4969 53.6094 32.4969C55.278 32.4969 56.3768 31.805 56.743 30.6248L59.6325 30.7876C59.1238 33.1277 56.743 34.9998 53.6908 34.9998C49.8245 34.9998 47.0571 32.4358 47.0571 28.183C47.0571 23.9098 49.8042 21.3662 53.6297 21.3662C57.3942 21.3662 59.775 23.8487 59.775 27.8574V29.2615H50.0891V29.2411ZM50.1094 26.9824H56.8651C56.7837 25.09 55.7053 23.808 53.589 23.808C51.6559 23.7877 50.2722 24.9272 50.1094 26.9824Z" fill="#033058"/>
<path d="M68.5863 24.2145C66.3276 24.2145 64.9236 25.6593 64.9236 27.572V34.7347H62.0544V21.5692H64.8422V23.4209C65.3306 22.4035 66.4904 21.4268 68.5863 21.4268V24.2145Z" fill="#033058"/>
<path d="M93.9607 15.5264H91.0916V34.7151H93.9607V15.5264Z" fill="#033058"/>
<path d="M109.996 28.1626C109.996 32.3137 107.045 34.9794 103.138 34.9794C99.2108 34.9794 96.2603 32.3137 96.2603 28.1626C96.2603 23.9911 99.2108 21.3458 103.138 21.3458C107.045 21.3255 109.996 23.9708 109.996 28.1626ZM99.1904 28.1626C99.1904 30.8893 100.859 32.4968 103.138 32.4968C105.397 32.4968 107.086 30.8893 107.086 28.1626C107.086 25.4155 105.397 23.808 103.138 23.808C100.859 23.7876 99.1904 25.4155 99.1904 28.1626Z" fill="#033058"/>
<path d="M120.719 34.7145V33.0052C120.231 33.982 119.051 34.979 116.996 34.979C114.025 34.979 112.173 32.8424 112.173 29.6681V21.5693H115.042V29.2407C115.042 31.1332 115.958 32.293 117.708 32.293C119.499 32.293 120.557 30.8076 120.557 29.078V21.5693H123.426V34.7349H120.719V34.7145Z" fill="#033058"/>
<path d="M136.408 34.7151V32.8837C135.696 34.0843 134.129 34.9593 132.074 34.9593C128.411 34.9593 125.745 32.3139 125.745 28.1425C125.745 23.9303 128.411 21.3257 132.074 21.3257C134.048 21.3257 135.533 22.1193 136.245 23.1367V15.5264H139.114V34.7151H136.408ZM128.655 28.1628C128.655 30.9506 130.303 32.4971 132.521 32.4971C134.678 32.4971 136.245 31.1134 136.245 28.4884V27.7966C136.245 25.2123 134.678 23.7879 132.521 23.7879C130.303 23.7879 128.655 25.3547 128.655 28.1628Z" fill="#033058"/>
<path d="M79.9815 32.252C76.4001 32.252 73.592 29.7694 73.592 25.13C73.592 20.694 76.1763 18.008 79.9611 18.008C82.8913 18.008 85.1093 19.5951 85.7198 22.4643H88.9552C88.304 18.008 84.6209 15.2812 80.0629 15.2812C74.5484 15.2812 70.499 18.9033 70.499 25.13C70.499 31.3363 74.6094 34.9787 80.0832 34.9787C84.6413 34.9787 88.243 32.3334 88.9755 27.9788H85.6994C85.089 30.7462 82.8913 32.252 79.9815 32.252Z" fill="#033058"/>
<path d="M85.0077 10.0929C85.0484 10.1743 85.0891 10.2557 85.1298 10.3574C85.2315 10.4999 85.3129 10.6423 85.4146 10.8051C87.3071 11.2731 89.0977 11.965 90.6849 12.8806C89.6879 10.2964 88.0803 7.89525 85.9234 5.90109C82.7083 2.8488 78.3333 0.732549 73.5718 0V0.732549C75.7491 1.52614 77.8246 2.60462 79.6153 3.96797C81.8943 5.63656 83.7461 7.75281 85.0077 10.0929Z" fill="#033058"/>
<path d="M73.185 5.31112C74.9146 6.73552 76.4 8.4448 77.5396 10.3372C78.4146 10.2355 79.2895 10.1744 80.1849 10.1744C80.7546 10.1744 81.304 10.1948 81.8535 10.2355C80.9581 8.79072 79.8593 7.42737 78.5773 6.2268C75.057 2.86929 70.092 0.630944 64.781 0.142578V1.05826C65.1269 1.16001 65.4932 1.26175 65.8391 1.36349C68.5048 2.21813 71.0484 3.54079 73.185 5.31112Z" fill="#033058"/>
<path d="M67.5282 10.5821C68.22 11.3554 68.8305 12.1897 69.3392 13.0443C70.8043 12.1693 72.4322 11.4775 74.1822 10.9688C73.2665 9.50365 72.188 8.16065 70.9264 7.02113C67.1619 3.54152 62.0341 1.81189 57.1708 2.13747C52.2871 2.38165 47.668 4.66069 44.5343 8.18099C43.7407 9.05598 43.0489 10.0124 42.4384 11.0094C41.1971 9.74784 39.4472 8.97459 37.4937 8.97459C34.6245 8.97459 32.1827 10.6635 31.1653 13.0647H31.8571C32.7932 11.335 34.5431 10.1548 36.5577 10.1548C38.5722 10.1548 40.3018 11.335 41.2378 13.0647H41.4006H42.0721H42.7436C43.5169 11.6606 44.514 10.399 45.6942 9.32052C47.261 7.85542 49.1331 6.77694 51.1069 6.12579C53.0807 5.47463 55.1563 5.27115 57.1911 5.43394C61.2201 5.73917 64.9439 7.73333 67.5282 10.5821Z" fill="#033058"/>
</svg>
