<svg width="120" height="56" viewBox="0 0 120 56" fill="none" xmlns="http://www.w3.org/2000/svg">
<path d="M72.9495 31.2939C73.4995 32.0439 73.7995 32.9939 73.7995 34.0939C73.7995 35.9939 73.1995 37.4439 71.9495 38.3939C70.6995 39.3439 69.0995 39.8439 67.1495 39.8439H58.7495V20.7939H66.3995C68.4495 20.7939 70.0495 21.1939 71.1995 22.0439C72.3495 22.8939 72.8995 24.2439 72.8995 26.0439C72.8995 27.5439 72.1495 28.6939 70.6995 29.5939C71.6495 29.9939 72.3995 30.5439 72.9495 31.2939ZM63.0995 28.2939H66.5995C67.0995 28.2939 67.4995 28.1439 67.8495 27.8439C68.1995 27.5439 68.3995 27.0939 68.3995 26.4939C68.3995 25.1439 67.6995 24.4439 66.3495 24.4439H63.0995V28.2939ZM68.5995 35.6939C69.0995 35.2939 69.2995 34.6939 69.2995 33.8939C69.2995 33.0939 69.0495 32.5439 68.5495 32.1939C68.0495 31.8439 67.4495 31.6939 66.6995 31.6939H63.0995V36.2939H66.7995C67.4995 36.2939 68.0995 36.0939 68.5995 35.6939Z" fill="#033058"/>
<path d="M75.5996 20.1436H79.7496V23.4436H75.5996V20.1436ZM75.6996 25.5936H79.7496L79.7996 39.7936H75.7496V25.5936H75.6996Z" fill="#033058"/>
<path d="M93.4994 25.9938C94.5494 26.6438 95.0494 27.6438 95.0494 28.8438V39.9438C95.0494 41.9438 94.4494 43.4438 93.2494 44.5438C92.0494 45.5938 90.2994 46.1438 88.0994 46.1438C86.9494 46.1438 85.9494 46.0438 85.0494 45.8938C84.1994 45.7438 83.4994 45.4938 82.9994 45.1938V41.4438C83.4994 41.6938 84.2494 41.9438 85.1994 42.1938C86.1494 42.4438 87.0494 42.5438 87.8994 42.5438C89.0494 42.5438 89.8994 42.2938 90.3994 41.7938C90.8994 41.2938 91.0994 40.5938 91.0994 39.6938V38.8438C90.1994 39.6938 88.9994 40.0938 87.6494 40.0938C85.7494 39.9938 84.2494 39.3438 83.1994 38.1938C82.1494 36.9938 81.6494 35.2438 81.6494 32.9438C81.6494 29.9438 82.2994 27.8438 83.5994 26.6438C84.8994 25.4438 86.7994 24.8438 89.2994 24.8438C91.0494 24.9938 92.4494 25.3438 93.4994 25.9938ZM86.4494 35.9438C86.9994 36.6938 87.7494 37.0938 88.6494 37.0938C89.5494 37.0938 90.3494 36.8938 91.0994 36.4438V29.7938C91.0994 28.8438 90.3994 28.3438 88.9494 28.3438C86.7494 28.3438 85.6494 29.8438 85.6494 32.7938C85.5994 34.1438 85.8994 35.1438 86.4494 35.9438Z" fill="#033058"/>
<path d="M96.9995 20.7939H99.9995V39.7939H96.9995V20.7939Z" fill="#033058"/>
<path d="M101.949 20.7939H108.299C114.099 20.7939 116.949 23.9439 116.949 30.2939C116.949 36.6439 114.049 39.7939 108.299 39.7939H101.949V20.7939ZM107.949 37.1939C109.949 37.1939 111.449 36.6439 112.399 35.5439C113.349 34.4439 113.849 32.6939 113.849 30.3439C113.849 27.9939 113.349 26.2439 112.399 25.1439C111.449 24.0439 109.949 23.4939 107.949 23.4939H104.899V37.2439H107.949V37.1939Z" fill="#033058"/>
<path d="M7.94946 33.0951C8.44946 34.0451 8.94946 34.9451 9.49946 35.8451C12.9495 35.1951 15.6495 33.3951 17.6995 30.6951C19.1495 28.7951 21.9995 30.9951 20.5495 32.8951C18.1495 35.9951 15.1495 38.0951 11.6495 39.0451C12.0995 39.6951 12.5995 40.2951 13.0995 40.8951C15.1495 40.1451 16.6495 39.4951 17.7995 38.8951C19.4995 38.0451 21.8995 36.4451 23.8495 36.4451C24.7495 36.4451 25.7495 36.6451 26.7995 36.9951C31.6995 38.4451 35.8495 40.3451 40.8495 41.2951C41.3995 40.6451 41.9495 39.9451 42.4995 39.2451C28.5995 36.5451 18.6495 29.3451 18.6495 15.8951C18.6495 11.4451 20.3495 6.29512 26.5495 6.29512C31.5495 6.29512 33.1495 9.59512 34.4995 13.5451C37.3495 21.7451 41.0495 24.2451 49.6495 24.1951C50.7495 19.8951 51.2995 15.3451 51.1495 10.4951C49.8995 9.44512 48.2495 8.49512 46.3495 7.59512C46.7995 9.04512 47.2495 10.5451 47.6495 12.1451C48.2495 14.4451 44.7495 15.3451 44.1995 13.0451C43.5995 10.3451 42.7995 7.94512 41.9995 5.79512C40.6495 5.34512 39.2495 4.94512 37.7995 4.59512C41.7995 10.0451 40.1495 18.1451 47.2495 16.7951C49.5995 16.3451 50.2495 19.8951 47.8995 20.2951C32.9495 23.0951 42.1495 3.49512 26.4995 3.49512C17.8495 3.49512 15.9495 10.3951 15.9495 17.1451C15.9495 19.0951 16.2495 21.0951 16.2495 22.6451C16.2495 27.9451 12.9995 31.8951 7.94946 33.0951Z" fill="#033058"/>
<path d="M20.7993 48.1465C22.7493 49.5965 24.8993 50.8965 27.1493 52.0965C28.7993 51.2465 31.7493 49.3965 31.8493 49.2965C31.3493 49.0965 30.9493 48.9465 30.7493 48.8465C28.8993 48.0465 26.9993 47.0965 24.9493 46.9465C24.3993 46.8965 23.8993 46.9465 23.3493 47.0965C22.8993 47.2465 22.3993 47.4465 21.9993 47.6465C21.7493 47.7465 21.5493 47.8465 21.2993 47.9965C21.2493 47.9465 20.8493 48.1465 20.7993 48.1465Z" fill="#033058"/>
<path d="M15.5991 43.5948C16.2991 44.2948 17.0491 44.9948 17.7991 45.6948L18.2491 45.4448C19.9491 44.5948 21.9991 43.1448 23.9991 43.1448C24.8991 43.1448 26.2991 43.3448 27.2991 43.6948C30.2491 44.5948 32.7491 45.5448 35.5991 46.4448C35.9991 46.0948 36.3491 45.8448 36.7491 45.4948C37.1491 45.1448 37.7491 44.5448 37.9491 44.3448C37.5991 44.2448 34.5991 43.1948 33.8991 42.9448C32.3491 42.3948 30.8991 41.7948 29.3491 41.3448C27.8491 40.8948 26.0991 40.2448 24.5491 40.2448C22.7991 40.1448 21.2991 40.9448 19.7491 41.6948C18.2991 42.2948 16.9991 43.0448 15.5991 43.5948Z" fill="#033058"/>
<path d="M6.89949 8.0459C5.39949 8.7959 4.14949 9.6459 3.09949 10.4959C2.94949 15.3459 3.49949 19.9459 4.59949 24.2459C6.14949 23.4459 6.29949 21.8959 6.19949 18.9959C6.09949 14.9959 5.94949 11.5459 6.89949 8.0459Z" fill="#033058"/>
<path d="M15.8993 4.74609C14.3493 5.14609 12.8493 5.54609 11.4993 6.04609C10.4493 8.14609 9.99927 10.2461 9.84927 12.2461C9.34927 17.7961 11.7993 25.1461 5.74927 27.6961C5.99927 28.3961 6.24927 29.0961 6.54927 29.7461C18.3493 26.2961 7.79927 12.8461 15.8993 4.74609Z" fill="#033058"/>
<path d="M48.7997 27.8947L48.8997 27.6447H48.4997C44.0997 27.3447 40.5497 26.2447 37.6497 24.3947C35.0997 22.7447 33.4497 20.6947 32.5497 18.1447C32.2497 17.2947 31.9997 16.4947 31.7997 15.6947C30.6997 12.1447 29.9497 9.59473 26.5497 9.59473C23.2997 9.59473 21.6997 11.6947 21.6997 15.9447C22.0997 26.5947 29.7497 33.6447 44.3997 36.8947H44.4997L44.6497 36.6947L44.7497 36.5447C44.8997 36.3447 44.9997 36.0947 45.0997 35.8947C45.0997 35.8947 45.0997 35.8947 45.0997 35.8447C45.2497 35.5447 45.3997 35.2947 45.5497 34.9947C45.5997 34.8447 45.6997 34.7447 45.7497 34.5947C45.7997 34.4447 45.8997 34.2947 45.9497 34.1947L46.0497 34.0447L46.1497 33.8447L46.2497 33.5947L45.8497 33.5447C39.7497 32.4947 34.5997 30.3447 30.9497 27.4447C26.8497 24.1447 24.8997 19.6447 25.3497 14.3447C25.4497 13.3947 25.9997 13.0447 26.4997 13.0447C27.0497 13.0447 27.6997 13.4947 27.9497 14.4447C29.9997 23.0947 33.9997 28.8447 47.4497 30.8947H47.5997L47.6997 30.6447L47.7497 30.5947L47.8997 30.2447C48.0497 29.9447 48.1497 29.6447 48.2497 29.3447C48.3997 28.9947 48.4997 28.6447 48.6997 28.1947L48.7497 28.0947L48.7997 27.8947Z" fill="#033058"/>
</svg>
