<svg width="151" height="28" viewBox="0 0 151 28" fill="none" xmlns="http://www.w3.org/2000/svg">
<g clip-path="url(#clip0_3986_11702)">
<mask id="mask0_3986_11702" style="mask-type:luminance" maskUnits="userSpaceOnUse" x="0" y="0" width="151" height="28">
<path d="M150.5 0.666992H0.5V27.067H150.5V0.666992Z" fill="white"/>
</mask>
<g mask="url(#mask0_3986_11702)">
<mask id="mask1_3986_11702" style="mask-type:luminance" maskUnits="userSpaceOnUse" x="0" y="0" width="151" height="27">
<path d="M150.5 0.667969H0.5V26.7118H150.5V0.667969Z" fill="white"/>
</mask>
<g mask="url(#mask1_3986_11702)">
<path d="M44.0312 14.9993H42.3068C42.2254 14.9993 42.1442 15.0481 42.1279 15.1294C41.8025 16.2681 40.9241 16.87 39.5902 16.87C37.8333 16.87 36.7272 15.5523 36.7272 13.4376C36.7272 11.3229 37.817 10.0541 39.5902 10.0541C40.8752 10.0541 41.8025 10.6884 42.1279 11.7947C42.1442 11.8759 42.2254 11.9247 42.3068 11.9247H44.0312C44.0962 11.9247 44.145 11.8922 44.1776 11.8597C44.21 11.8109 44.2263 11.7458 44.21 11.697C43.6895 9.54974 42.014 8.31348 39.6064 8.31348C36.6946 8.31348 34.7426 10.3631 34.7426 13.4376C34.7426 16.5121 36.6946 18.5943 39.6064 18.5943C41.9489 18.5943 43.6732 17.3417 44.21 15.2433C44.21 15.227 44.2263 15.1945 44.2263 15.1782C44.21 15.0806 44.1287 14.9993 44.0312 14.9993Z" fill="#033058"/>
<path d="M50.4079 8.31435C49.1716 8.31435 48.1305 8.73728 47.431 9.48555V5.32118C47.431 5.22358 47.3497 5.12598 47.2358 5.12598H45.6416C45.544 5.12598 45.4464 5.20731 45.4464 5.32118V18.2374C45.4464 18.335 45.5277 18.4326 45.6416 18.4326H47.2358C47.3334 18.4326 47.431 18.3512 47.431 18.2374V12.9505C47.431 11.1286 48.3583 10.0712 49.9849 10.0712C51.6117 10.0712 52.4738 11.0798 52.4738 12.8366V18.2374C52.4738 18.335 52.5552 18.4326 52.6691 18.4326H54.247C54.3445 18.4326 54.4422 18.3512 54.4422 18.2374V12.6089C54.4259 10.0062 52.848 8.31435 50.4079 8.31435Z" fill="#033058"/>
<path d="M60.998 8.31348C59.7614 8.31348 58.7529 8.75268 58.1022 9.58228V8.68761C58.1022 8.59001 58.0208 8.49234 57.907 8.49234H56.3128C56.2152 8.49234 56.1176 8.57374 56.1176 8.68761V18.2527C56.1176 18.3503 56.1989 18.4479 56.3128 18.4479H57.907C58.0046 18.4479 58.1022 18.3665 58.1022 18.2527C58.1022 18.2364 58.1022 18.2201 58.0859 18.1877V13.0472C58.0859 11.1927 58.883 10.3469 60.575 10.3469H60.998C61.0952 10.3469 61.193 10.2655 61.193 10.1516V8.50861C61.1768 8.41101 61.0952 8.31348 60.998 8.31348Z" fill="#033058"/>
<path d="M69.4734 13.4533C69.4734 15.7795 67.9114 16.8206 66.3657 16.8206C65.5527 16.8206 64.8369 16.5278 64.3161 16.0072C63.7305 15.4054 63.4053 14.527 63.4215 13.437C63.4215 11.8917 64.2027 10.086 66.4311 10.086C67.944 10.1022 69.4734 11.1434 69.4734 13.4533ZM66.4473 8.3291C63.4869 8.3291 61.4043 10.4276 61.4043 13.4533C61.4043 16.479 63.4377 18.61 66.3657 18.61C69.294 18.61 71.458 16.4464 71.474 13.4533C71.49 10.4276 69.408 8.3291 66.4473 8.3291Z" fill="#033058"/>
<path d="M77.574 8.3291C76.3866 8.3291 75.378 8.75203 74.6946 9.4841V8.68703C74.6946 8.58943 74.6133 8.49183 74.5 8.49183H72.906C72.808 8.49183 72.71 8.57317 72.71 8.68703V18.2522C72.71 18.3497 72.792 18.4474 72.906 18.4474H74.5C74.5973 18.4474 74.6946 18.366 74.6946 18.2522V12.9653C74.6946 11.1434 75.622 10.086 77.2493 10.086C78.876 10.086 79.738 11.0946 79.738 12.8514V18.2684C79.738 18.366 79.8186 18.4636 79.9326 18.4636H81.5106C81.6086 18.4636 81.706 18.3823 81.706 18.2684V12.64C81.69 9.9721 80.112 8.3291 77.574 8.3291Z" fill="#033058"/>
<path d="M87.9527 10.1022C89.466 10.1022 90.9947 11.1434 90.9947 13.4533C90.9947 15.7632 89.4334 16.8206 87.888 16.8206C87.074 16.8206 86.358 16.5278 85.838 16.0072C85.2527 15.4054 84.9267 14.527 84.9434 13.437C84.9434 11.908 85.74 10.1022 87.9527 10.1022ZM87.9687 8.3291C85.008 8.3291 82.926 10.4276 82.926 13.4533C82.926 16.479 84.96 18.61 87.888 18.61C90.816 18.61 92.9794 16.4464 92.9954 13.4533C93.012 10.4276 90.946 8.3291 87.9687 8.3291Z" fill="#033058"/>
<path d="M98.3153 12.6893C97.1107 12.364 96.086 12.0712 96.086 11.1927C96.086 10.5095 96.7533 10.0541 97.762 10.0541C98.8673 10.0541 99.5833 10.6234 99.6487 11.5343C99.6487 11.6319 99.746 11.7133 99.844 11.7133H101.438C101.487 11.7133 101.536 11.697 101.585 11.6482C101.617 11.6157 101.633 11.5506 101.633 11.5018C101.519 9.53348 100.055 8.31348 97.8267 8.31348C95.598 8.31348 94.118 9.51721 94.118 11.1765C94.118 13.34 96.07 13.8605 97.6313 14.2673C98.7867 14.5763 99.7793 14.8366 99.7793 15.6174C99.7793 16.3983 99.0793 16.8375 98.0053 16.8375C96.834 16.8375 96.0213 16.2681 95.9393 15.3897C95.9233 15.2921 95.8427 15.2107 95.7447 15.2107H94.102C94.0527 15.2107 94.004 15.227 93.9553 15.2758C93.9227 15.3083 93.906 15.3734 93.906 15.4222C94.02 17.2767 95.712 18.5781 98.022 18.5781C100.185 18.5781 101.715 17.358 101.715 15.6174C101.682 13.6165 99.8113 13.096 98.3153 12.6893Z" fill="#033058"/>
<path d="M111.052 13.437C111.052 15.4379 109.8 16.8206 107.994 16.8206C106.513 16.8206 104.935 15.7632 104.935 13.4533C104.935 11.794 105.993 10.1022 107.994 10.1022C109.8 10.1022 111.052 11.4688 111.052 13.437ZM108.319 8.3291C106.725 8.3291 105.587 9.0449 104.919 9.84203V8.68703C104.919 8.58943 104.838 8.49183 104.725 8.49183H103.13C103.033 8.49183 102.935 8.57317 102.935 8.68703V22.7907C102.935 22.8883 103.016 22.9859 103.13 22.9859H104.725C104.821 22.9859 104.919 22.9046 104.919 22.7907V17.0809C105.603 17.878 106.758 18.61 108.319 18.61C111.068 18.61 113.053 16.4302 113.053 13.437C113.069 10.4276 111.117 8.3291 108.319 8.3291Z" fill="#033058"/>
<path d="M119.251 8.31435C118.014 8.31435 116.973 8.73728 116.273 9.48555V5.32118C116.273 5.22358 116.193 5.12598 116.079 5.12598H114.485C114.387 5.12598 114.289 5.20731 114.289 5.32118V18.2374C114.289 18.335 114.371 18.4326 114.485 18.4326H116.079C116.177 18.4326 116.273 18.3512 116.273 18.2374V12.9505C116.273 11.1286 117.201 10.0712 118.828 10.0712C120.455 10.0712 121.317 11.0798 121.317 12.8366V18.2374C121.317 18.335 121.398 18.4326 121.511 18.4326H123.089C123.187 18.4326 123.285 18.3512 123.285 18.2374V12.6089C123.269 10.0062 121.691 8.31435 119.251 8.31435Z" fill="#033058"/>
<path d="M129.369 10.0697C130.215 10.0697 130.979 10.3625 131.5 10.8831C131.939 11.3223 132.183 11.908 132.215 12.5912H126.571C126.799 11.0458 127.872 10.0697 129.369 10.0697ZM129.45 8.3291C126.506 8.3291 124.521 10.3788 124.521 13.4533C124.521 16.5278 126.506 18.61 129.45 18.61C131.728 18.61 133.485 17.3574 134.054 15.3566C134.07 15.2915 134.054 15.2427 134.021 15.1939C133.989 15.1451 133.924 15.1126 133.875 15.1126H132.151C132.069 15.1126 132.005 15.1614 131.971 15.2427C131.614 16.2838 130.703 16.8857 129.45 16.8857C127.856 16.8857 126.733 15.8608 126.555 14.2666H134.005C134.103 14.2666 134.184 14.1854 134.201 14.104C134.233 13.7461 134.249 13.4533 134.249 13.128C134.249 10.2812 132.281 8.3291 129.45 8.3291Z" fill="#033058"/>
<path d="M140.349 8.31348C139.113 8.31348 138.105 8.75268 137.454 9.58228V8.68761C137.454 8.59001 137.373 8.49234 137.259 8.49234H135.665C135.567 8.49234 135.469 8.57374 135.469 8.68761V18.2527C135.469 18.3503 135.551 18.4479 135.665 18.4479H137.259C137.356 18.4479 137.454 18.3665 137.454 18.2527C137.454 18.2364 137.454 18.2201 137.437 18.1877V13.0472C137.437 11.1927 138.235 10.3469 139.926 10.3469H140.349C140.447 10.3469 140.544 10.2655 140.544 10.1516V8.50861C140.544 8.41101 140.463 8.31348 140.349 8.31348Z" fill="#033058"/>
<path d="M145.637 10.0697C146.482 10.0697 147.247 10.3625 147.767 10.8831C148.206 11.3223 148.451 11.908 148.483 12.5912H142.838C143.05 11.0458 144.123 10.0697 145.637 10.0697ZM145.701 8.3291C142.757 8.3291 140.772 10.3788 140.772 13.4533C140.772 16.5278 142.757 18.61 145.701 18.61C147.979 18.61 149.736 17.3574 150.305 15.3566C150.321 15.2915 150.305 15.2427 150.273 15.1939C150.24 15.1451 150.175 15.1126 150.126 15.1126H148.402C148.32 15.1126 148.255 15.1614 148.223 15.2427C147.865 16.2838 146.954 16.8857 145.701 16.8857C144.107 16.8857 142.985 15.8608 142.806 14.2666H150.256C150.354 14.2666 150.435 14.1854 150.451 14.104C150.484 13.7461 150.5 13.4696 150.5 13.128C150.5 10.2812 148.532 8.3291 145.701 8.3291Z" fill="#033058"/>
<path fill-rule="evenodd" clip-rule="evenodd" d="M13.5137 0.667969C19.6302 0.667969 24.7707 4.89745 26.1534 10.591C25.2587 9.3221 23.7784 8.4925 22.1029 8.4925C19.37 8.4925 17.1413 10.7048 17.1413 13.454C17.1413 16.2032 19.3537 18.4155 22.1029 18.4155C23.876 18.4155 25.4213 17.4882 26.2998 16.1056C25.1773 22.1407 19.8743 26.7118 13.5137 26.7118C6.32367 26.7118 0.5 20.8882 0.5 13.698C0.5 6.5079 6.33993 0.667969 13.5137 0.667969Z" fill="#033058"/>
<path fill-rule="evenodd" clip-rule="evenodd" d="M13.904 26.6955C7.57609 25.6218 2.74475 20.2048 2.74475 13.6817C2.74475 7.15859 7.55982 1.75788 13.904 0.667969C19.8578 0.846908 24.8031 5.01132 26.1696 10.591C25.2748 9.3221 23.7945 8.4925 22.119 8.4925C19.3862 8.4925 17.1575 10.7048 17.1575 13.454C17.1575 16.2032 19.3698 18.4155 22.119 18.4155C23.8922 18.4155 25.4375 17.4882 26.316 16.1056C25.2098 22.0106 20.1019 26.5166 13.904 26.6955Z" fill="#033058"/>
<path fill-rule="evenodd" clip-rule="evenodd" d="M16.0352 26.4516C8.91017 26.3541 3.16785 20.6768 3.16785 13.6819C3.16785 6.68696 8.91017 1.00971 16.0352 0.912109C21.013 1.88814 24.9659 5.69466 26.1534 10.5911C25.2587 9.32226 23.7784 8.4926 22.1029 8.4926C19.37 8.4926 17.1414 10.705 17.1414 13.4541C17.1414 16.2033 19.3538 18.4157 22.1029 18.4157C23.876 18.4157 25.4214 17.4884 26.2998 16.1057C25.34 21.3112 21.2408 25.4431 16.0352 26.4516Z" fill="#033058"/>
<path fill-rule="evenodd" clip-rule="evenodd" d="M16.2305 1.35059C16.8324 1.35059 17.4343 1.39939 18.0199 1.48073C22.0379 2.96104 25.1287 6.37716 26.1535 10.6067C25.2588 9.33779 23.7785 8.50819 22.103 8.50819C19.37 8.50819 17.1415 10.7205 17.1415 13.4697C17.1415 16.2189 19.3538 18.4312 22.103 18.4312C23.876 18.4312 25.4215 17.5039 26.2999 16.1213C25.454 20.6597 22.2494 24.3525 18.0199 25.9303C17.4343 26.0117 16.8324 26.0605 16.2305 26.0605C9.26811 26.0605 3.62341 20.5297 3.62341 13.7299C3.62341 6.93025 9.26811 1.35059 16.2305 1.35059Z" fill="#033058"/>
<path fill-rule="evenodd" clip-rule="evenodd" d="M16.2304 1.79004C17.4992 1.79004 18.7192 1.98525 19.858 2.32685C22.965 4.06745 25.2912 7.04435 26.1534 10.6068C25.2587 9.33805 23.7784 8.50845 22.1029 8.50845C19.37 8.50845 17.1414 10.7207 17.1414 13.4698C17.1414 16.219 19.3537 18.4314 22.1029 18.4314C23.876 18.4314 25.4214 17.5042 26.2998 16.1214C25.584 19.9768 23.1602 23.2302 19.858 25.0846C18.703 25.4426 17.483 25.6215 16.2304 25.6215C9.49577 25.6215 4.04626 20.2858 4.04626 13.7139C4.04626 7.14198 9.49577 1.79004 16.2304 1.79004Z" fill="#033058"/>
<path fill-rule="evenodd" clip-rule="evenodd" d="M16.2304 2.21387C18.1662 2.21387 19.9882 2.66935 21.5986 3.48271C23.8272 5.25583 25.4702 7.74476 26.1697 10.5915C25.275 9.32263 23.7946 8.49303 22.1192 8.49303C19.3862 8.49303 17.1576 10.7054 17.1576 13.4545C17.1576 16.2036 19.37 18.416 22.1192 18.416C23.8923 18.416 25.4376 17.4888 26.3161 16.1061C25.7304 19.2456 24.0062 21.9948 21.5986 23.898C19.9882 24.7114 18.1662 25.167 16.2304 25.167C9.73976 25.167 4.48547 20.0265 4.48547 13.6986C4.48547 7.37056 9.73976 2.21387 16.2304 2.21387Z" fill="#033058"/>
<path fill-rule="evenodd" clip-rule="evenodd" d="M16.2305 2.65234C18.8658 2.65234 21.2896 3.53077 23.2091 4.99482C24.6081 6.55647 25.6492 8.476 26.1698 10.5907C25.2751 9.32187 23.7948 8.49227 22.1193 8.49227C19.3863 8.49227 17.1578 10.7046 17.1578 13.4537C17.1578 16.2029 19.3701 18.4153 22.1193 18.4153C23.8923 18.4153 25.4378 17.4881 26.3162 16.1053C25.877 18.4966 24.7708 20.6439 23.2091 22.3845C21.2896 23.8648 18.8658 24.7269 16.2305 24.7269C9.98393 24.7269 4.9248 19.7817 4.9248 13.6815C4.9248 7.58134 9.98393 2.65234 16.2305 2.65234Z" fill="#033058"/>
<path fill-rule="evenodd" clip-rule="evenodd" d="M16.2303 3.0918C19.6626 3.0918 22.7209 4.63718 24.7218 7.061C25.3724 8.15093 25.8605 9.3384 26.1696 10.6073C25.2749 9.3384 23.7946 8.5088 22.119 8.5088C19.3861 8.5088 17.1576 10.7211 17.1576 13.4703C17.1576 16.2195 19.3698 18.4318 22.119 18.4318C23.8922 18.4318 25.4376 17.5045 26.316 16.1219C26.0394 17.6347 25.4863 19.0662 24.7218 20.3351C22.7209 22.7589 19.6626 24.3042 16.2303 24.3042C10.2277 24.3042 5.34753 19.5542 5.34753 13.698C5.34753 7.84186 10.2277 3.0918 16.2303 3.0918Z" fill="#033058"/>
<path fill-rule="evenodd" clip-rule="evenodd" d="M16.2305 3.51465C20.8016 3.51465 24.6895 6.37768 26.1047 10.3631C26.121 10.4445 26.1373 10.5095 26.1698 10.5909C25.2751 9.32201 23.7948 8.49241 22.1193 8.49241C19.3864 8.49241 17.1578 10.7047 17.1578 13.4539C17.1578 16.2031 19.3701 18.4154 22.1193 18.4154C23.8924 18.4154 25.4378 17.4882 26.3162 16.1055C26.2512 16.4145 26.1861 16.7236 26.1047 17.0164C24.6895 21.0019 20.8016 23.8649 16.2305 23.8649C10.4557 23.8649 5.78699 19.3101 5.78699 13.6979C5.78699 8.08574 10.4557 3.51465 16.2305 3.51465Z" fill="#033058"/>
<path fill-rule="evenodd" clip-rule="evenodd" d="M16.2304 3.9541C20.3135 3.9541 23.811 6.32911 25.3726 9.72893C24.4942 8.96439 23.3554 8.50893 22.1192 8.50893C19.3863 8.50893 17.1577 10.7213 17.1577 13.4704C17.1577 16.2195 19.37 18.4319 22.1192 18.4319C23.5182 18.4319 24.787 17.8463 25.6817 16.9191C24.3152 20.7256 20.6063 23.4423 16.2304 23.4423C10.6996 23.4423 6.20984 19.0826 6.20984 13.6982C6.20984 8.31373 10.6996 3.9541 16.2304 3.9541Z" fill="#033058"/>
<path fill-rule="evenodd" clip-rule="evenodd" d="M16.2303 4.37695C19.8253 4.37695 22.9649 6.31275 24.6079 9.1595C23.8759 8.73657 23.03 8.49257 22.119 8.49257C19.3861 8.49257 17.1575 10.7049 17.1575 13.4541C17.1575 16.2032 19.3699 18.4156 22.119 18.4156C23.1764 18.4156 24.1524 18.0902 24.9658 17.5209C23.4692 20.758 20.1181 23.0029 16.2303 23.0029C10.9435 23.0029 6.64893 18.8385 6.64893 13.698C6.64893 8.55763 10.9435 4.37695 16.2303 4.37695Z" fill="#033058"/>
<path fill-rule="evenodd" clip-rule="evenodd" d="M16.2305 4.81641C19.4352 4.81641 22.2494 6.41059 23.8761 8.81813C23.3231 8.60667 22.7374 8.4928 22.1193 8.4928C19.3864 8.4928 17.1577 10.7051 17.1577 13.4543C17.1577 16.2035 19.3701 18.4158 22.1193 18.4158C22.8838 18.4158 23.6159 18.2369 24.2665 17.9278C22.7211 20.6932 19.6955 22.5639 16.2305 22.5639C11.1715 22.5639 7.08838 18.5947 7.08838 13.6983C7.08838 8.7856 11.1715 4.81641 16.2305 4.81641Z" fill="#033058"/>
<path fill-rule="evenodd" clip-rule="evenodd" d="M16.2304 5.25488C19.0773 5.25488 21.6149 6.57252 23.1928 8.62218C22.8512 8.54084 22.4934 8.50831 22.1192 8.50831C19.3864 8.50831 17.1577 10.7206 17.1577 13.4698C17.1577 16.219 19.3701 18.4314 22.1192 18.4314C22.6398 18.4314 23.1278 18.35 23.5996 18.2036C22.0542 20.5786 19.3375 22.1402 16.2304 22.1402C11.4154 22.1402 7.51123 18.3662 7.51123 13.6975C7.51123 9.02891 11.4154 5.25488 16.2304 5.25488Z" fill="#033058"/>
<path fill-rule="evenodd" clip-rule="evenodd" d="M16.2303 5.67871C18.7679 5.67871 21.0291 6.78488 22.5581 8.50919C22.4117 8.49292 22.2653 8.49292 22.1189 8.49292C19.3861 8.49292 17.1575 10.7053 17.1575 13.4544C17.1575 16.2036 19.3698 18.4159 22.1189 18.4159C22.4117 18.4159 22.6883 18.3834 22.9649 18.3509C21.4683 20.3843 19.0119 21.7019 16.2303 21.7019C11.6591 21.7019 7.9502 18.1231 7.9502 13.6985C7.9502 9.27372 11.6591 5.67871 16.2303 5.67871Z" fill="#033058"/>
</g>
</g>
</g>
<defs>
<clipPath id="clip0_3986_11702">
<rect width="150" height="26.6667" fill="white" transform="translate(0.5 0.666992)"/>
</clipPath>
</defs>
</svg>
