<svg width="70" height="38" viewBox="0 0 70 38" fill="none" xmlns="http://www.w3.org/2000/svg">
<g clip-path="url(#clip0_3966_196)">
<path d="M12.0515 29.4997C14.0013 29.4423 15.8984 28.853 17.5375 27.7955C19.1766 26.738 20.4955 25.2526 21.3515 23.4997L16.4515 21.4997C16.0818 22.437 15.4322 23.2374 14.5912 23.7922C13.7502 24.3469 12.7586 24.6289 11.7515 24.5997C8.2515 24.8997 6.1515 22.4997 5.9515 19.2997C5.7515 16.0997 7.5515 13.3997 11.0515 13.1997C12.0423 13.0672 13.0504 13.2231 13.9549 13.6488C14.8594 14.0744 15.622 14.7518 16.1515 15.5997L20.6515 12.8997C19.5738 11.3071 18.0831 10.0376 16.3392 9.22727C14.5952 8.41696 12.6637 8.09631 10.7515 8.29969C4.0515 8.69969 0.151497 13.6997 0.551497 19.5997C0.951497 25.4997 5.4515 29.8997 12.0515 29.4997Z" fill="#033058"/>
<path d="M21.9531 30.6996H27.2531L27.6531 0.0996094H22.3531L21.9531 30.6996Z" fill="#033058"/>
<path fill-rule="evenodd" clip-rule="evenodd" d="M42.4557 27.5995C40.9898 29.1803 38.9999 30.1753 36.8557 30.3995C32.8557 30.6995 29.8557 28.7995 29.5557 24.8995C29.2557 20.9995 33.0557 18.2995 37.5557 17.9995L41.6557 17.5995V16.8995C41.5557 14.9995 40.0557 13.9995 38.0557 14.0995C37.1818 14.1674 36.3496 14.5007 35.6704 15.0547C34.9913 15.6088 34.4977 16.3571 34.2557 17.1995L29.8557 15.3995C30.7557 11.7995 33.9557 9.59954 37.6557 9.29954C41.3557 8.99954 46.4557 11.4995 46.8557 16.4995L47.2557 21.9995V22.7995C47.2557 23.2995 47.3557 23.8995 47.3557 24.0995C47.3557 24.2995 47.4557 24.8995 47.8557 24.9995C48.0862 25.0512 48.3252 25.0512 48.5557 24.9995L49.5557 24.5995L50.9557 28.4995C49.931 29.3455 48.6779 29.8676 47.3557 29.9995C46.3826 30.121 45.3953 29.9477 44.5218 29.502C43.6482 29.0563 42.9285 28.3587 42.4557 27.4995V27.5995ZM34.9557 24.3995C35.0557 25.6995 36.3557 26.0995 37.6557 25.9995C38.9557 25.8995 42.1557 24.0995 41.9557 21.6995L37.8557 21.9995C36.2557 22.0995 34.8557 22.7995 34.9557 24.3995Z" fill="#033058"/>
<path d="M63.7516 9.5L57.2516 22.5L52.6516 8.5L46.8516 8L54.0516 29L50.1516 36.8L55.5516 37.3L69.4516 9.9L63.7516 9.5Z" fill="#033058"/>
</g>
<defs>
<clipPath id="clip0_3966_196">
<rect width="70" height="38" fill="white"/>
</clipPath>
</defs>
</svg>
