<svg width="186" height="61" viewBox="0 0 186 61" fill="none" xmlns="http://www.w3.org/2000/svg">
<path d="M0 23.1467C0.199048 22.139 0.366995 21.1189 0.597144 20.1174C2.5192 11.7698 9.72847 5.0955 18.2253 3.80168C23.0087 3.07391 27.6366 3.53421 32.0094 5.72374C34.8707 7.1544 34.8645 7.17306 34.8645 10.3205C34.8645 11.5335 34.8645 12.7526 34.8645 13.9656C34.8645 14.2019 34.8396 14.4383 34.821 14.824C33.3095 13.1943 31.686 11.9689 29.7452 11.2598C24.7939 9.45589 19.7804 8.93961 14.941 11.4899C9.72225 14.2393 7.15329 18.7427 6.98534 24.6022C6.80496 30.9344 10.6988 36.993 16.8631 38.8839C23.3446 40.8744 29.3347 39.6988 34.4478 35.0274C34.5348 34.9465 34.6281 34.8656 34.8148 34.6852C34.8334 35.0336 34.8521 35.2637 34.8521 35.4939C34.8521 37.3537 34.8148 39.2136 34.8707 41.0734C34.8894 41.795 34.6219 42.1931 34.0372 42.5601C29.9878 45.1228 25.5777 46.2363 20.7881 46.0621C12.2166 45.7449 4.21111 40.072 1.32491 32.0727C0.758871 30.5052 0.534942 28.8133 0.143066 27.1774C0.118185 27.0343 0.0559823 26.8788 0 26.7233C0 25.529 0 24.341 0 23.1467Z" fill="#E92033"/>
<path d="M158.99 60.4006C161.689 54.4665 164.389 48.5386 167.064 42.5983C167.194 42.3121 167.169 41.8581 167.032 41.5719C163.356 33.9397 159.649 26.3136 155.954 18.6876C155.575 17.9101 155.208 17.1325 154.791 16.2679H161.633C164.575 22.3887 167.536 28.5467 170.566 34.8478C170.74 34.4995 170.864 34.2693 170.97 34.0392C173.564 28.3352 176.17 22.6312 178.739 16.9148C178.994 16.3426 179.311 16.1808 179.902 16.1933C181.762 16.2306 183.622 16.2057 185.619 16.2057C178.901 31.0037 172.233 45.7022 165.558 60.4006H158.99Z" fill="#E92033"/>
<path d="M130.675 32.0175C130.345 34.9162 132.566 38.3124 135.632 39.6747C139.47 41.3728 144.415 40.7632 147.731 36.4464C149.192 37.4416 150.654 38.4431 152.16 39.4694C150.804 41.4786 149.13 43.0274 147.09 44.1906C141.467 47.3878 133.81 46.5854 129.169 42.2623C126.476 39.7493 125.07 36.5521 124.728 32.9319C124.38 29.2558 124.909 25.6978 126.756 22.4321C129.257 18.0158 133.113 15.7391 138.158 15.4344C142.431 15.1731 146.244 16.2679 149.273 19.434C151.743 22.0154 152.9 25.1877 153.285 28.6773C153.372 29.4672 153.366 30.2634 153.435 31.0534C153.497 31.8061 153.229 32.0549 152.427 32.0486C145.51 32.0175 138.593 32.03 131.676 32.03H130.675V32.0175ZM147.326 27.0413C147.003 24.0743 143.681 20.1369 138.618 20.4292C134.824 20.6531 130.998 23.813 130.837 27.0413H147.326Z" fill="#E92033"/>
<path d="M55.2731 15.3972C64.025 15.3972 70.8922 22.14 70.9171 30.7612C70.9482 39.339 64.0499 46.0942 55.2669 46.0942C46.5026 46.0942 39.5794 39.3141 39.5919 30.755C39.6105 22.1897 46.5399 15.3972 55.2731 15.4034V15.3972ZM55.2731 40.3404C60.6847 40.3404 64.6968 36.2724 64.7092 30.7612C64.7217 25.275 60.6847 21.1447 55.3104 21.1447C49.8739 21.1447 45.8059 25.2563 45.8121 30.7612C45.8121 36.2288 49.874 40.3404 55.2731 40.3404Z" fill="#E92033"/>
<path d="M90.9956 46.1087C82.1753 46.0962 75.3704 39.3286 75.4139 30.5642C75.4574 22.0549 82.617 15.2873 91.2631 15.3868C99.5734 15.4864 106.845 22.142 106.727 31.2049C106.615 39.4219 99.6231 46.1211 90.9956 46.1087ZM91.0889 21.1654C85.7022 21.1654 81.6342 25.2335 81.6279 30.6389C81.6217 36.2496 85.5716 40.3549 90.9832 40.3612C96.4508 40.3674 100.494 36.2993 100.5 30.782C100.513 25.3081 96.457 21.1717 91.0889 21.1654Z" fill="#E92033"/>
<path d="M112.934 0H119.067V45.3145H112.934V0Z" fill="#E92033"/>
</svg>
