<svg width="95" height="42" viewBox="0 0 95 42" fill="none" xmlns="http://www.w3.org/2000/svg">
<g clip-path="url(#clip0_4271_336)">
<path d="M52 23.168H54.7867V25.9281H52V23.168ZM52 27.8716H54.7867V41.6405H52V27.8716Z" fill="#01145E"/>
<path d="M57.863 23.3711H60.6498V33.6336H60.7047L64.9123 27.8726L68.1465 27.8493L63.9625 33.175L68.6881 41.6415H65.6423L62.2276 35.3751L60.6498 37.2644V41.6415H57.863V23.3711Z" fill="#01145E"/>
<path d="M77.1899 40.0305H77.1114C76.7512 40.6459 76.2299 41.1534 75.6026 41.4996C74.9754 41.8458 74.2654 42.0178 73.5475 41.9975C71.483 41.9975 70.0856 41.0567 70.0856 37.496V27.8711H72.8724V37.7526C72.8724 39.3075 73.571 39.7972 74.7642 39.7972C75.0735 39.8116 75.3822 39.7605 75.6699 39.6471C75.9574 39.5338 76.2174 39.361 76.4322 39.1402C76.647 38.9193 76.8116 38.6557 76.9152 38.3667C77.0188 38.0779 77.059 37.7704 77.0329 37.4649V27.8711H79.8274V41.6398H77.1899V40.0305Z" fill="#01145E"/>
<path d="M59.6448 16.5832H59.5978C59.3949 17.2143 58.9834 17.7595 58.4293 18.1303C57.8754 18.5013 57.2114 18.6766 56.5446 18.6279C53.295 18.6279 52 15.9379 52 11.2032C52 5.09237 54.1742 4.14387 56.2855 4.14387C56.9494 4.11348 57.6065 4.28586 58.168 4.63769C58.7296 4.98951 59.1685 5.50378 59.4252 6.11084H59.4801V0H62.29V18.2702H59.6448V16.5832ZM57.1175 6.34407C55.5477 6.34407 54.9433 7.62688 54.9433 11.3354C54.9433 14.4452 55.3593 16.4277 57.2981 16.4277C59.2368 16.4277 59.6528 14.4841 59.6528 11.5375C59.6528 8.24108 59.2682 6.34407 57.1253 6.34407" fill="#01145E"/>
<path d="M74.3464 15.4003C74.3464 15.9133 74.6604 16.372 75.0764 16.372C75.2338 16.3779 75.391 16.3542 75.5394 16.3021V18.0903C75.1114 18.2988 74.6427 18.4129 74.1659 18.4245C72.9257 18.4245 71.8975 17.9348 71.8113 16.6053H71.7563C71.4472 17.2446 70.953 17.7783 70.3365 18.1384C69.72 18.4983 69.0093 18.6684 68.2949 18.6266C66.0736 18.6266 64.6765 17.3983 64.6765 14.7394C64.6765 11.6684 66.0187 11.0309 67.9103 10.4167L70.0766 9.82582C71.0892 9.54593 71.7091 9.26604 71.7091 8.06098C71.7091 6.85591 71.2776 6.03181 69.8019 6.03181C67.9417 6.03181 67.6827 7.33793 67.6827 8.67517H65.0455C65.0455 5.75192 66.262 4.14258 69.9354 4.14258C72.3842 4.14258 74.3464 5.09107 74.3464 7.51675V15.4003ZM71.7091 10.9998C70.9793 11.5673 69.4329 11.8939 68.5696 12.2826C68.1801 12.5013 67.8645 12.8289 67.662 13.2244C67.4596 13.6199 67.3794 14.0657 67.4316 14.5061C67.4316 15.6567 67.9966 16.582 69.1583 16.582C70.8379 16.582 71.6699 15.3225 71.6699 13.3011L71.7091 10.9998Z" fill="#01145E"/>
<path d="M76.2067 4.50059H78.1219V0.613281H80.9083V4.50059H83.1846V6.54531H80.9083V14.7631C80.9083 15.836 81.2223 16.2248 82.1799 16.2248C82.5164 16.228 82.8526 16.202 83.1846 16.1469V18.1916C82.4489 18.3613 81.6949 18.4397 80.9397 18.4249C79.0481 18.4249 78.1219 17.9117 78.1219 15.0974V6.54531H76.2067V4.50059Z" fill="#01145E"/>
<path d="M93.6699 15.2809C93.6699 15.7941 93.9839 16.2527 94.3999 16.2527C94.5573 16.2586 94.7144 16.2348 94.8629 16.1828V17.9711C94.435 18.1796 93.9662 18.2937 93.4894 18.3053C92.2492 18.3053 91.221 17.8154 91.1346 16.486H91.0798C90.7707 17.1254 90.2764 17.6591 89.6601 18.0191C89.0435 18.3791 88.3328 18.5492 87.6184 18.5074C85.3972 18.5074 84 17.2791 84 14.6201C84 11.5492 85.3422 10.9116 87.2338 10.2974L89.4001 9.70657C90.4125 9.42668 91.0327 9.14679 91.0327 7.94173C91.0327 6.73666 90.5931 5.88923 89.1175 5.88923C87.2573 5.88923 86.9983 7.19537 86.9983 8.53261H84.361C84.361 5.60934 85.5776 4 89.251 4C91.6998 4 93.6621 4.94851 93.6621 7.37419L93.6699 15.2809ZM91.0404 10.8805C90.3106 11.4481 88.7643 11.7746 87.901 12.1633C87.5115 12.382 87.1958 12.7096 86.9933 13.1051C86.791 13.5006 86.7107 13.9465 86.7629 14.3869C86.7629 15.5375 87.328 16.4627 88.4896 16.4627C90.1692 16.4627 91.0012 15.2032 91.0012 13.1818L91.0404 10.8805Z" fill="#01145E"/>
<path fill-rule="evenodd" clip-rule="evenodd" d="M9.33302 3.54109C12.7865 1.23358 16.8466 0.00195312 21 0.00195312C26.5695 0.00195312 31.911 2.21444 35.8492 6.15271C39.7875 10.091 42 15.4324 42 21.0019C42 25.1553 40.7684 29.2155 38.4608 32.6689C36.1533 36.1223 32.8736 38.814 29.0364 40.4035C25.1991 41.9928 20.9767 42.4088 16.9031 41.5985C12.8295 40.7881 9.08766 38.788 6.15077 35.8511C3.21386 32.9143 1.21381 29.1725 0.403519 25.0989C-0.406771 21.0252 0.00909948 16.8029 1.59853 12.9656C3.18798 9.12834 5.8796 5.8486 9.33302 3.54109ZM21.8866 26.882H32.441V25.2486H21.8866V26.882ZM30.8156 15.0675C30.4266 12.5242 31.15 11.5753 31.15 11.5753L32.5344 9.87973L30.9788 10.3153C30.6083 9.71618 30.0453 9.2606 29.382 9.02311C28.7187 8.78561 27.9945 8.78025 27.3278 9.0079C26.6611 9.23554 26.0914 9.68273 25.712 10.2763C25.3325 10.8699 25.1658 11.5746 25.2389 12.2753L8.35333 33.0964C8.35333 33.0964 8.42333 33.3997 8.68 33.2675C8.94888 33.1204 9.62149 32.4405 11.6411 30.3989C12.7177 29.3106 14.1771 27.8353 16.1622 25.8476C18.0911 23.9186 21.3033 24.0819 21.3033 24.0819H24.5933C29.0266 24.0819 31.5311 19.8353 30.8156 15.0675ZM27.8854 10.6289C28.0233 10.5384 28.1849 10.4909 28.3499 10.4925C28.5692 10.4945 28.7789 10.5831 28.9332 10.739C29.0877 10.8948 29.1742 11.1053 29.1742 11.3247C29.1742 11.4896 29.1252 11.6508 29.0334 11.7878C28.9417 11.9249 28.8112 12.0315 28.6587 12.0943C28.5061 12.157 28.3385 12.173 28.1769 12.1403C28.0151 12.1076 27.8669 12.0275 27.7508 11.9104C27.6348 11.7932 27.5562 11.6442 27.525 11.4822C27.4937 11.3203 27.5113 11.1527 27.5754 11.0008C27.6397 10.8489 27.7476 10.7194 27.8854 10.6289Z" fill="#01145E"/>
</g>
<defs>
<clipPath id="clip0_4271_336">
<rect width="95" height="42" fill="white"/>
</clipPath>
</defs>
</svg>
