<svg width="147" height="37" viewBox="0 0 147 37" fill="none" xmlns="http://www.w3.org/2000/svg">
<path fill-rule="evenodd" clip-rule="evenodd" d="M47.574 26.3555H40.7469V10.6387H47.574C52.4917 10.6387 54.9541 13.1158 54.9541 18.0681C54.9523 23.5918 52.4917 26.3555 47.574 26.3555ZM43.664 23.8255H47.1322C50.3997 23.8255 52.0317 21.907 52.0317 18.0663C52.0317 14.797 50.3979 13.1614 47.1322 13.1614H43.664V23.8255Z" fill="#033058"/>
<path fill-rule="evenodd" clip-rule="evenodd" d="M58.0099 26.3555H55.0126L61.6991 10.6387H64.837L71.6658 26.3555H68.5279L66.5455 22.0694H61.5019L62.5041 19.5412H65.7752L63.1977 13.6378L58.0099 26.3555Z" fill="#033058"/>
<path fill-rule="evenodd" clip-rule="evenodd" d="M70.0176 10.6387H81.9668V13.165H77.4525V26.3555H74.5355V13.165H70.0176V10.6387Z" fill="#033058"/>
<path fill-rule="evenodd" clip-rule="evenodd" d="M83.467 26.3555H80.4697L87.1562 10.6387H90.294L97.1229 26.3555H93.9814L91.999 22.0694H86.9554L87.9575 19.5412H91.2287L88.653 13.6378L83.467 26.3555Z" fill="#033058"/>
<path fill-rule="evenodd" clip-rule="evenodd" d="M105.887 26.3555H99.0598V10.6387H105.887C110.808 10.6387 113.267 13.1158 113.267 18.0681C113.267 23.5918 110.808 26.3555 105.887 26.3555ZM101.979 23.8255H105.447C108.713 23.8255 110.35 21.907 110.35 18.0663C110.35 14.797 108.714 13.1614 105.447 13.1614H101.979V23.8255Z" fill="#033058"/>
<path fill-rule="evenodd" clip-rule="evenodd" d="M115.244 18.5179C115.244 13.1877 117.882 10.5244 123.154 10.5244C128.345 10.5244 130.937 13.1877 130.937 18.5179C130.937 23.8171 128.343 26.4676 123.154 26.4676C118.115 26.4676 115.479 23.8171 115.244 18.5179ZM123.154 23.9339C126.322 23.9339 127.909 22.1067 127.909 18.4485C127.909 14.8488 126.322 13.0471 123.154 13.0471C119.901 13.0471 118.274 14.8488 118.274 18.4485C118.274 22.1067 119.901 23.9339 123.154 23.9339Z" fill="#033058"/>
<path fill-rule="evenodd" clip-rule="evenodd" d="M143.114 19.9947V23.6747C142.441 23.8499 141.838 23.9376 141.307 23.9376C137.739 23.9376 135.957 22.0501 135.957 18.2769C135.957 14.7922 137.848 13.0526 141.629 13.0526C143.208 13.0526 144.675 13.3465 146.033 13.9325V11.2929C144.675 10.7818 143.133 10.5244 141.408 10.5244C135.754 10.5244 132.927 13.1074 132.927 18.2769C132.927 23.7349 135.705 26.4676 141.263 26.4676C143.175 26.4676 144.763 26.1901 146.033 25.6315V17.408H141.32L140.334 19.9928L143.114 19.9947Z" fill="#033058"/>
<path fill-rule="evenodd" clip-rule="evenodd" d="M28.9547 26.2695L25.8753 24.2397L23.3069 28.5294L20.3205 27.6568L17.6901 31.6709L17.8252 32.9341L32.1236 30.3L31.2931 21.3665L28.9547 26.2695ZM15.6201 22.4197L17.9146 22.1039C18.2852 22.2701 18.5444 22.3339 18.9898 22.4471C19.6834 22.6278 20.4848 22.8012 21.6732 22.2025C21.9488 22.0656 22.5256 21.5381 22.7574 21.2387L32.1565 19.5338L33.1149 31.1379L17.0129 34.0403L15.6201 22.4197ZM33.0783 18.2377L32.151 18.4148L30.3694 0L0 3.52122L3.7421 33.8833L7.29618 33.3667C7.01324 32.9615 6.56967 32.4705 5.81577 31.8425C4.76798 30.9736 5.13854 29.495 5.75736 28.5623C6.57332 26.9869 10.7846 24.9826 10.5454 22.4635C10.4596 21.5472 10.3136 20.3552 9.46295 19.5374C9.43192 19.8769 9.48851 20.2037 9.48851 20.2037C9.48851 20.2037 9.13985 19.7583 8.96461 19.1504C8.7912 18.9168 8.65612 18.8437 8.47175 18.5316C8.34032 18.8912 8.35857 19.3092 8.35857 19.3092C8.35857 19.3092 8.07381 18.6338 8.02635 18.0643C7.85659 18.3199 7.8146 18.8036 7.8146 18.8036C7.8146 18.8036 7.44404 17.7394 7.52801 17.1662C7.35825 16.6679 6.85626 15.6785 6.99864 13.4296C7.92595 14.0794 9.96677 13.9243 10.7608 12.7523C11.0255 12.3635 11.2062 11.3048 10.6294 9.21834C10.2588 7.88031 9.34247 5.88696 8.98469 5.12941L8.94271 5.16045C9.13073 5.77013 9.51954 7.0461 9.66922 7.66674C10.1201 9.54509 10.2406 10.1986 10.0288 11.0638C9.84811 11.8159 9.41732 12.3088 8.32207 12.86C7.22682 13.4131 5.77379 12.0678 5.68069 11.9948C4.61647 11.1478 3.79321 9.76414 3.70194 9.09239C3.60702 8.35675 4.12544 7.915 4.3883 7.31443C4.01409 7.42213 3.59607 7.61198 3.59607 7.61198C3.59607 7.61198 4.09441 7.09538 4.70957 6.64998C4.96513 6.48205 5.11299 6.37435 5.38132 6.15165C4.99251 6.14617 4.67671 6.1553 4.67671 6.1553C4.67671 6.1553 5.32474 5.80482 5.99649 5.55108C5.50545 5.52918 5.03449 5.54743 5.03449 5.54743C5.03449 5.54743 6.48022 4.90124 7.62111 4.42663C8.40604 4.10536 9.17271 4.20028 9.60351 4.82274C10.1694 5.6387 10.7626 6.08228 12.0222 6.35792C12.7962 6.01474 13.0298 5.8395 14.0009 5.57481C14.8552 4.63473 15.527 4.51242 15.527 4.51242C15.527 4.51242 15.1948 4.81727 15.1053 5.29735C15.5909 4.91584 16.1221 4.59639 16.1221 4.59639C16.1221 4.59639 15.9158 4.85013 15.7241 5.25354L15.7679 5.31926C16.3338 4.97973 16.9983 4.71322 16.9983 4.71322C16.9983 4.71322 16.8084 4.95417 16.5857 5.26449C17.0129 5.26084 17.8781 5.28275 18.2122 5.32108C20.1946 5.36489 20.6053 3.2036 21.3665 2.93344C22.3193 2.59391 22.7447 2.38764 24.3675 3.98123C25.7603 5.35029 26.8482 7.79817 26.3079 8.34762C25.8552 8.80215 24.9607 8.17055 23.9713 6.93475C23.4475 6.28125 23.0532 5.5091 22.867 4.52703C22.71 3.69829 22.1021 3.2182 22.1021 3.2182C22.1021 3.2182 22.4544 4.00496 22.4544 4.69862C22.4544 5.0783 22.5019 6.49482 23.1098 7.28888C23.0495 7.4057 23.0221 7.86388 22.9546 7.9515C22.2482 7.09721 20.7294 6.4857 20.483 6.30498C21.3208 6.99134 23.2467 8.56849 23.986 10.0799C24.6851 11.5092 24.2725 12.8199 24.6267 13.1594C24.7271 13.2562 26.1308 15.0049 26.401 15.8848C26.8719 17.4163 26.4284 19.0263 25.8132 20.0248L24.0918 20.2931C23.8399 20.2238 23.6702 20.1873 23.4438 20.0576C23.5679 19.8368 23.8162 19.2873 23.818 19.1741L23.7213 19.0044C23.1846 19.7638 22.2883 20.5012 21.5417 20.9247C20.5651 21.4778 19.4407 21.392 18.7087 21.1657C16.6295 20.525 14.6636 19.1194 14.1908 18.7507C14.1908 18.7507 14.1762 19.0445 14.2656 19.1121C14.7895 19.7035 15.9906 20.7732 17.1516 21.518L14.6782 21.79L15.8483 30.897C15.3298 30.9718 15.2495 31.0083 14.6818 31.0886C14.1816 29.3216 13.2251 28.1661 12.1792 27.4944C11.2573 26.9011 9.98502 26.7679 8.76564 27.0088L8.68715 27.1001C9.53414 27.0125 10.5345 27.1348 11.5604 27.7846C12.568 28.4217 13.3803 30.0682 13.6797 31.0594C14.063 32.3263 14.3277 33.6807 13.2963 35.1173C12.5625 36.1377 10.4231 36.7018 8.69263 35.4824C9.15446 36.2253 9.77875 36.8332 10.6184 36.9464C11.867 37.1161 13.0517 36.8989 13.8659 36.0629C14.5613 35.3473 14.9319 33.8505 14.8333 32.2751L15.934 32.1163L16.332 34.9439L34.5642 32.7479L33.0783 18.2377ZM21.9853 10.5564C21.9342 10.6732 21.8539 10.748 21.9743 11.1259L21.9816 11.1478L21.9999 11.1971L22.0492 11.3103C22.2664 11.752 22.5037 12.17 22.8998 12.3836C23.0021 12.3672 23.1098 12.3544 23.2193 12.3489C23.5917 12.3325 23.8271 12.3909 23.9768 12.4731C23.9896 12.3982 23.9933 12.2905 23.9841 12.1299C23.9549 11.5695 24.0955 10.6166 23.0185 10.1146C22.6114 9.9266 22.0419 9.98319 21.852 10.2205C21.8867 10.2241 21.9178 10.2314 21.9415 10.2406C22.2317 10.3391 22.0382 10.4377 21.9853 10.5564ZM25.0045 15.7862C24.864 15.7077 24.2032 15.7387 23.7395 15.7935C22.856 15.8975 21.9013 16.2042 21.6914 16.3667C21.3117 16.6606 21.4833 17.1735 21.7644 17.3834C22.553 17.9712 23.243 18.3673 23.9713 18.2706C24.4186 18.2122 24.8129 17.5039 25.0922 16.8595C25.2856 16.4178 25.2856 15.9413 25.0045 15.7862ZM17.179 11.25C17.4291 11.0127 15.9377 10.7024 14.7804 11.491C13.9279 12.0733 13.9005 13.3219 14.7165 14.0283C14.7986 14.0977 14.8662 14.1488 14.9282 14.1889C15.1674 14.0758 15.4394 13.9626 15.7515 13.8622C16.2809 13.6906 16.719 13.6012 17.0804 13.5555C17.2538 13.362 17.4546 13.0225 17.4035 12.4073C17.336 11.5695 16.7025 11.7027 17.179 11.25Z" fill="#033058"/>
</svg>
