<svg width="161" height="26" viewBox="0 0 161 26" fill="none" xmlns="http://www.w3.org/2000/svg">
<g clip-path="url(#clip0_3977_423)">
<path d="M23.4127 18.8466V14.563L22.9496 14.2736L11.8353 20.3517L1.29981 14.563V12.0739L11.8353 17.8047L23.4706 11.495V7.26922L23.0075 6.97979L11.8353 13.1158L1.70502 7.55866L11.8353 2.00149L19.9973 6.4588L20.6341 6.11148V5.64838L11.8353 0.84375L0.199951 7.15345V7.79021L11.8353 14.1578L22.3707 8.36908V10.9161L11.8353 16.7048L0.663048 10.5688L0.199951 10.8582V15.1419L11.8353 21.4516L22.3707 15.7207V18.2099L11.8353 23.9986L0.663048 17.9205L0.199951 18.2099V18.8466L11.8353 25.1563L23.4127 18.8466Z" fill="#033058"/>
<path fill-rule="evenodd" clip-rule="evenodd" d="M45.5257 2.11719V21.6251H42.3998V20.178C42.3998 20.0622 42.3419 19.9464 42.2261 19.9464C42.1104 19.8885 41.9946 19.9464 41.9367 20.0043C40.8368 21.2199 39.216 21.9725 37.4215 21.9725C35.5691 21.9725 33.8325 21.2199 32.559 19.9464C31.2855 18.615 30.5908 16.8205 30.5908 14.8524C30.5908 10.8581 33.601 7.73224 37.4215 7.73224C39.216 7.73224 40.8947 8.42688 41.9367 9.58463C41.9946 9.64251 42.1104 9.7004 42.2261 9.64251C42.3419 9.58463 42.3998 9.52674 42.3998 9.41096V2.11719H45.5257ZM33.7167 14.8524C33.7167 17.3415 35.627 19.2518 38.1161 19.2518C40.6053 19.2518 42.5156 17.3415 42.5156 14.8524C42.5156 12.3632 40.6053 10.4529 38.1161 10.4529C35.6849 10.4529 33.7167 12.3632 33.7167 14.8524Z" fill="#033058"/>
<path fill-rule="evenodd" clip-rule="evenodd" d="M62.0813 8.02381V21.6273H59.0133V20.1801C59.0133 20.0643 58.9554 19.9486 58.8397 19.9486C58.7239 19.8907 58.6081 19.9486 58.5502 20.0064C57.4504 21.28 55.8295 21.9746 54.035 21.9746C50.2145 21.9746 47.2043 18.8487 47.2043 14.8545C47.2043 10.8603 50.2145 7.73438 54.035 7.73438C55.8874 7.73438 57.5083 8.37113 58.5502 9.58676C58.6081 9.64465 58.7239 9.70254 58.8397 9.64465C58.9554 9.58676 59.0133 9.52888 59.0133 9.4131V8.02381H62.0813ZM50.3303 14.8545C50.3303 17.3436 52.2405 19.2539 54.7297 19.2539C57.2188 19.2539 59.1291 17.3436 59.1291 14.8545C59.1291 12.3653 57.2188 10.4551 54.7297 10.4551C52.2984 10.4551 50.3303 12.3653 50.3303 14.8545Z" fill="#033058"/>
<path fill-rule="evenodd" clip-rule="evenodd" d="M88.42 8.02381V21.6273H85.3519V20.1801C85.3519 20.0643 85.2941 19.9486 85.1783 19.9486C85.0625 19.8907 84.9467 19.9486 84.8888 20.0064C83.789 21.28 82.1682 21.9746 80.3737 21.9746C76.5531 21.9746 73.543 18.8487 73.543 14.8545C73.543 10.8603 76.5531 7.73438 80.3737 7.73438C82.226 7.73438 83.8469 8.37113 84.8888 9.58676C84.9467 9.64465 85.0625 9.70254 85.1783 9.64465C85.2941 9.58676 85.3519 9.52888 85.3519 9.4131V8.02381H88.42ZM76.6689 14.8545C76.6689 17.3436 78.5791 19.2539 81.0683 19.2539C83.5574 19.2539 85.4677 17.3436 85.4677 14.8545C85.4677 12.3653 83.5574 10.4551 81.0683 10.4551C78.5791 10.4551 76.6689 12.3653 76.6689 14.8545Z" fill="#033058"/>
<path fill-rule="evenodd" clip-rule="evenodd" d="M94.2085 20.0043C94.1507 20.0043 94.1507 20.0043 94.0928 20.0043C93.977 20.0622 93.9191 20.1201 93.9191 20.2359V21.6251H90.7932V2.11719H93.9191V9.46885C93.9191 9.58463 93.977 9.7004 94.0928 9.7004C94.2086 9.75829 94.3243 9.7004 94.3822 9.64251C95.4821 8.42688 97.1029 7.67435 98.8974 7.67435C100.75 7.67435 102.486 8.42688 103.76 9.7004C105.033 11.0318 105.728 12.8263 105.728 14.7945C105.728 18.7887 102.718 21.9146 98.8974 21.9146C97.1029 21.9146 95.4242 21.2199 94.3822 20.0622C94.3243 20.0622 94.2664 20.0043 94.2085 20.0043ZM98.2028 10.4529C95.7136 10.4529 93.8033 12.3632 93.8033 14.8524C93.8033 17.3415 95.7136 19.2518 98.2028 19.2518C100.692 19.2518 102.602 17.3415 102.602 14.8524C102.602 12.3632 100.634 10.4529 98.2028 10.4529Z" fill="#033058"/>
<path d="M114.7 10.8024C114.99 10.8024 115.279 10.8024 115.453 10.8603V7.79226C115.337 7.79226 115.164 7.73438 114.932 7.73438C113.311 7.73438 111.806 8.54479 111.054 9.81831C110.996 9.93409 110.88 9.99197 110.764 9.93409C110.648 9.8762 110.59 9.81831 110.59 9.70254V8.02381H107.522V21.6273H110.648V15.6649C110.533 12.6548 112.153 10.8024 114.7 10.8024Z" fill="#033058"/>
<path d="M120.489 8.02148H117.364V21.625H120.489V8.02148Z" fill="#033058"/>
<path d="M118.926 2.11719C117.884 2.11719 117.016 2.92761 117.016 3.96958C117.016 5.01154 117.884 5.82196 118.926 5.82196C119.968 5.82196 120.837 5.01154 120.837 3.96958C120.837 2.98549 119.968 2.11719 118.926 2.11719Z" fill="#033058"/>
<path d="M129.751 7.73438C125.468 7.73438 122.342 10.7445 122.342 14.8545C122.342 16.8805 123.094 18.675 124.426 19.9486C125.757 21.2221 127.667 21.9746 129.751 21.9746C131.488 21.9746 132.877 21.6273 135.424 19.8328L133.688 18.0383C132.414 18.8487 131.256 19.2539 130.099 19.2539C127.494 19.2539 125.526 17.3436 125.526 14.8545C125.526 12.3653 127.494 10.4551 130.099 10.4551C131.314 10.4551 132.472 10.8603 133.63 11.6707L135.598 9.8762C133.225 7.90804 131.141 7.73438 129.751 7.73438Z" fill="#033058"/>
<path d="M140.808 15.6628C140.866 15.6049 140.924 15.6049 140.982 15.6049C141.039 15.6049 141.097 15.6628 141.155 15.7207L146.133 21.683H149.954L143.529 14.1577C143.413 14.0419 143.471 13.9262 143.529 13.8104L149.433 8.07956H145.67L140.576 13C140.518 13.0579 140.403 13.1157 140.287 13.0579C140.171 13 140.113 12.9421 140.113 12.8263V2.11719H136.987V21.6251H140.113V16.3574C140.113 16.2995 140.171 16.2416 140.171 16.1838L140.808 15.6628Z" fill="#033058"/>
<path d="M155.106 21.9746C157.653 21.9746 160.258 20.4695 160.258 17.6331C160.258 15.7807 159.042 14.5072 156.553 13.6967L154.874 13.1758C153.717 12.8284 153.196 12.3075 153.196 11.5549C153.196 10.7445 153.948 10.1656 155.048 10.1656C156.09 10.1656 157.016 10.8024 157.595 11.9601L160.084 10.6866C159.158 8.83423 157.248 7.73438 155.048 7.73438C152.269 7.73438 150.243 9.47099 150.243 11.8444C150.243 13.7546 151.401 15.0282 153.775 15.7228L155.511 16.2438C156.727 16.5911 157.248 17.0542 157.248 17.8646C157.248 19.0224 156.148 19.4276 155.222 19.4276C153.948 19.4276 152.848 18.6172 152.269 17.3436L149.722 18.6172C150.533 20.7011 152.617 21.9746 155.106 21.9746Z" fill="#033058"/>
<path d="M70.7064 21.8564C71.6905 21.8564 72.5588 21.7985 73.0798 21.6827V19.0778C72.6746 19.1357 71.98 19.1936 71.5169 19.1936C70.2433 19.1936 69.3171 18.9621 69.3171 16.3571V10.8C69.3171 10.6842 69.4329 10.5684 69.6066 10.5684H72.6167V8.13716H69.6066C69.4329 8.13716 69.3171 8.02139 69.3171 7.90561V3.85352H66.2491V7.78984C66.2491 7.90561 66.1334 8.02139 65.9597 8.02139H63.8179V10.4526H65.9597C66.1334 10.4526 66.2491 10.5684 66.2491 10.6842V16.9939C66.1912 21.8564 69.4908 21.8564 70.7064 21.8564Z" fill="#033058"/>
</g>
<defs>
<clipPath id="clip0_3977_423">
<rect width="160" height="24.3126" fill="white" transform="translate(0.199951 0.84375)"/>
</clipPath>
</defs>
</svg>
