<svg width="133" height="33" viewBox="0 0 133 33" fill="none" xmlns="http://www.w3.org/2000/svg">
<path d="M0.486705 30.1879C2.12255 26.0407 2.99807 21.5018 2.99807 16.7786C2.99807 12.0554 2.13407 7.51654 0.486705 3.36934C0.406065 3.16198 0.359985 2.92006 0.359985 2.67814C0.359985 1.69894 1.12031 0.777344 2.20319 0.777344C2.89439 0.777344 3.55103 1.20358 3.81599 1.86022C5.61311 6.47974 6.61535 11.5025 6.61535 16.7786C6.61535 22.0317 5.61311 27.0775 3.81599 31.697C3.55103 32.3537 2.89439 32.7799 2.20319 32.7799C1.12031 32.7799 0.359985 31.8583 0.359985 30.8791C0.359985 30.6372 0.417585 30.4068 0.486705 30.1879Z" fill="#033058"/>
<path d="M9.10362 26.8355C9.8409 23.6099 10.2441 20.2345 10.2441 16.7785C10.2441 13.3225 9.85242 9.93565 9.10362 6.69853C9.08058 6.57181 9.04602 6.41053 9.04602 6.27229C9.04602 5.27005 9.8409 4.39453 10.8892 4.39453C11.6841 4.39453 12.3983 4.94749 12.5827 5.74237C13.4236 9.27901 13.8729 12.9769 13.8729 16.7785C13.8729 20.5801 13.4236 24.2781 12.5827 27.8147C12.3983 28.6096 11.6841 29.1625 10.8892 29.1625C9.82938 29.1625 9.04602 28.264 9.04602 27.2617C9.04602 27.1235 9.06906 26.9737 9.10362 26.8355Z" fill="#033058"/>
<path d="M17.4902 16.7786C17.4902 15.1197 17.4096 13.5069 17.2483 11.8941C17.1446 10.7882 17.9856 9.83203 19.0684 9.83203C19.99 9.83203 20.7619 10.5232 20.8425 11.4218C21.0268 13.1959 21.1075 14.9584 21.1075 16.7786C21.1075 18.5757 21.0268 20.3728 20.8425 22.1354C20.7619 23.034 20.0016 23.7252 19.0684 23.7252C17.9856 23.7252 17.1446 22.746 17.2483 21.6631C17.4096 20.0503 17.4902 18.4144 17.4902 16.7786Z" fill="#033058"/>
<path d="M28.3766 16.7785C28.3766 17.2278 28.1923 17.7001 27.8467 18.0457L26.7869 19.1055C26.545 19.3475 26.2339 19.4511 25.9459 19.4511C25.3354 19.4511 24.7363 18.9788 24.7363 18.2415V15.3385C24.7363 14.6012 25.3469 14.1289 25.9459 14.1289C26.2339 14.1289 26.5565 14.2326 26.7869 14.4745L27.8467 15.4998C28.1923 15.8223 28.3766 16.3062 28.3766 16.7785Z" fill="#033058"/>
<path d="M40.196 13.5883V25.1198H42.9378V13.5883H47.5919V11.1345H42.9493V10.2936C42.9493 9.00334 43.6059 8.2891 44.8271 8.2891H47.5458V5.80078H44.8271C41.8434 5.80078 40.2075 7.35598 40.2075 10.2936V11.1345H37.8805V13.5883H40.196Z" fill="#033058"/>
<path d="M49.2047 11.1578H51.2322L51.6585 14.0608C52.4534 12.0794 53.9855 11.0195 56.4162 11.0195H56.9231V13.6807H56.4508C53.3404 13.6807 51.958 15.2935 51.958 18.3002V25.1085H49.2047V11.1578Z" fill="#033058"/>
<path d="M73.0166 11.1579H75.1593L75.4243 13.3812C76.3804 11.7684 78.2006 10.7432 80.182 10.7432C82.0022 10.7432 83.35 11.6993 84.0412 13.3582C84.0643 13.4158 84.1219 13.4158 84.1449 13.3582C85.0435 11.7454 86.8406 10.7432 88.9257 10.7432C91.4601 10.7432 93.1766 12.644 93.1766 15.6507V25.1316H90.4348V16.3188C90.4348 14.3144 89.64 13.2084 88.1654 13.2084C86.1033 13.2084 84.4905 14.66 84.4905 16.6184V25.1432H81.7488V16.3304C81.7488 14.3259 80.9539 13.22 79.4793 13.22C77.4172 13.22 75.7814 14.8097 75.7814 16.9409V25.1547H73.0396V11.1579H73.0166Z" fill="#033058"/>
<path d="M110.871 21.583C111.954 21.583 112.749 22.3779 112.749 23.4608C112.749 24.5206 111.954 25.3385 110.871 25.3385C109.788 25.3385 108.97 24.5206 108.97 23.4608C108.97 22.3779 109.788 21.583 110.871 21.583Z" fill="#033058"/>
<path d="M112.668 11.1572H114.2C116.078 11.1572 117.057 12.2401 117.057 14.3022V25.131H114.316V14.8897C114.316 14.1294 113.97 13.7262 113.36 13.7262H112.668V11.1572Z" fill="#033058"/>
<path d="M125.813 10.7539C121.804 10.7539 118.797 13.4035 118.786 17.9885C118.786 22.2739 121.354 25.3843 125.813 25.3843C129.914 25.3843 132.84 22.6656 132.84 17.9885C132.84 13.8413 130.248 10.7539 125.813 10.7539ZM125.813 22.9305C123.394 22.9305 121.642 21.191 121.642 17.9885C121.642 15.0509 123.198 13.2077 125.813 13.2077C128.428 13.2077 129.983 15.0624 129.983 17.9885C129.983 20.8454 128.531 22.9305 125.813 22.9305Z" fill="#033058"/>
<path d="M115.122 5.68555C116.182 5.68555 116.965 6.48043 116.965 7.52875C116.965 8.55403 116.17 9.37195 115.122 9.37195C114.039 9.37195 113.244 8.55403 113.244 7.52875C113.256 6.48043 114.039 5.68555 115.122 5.68555Z" fill="#033058"/>
<path d="M70.8508 22.6431C70.2978 22.6431 70.0098 22.3206 70.0098 21.7446V16.1458C70.0098 12.7705 67.821 10.7314 64.1 10.7314C60.6095 10.7314 58.029 12.6553 57.741 15.4546H60.5634C60.8514 13.8994 61.9573 13.1622 64.0194 13.1622C66.1276 13.1622 67.268 14.0838 67.268 15.8578C67.268 16.4914 66.0815 16.6527 64.365 16.814C60.8284 17.1596 57.3724 17.5282 57.3724 21.2492C57.3608 23.6914 59.5266 25.3849 62.637 25.3849C65.494 25.3849 66.8879 24.4633 67.6021 23.0578C67.8671 24.3481 68.685 25.1199 70.1941 25.1199H71.4613V22.6431H70.8508ZM67.2565 19.3945C67.2565 21.4566 65.6668 23.0694 63.1324 23.0694C61.2546 23.0694 60.2063 22.3551 60.2063 21.0879C60.2063 19.2102 62.372 19.0028 64.4572 18.8415C66.1967 18.7148 66.8072 18.4729 67.2565 18.1042V19.3945Z" fill="#033058"/>
<path d="M98.0149 18.6111H108.498V17.701C108.498 13.4732 105.802 10.7314 101.817 10.7314C97.9343 10.7314 94.9045 13.5078 94.9045 18.2079C94.9045 22.4242 97.7269 25.5231 102.035 25.5231C105.33 25.5231 107.818 23.5417 108.452 20.558H105.63C105.157 22.1708 103.936 22.9887 102.035 22.9887C99.5586 22.9887 98.0495 21.4335 97.8882 18.7148C97.8882 18.6572 97.9458 18.6111 98.0149 18.6111ZM101.817 13.1852C103.798 13.1852 105.226 14.4294 105.538 16.4799H97.9573C98.3605 14.3718 99.7314 13.1852 101.817 13.1852Z" fill="#033058"/>
</svg>
