<svg width="149" height="26" viewBox="0 0 149 26" fill="none" xmlns="http://www.w3.org/2000/svg">
<g clip-path="url(#clip0_4180_290)">
<path fill-rule="evenodd" clip-rule="evenodd" d="M109.135 20.5007H117.017V18.3904H111.245V4.95312H109.135V20.5007ZM126.447 20.5011H128.214V10.0355H126.404V11.3706C125.5 10.4232 124.252 9.86327 122.83 9.86327C119.815 9.86327 117.403 12.2751 117.403 15.2468C117.403 18.2185 119.815 20.6733 122.83 20.6733C124.252 20.6733 125.543 20.0704 126.447 19.166V20.5011ZM122.83 11.9305C124.682 11.9305 126.146 13.438 126.146 15.2468C126.146 17.0988 124.682 18.5631 122.83 18.5631C120.978 18.5631 119.514 17.0988 119.514 15.2468C119.514 13.438 121.021 11.9305 122.83 11.9305ZM140.79 15.2465C140.79 18.2182 138.335 20.6731 135.363 20.6731C133.941 20.6731 132.65 20.0701 131.745 19.1657V20.5009H129.979V5.81457H132.047V11.1119C132.909 10.3367 134.071 9.86298 135.363 9.86298C138.335 9.81991 140.79 12.2748 140.79 15.2465ZM138.636 15.2465C138.636 13.4376 137.129 11.9302 135.32 11.9302C133.511 11.9302 132.003 13.3945 132.003 15.2465C132.003 17.0553 133.511 18.5196 135.32 18.5196C137.129 18.5196 138.636 17.0553 138.636 15.2465ZM147.034 12.3177L147.938 10.7672C147.077 10.2504 146.129 9.81973 144.923 9.90586C142.942 9.90586 141.435 11.1118 141.435 12.8345C141.435 14.6589 143.107 15.3547 144.144 15.7868L144.191 15.8062C145.655 16.3661 146.301 16.7537 146.301 17.4859C146.301 18.0888 145.828 18.7348 144.794 18.7348C143.933 18.7348 142.813 18.2611 142.21 17.9165L141.392 19.6392C142.296 20.1991 143.588 20.716 144.88 20.716C146.991 20.716 148.498 19.2086 148.498 17.4859C148.498 15.7632 147.034 14.6434 145.354 14.0404C145.292 14.0175 145.232 13.9949 145.172 13.9727C144.226 13.6205 143.502 13.351 143.502 12.6623C143.502 12.0162 144.191 11.6286 145.01 11.6286C145.828 11.6286 146.602 12.0592 147.034 12.3177Z" fill="#033058"/>
<path d="M22.3954 10.725C22.3524 10.3373 22.3093 9.86359 22.1371 9.34677C22.0078 8.82995 21.7925 8.27007 21.491 7.66712C21.1895 7.06417 20.802 6.4612 20.3282 5.85825C20.156 5.64291 19.9406 5.3845 19.6822 5.16916C20.0267 3.79098 19.2515 2.62814 19.2515 2.62814C17.9595 2.542 17.0981 3.01575 16.7966 3.27416C16.7535 3.27416 16.7104 3.23109 16.6243 3.18802C16.409 3.10189 16.1936 3.01575 15.9353 2.92962C15.6769 2.84348 15.4615 2.80041 15.2031 2.71427C14.9447 2.6712 14.6862 2.62814 14.4709 2.58506C14.4278 2.58506 14.3848 2.58506 14.3417 2.58506C13.7818 0.776204 12.1452 0.000976562 12.1452 0.000976562C10.3364 1.16382 9.99183 2.75735 9.99183 2.75735C9.99183 2.75735 9.99183 2.80041 9.99183 2.84348C9.90569 2.88654 9.77648 2.88654 9.69034 2.92962C9.56113 2.97268 9.43193 3.01575 9.25966 3.05882C9.13045 3.10189 9.00126 3.14495 8.82897 3.23109C8.57057 3.3603 8.2691 3.48949 8.01068 3.6187C7.75227 3.74791 7.49387 3.92018 7.23546 4.09246C7.19239 4.09246 7.19239 4.04938 7.19239 4.04938C4.65137 3.10189 2.41182 4.26473 2.41182 4.26473C2.19648 6.93496 3.40239 8.65768 3.6608 8.95916C3.61772 9.13143 3.53159 9.30371 3.48853 9.47598C3.31626 10.0789 3.14398 10.725 3.05785 11.371C3.05785 11.4571 3.01477 11.5433 3.01477 11.6294C0.689091 12.7922 0 15.161 0 15.161C1.93807 17.4006 4.22069 17.5297 4.22069 17.5297C4.52217 18.0466 4.82364 18.5202 5.21125 18.994C5.38352 19.1663 5.5558 19.3817 5.68501 19.5539C4.99591 21.5781 5.77114 23.2578 5.77114 23.2578C7.92454 23.344 9.3458 22.3103 9.64727 22.0519C9.86261 22.138 10.078 22.181 10.2933 22.2673C10.9393 22.4395 11.6284 22.5257 12.3175 22.5687C12.4897 22.5687 12.6621 22.5687 12.8344 22.5687H12.9205H12.9635H13.0496H13.1358C14.1694 24.033 15.9353 24.2484 15.9353 24.2484C17.2273 22.9132 17.2703 21.5781 17.2703 21.2766V21.2336V21.1905C17.5287 21.0182 17.7871 20.803 18.0456 20.5876C18.5624 20.1138 18.993 19.597 19.3807 19.0371C19.4238 18.994 19.4668 18.951 19.4668 18.8649C20.9311 18.951 21.9217 17.9605 21.9217 17.9605C21.6633 16.453 20.8019 15.7209 20.6296 15.5917H20.5866C20.5866 15.5055 20.5866 15.4193 20.5866 15.3332C20.5866 15.161 20.5866 14.9887 20.5866 14.8596V14.6442V14.6011V14.558V14.5149V14.4288V14.2997C20.5866 14.2565 20.5866 14.2135 20.5866 14.1704C20.5866 14.1274 20.5866 14.0843 20.5866 14.0412V13.912V13.7828C20.5435 13.6105 20.5435 13.4382 20.5005 13.309C20.3282 12.6631 20.1128 12.0601 19.7683 11.5002C19.4238 10.9403 19.0362 10.4665 18.5624 10.0359C18.0886 9.60519 17.5718 9.30371 17.0119 9.0453C16.452 8.78689 15.8921 8.65768 15.2892 8.57155C14.9877 8.52847 14.7293 8.52847 14.4278 8.52847H14.3417H14.2987H14.2556H14.2125H14.1264C14.0833 8.52847 14.0402 8.52847 13.9972 8.52847C13.8679 8.52847 13.6957 8.57155 13.5665 8.57155C13.0066 8.65768 12.4467 8.87303 11.9729 9.1745C11.4992 9.47598 11.0685 9.82052 10.724 10.2081C10.3794 10.5957 10.121 11.0695 9.94875 11.5433C9.77648 12.017 9.69034 12.4907 9.64727 12.9645C9.64727 13.0937 9.64727 13.1799 9.64727 13.309C9.64727 13.3521 9.64727 13.3521 9.64727 13.3952V13.4814C9.64727 13.5244 9.64727 13.6105 9.64727 13.6536C9.69034 13.8689 9.73341 14.1274 9.77648 14.3427C9.90569 14.7733 10.121 15.161 10.3364 15.5055C10.5948 15.8501 10.8962 16.1085 11.1978 16.3238C11.4992 16.5391 11.8438 16.7114 12.1883 16.7975C12.5328 16.8837 12.8344 16.9268 13.1789 16.9268C13.2219 16.9268 13.265 16.9268 13.308 16.9268H13.3511H13.3943C13.4373 16.9268 13.4804 16.9268 13.4804 16.9268C13.4804 16.9268 13.4804 16.9268 13.5234 16.9268H13.5665H13.6095C13.6526 16.9268 13.6957 16.9268 13.7388 16.9268C13.7818 16.9268 13.8249 16.9268 13.8679 16.8837C13.954 16.8837 13.9972 16.8407 14.0833 16.8407C14.2125 16.7975 14.3417 16.7545 14.4709 16.6684C14.6001 16.6253 14.6862 16.5391 14.8155 16.453C14.8585 16.453 14.8586 16.41 14.9016 16.3669C15.0308 16.2808 15.0308 16.1085 14.9447 16.0224C14.8586 15.9362 14.7293 15.8931 14.6432 15.9792C14.6001 15.9792 14.6001 16.0224 14.5571 16.0224C14.4709 16.0654 14.3848 16.1085 14.2556 16.1515C14.1694 16.1946 14.0402 16.1946 13.954 16.2376C13.911 16.2376 13.8249 16.2376 13.7818 16.2376C13.7388 16.2376 13.7388 16.2376 13.6957 16.2376C13.6526 16.2376 13.6526 16.2376 13.6095 16.2376C13.5665 16.2376 13.5665 16.2376 13.5234 16.2376C13.4804 16.2376 13.4373 16.2376 13.4373 16.2376H13.3943H13.3511C13.308 16.2376 13.3081 16.2376 13.265 16.2376C13.0066 16.1946 12.7912 16.1515 12.5328 16.0224C12.2745 15.9362 12.0591 15.764 11.8437 15.5917C11.6284 15.4193 11.4562 15.161 11.3269 14.9457C11.1978 14.7303 11.0685 14.4288 11.0254 14.1274C10.9824 13.9981 10.9824 13.8259 10.9824 13.6966C10.9824 13.6536 10.9824 13.6105 10.9824 13.5675V13.5244V13.4814C10.9824 13.3952 10.9824 13.309 11.0254 13.2229C11.1547 12.5768 11.4562 11.9739 11.9729 11.4571C12.1022 11.3279 12.2313 11.2418 12.3606 11.1125C12.4897 11.0264 12.6621 10.9403 12.7912 10.8542C12.9635 10.768 13.1358 10.725 13.265 10.6819C13.4373 10.6388 13.6095 10.5957 13.7818 10.5957C13.8679 10.5957 13.954 10.5957 14.0402 10.5957H14.0833H14.1694H14.2125H14.2987C14.4709 10.5957 14.6862 10.6388 14.8585 10.6819C15.2461 10.768 15.5906 10.8972 15.9353 11.1125C16.6243 11.5002 17.1842 12.1032 17.5718 12.7922C17.7441 13.1367 17.8733 13.5244 17.9595 13.912C17.9595 13.9981 18.0025 14.1274 18.0025 14.2135V14.2997V14.3858C18.0025 14.4288 18.0025 14.4288 18.0025 14.4719C18.0025 14.5149 18.0025 14.5149 18.0025 14.558V14.6442V14.7303C18.0025 14.7733 18.0025 14.8594 18.0025 14.9026C18.0025 15.0318 18.0025 15.1179 17.9595 15.2471C17.9595 15.3332 17.9164 15.4625 17.9164 15.5486C17.9164 15.6347 17.8732 15.764 17.8302 15.8501C17.7871 16.0654 17.701 16.2808 17.6148 16.453C17.4426 16.8407 17.2273 17.2283 16.9688 17.6158C16.452 18.305 15.763 18.9079 14.9447 19.2524C14.5571 19.4248 14.1264 19.5539 13.6957 19.64C13.4804 19.6832 13.265 19.6832 13.0496 19.7262H13.0066H12.9635H12.8774H12.7912H12.7482C12.619 19.7262 12.5328 19.7262 12.4036 19.7262C11.9299 19.6832 11.4562 19.597 11.0254 19.4678C10.5948 19.3386 10.121 19.1663 9.73342 18.951C8.91511 18.5202 8.18295 17.9173 7.58 17.1852C7.27852 16.8407 7.02011 16.453 6.84784 16.0224C6.63249 15.5917 6.46023 15.161 6.33103 14.7303C6.20182 14.2997 6.11569 13.8259 6.11569 13.3952V13.309V13.266V13.1799V12.9215V12.8783V12.7922V12.7492C6.11569 12.7061 6.11569 12.62 6.11569 12.5768C6.11569 12.3616 6.15876 12.1032 6.15876 11.8878C6.20182 11.6724 6.24489 11.414 6.28796 11.1988C6.33103 10.9834 6.37409 10.725 6.46022 10.5096C6.58943 10.0789 6.76171 9.64825 6.93398 9.21757C7.32159 8.39928 7.79534 7.66712 8.39829 7.10723C8.5275 6.97802 8.69978 6.80575 8.87205 6.67655C9.04432 6.54734 9.2166 6.41813 9.38887 6.332C9.56114 6.2028 9.7334 6.11666 9.90569 6.03053C9.99182 5.98745 10.078 5.94439 10.1641 5.90132C10.2072 5.90132 10.2502 5.85825 10.2933 5.85825C10.3364 5.85825 10.3794 5.81518 10.4225 5.81518C10.5948 5.72905 10.8101 5.68597 10.9824 5.59984C11.0254 5.59984 11.0685 5.55677 11.1116 5.55677C11.1547 5.55677 11.1978 5.5137 11.2408 5.5137C11.3269 5.47064 11.4562 5.47064 11.5423 5.42757C11.5853 5.42757 11.6284 5.3845 11.7146 5.3845C11.7576 5.3845 11.8007 5.3845 11.8868 5.34143C11.9299 5.34143 11.9729 5.34143 12.0591 5.29837H12.1452H12.2313C12.2745 5.29837 12.3175 5.29837 12.4036 5.25529C12.4467 5.25529 12.5328 5.25529 12.576 5.21223C12.619 5.21223 12.7051 5.21223 12.7482 5.21223C12.7912 5.21223 12.8344 5.21223 12.8774 5.21223H12.9635H13.0066H13.0496C13.0927 5.21223 13.1789 5.21223 13.2219 5.21223H13.308H13.3511C13.3943 5.21223 13.4373 5.21223 13.4804 5.21223C13.6957 5.21223 13.8679 5.21223 14.0833 5.21223C14.4709 5.21223 14.8585 5.25529 15.2461 5.34143C15.9783 5.47064 16.6674 5.72905 17.3134 6.03053C17.9595 6.332 18.5193 6.71961 18.993 7.15029C19.0362 7.19336 19.0362 7.19336 19.0792 7.23644C19.1223 7.2795 19.1223 7.2795 19.1653 7.32257C19.2084 7.36564 19.2945 7.40871 19.3376 7.49484C19.3807 7.58098 19.4668 7.58098 19.5099 7.66712C19.5529 7.75325 19.6391 7.79632 19.6822 7.83939C19.8975 8.05473 20.0697 8.27007 20.2421 8.52847C20.5866 8.95916 20.8881 9.43291 21.1034 9.86359C21.1034 9.90666 21.1465 9.90666 21.1465 9.94973C21.1465 9.99279 21.1895 9.99279 21.1895 10.0359C21.2326 10.0789 21.2326 10.122 21.2756 10.2081C21.3188 10.2512 21.3188 10.2943 21.3618 10.3804C21.4049 10.4235 21.4049 10.4665 21.4479 10.5527C21.5341 10.768 21.6203 10.9403 21.6633 11.1125C21.7494 11.414 21.8355 11.6724 21.8787 11.8878C21.9217 11.9739 22.0078 12.0601 22.0939 12.017C22.1801 12.017 22.2663 11.9309 22.2663 11.8447C22.4386 11.3279 22.4386 11.0264 22.3954 10.725Z" fill="url(#paint0_linear_4180_290)"/>
<path d="M22.3954 10.725C22.3524 10.3373 22.3093 9.86359 22.1371 9.34677C22.0078 8.82995 21.7925 8.27007 21.491 7.66712C21.1895 7.06417 20.802 6.4612 20.3282 5.85825C20.156 5.64291 19.9406 5.3845 19.6822 5.16916C20.0267 3.79098 19.2515 2.62814 19.2515 2.62814C17.9595 2.542 17.0981 3.01575 16.7966 3.27416C16.7535 3.27416 16.7104 3.23109 16.6243 3.18802C16.409 3.10189 16.1936 3.01575 15.9353 2.92962C15.6769 2.84348 15.4615 2.80041 15.2031 2.71427C14.9447 2.6712 14.6862 2.62814 14.4709 2.58506C14.4278 2.58506 14.3848 2.58506 14.3417 2.58506C13.7818 0.776204 12.1452 0.000976562 12.1452 0.000976562C10.3364 1.16382 9.99183 2.75735 9.99183 2.75735C9.99183 2.75735 9.99183 2.80041 9.99183 2.84348C9.90569 2.88654 9.77648 2.88654 9.69034 2.92962C9.56113 2.97268 9.43193 3.01575 9.25966 3.05882C9.13045 3.10189 9.00126 3.14495 8.82897 3.23109C8.57057 3.3603 8.2691 3.48949 8.01068 3.6187C7.75227 3.74791 7.49387 3.92018 7.23546 4.09246C7.19239 4.09246 7.19239 4.04938 7.19239 4.04938C4.65137 3.10189 2.41182 4.26473 2.41182 4.26473C2.19648 6.93496 3.40239 8.65768 3.6608 8.95916C3.61772 9.13143 3.53159 9.30371 3.48853 9.47598C3.31626 10.0789 3.14398 10.725 3.05785 11.371C3.05785 11.4571 3.01477 11.5433 3.01477 11.6294C0.689091 12.7922 0 15.161 0 15.161C1.93807 17.4006 4.22069 17.5297 4.22069 17.5297C4.52217 18.0466 4.82364 18.5202 5.21125 18.994C5.38352 19.1663 5.5558 19.3817 5.68501 19.5539C4.99591 21.5781 5.77114 23.2578 5.77114 23.2578C7.92454 23.344 9.3458 22.3103 9.64727 22.0519C9.86261 22.138 10.078 22.181 10.2933 22.2673C10.9393 22.4395 11.6284 22.5257 12.3175 22.5687C12.4897 22.5687 12.6621 22.5687 12.8344 22.5687H12.9205H12.9635H13.0496H13.1358C14.1694 24.033 15.9353 24.2484 15.9353 24.2484C17.2273 22.9132 17.2703 21.5781 17.2703 21.2766V21.2336V21.1905C17.5287 21.0182 17.7871 20.803 18.0456 20.5876C18.5624 20.1138 18.993 19.597 19.3807 19.0371C19.4238 18.994 19.4668 18.951 19.4668 18.8649C20.9311 18.951 21.9217 17.9605 21.9217 17.9605C21.6633 16.453 20.8019 15.7209 20.6296 15.5917H20.5866C20.5866 15.5055 20.5866 15.4193 20.5866 15.3332C20.5866 15.161 20.5866 14.9887 20.5866 14.8596V14.6442V14.6011V14.558V14.5149V14.4288V14.2997C20.5866 14.2565 20.5866 14.2135 20.5866 14.1704C20.5866 14.1274 20.5866 14.0843 20.5866 14.0412V13.912V13.7828C20.5435 13.6105 20.5435 13.4382 20.5005 13.309C20.3282 12.6631 20.1128 12.0601 19.7683 11.5002C19.4238 10.9403 19.0362 10.4665 18.5624 10.0359C18.0886 9.60519 17.5718 9.30371 17.0119 9.0453C16.452 8.78689 15.8921 8.65768 15.2892 8.57155C14.9877 8.52847 14.7293 8.52847 14.4278 8.52847H14.3417H14.2987H14.2556H14.2125H14.1264C14.0833 8.52847 14.0402 8.52847 13.9972 8.52847C13.8679 8.52847 13.6957 8.57155 13.5665 8.57155C13.0066 8.65768 12.4467 8.87303 11.9729 9.1745C11.4992 9.47598 11.0685 9.82052 10.724 10.2081C10.3794 10.5957 10.121 11.0695 9.94875 11.5433C9.77648 12.017 9.69034 12.4907 9.64727 12.9645C9.64727 13.0937 9.64727 13.1799 9.64727 13.309C9.64727 13.3521 9.64727 13.3521 9.64727 13.3952V13.4814C9.64727 13.5244 9.64727 13.6105 9.64727 13.6536C9.69034 13.8689 9.73341 14.1274 9.77648 14.3427C9.90569 14.7733 10.121 15.161 10.3364 15.5055C10.5948 15.8501 10.8962 16.1085 11.1978 16.3238C11.4992 16.5391 11.8438 16.7114 12.1883 16.7975C12.5328 16.8837 12.8344 16.9268 13.1789 16.9268C13.2219 16.9268 13.265 16.9268 13.308 16.9268H13.3511H13.3943C13.4373 16.9268 13.4804 16.9268 13.4804 16.9268C13.4804 16.9268 13.4804 16.9268 13.5234 16.9268H13.5665H13.6095C13.6526 16.9268 13.6957 16.9268 13.7388 16.9268C13.7818 16.9268 13.8249 16.9268 13.8679 16.8837C13.954 16.8837 13.9972 16.8407 14.0833 16.8407C14.2125 16.7975 14.3417 16.7545 14.4709 16.6684C14.6001 16.6253 14.6862 16.5391 14.8155 16.453C14.8585 16.453 14.8586 16.41 14.9016 16.3669C15.0308 16.2808 15.0308 16.1085 14.9447 16.0224C14.8586 15.9362 14.7293 15.8931 14.6432 15.9792C14.6001 15.9792 14.6001 16.0224 14.5571 16.0224C14.4709 16.0654 14.3848 16.1085 14.2556 16.1515C14.1694 16.1946 14.0402 16.1946 13.954 16.2376C13.911 16.2376 13.8249 16.2376 13.7818 16.2376C13.7388 16.2376 13.7388 16.2376 13.6957 16.2376C13.6526 16.2376 13.6526 16.2376 13.6095 16.2376C13.5665 16.2376 13.5665 16.2376 13.5234 16.2376C13.4804 16.2376 13.4373 16.2376 13.4373 16.2376H13.3943H13.3511C13.308 16.2376 13.3081 16.2376 13.265 16.2376C13.0066 16.1946 12.7912 16.1515 12.5328 16.0224C12.2745 15.9362 12.0591 15.764 11.8437 15.5917C11.6284 15.4193 11.4562 15.161 11.3269 14.9457C11.1978 14.7303 11.0685 14.4288 11.0254 14.1274C10.9824 13.9981 10.9824 13.8259 10.9824 13.6966C10.9824 13.6536 10.9824 13.6105 10.9824 13.5675V13.5244V13.4814C10.9824 13.3952 10.9824 13.309 11.0254 13.2229C11.1547 12.5768 11.4562 11.9739 11.9729 11.4571C12.1022 11.3279 12.2313 11.2418 12.3606 11.1125C12.4897 11.0264 12.6621 10.9403 12.7912 10.8542C12.9635 10.768 13.1358 10.725 13.265 10.6819C13.4373 10.6388 13.6095 10.5957 13.7818 10.5957C13.8679 10.5957 13.954 10.5957 14.0402 10.5957H14.0833H14.1694H14.2125H14.2987C14.4709 10.5957 14.6862 10.6388 14.8585 10.6819C15.2461 10.768 15.5906 10.8972 15.9353 11.1125C16.6243 11.5002 17.1842 12.1032 17.5718 12.7922C17.7441 13.1367 17.8733 13.5244 17.9595 13.912C17.9595 13.9981 18.0025 14.1274 18.0025 14.2135V14.2997V14.3858C18.0025 14.4288 18.0025 14.4288 18.0025 14.4719C18.0025 14.5149 18.0025 14.5149 18.0025 14.558V14.6442V14.7303C18.0025 14.7733 18.0025 14.8594 18.0025 14.9026C18.0025 15.0318 18.0025 15.1179 17.9595 15.2471C17.9595 15.3332 17.9164 15.4625 17.9164 15.5486C17.9164 15.6347 17.8732 15.764 17.8302 15.8501C17.7871 16.0654 17.701 16.2808 17.6148 16.453C17.4426 16.8407 17.2273 17.2283 16.9688 17.6158C16.452 18.305 15.763 18.9079 14.9447 19.2524C14.5571 19.4248 14.1264 19.5539 13.6957 19.64C13.4804 19.6832 13.265 19.6832 13.0496 19.7262H13.0066H12.9635H12.8774H12.7912H12.7482C12.619 19.7262 12.5328 19.7262 12.4036 19.7262C11.9299 19.6832 11.4562 19.597 11.0254 19.4678C10.5948 19.3386 10.121 19.1663 9.73342 18.951C8.91511 18.5202 8.18295 17.9173 7.58 17.1852C7.27852 16.8407 7.02011 16.453 6.84784 16.0224C6.63249 15.5917 6.46023 15.161 6.33103 14.7303C6.20182 14.2997 6.11569 13.8259 6.11569 13.3952V13.309V13.266V13.1799V12.9215V12.8783V12.7922V12.7492C6.11569 12.7061 6.11569 12.62 6.11569 12.5768C6.11569 12.3616 6.15876 12.1032 6.15876 11.8878C6.20182 11.6724 6.24489 11.414 6.28796 11.1988C6.33103 10.9834 6.37409 10.725 6.46022 10.5096C6.58943 10.0789 6.76171 9.64825 6.93398 9.21757C7.32159 8.39928 7.79534 7.66712 8.39829 7.10723C8.5275 6.97802 8.69978 6.80575 8.87205 6.67655C9.04432 6.54734 9.2166 6.41813 9.38887 6.332C9.56114 6.2028 9.7334 6.11666 9.90569 6.03053C9.99182 5.98745 10.078 5.94439 10.1641 5.90132C10.2072 5.90132 10.2502 5.85825 10.2933 5.85825C10.3364 5.85825 10.3794 5.81518 10.4225 5.81518C10.5948 5.72905 10.8101 5.68597 10.9824 5.59984C11.0254 5.59984 11.0685 5.55677 11.1116 5.55677C11.1547 5.55677 11.1978 5.5137 11.2408 5.5137C11.3269 5.47064 11.4562 5.47064 11.5423 5.42757C11.5853 5.42757 11.6284 5.3845 11.7146 5.3845C11.7576 5.3845 11.8007 5.3845 11.8868 5.34143C11.9299 5.34143 11.9729 5.34143 12.0591 5.29837H12.1452H12.2313C12.2745 5.29837 12.3175 5.29837 12.4036 5.25529C12.4467 5.25529 12.5328 5.25529 12.576 5.21223C12.619 5.21223 12.7051 5.21223 12.7482 5.21223C12.7912 5.21223 12.8344 5.21223 12.8774 5.21223H12.9635H13.0066H13.0496C13.0927 5.21223 13.1789 5.21223 13.2219 5.21223H13.308H13.3511C13.3943 5.21223 13.4373 5.21223 13.4804 5.21223C13.6957 5.21223 13.8679 5.21223 14.0833 5.21223C14.4709 5.21223 14.8585 5.25529 15.2461 5.34143C15.9783 5.47064 16.6674 5.72905 17.3134 6.03053C17.9595 6.332 18.5193 6.71961 18.993 7.15029C19.0362 7.19336 19.0362 7.19336 19.0792 7.23644C19.1223 7.2795 19.1223 7.2795 19.1653 7.32257C19.2084 7.36564 19.2945 7.40871 19.3376 7.49484C19.3807 7.58098 19.4668 7.58098 19.5099 7.66712C19.5529 7.75325 19.6391 7.79632 19.6822 7.83939C19.8975 8.05473 20.0697 8.27007 20.2421 8.52847C20.5866 8.95916 20.8881 9.43291 21.1034 9.86359C21.1034 9.90666 21.1465 9.90666 21.1465 9.94973C21.1465 9.99279 21.1895 9.99279 21.1895 10.0359C21.2326 10.0789 21.2326 10.122 21.2756 10.2081C21.3188 10.2512 21.3188 10.2943 21.3618 10.3804C21.4049 10.4235 21.4049 10.4665 21.4479 10.5527C21.5341 10.768 21.6203 10.9403 21.6633 11.1125C21.7494 11.414 21.8355 11.6724 21.8787 11.8878C21.9217 11.9739 22.0078 12.0601 22.0939 12.017C22.1801 12.017 22.2663 11.9309 22.2663 11.8447C22.4386 11.3279 22.4386 11.0264 22.3954 10.725Z" fill="#033058"/>
<path d="M43.3715 13.0941C43.1992 17.3148 39.883 20.631 35.7054 20.631C31.3124 20.631 28.0823 17.0994 28.0823 12.7926C28.0823 8.48579 31.6138 4.91113 35.9207 4.91113C37.8587 4.91113 39.7537 5.72943 41.3903 7.23682L40.1414 8.78727C38.8924 7.71057 37.4281 6.97841 35.9638 6.97841C32.8198 6.97841 30.2356 9.56251 30.2356 12.7496C30.2356 15.9796 32.6906 18.4776 35.7915 18.4776C38.5909 18.4776 40.7874 16.4534 41.218 13.7832H34.887V11.9312H43.4576L43.3715 13.0941Z" fill="#033058"/>
<path d="M50.6933 12.0602H49.5305C48.2385 12.0602 47.2048 13.0939 47.2048 14.386V20.5016H45.1376V10.0791H46.8603V10.9405C47.4202 10.3806 48.3246 10.0791 49.3152 10.0791H51.5548L50.6933 12.0602Z" fill="#033058"/>
<path d="M62.0625 20.501H60.2967V19.166C58.9185 20.501 56.7651 21.1471 54.5687 20.1995C52.932 19.4674 51.7261 18.003 51.4246 16.2373C50.7786 12.921 53.3627 9.90625 56.6789 9.90625C58.0571 9.90625 59.3491 10.4661 60.2536 11.3706V10.0355H62.0625V20.501ZM59.909 16.065C60.3828 13.9547 58.7892 12.0166 56.722 12.0166C54.9132 12.0166 53.4489 13.4809 53.4489 15.2898C53.4489 17.314 55.2146 18.9075 57.3249 18.5199C58.574 18.3046 59.6075 17.314 59.909 16.065Z" fill="#033058"/>
<path d="M66.2406 9.47603V10.079H69.5568V11.9309H66.2406V20.5446H64.1733V9.56217C64.1733 7.27955 65.8099 5.90137 67.8771 5.90137H70.3751L69.5568 7.8825H67.8771C66.9727 7.8825 66.2406 8.57159 66.2406 9.47603Z" fill="#033058"/>
<path d="M80.6253 20.501H78.8596V19.166C77.4814 20.501 75.3279 21.1471 73.1315 20.1995C71.4949 19.4674 70.2891 18.003 69.9876 16.2373C69.3415 12.921 71.9687 9.90625 75.2849 9.90625C76.6631 9.90625 77.9552 10.4661 78.8596 11.3706V10.0355H80.6684L80.6253 20.501ZM78.5151 16.065C78.9887 13.9547 77.3953 12.0166 75.3279 12.0166C73.5191 12.0166 72.0548 13.4809 72.0548 15.2898C72.0548 17.314 73.8206 18.9075 75.931 18.5199C77.1799 18.3046 78.2136 17.314 78.5151 16.065Z" fill="#033058"/>
<path d="M91.7801 14.3422V20.501H89.7129V14.3422C89.7129 13.0502 88.6361 12.0166 87.3871 12.0166C86.0521 12.0166 85.0184 13.0502 85.0184 14.3422V20.501H82.9512V10.0785H84.6739V10.983C85.406 10.2939 86.4396 9.90625 87.4733 9.90625C89.8851 9.90625 91.7801 11.8874 91.7801 14.3422Z" fill="#033058"/>
<path d="M104.054 20.501H102.288V19.166C100.91 20.501 98.7562 21.1471 96.5597 20.1995C94.9231 19.4674 93.7172 18.003 93.4157 16.2373C92.7696 12.921 95.3969 9.90625 98.713 9.90625C100.091 9.90625 101.383 10.4661 102.288 11.3706V10.0355H104.097L104.054 20.501ZM101.943 16.065C102.417 13.9547 100.823 12.0166 98.7561 12.0166C96.9473 12.0166 95.483 13.4809 95.483 15.2898C95.483 17.314 97.2487 18.9075 99.3591 18.5199C100.565 18.3046 101.642 17.314 101.943 16.065Z" fill="#033058"/>
</g>
<defs>
<linearGradient id="paint0_linear_4180_290" x1="11.2797" y1="30.801" x2="11.2797" y2="2.75098" gradientUnits="userSpaceOnUse">
<stop stop-color="#FFF100"/>
<stop offset="1" stop-color="#F05A28"/>
</linearGradient>
<clipPath id="clip0_4180_290">
<rect width="148.5" height="25.3" fill="white"/>
</clipPath>
</defs>
</svg>
