<svg width="163" height="37" viewBox="0 0 163 37" fill="none" xmlns="http://www.w3.org/2000/svg">
<path d="M35.2599 17.7209C35.2599 9.65663 28.5704 3.11924 20.3186 3.11924C12.0667 3.11924 5.37722 9.65663 5.37722 17.7209C5.37722 25.7851 12.0667 32.3225 20.3186 32.3225C28.5704 32.3225 35.2599 25.7851 35.2599 17.7209ZM3.65735 17.7209C3.65735 8.72836 11.1169 1.43848 20.3186 1.43848C29.5203 1.43848 36.9798 8.72836 36.9798 17.7209C36.9798 26.7134 29.5203 34.0033 20.3186 34.0033C11.1169 34.0033 3.65735 26.7134 3.65735 17.7209Z" fill="#033058"/>
<path d="M16.4335 32.2985C17.6194 30.6158 17.5353 29.353 15.9082 27.7796C14.2811 26.2066 13.334 23.9052 13.334 23.9052C13.334 23.9052 12.9802 22.5686 12.1744 22.6916C11.3686 22.8146 10.777 24.812 12.4649 26.034C14.1527 27.2555 12.1287 28.0856 11.4793 26.9383C10.8299 25.7909 9.05679 22.8413 8.13725 22.2772C7.21809 21.713 6.57087 22.0291 6.78762 23.1918C7.00437 24.3547 10.8485 27.173 10.4745 27.7829C10.1004 28.3925 8.78232 27.0662 8.78232 27.0662C8.78232 27.0662 4.65765 23.4345 3.75963 24.3809C2.86162 25.3273 4.4409 26.1203 6.69153 27.4385C8.94259 28.7564 9.11709 29.1045 8.79776 29.6032C8.47803 30.1017 3.5097 26.049 3.04304 27.7671C2.57679 29.4851 8.11352 29.9838 7.77182 31.1699C7.43011 32.3564 3.87167 28.9248 3.14386 30.2619C2.41563 31.5993 8.16521 33.1707 8.21178 33.1823C10.069 33.6485 14.7857 34.6361 16.4335 32.2985Z" fill="#FDF2E1"/>
<path d="M7.39548 20.3779C6.7031 20.3779 6.08427 20.6558 5.65276 21.1598C5.38589 21.4719 5.10706 21.9751 5.08439 22.7285C4.79401 22.647 4.51475 22.6014 4.25387 22.6014C3.59099 22.6014 2.99227 22.8497 2.56888 23.3006C2.02489 23.8793 1.78327 24.5906 1.88847 25.3022C1.93851 25.6411 2.0544 25.945 2.22761 26.2262C1.86239 26.5149 1.59339 26.9169 1.46337 27.4004C1.36159 27.7794 1.25724 28.5688 1.80208 29.382C1.76744 29.4351 1.73494 29.4902 1.70458 29.5467C1.37698 30.1542 1.35603 30.8408 1.64513 31.4802C2.08348 32.4492 3.17274 33.2127 5.28796 34.0322C6.60388 34.542 7.80775 34.8679 7.81844 34.8708C9.55815 35.3117 11.1315 35.5357 12.4936 35.5357C14.9972 35.5357 16.7895 34.7864 17.8211 33.3088C19.4812 30.9294 19.2438 28.7531 17.0958 26.6553C15.9068 25.4945 15.1165 23.7828 14.9518 23.4071C14.62 22.2947 13.7424 21.0582 12.2837 21.0582H12.2833C12.1605 21.0582 12.0364 21.0678 11.9142 21.0867C11.2752 21.1848 10.7167 21.5443 10.3177 22.085C9.88706 21.5618 9.46883 21.1456 9.09033 20.9107C8.51979 20.5572 7.94973 20.3779 7.39548 20.3779ZM7.39548 22.0495C7.61359 22.0495 7.88002 22.1401 8.1738 22.3223C9.08602 22.8877 10.8463 25.8443 11.4908 26.9942C11.7067 27.3795 12.0759 27.5425 12.4081 27.5425C13.0676 27.5425 13.5824 26.9019 12.4684 26.0878C10.7933 24.863 11.3809 22.861 12.1806 22.7377C12.2157 22.7323 12.2503 22.7298 12.2837 22.7298C13.0107 22.7298 13.3315 23.9541 13.3315 23.9541C13.3315 23.9541 14.2714 26.2609 15.8863 27.8375C17.5012 29.4146 17.5845 30.6803 16.4076 32.3669C15.6049 33.5169 14.0683 33.6669 12.4936 33.6669C10.8604 33.6669 9.18323 33.3856 8.24492 33.1478C8.19875 33.1361 2.49533 31.6661 3.21807 30.3256C3.33953 30.1003 3.53968 30.0101 3.79157 30.0101C4.80941 30.0101 6.66076 31.4902 7.45664 31.4902C7.63455 31.4902 7.76712 31.3557 7.81844 31.1752C8.17258 29.9294 2.65484 29.5471 3.118 27.825C3.19968 27.5204 3.42121 27.3967 3.73256 27.3971C5.07755 27.3971 8.09514 29.7083 8.72769 29.7083C8.77596 29.7083 8.81059 29.6946 8.82944 29.6653C9.14633 29.1655 9.00036 28.7586 6.7667 27.4377C4.53303 26.1164 2.93753 25.3796 3.82921 24.431C3.93184 24.3214 4.07725 24.273 4.25387 24.273C5.60999 24.2734 8.814 27.1225 8.814 27.1225C8.814 27.1225 9.67876 28.0013 10.2018 28.0013C10.322 28.0013 10.4242 27.9549 10.4934 27.8404C10.8642 27.2295 7.0495 24.4046 6.83439 23.2392C6.68856 22.4494 6.9366 22.0495 7.39548 22.0495Z" fill="#033058"/>
<path d="M24.1303 32.2985C22.9445 30.6158 23.0285 29.353 24.6556 27.7796C26.2827 26.2066 27.2299 23.9052 27.2299 23.9052C27.2299 23.9052 27.5836 22.5686 28.3894 22.6916C29.1952 22.8146 29.7868 24.812 28.099 26.034C26.4111 27.2555 28.4351 28.0856 29.0844 26.9383C29.7338 25.7909 31.507 22.8413 32.4266 22.2772C33.3457 21.713 33.9929 22.0291 33.7762 23.1918C33.5594 24.3547 29.7153 27.173 30.0893 27.7829C30.4633 28.3925 31.7815 27.0662 31.7815 27.0662C31.7815 27.0662 35.9062 23.4345 36.8042 24.3809C37.7022 25.3273 36.1229 26.1203 33.8723 27.4385C31.6212 28.7564 31.4467 29.1045 31.766 29.6032C32.0857 30.1017 37.0541 26.049 37.5208 27.7671C37.987 29.4851 32.4503 29.9838 32.792 31.1699C33.1337 32.3564 36.6921 28.9248 37.4199 30.2619C38.1482 31.5993 32.3986 33.1707 32.352 33.1823C30.4948 33.6485 25.7781 34.6361 24.1303 32.2985Z" fill="#FDF2E1"/>
<path d="M33.1685 20.3779C33.8609 20.3779 34.4797 20.6558 34.9112 21.1598C35.1781 21.4719 35.4569 21.9751 35.4796 22.7285C35.7699 22.647 36.0492 22.6014 36.3101 22.6014C36.9729 22.6014 37.5717 22.8497 37.995 23.3006C38.5391 23.8793 38.7807 24.5906 38.6755 25.3022C38.6255 25.6411 38.5096 25.945 38.3363 26.2262C38.7016 26.5149 38.9706 26.9169 39.1006 27.4004C39.2024 27.7794 39.3067 28.5688 38.7619 29.382C38.7965 29.4351 38.829 29.4902 38.8594 29.5467C39.187 30.1542 39.2079 30.8408 38.9188 31.4802C38.4805 32.4492 37.3913 33.2127 35.276 34.0322C33.9601 34.542 32.7562 34.8679 32.7455 34.8708C31.0058 35.3117 29.4324 35.5357 28.0703 35.5357C25.5668 35.5357 23.7744 34.7864 22.743 33.3088C21.0828 30.9294 21.3201 28.7531 23.4683 26.6553C24.6571 25.4945 25.4474 23.7828 25.6121 23.4071C25.9439 22.2947 26.8215 21.0582 28.2803 21.0582H28.2807C28.4035 21.0582 28.5275 21.0678 28.6498 21.0867C29.2887 21.1848 29.8472 21.5443 30.2463 22.085C30.677 21.5618 31.0952 21.1456 31.4737 20.9107C32.0441 20.5572 32.6142 20.3779 33.1685 20.3779ZM33.1685 22.0495C32.9504 22.0495 32.6839 22.1401 32.3901 22.3223C31.4779 22.8877 29.7177 25.8443 29.0732 26.9942C28.8572 27.3795 28.4882 27.5425 28.1558 27.5425C27.4964 27.5425 26.9815 26.9019 28.0955 26.0878C29.7707 24.863 29.1831 22.861 28.3834 22.7377C28.3483 22.7323 28.3137 22.7298 28.2803 22.7298C27.5533 22.7298 27.2326 23.9541 27.2326 23.9541C27.2326 23.9541 26.2925 26.2608 24.6777 27.8375C23.0628 29.4146 22.9794 30.6803 24.1563 32.3669C24.9591 33.5169 26.4956 33.6669 28.0703 33.6669C29.7035 33.6669 31.3807 33.3856 32.319 33.1478C32.3652 33.1361 38.0687 31.6661 37.3459 30.3256C37.2244 30.1003 37.0243 30.0101 36.7724 30.0101C35.7546 30.0101 33.9032 31.4902 33.1073 31.4902C32.9294 31.4902 32.7968 31.3557 32.7455 31.1752C32.3914 29.9294 37.9091 29.5471 37.446 27.825C37.3643 27.5204 37.1427 27.3967 36.8314 27.3971C35.4864 27.3971 32.4688 29.7083 31.8363 29.7083C31.788 29.7083 31.7533 29.6946 31.7345 29.6653C31.4176 29.1655 31.5636 28.7586 33.7972 27.4377C36.031 26.1164 37.6265 25.3796 36.7347 24.431C36.6322 24.3214 36.4867 24.273 36.3101 24.273C34.954 24.2734 31.7499 27.1225 31.7499 27.1225C31.7499 27.1225 30.8852 28.0013 30.3622 28.0013C30.242 28.0013 30.1398 27.9549 30.0705 27.8404C29.6997 27.2295 33.5145 24.4046 33.7296 23.2392C33.8754 22.4494 33.6274 22.0495 33.1685 22.0495Z" fill="#033058"/>
<path d="M25.949 18.2923C25.949 16.4011 23.4545 19.2834 20.3703 19.2963C17.2863 19.2836 14.7919 16.4013 14.7919 18.2923C14.7919 19.5461 15.402 21.5853 17.0406 22.8226C17.3667 21.7194 19.1584 20.8357 19.4145 20.9626C19.7792 21.1433 19.7587 21.6441 20.3703 22.0853C20.982 21.6441 20.9615 21.1435 21.3262 20.9626C21.5824 20.8357 23.3739 21.7194 23.6999 22.8226C25.3386 21.5853 25.9488 19.5461 25.9488 18.2924L25.949 18.2923Z" fill="#033058"/>
<path d="M30.3154 15.6634C31.0785 15.6634 31.697 15.0551 31.697 14.3048C31.697 13.5545 31.0785 12.9463 30.3154 12.9463C29.5523 12.9463 28.9337 13.5545 28.9337 14.3048C28.9337 15.0551 29.5523 15.6634 30.3154 15.6634Z" fill="#033058"/>
<path d="M10.4031 15.6634C11.1662 15.6634 11.7848 15.0551 11.7848 14.3048C11.7848 13.5545 11.1662 12.9463 10.4031 12.9463C9.64006 12.9463 9.02148 13.5545 9.02148 14.3048C9.02148 15.0551 9.64006 15.6634 10.4031 15.6634Z" fill="#033058"/>
<path d="M25.4438 13.7126C25.9912 13.9022 26.2091 15.0059 26.7621 14.7175C27.8094 14.1714 28.2071 12.896 27.6502 11.8688C27.0933 10.8417 25.7928 10.4518 24.7454 10.9979C23.698 11.5441 23.3004 12.8194 23.8573 13.8465C24.1201 14.3314 24.9544 13.5431 25.4438 13.7126Z" fill="#033058"/>
<path d="M15.3246 13.7126C14.7772 13.9022 14.5594 15.0059 14.0064 14.7175C12.959 14.1714 12.5614 12.896 13.1183 11.8688C13.6752 10.8417 14.9757 10.4518 16.023 10.9979C17.0704 11.5441 17.468 12.8194 16.9111 13.8465C16.6483 14.3314 15.814 13.5431 15.3246 13.7126Z" fill="#033058"/>
<path d="M46.0554 24.334V11.8644H49.3871V16.5069H53.1451V11.8644H56.4768V24.334H53.1451V19.3845H49.3871V24.334H46.0554ZM61.9322 24.5641C60.8733 24.5641 60.1049 24.2125 59.6271 23.5091C59.1493 22.7928 58.9105 21.84 58.9105 20.6506V14.742H62.2422V20.2286C62.2422 20.8426 62.3197 21.2517 62.4746 21.4563C62.6425 21.6609 62.8879 21.7633 63.2108 21.7633C63.5206 21.7633 63.7789 21.6993 63.9856 21.5715C64.1922 21.4436 64.3988 21.2261 64.6055 20.9192V14.742H67.9372V24.334H65.2252L64.9928 23.0679H64.9152C64.5279 23.5283 64.0953 23.8928 63.6175 24.1614C63.1527 24.43 62.5909 24.5641 61.9322 24.5641ZM73.7119 28.2859C72.9759 28.2859 72.2978 28.2028 71.6779 28.0365C71.0582 27.883 70.561 27.6336 70.1865 27.2882C69.8248 26.9431 69.6442 26.4825 69.6442 25.907C69.6442 25.1525 70.096 24.5386 71.0001 24.0654V23.9886C70.7525 23.8073 70.5365 23.5869 70.3608 23.3365C70.1929 23.0679 70.109 22.7352 70.109 22.3388C70.109 22.0063 70.2059 21.6801 70.3996 21.3605C70.6062 21.0407 70.871 20.7658 71.1937 20.5356V20.4588C70.845 20.2286 70.5353 19.9025 70.2641 19.4803C70.0057 19.0455 69.8766 18.5531 69.8766 18.0033C69.8766 17.2102 70.0702 16.5581 70.4577 16.0465C70.858 15.522 71.3746 15.1385 72.0073 14.8954C72.6402 14.6397 73.3116 14.5117 74.0219 14.5117C74.59 14.5117 75.1066 14.5885 75.5714 14.742H79.1745V17.1208H77.7798C77.8184 17.236 77.8508 17.383 77.8765 17.5619C77.9153 17.741 77.9347 17.9265 77.9347 18.1183C77.9347 18.8729 77.7604 19.4868 77.4117 19.9601C77.063 20.4204 76.5918 20.7594 75.9977 20.9768C75.4035 21.1943 74.7451 21.3029 74.0219 21.3029C73.6991 21.3029 73.3374 21.2582 72.9371 21.1685C72.7821 21.3092 72.7047 21.4947 72.7047 21.7249C72.7047 21.9295 72.808 22.0766 73.0147 22.1662C73.2341 22.2557 73.5828 22.3004 74.0606 22.3004H75.5134C76.7273 22.3004 77.6635 22.4987 78.3222 22.8951C78.9936 23.2789 79.3294 23.9118 79.3294 24.7943C79.3294 25.485 79.0969 26.0924 78.6321 26.6169C78.1801 27.1412 77.5344 27.5505 76.6949 27.8446C75.8556 28.1389 74.8612 28.2859 73.7119 28.2859ZM74.0219 19.3461C74.3318 19.3461 74.5836 19.2375 74.7772 19.02C74.9711 18.8027 75.0678 18.4636 75.0678 18.0033C75.0678 17.5556 74.9711 17.2294 74.7772 17.0248C74.5836 16.8075 74.3318 16.6988 74.0219 16.6988C73.7119 16.6988 73.4601 16.8075 73.2665 17.0248C73.0726 17.2294 72.9759 17.5556 72.9759 18.0033C72.9759 18.4636 73.0726 18.8027 73.2665 19.02C73.4601 19.2375 73.7119 19.3461 74.0219 19.3461ZM74.2543 26.2524C74.7966 26.2524 75.2487 26.1692 75.6102 26.003C75.9719 25.8494 76.1525 25.6384 76.1525 25.3699C76.1525 25.1141 76.0364 24.9542 75.804 24.8903C75.5844 24.8264 75.268 24.7943 74.8548 24.7943H74.0994C73.7119 24.7943 73.4149 24.7816 73.2083 24.7559C73.0147 24.7433 72.8468 24.7177 72.7047 24.6793C72.4723 24.9095 72.356 25.1397 72.356 25.3699C72.356 25.6768 72.5303 25.9007 72.879 26.0414C73.2407 26.1821 73.6991 26.2524 74.2543 26.2524ZM84.2863 28.2859C83.5501 28.2859 82.8723 28.2028 82.2524 28.0365C81.6325 27.883 81.1353 27.6336 80.7608 27.2882C80.3993 26.9431 80.2184 26.4825 80.2184 25.907C80.2184 25.1525 80.6705 24.5386 81.5743 24.0654V23.9886C81.3267 23.8073 81.1108 23.5869 80.9352 23.3365C80.7672 23.0679 80.6833 22.7352 80.6833 22.3388C80.6833 22.0063 80.7802 21.6801 80.9738 21.3605C81.1804 21.0407 81.4452 20.7658 81.7682 20.5356V20.4588C81.4195 20.2286 81.1095 19.9025 80.8383 19.4803C80.5799 19.0455 80.4508 18.5531 80.4508 18.0033C80.4508 17.2102 80.6447 16.5581 81.032 16.0465C81.4323 15.522 81.9488 15.1385 82.5817 14.8954C83.2144 14.6397 83.8859 14.5117 84.5961 14.5117C85.1644 14.5117 85.681 14.5885 86.1458 14.742H89.7487V17.1208H88.354C88.3928 17.236 88.425 17.383 88.451 17.5619C88.4895 17.741 88.5089 17.9265 88.5089 18.1183C88.5089 18.8729 88.3347 19.4868 87.9859 19.9601C87.6374 20.4204 87.166 20.7594 86.5719 20.9768C85.978 21.1943 85.3193 21.3029 84.5961 21.3029C84.2733 21.3029 83.9118 21.2582 83.5114 21.1685C83.3565 21.3092 83.279 21.4947 83.279 21.7249C83.279 21.9295 83.3823 22.0766 83.5889 22.1662C83.8085 22.2557 84.157 22.3004 84.6349 22.3004H86.0877C87.3015 22.3004 88.2377 22.4987 88.8964 22.8951C89.5679 23.2789 89.9036 23.9118 89.9036 24.7943C89.9036 25.485 89.6712 26.0924 89.2064 26.6169C88.7543 27.1412 88.1087 27.5505 87.2693 27.8446C86.43 28.1389 85.4356 28.2859 84.2863 28.2859ZM84.5961 19.3461C84.906 19.3461 85.1578 19.2375 85.3517 19.02C85.5453 18.8027 85.6422 18.4636 85.6422 18.0033C85.6422 17.5556 85.5453 17.2294 85.3517 17.0248C85.1578 16.8075 84.906 16.6988 84.5961 16.6988C84.2863 16.6988 84.0343 16.8075 83.8407 17.0248C83.647 17.2294 83.5501 17.5556 83.5501 18.0033C83.5501 18.4636 83.647 18.8027 83.8407 19.02C84.0343 19.2375 84.2863 19.3461 84.5961 19.3461ZM84.8287 26.2524C85.3711 26.2524 85.8229 26.1692 86.1846 26.003C86.5461 25.8494 86.727 25.6384 86.727 25.3699C86.727 25.1141 86.6107 24.9542 86.3782 24.8903C86.1588 24.8264 85.8423 24.7943 85.429 24.7943H84.6736C84.2863 24.7943 83.9892 24.7816 83.7825 24.7559C83.5889 24.7433 83.421 24.7177 83.279 24.6793C83.0465 24.9095 82.9302 25.1397 82.9302 25.3699C82.9302 25.6768 83.1047 25.9007 83.4534 26.0414C83.8149 26.1821 84.2733 26.2524 84.8287 26.2524ZM91.3352 24.334V14.742H94.6669V24.334H91.3352ZM93.0011 13.5526C92.4587 13.5526 92.0195 13.4055 91.6838 13.1114C91.348 12.8044 91.1801 12.4015 91.1801 11.9027C91.1801 11.404 91.348 11.0074 91.6838 10.7133C92.0195 10.4063 92.4587 10.2529 93.0011 10.2529C93.5434 10.2529 93.9825 10.4063 94.3182 10.7133C94.6539 11.0074 94.8218 11.404 94.8218 11.9027C94.8218 12.4015 94.6539 12.8044 94.3182 13.1114C93.9825 13.4055 93.5434 13.5526 93.0011 13.5526ZM96.9156 24.334V14.742H99.6274L99.8598 15.8929H99.9373C100.325 15.522 100.764 15.2024 101.254 14.9338C101.758 14.6524 102.339 14.5117 102.998 14.5117C104.07 14.5117 104.838 14.8699 105.303 15.5861C105.781 16.2895 106.02 17.236 106.02 18.4252V24.334H102.688V18.8474C102.688 18.2335 102.61 17.8242 102.455 17.6195C102.3 17.4149 102.055 17.3126 101.719 17.3126C101.41 17.3126 101.151 17.3765 100.945 17.5045C100.738 17.6324 100.505 17.8115 100.247 18.0417V24.334H96.9156ZM111.715 28.2859C110.979 28.2859 110.301 28.2028 109.681 28.0365C109.061 27.883 108.564 27.6336 108.19 27.2882C107.828 26.9431 107.647 26.4825 107.647 25.907C107.647 25.1525 108.099 24.5386 109.003 24.0654V23.9886C108.756 23.8073 108.54 23.5869 108.364 23.3365C108.196 23.0679 108.112 22.7352 108.112 22.3388C108.112 22.0063 108.209 21.6801 108.403 21.3605C108.609 21.0407 108.874 20.7658 109.197 20.5356V20.4588C108.848 20.2286 108.538 19.9025 108.267 19.4803C108.009 19.0455 107.88 18.5531 107.88 18.0033C107.88 17.2102 108.073 16.5581 108.461 16.0465C108.861 15.522 109.378 15.1385 110.011 14.8954C110.643 14.6397 111.315 14.5117 112.025 14.5117C112.593 14.5117 113.11 14.5885 113.575 14.742H117.178V17.1208H115.783C115.822 17.236 115.854 17.383 115.88 17.5619C115.919 17.741 115.938 17.9265 115.938 18.1183C115.938 18.8729 115.764 19.4868 115.415 19.9601C115.066 20.4204 114.595 20.7594 114.001 20.9768C113.407 21.1943 112.748 21.3029 112.025 21.3029C111.702 21.3029 111.341 21.2582 110.94 21.1685C110.785 21.3092 110.708 21.4947 110.708 21.7249C110.708 21.9295 110.811 22.0766 111.018 22.1662C111.237 22.2557 111.586 22.3004 112.064 22.3004H113.517C114.731 22.3004 115.667 22.4987 116.325 22.8951C116.997 23.2789 117.333 23.9118 117.333 24.7943C117.333 25.485 117.1 26.0924 116.635 26.6169C116.183 27.1412 115.538 27.5505 114.698 27.8446C113.859 28.1389 112.864 28.2859 111.715 28.2859ZM112.025 19.3461C112.335 19.3461 112.587 19.2375 112.78 19.02C112.974 18.8027 113.071 18.4636 113.071 18.0033C113.071 17.5556 112.974 17.2294 112.78 17.0248C112.587 16.8075 112.335 16.6988 112.025 16.6988C111.715 16.6988 111.463 16.8075 111.27 17.0248C111.076 17.2294 110.979 17.5556 110.979 18.0033C110.979 18.4636 111.076 18.8027 111.27 19.02C111.463 19.2375 111.715 19.3461 112.025 19.3461ZM112.258 26.2524C112.8 26.2524 113.252 26.1692 113.613 26.003C113.975 25.8494 114.156 25.6384 114.156 25.3699C114.156 25.1141 114.04 24.9542 113.807 24.8903C113.588 24.8264 113.271 24.7943 112.858 24.7943H112.103C111.715 24.7943 111.418 24.7816 111.212 24.7559C111.018 24.7433 110.85 24.7177 110.708 24.6793C110.475 24.9095 110.359 25.1397 110.359 25.3699C110.359 25.6768 110.534 25.9007 110.882 26.0414C111.244 26.1821 111.702 26.2524 112.258 26.2524ZM122.913 24.334V11.8644H131.126V14.6269H126.245V17.0056H130.429V19.7681H126.245V24.334H122.913ZM134.77 24.5641C134.163 24.5641 133.64 24.43 133.201 24.1614C132.782 23.8876 132.441 23.5109 132.213 23.0679C131.98 22.6202 131.864 22.1342 131.864 21.6099C131.864 20.6122 132.277 19.8322 133.104 19.2693C133.93 18.6938 135.273 18.3102 137.133 18.1183C137.055 17.4533 136.603 17.1208 135.777 17.1208C135.428 17.1208 135.06 17.191 134.673 17.3318C134.285 17.4596 133.84 17.6579 133.336 17.9265L132.174 15.7779C132.859 15.3686 133.549 15.0553 134.247 14.8378C134.956 14.6207 135.693 14.5108 136.435 14.5117C137.701 14.5117 138.689 14.8699 139.399 15.5861C140.109 16.2895 140.465 17.4277 140.465 19.0008V24.334H137.753L137.52 23.4131H137.443C137.055 23.7584 136.642 24.0399 136.203 24.2572C135.777 24.4618 135.299 24.5641 134.77 24.5641ZM135.932 22.0318C136.203 22.0318 136.429 21.9742 136.61 21.8592C136.791 21.7314 136.965 21.5715 137.133 21.3797V20.0751C136.345 20.1902 135.796 20.3628 135.486 20.593C135.189 20.8234 135.041 21.0727 135.041 21.3413C135.041 21.8017 135.338 22.0318 135.932 22.0318ZM147.014 24.5641C146.098 24.5641 145.271 24.3658 144.535 23.9694C143.799 23.573 143.211 23.0038 142.772 22.262C142.346 21.5076 142.133 20.5995 142.133 19.5379C142.133 18.4765 142.372 17.5748 142.85 16.833C143.34 16.0784 143.98 15.503 144.767 15.1064C145.555 14.71 146.407 14.5117 147.324 14.5117C147.905 14.5117 148.428 14.6013 148.893 14.7803C149.371 14.9594 149.791 15.2024 150.152 15.5094L148.603 17.6195C148.396 17.4406 148.209 17.3191 148.041 17.2552C147.874 17.1912 147.697 17.1588 147.518 17.1592C146.898 17.1592 146.414 17.3765 146.065 17.8115C145.717 18.2335 145.542 18.809 145.542 19.5379C145.542 20.267 145.723 20.8489 146.085 21.2837C146.446 21.7057 146.885 21.9168 147.402 21.9168C147.673 21.9168 147.938 21.8592 148.196 21.7441C148.461 21.62 148.714 21.4722 148.951 21.3029L150.23 23.4515C149.752 23.8736 149.223 24.1677 148.642 24.334C148.06 24.4874 147.518 24.5641 147.014 24.5641ZM155.681 24.5641C154.738 24.5641 153.886 24.3658 153.124 23.9694C152.375 23.573 151.781 23.0038 151.342 22.262C150.903 21.5076 150.683 20.5995 150.683 19.5379C150.683 18.502 150.903 17.6132 151.342 16.8714C151.794 16.1168 152.375 15.5349 153.085 15.1256C153.795 14.7163 154.544 14.5117 155.332 14.5117C156.288 14.5117 157.076 14.7228 157.695 15.1448C158.328 15.5541 158.793 16.1104 159.09 16.8138C159.4 17.5172 159.555 18.2974 159.555 19.1543C159.555 19.4356 159.536 19.7107 159.497 19.9793C159.471 20.235 159.445 20.4204 159.419 20.5356H153.899C154.054 21.1111 154.331 21.5139 154.732 21.7441C155.132 21.9616 155.603 22.0702 156.146 22.0702C156.766 22.0702 157.424 21.8784 158.122 21.4947L159.206 23.4515C158.69 23.8095 158.109 24.0846 157.463 24.2764C156.817 24.4682 156.223 24.5641 155.681 24.5641ZM153.86 18.3868H156.727C156.727 18.016 156.63 17.6963 156.436 17.4277C156.255 17.1463 155.913 17.0056 155.41 17.0056C155.048 17.0056 154.725 17.1144 154.441 17.3318C154.157 17.5493 153.963 17.901 153.86 18.3868Z" fill="#033058"/>
</svg>
