<svg width="120" height="30" viewBox="0 0 120 30" fill="none" xmlns="http://www.w3.org/2000/svg">
<g clip-path="url(#clip0_3977_464)">
<path fill-rule="evenodd" clip-rule="evenodd" d="M3.87808 4.91139C3.71959 5.08557 3.73009 5.35281 3.89659 5.51934L24.475 26.0977C24.6415 26.2642 24.9087 26.2747 25.0829 26.1162C28.1003 23.3706 29.9943 19.4119 29.9943 15.0109C29.9943 6.7206 23.2737 0 14.9834 0C10.5824 0 6.62374 1.89401 3.87808 4.91139ZM1.3061 8.81682C1.23006 8.98449 1.2684 9.18108 1.39857 9.31125L20.6831 28.5957C20.8132 28.7259 21.0098 28.7642 21.1775 28.6882C21.623 28.4861 22.0568 28.2629 22.4778 28.0199C22.728 27.8755 22.7663 27.5341 22.562 27.3298L2.66454 7.43226C2.46024 7.22796 2.11885 7.2663 1.9744 7.5165C1.73136 7.93746 1.50817 8.37132 1.3061 8.81682ZM0.136171 14.3388C0.0458777 14.2485 -0.00216468 14.1241 0.00633568 13.9967C0.0461465 13.3999 0.120828 12.8128 0.22836 12.2372C0.292837 11.892 0.714578 11.7722 0.962852 12.0205L17.9738 29.0315C18.2221 29.2797 18.1023 29.7015 17.7572 29.7659C17.1815 29.8735 16.5944 29.9482 15.9977 29.988C15.8702 29.9965 15.7458 29.9484 15.6555 29.8581L0.136171 14.3388ZM1.18009 18.5277C0.870161 18.2177 0.370007 18.4848 0.483512 18.9082C1.86641 24.0661 5.92822 28.1279 11.0861 29.5108C11.5095 29.6243 11.7766 29.1242 11.4666 28.8142L1.18009 18.5277ZM60.4807 8.2605C61.5568 8.2605 62.4289 7.3851 62.4289 6.30525C62.4289 5.2254 61.5568 4.35 60.4807 4.35C59.4049 4.35 58.5328 5.2254 58.5328 6.30525C58.5328 7.3851 59.4049 8.2605 60.4807 8.2605ZM43.7944 25.3124V4.35117H47.2564V22.2456H56.5909V25.3124H43.7944ZM68.4352 16.7591V25.3124H65.0854V10.4567H68.3932V13.0029L68.4352 12.9748C68.7715 12.1776 69.3136 11.5118 70.0612 10.9772C70.8085 10.4332 71.7616 10.1612 72.9205 10.1612C73.9483 10.1612 74.8825 10.391 75.7237 10.8506C76.5646 11.3007 77.2372 11.9619 77.7418 12.8341C78.2464 13.7063 78.4987 14.7755 78.4987 16.0416V25.3124H75.1489V16.5059C75.1489 15.3804 74.8498 14.527 74.2519 13.9455C73.6633 13.3547 72.8737 13.0592 71.8831 13.0592C71.2477 13.0592 70.6684 13.1905 70.1452 13.4531C69.622 13.7157 69.2062 14.119 68.8978 14.663C68.5894 15.2069 68.4352 15.9056 68.4352 16.7591ZM98.7667 25.0592C99.5329 25.3874 100.411 25.5515 101.402 25.5515C102.215 25.5515 102.911 25.4484 103.49 25.242C104.069 25.0263 104.546 24.7403 104.92 24.3839C105.303 24.0275 105.606 23.6383 105.831 23.2163H105.887V25.3124H109.097V15.085C109.097 14.3628 108.956 13.7017 108.676 13.1014C108.396 12.5012 107.989 11.9807 107.456 11.5399C106.933 11.0991 106.298 10.7615 105.55 10.527C104.803 10.2831 103.962 10.1612 103.028 10.1612C101.747 10.1612 100.64 10.3816 99.7057 10.8224C98.7805 11.2538 98.0566 11.8353 97.5331 12.5669C97.0099 13.2984 96.7249 14.1237 96.6781 15.0428H99.916C99.9532 14.6114 100.103 14.2268 100.364 13.8892C100.626 13.5516 100.981 13.289 101.43 13.1014C101.878 12.9045 102.397 12.806 102.986 12.806C103.574 12.806 104.074 12.9045 104.485 13.1014C104.906 13.2984 105.228 13.5657 105.452 13.9033C105.677 14.2409 105.789 14.6348 105.789 15.085V15.1976C105.789 15.5352 105.672 15.7837 105.438 15.9431C105.214 16.1026 104.831 16.2198 104.289 16.2948C103.756 16.3699 103.028 16.459 102.102 16.5621C101.345 16.6465 100.617 16.7732 99.916 16.942C99.2152 17.1108 98.5891 17.3593 98.0377 17.6876C97.4959 18.0158 97.066 18.4519 96.7483 18.9959C96.4306 19.5398 96.2719 20.2385 96.2719 21.092C96.2719 22.0768 96.496 22.9021 96.9445 23.5679C97.393 24.2245 98.0005 24.7215 98.7667 25.0592ZM104.191 22.5691C103.649 22.8599 102.981 23.0052 102.187 23.0052C101.383 23.0052 100.743 22.8364 100.266 22.4988C99.7897 22.1518 99.5515 21.6782 99.5515 21.0779C99.5515 20.609 99.6823 20.2292 99.9439 19.9384C100.215 19.6477 100.57 19.4179 101.009 19.2491C101.448 19.0803 101.925 18.9631 102.439 18.8974C102.812 18.8411 103.177 18.7849 103.532 18.7286C103.887 18.6629 104.219 18.602 104.527 18.5457C104.836 18.4801 105.097 18.4144 105.312 18.3488C105.536 18.2831 105.7 18.2128 105.803 18.1377V19.7978C105.803 20.3792 105.667 20.9138 105.396 21.4015C105.134 21.8798 104.733 22.269 104.191 22.5691ZM112.019 25.3124V10.4567H115.243V12.9045H115.285C115.556 12.0604 115.981 11.418 116.56 10.9772C117.149 10.527 117.92 10.3019 118.873 10.3019C119.107 10.3019 119.317 10.3113 119.504 10.33C119.7 10.3394 119.864 10.3488 119.994 10.3582V13.3828C119.873 13.364 119.658 13.3406 119.35 13.3124C119.041 13.2843 118.714 13.2702 118.368 13.2702C117.817 13.2702 117.313 13.3968 116.855 13.6501C116.397 13.9033 116.032 14.2925 115.761 14.8177C115.5 15.3335 115.369 15.9854 115.369 16.7732V25.3124H112.019ZM58.7989 25.3124V10.4567H62.1487V25.3124H58.7989ZM84.0703 24.6512C85.1449 25.3171 86.4205 25.65 87.8968 25.65C89.0368 25.65 90.0739 25.4437 91.0084 25.031C91.9522 24.609 92.737 24.0322 93.3631 23.3007C93.9892 22.5598 94.3957 21.7063 94.5826 20.7403H91.429C91.2886 21.1811 91.0597 21.5703 90.742 21.9079C90.4339 22.2362 90.046 22.4941 89.5789 22.6817C89.1115 22.8692 88.5697 22.963 87.9529 22.963C87.1213 22.963 86.4064 22.7755 85.8085 22.4003C85.2199 22.0252 84.7714 21.5047 84.463 20.8388C84.1831 20.2259 84.0301 19.5319 84.0043 18.7567H94.7788V17.8564C94.7788 16.7122 94.6105 15.6712 94.2742 14.7333C93.9379 13.7861 93.4612 12.9701 92.8444 12.2855C92.2279 11.5915 91.4851 11.0569 90.616 10.6817C89.7562 10.3066 88.7986 10.119 87.7426 10.119C86.3692 10.119 85.1545 10.452 84.0985 11.1179C83.0425 11.7837 82.2157 12.7028 81.6175 13.8752C81.0196 15.0475 80.7205 16.3886 80.7205 17.8986C80.7205 19.3991 81.0103 20.7356 81.5896 21.9079C82.1689 23.0709 82.996 23.9853 84.0703 24.6512ZM91.1206 14.8177C90.8122 14.18 90.373 13.6876 89.803 13.3406C89.233 12.9936 88.5604 12.8201 87.7846 12.8201C87.0184 12.8201 86.3503 12.9936 85.7803 13.3406C85.2199 13.6876 84.7807 14.18 84.463 14.8177C84.2362 15.2796 84.0928 15.8048 84.0328 16.3933H91.5505C91.4905 15.8048 91.3471 15.2796 91.1206 14.8177Z" fill="#033058"/>
</g>
<defs>
<clipPath id="clip0_3977_464">
<rect width="120" height="30" fill="white"/>
</clipPath>
</defs>
</svg>
