<svg width="101" height="28" viewBox="0 0 101 28" fill="none" xmlns="http://www.w3.org/2000/svg">
<g clip-path="url(#clip0_4014_143)">
<path d="M0.85556 2.39331C0.480562 2.70124 0.404788 3.2266 0.643835 3.64886C1.25152 4.72228 1.94577 5.74602 2.67493 6.74016C3.94564 8.47265 6.57934 11.351 8.99389 12.9701C11.0401 11.7149 12.9209 11.1657 14.9873 10.5957C11.8888 8.81754 9.2112 6.37653 7.09833 3.49577C6.53402 2.72639 5.9984 1.93084 5.51965 1.10499C5.28156 0.694297 4.82161 0.463756 4.3636 0.588595C3.88151 0.719996 3.21777 0.943253 2.50584 1.3087C1.80293 1.66952 1.24148 2.07641 0.85556 2.39331Z" fill="#033058"/>
<path d="M15.9889 12.0274C13.6082 12.5984 11.3529 13.463 9.31865 14.7505C6.43294 16.5771 4.1715 19.1913 2.67471 21.232C1.91303 22.2705 1.31874 23.203 0.911996 23.8808C0.836657 24.0063 0.739401 24.1755 0.643045 24.3455C0.408558 24.7591 0.460613 25.2746 0.812107 25.5948C1.19524 25.9439 1.75848 26.3912 2.44232 26.7404C3.1459 27.0994 3.86643 27.3068 4.38438 27.422C4.83393 27.522 5.27482 27.2904 5.50526 26.8917C5.98766 26.057 6.52822 25.2534 7.09812 24.4764C8.41077 22.6867 10.1947 20.6883 12.2525 19.3857C14.2951 18.0929 16.7538 17.4065 18.8107 17.0579C19.6459 16.9163 20.4912 16.8044 21.3381 16.7652C21.8626 16.7409 22.3075 16.3698 22.3839 15.8504C22.4603 15.3318 22.5364 14.6489 22.5364 13.9859C22.5364 13.3381 22.4638 12.6714 22.3892 12.1575C22.3114 11.6211 21.8429 11.2436 21.3009 11.2441C19.5045 11.2461 17.729 11.61 15.9889 12.0274Z" fill="#033058"/>
<path d="M76.1997 13.9911C76.1997 17.5324 78.8386 19.8819 82.0905 19.8819C83.9749 19.8819 85.5159 19.1142 86.6025 17.9468C86.647 17.8995 86.6705 17.8372 86.6705 17.7726V13.9626C86.6705 13.8184 86.5537 13.7016 86.4092 13.7016H81.5853C81.4412 13.7016 81.3244 13.8184 81.3244 13.9626V14.9389C81.3244 15.083 81.4412 15.1999 81.5853 15.1999H84.8378C84.9092 15.1999 84.968 15.2583 84.968 15.3303V17.1864C84.968 17.2225 84.9529 17.2569 84.9268 17.2811C84.3698 17.7837 83.3192 18.3666 82.0905 18.3666C79.724 18.3666 77.9533 16.5279 77.9533 13.9911C77.9533 11.4372 79.724 9.63248 82.0905 9.63248C83.3242 9.63248 84.3963 10.2055 85.0613 10.9831C85.147 11.0839 85.2924 11.1146 85.4075 11.048L86.3319 10.5116C86.4672 10.4333 86.5033 10.2545 86.405 10.1337C85.4563 8.97248 84.0884 8.11719 82.0905 8.11719C78.8386 8.11719 76.1997 10.4497 76.1997 13.9911Z" fill="#033058"/>
<path d="M40.7125 19.3998C40.7125 19.544 40.8293 19.6608 40.9734 19.6608H42.1541C42.2982 19.6608 42.415 19.544 42.415 19.3998V8.56564C42.415 8.42152 42.2982 8.30469 42.1541 8.30469H40.3183C40.2337 8.30469 40.1545 8.34564 40.1055 8.41456L36.7837 13.0926C36.7317 13.1659 36.623 13.1659 36.571 13.0926L33.2492 8.41456C33.2003 8.34564 33.121 8.30469 33.0364 8.30469H31.2007C31.0566 8.30469 30.9397 8.42152 30.9397 8.56564V19.3998C30.9397 19.544 31.0566 19.6608 31.2007 19.6608H32.3814C32.5255 19.6608 32.6423 19.544 32.6423 19.3998V10.9107C32.6423 10.7837 32.8052 10.7315 32.8789 10.8349L36.2418 15.5461C36.2908 15.6147 36.3699 15.6555 36.4541 15.6555H36.9005C36.9849 15.6555 37.064 15.6147 37.113 15.5461L40.4757 10.8349C40.5495 10.7315 40.7125 10.7837 40.7125 10.9107V19.3998Z" fill="#033058"/>
<path d="M48.7908 19.3998C48.7908 19.544 48.9077 19.6608 49.0518 19.6608H56.1573C56.3014 19.6608 56.4183 19.544 56.4183 19.3998V18.4235C56.4183 18.2793 56.3014 18.1625 56.1573 18.1625H50.6238C50.5518 18.1625 50.4934 18.1041 50.4934 18.032V14.7517C50.4934 14.6796 50.5518 14.6212 50.6238 14.6212H56.0382C56.1823 14.6212 56.2991 14.5044 56.2991 14.3603V13.3839C56.2991 13.2398 56.1823 13.123 56.0382 13.123H50.6238C50.5518 13.123 50.4934 13.0646 50.4934 12.9925V9.93346C50.4934 9.86136 50.5518 9.80296 50.6238 9.80296H56.1573C56.3014 9.80296 56.4183 9.68615 56.4183 9.54203V8.56564C56.4183 8.42152 56.3014 8.30469 56.1573 8.30469H49.0518C48.9077 8.30469 48.7908 8.42152 48.7908 8.56564V19.3998Z" fill="#033058"/>
<path fill-rule="evenodd" clip-rule="evenodd" d="M67.2879 8.30469C69.4501 8.30469 70.9313 9.70077 70.9313 11.795C70.9313 13.5004 69.9819 14.4167 68.7967 14.8762C68.7185 14.9066 68.6855 15.0007 68.7304 15.0717L71.3763 19.2606C71.4861 19.4344 71.3612 19.6609 71.1557 19.6609H69.8005C69.7096 19.6609 69.6253 19.6136 69.5779 19.5362L67.0051 15.3304C66.9796 15.2887 66.933 15.2648 66.8842 15.2679C66.6972 15.2798 66.5131 15.2852 66.3344 15.2852H64.3367C64.2646 15.2852 64.2062 15.3436 64.2062 15.4156V19.3998C64.2062 19.544 64.0894 19.6608 63.9453 19.6608H62.7646C62.6205 19.6608 62.5037 19.544 62.5037 19.3998V8.56564C62.5037 8.42152 62.6205 8.30469 62.7646 8.30469H67.2879ZM67.0665 13.7869C68.2923 13.7869 69.1777 12.9867 69.1777 11.795C69.1777 10.6031 68.2923 9.80296 67.0665 9.80296H64.3367C64.2646 9.80296 64.2062 9.86136 64.2062 9.93346V13.6565C64.2062 13.7285 64.2646 13.7869 64.3367 13.7869H67.0665Z" fill="#033058"/>
<path d="M100.161 19.3998C100.161 19.544 100.044 19.6608 99.9001 19.6608H92.7942C92.6505 19.6608 92.5337 19.544 92.5337 19.3998V8.56564C92.5337 8.42152 92.6505 8.30469 92.7942 8.30469H99.9001C100.044 8.30469 100.161 8.42152 100.161 8.56564V9.54203C100.161 9.68615 100.044 9.80296 99.9001 9.80296H94.3665C94.2942 9.80296 94.2362 9.86136 94.2362 9.93338V12.9925C94.2362 13.0646 94.2942 13.123 94.3665 13.123H99.7808C99.9253 13.123 100.042 13.2398 100.042 13.3839V14.3603C100.042 14.5044 99.9253 14.6212 99.7808 14.6212H94.3665C94.2942 14.6212 94.2362 14.6796 94.2362 14.7517V18.032C94.2362 18.1041 94.2942 18.1625 94.3665 18.1625H99.9001C100.044 18.1625 100.161 18.2793 100.161 18.4235V19.3998Z" fill="#033058"/>
</g>
<defs>
<clipPath id="clip0_4014_143">
<rect width="100" height="26.8908" fill="white" transform="translate(0.5 0.554688)"/>
</clipPath>
</defs>
</svg>
