<svg width="70" height="32" viewBox="0 0 70 32" fill="none" xmlns="http://www.w3.org/2000/svg">
<g clip-path="url(#clip0_4271_321)">
<path d="M69.06 4L18.9 25.36C14.74 27.12 11.2467 28 8.42004 28C5.22004 28 2.90004 26.88 1.46004 24.64C0.553371 23.2 0.286704 21.3733 0.660037 19.16C1.03337 16.9467 2.02004 14.5867 3.62004 12.08C4.95337 10.0533 7.14004 7.38667 10.18 4.08C9.11337 5.78667 8.3667 7.54667 7.94004 9.36C7.14004 12.7733 7.86004 15.28 10.1 16.88C11.1667 17.6267 12.6334 18 14.5 18C15.9934 18 17.6734 17.76 19.54 17.28L69.06 4Z" fill="#01145E"/>
</g>
<defs>
<clipPath id="clip0_4271_321">
<rect width="69" height="32" fill="white" transform="translate(0.5)"/>
</clipPath>
</defs>
</svg>
