<svg width="142" height="29" viewBox="0 0 142 29" fill="none" xmlns="http://www.w3.org/2000/svg">
<g clip-path="url(#clip0_3977_437)">
<path d="M31.8501 6.42031H39.1601C44.4501 6.42031 45.7901 9.61031 45.7901 12.2103C45.7901 14.8103 44.4201 18.0003 39.1601 18.0003H34.6501V27.1203H31.8501V6.42031ZM34.6501 15.5403H38.3401C40.5601 15.5403 42.7801 15.0203 42.7801 12.2103C42.7801 9.40031 40.5601 8.88031 38.3401 8.88031H34.6501V15.5403ZM49.4501 6.32031C49.8288 6.32056 50.199 6.43221 50.5147 6.64134C50.8304 6.85048 51.0776 7.14787 51.2255 7.49647C51.3734 7.84507 51.4155 8.22948 51.3465 8.60183C51.2776 8.97418 51.1006 9.31801 50.8376 9.59051C50.5747 9.863 50.2374 10.0521 49.8677 10.1343C49.498 10.2165 49.1124 10.1881 48.7587 10.0527C48.4051 9.91732 48.0991 9.68087 47.8788 9.37282C47.6586 9.06478 47.5338 8.69875 47.5201 8.32031C47.5121 8.06138 47.556 7.80347 47.6493 7.56179C47.7426 7.32011 47.8833 7.09956 48.0632 6.91315C48.2431 6.72674 48.4585 6.57824 48.6967 6.47642C48.9349 6.3746 49.191 6.32152 49.4501 6.32031ZM48.1601 13.2603H50.7601V27.1203H48.1601V13.2603ZM53.7701 13.2603H56.4001V15.4003H56.4601C56.9094 14.5987 57.5755 13.94 58.382 13.4996C59.1886 13.0592 60.1028 12.855 61.0201 12.9103C63.7101 12.9103 66.0201 14.5203 66.0201 18.2003V27.1203H63.4201V18.9403C63.4201 16.3303 61.9301 15.3703 60.2601 15.3703C58.0701 15.3703 56.4001 16.7703 56.4001 19.9903V27.1203H53.7701V13.2603ZM70.8401 21.1603C70.8401 23.5803 73.0901 25.1603 75.5201 25.1603C76.2717 25.1385 77.0075 24.9396 77.6677 24.5799C78.328 24.2203 78.8941 23.7099 79.3201 23.0903L81.3201 24.6103C80.6049 25.5537 79.6695 26.3077 78.5957 26.8062C77.5219 27.3048 76.3423 27.5328 75.1601 27.4703C70.7701 27.4703 68.0301 24.3203 68.0301 20.1903C67.9917 19.2367 68.1488 18.2854 68.4916 17.3947C68.8344 16.504 69.3557 15.6929 70.0234 15.011C70.6912 14.3292 71.4914 13.7911 72.3747 13.4299C73.258 13.0686 74.2059 12.8918 75.1601 12.9103C80.0401 12.9103 81.9101 16.6503 81.9101 20.2203V21.1603H70.8401ZM79.1601 19.0503C79.1001 16.7403 77.8101 15.0503 75.1601 15.0503C74.0684 15.0429 73.0151 15.4529 72.2158 16.1965C71.4165 16.94 70.9315 17.9609 70.8601 19.0503H79.1601ZM93.8501 16.9503C93.4274 16.4506 92.8981 16.052 92.301 15.7837C91.704 15.5155 91.0544 15.3845 90.4001 15.4003C87.5401 15.4003 86.0701 17.7103 86.0701 20.3103C86.0345 20.9187 86.1242 21.528 86.3337 22.1003C86.5432 22.6726 86.8681 23.1958 87.2881 23.6374C87.7082 24.079 88.2144 24.4296 88.7755 24.6675C89.3367 24.9054 89.9407 25.0255 90.5501 25.0203C91.1922 25.0418 91.8305 24.9129 92.4139 24.6437C92.9973 24.3746 93.5097 23.9728 93.9101 23.4703L95.7801 25.3203C95.1077 26.0322 94.2898 26.5908 93.3822 26.9584C92.4745 27.3259 91.4984 27.4937 90.5201 27.4503C89.5578 27.4987 88.596 27.3454 87.6964 27.0001C86.7969 26.6548 85.9795 26.1252 85.2968 25.4453C84.614 24.7654 84.0811 23.9502 83.732 23.0521C83.383 22.154 83.2257 21.1928 83.2701 20.2303C83.2266 19.2639 83.3839 18.2989 83.7321 17.3964C84.0802 16.4938 84.6117 15.6732 85.2929 14.9863C85.9741 14.2994 86.7904 13.7612 87.69 13.4056C88.5897 13.05 89.5533 12.8848 90.5201 12.9203C91.5104 12.8952 92.4951 13.077 93.4111 13.4541C94.3272 13.8312 95.1545 14.3953 95.8401 15.1103L93.8501 16.9503Z" fill="#033058"/>
<path d="M103.56 12.9109C104.517 12.925 105.462 13.1277 106.34 13.5073C107.219 13.887 108.014 14.4361 108.68 15.1234C109.346 15.8106 109.87 16.6225 110.222 17.5125C110.574 18.4024 110.747 19.3531 110.732 20.3101C110.716 21.267 110.512 22.2115 110.13 23.0894C109.749 23.9673 109.199 24.7614 108.51 25.4263C107.822 26.0913 107.009 26.6139 106.118 26.9644C105.228 27.3149 104.277 27.4863 103.32 27.4689C101.392 27.4337 99.5562 26.6349 98.2163 25.2477C96.8765 23.8606 96.1418 21.9984 96.1736 20.0701C96.2054 18.1417 97.001 16.3048 98.3859 14.9626C99.7707 13.6203 101.632 12.8824 103.56 12.9109ZM103.56 25.0209C106.36 25.0209 108.12 23.0209 108.12 20.1909C108.12 17.3609 106.36 15.3709 103.56 15.3709C100.76 15.3709 98.99 17.3709 98.99 20.1909C98.99 23.0109 100.75 25.0209 103.56 25.0209ZM113.06 13.2609H115.69V15.4009C116.141 14.5985 116.809 13.9394 117.617 13.499C118.425 13.0586 119.341 12.8548 120.26 12.9109C122.95 12.9109 125.26 14.5209 125.26 18.2009V27.1209H122.63V18.9409C122.63 16.3309 121.14 15.3709 119.48 15.3709C117.28 15.3709 115.62 16.7709 115.62 19.9909V27.1209H113.06V13.2609ZM130.16 21.1609C130.16 23.5809 132.41 25.1609 134.84 25.1609C135.591 25.1366 136.326 24.9368 136.986 24.5773C137.646 24.2178 138.212 23.7088 138.64 23.0909L140.64 24.6109C139.924 25.5466 138.991 26.2934 137.921 26.7866C136.851 27.2797 135.676 27.5043 134.5 27.4409C130.12 27.4409 127.37 24.2909 127.37 20.1609C127.331 19.2047 127.489 18.2508 127.834 17.3581C128.179 16.4653 128.703 15.6527 129.374 14.9705C130.045 14.2882 130.848 13.7508 131.735 13.3914C132.622 13.032 133.573 12.8582 134.53 12.8809C139.42 12.8809 141.29 16.6209 141.29 20.1909V21.1309L130.16 21.1609ZM138.46 19.0509C138.4 16.7409 137.12 15.0509 134.46 15.0509C133.368 15.041 132.313 15.4502 131.513 16.1943C130.713 16.9383 130.229 17.9606 130.16 19.0509H138.46Z" fill="#033058"/>
<path d="M14.5801 5.24156L15.2801 1.35156" stroke="#033058" stroke-width="1.77" stroke-linecap="square"/>
<path d="M17.8 3.86086L15.36 0.880859L12.04 2.82086" stroke="#033058" stroke-width="1.77" stroke-linecap="square" stroke-linejoin="round"/>
<path d="M11.6602 21.8412L12.3402 17.9512" stroke="#033058" stroke-width="1.77" stroke-linecap="square"/>
<path d="M14.8801 20.4505L12.4201 17.4805L9.11011 19.4305" stroke="#033058" stroke-width="1.77" stroke-linecap="square" stroke-linejoin="round"/>
<path d="M13.0701 13.8216L13.7501 9.93164" stroke="#033058" stroke-width="1.77" stroke-linecap="square"/>
<path d="M16.29 12.4307L13.84 9.4707L10.53 11.4107" stroke="#033058" stroke-width="1.77" stroke-linecap="square" stroke-linejoin="round"/>
<path d="M10.7701 28.4807C11.6704 28.4807 12.4001 27.7509 12.4001 26.8507C12.4001 25.9505 11.6704 25.2207 10.7701 25.2207C9.86991 25.2207 9.14014 25.9505 9.14014 26.8507C9.14014 27.7509 9.86991 28.4807 10.7701 28.4807Z" fill="#033058"/>
<path d="M6.15016 21.5L3.16016 23.58" stroke="#033058" stroke-width="1.68" stroke-linecap="square"/>
<path d="M6.33005 24.8702L2.80005 23.8302L3.06005 20.1602" stroke="#033058" stroke-width="1.68" stroke-linecap="square" stroke-linejoin="round"/>
<path d="M17.01 23.4512L19.09 26.4512" stroke="#033058" stroke-width="1.68" stroke-linecap="square"/>
<path d="M15.6702 26.551L19.3402 26.801L20.3802 23.291" stroke="#033058" stroke-width="1.68" stroke-linecap="square" stroke-linejoin="round"/>
<path d="M20.4202 17.3613L24.0802 18.0213" stroke="#033058" stroke-width="1.72" stroke-linecap="square"/>
<path d="M21.6802 20.5705L24.5202 18.1005L22.7302 14.8105" stroke="#033058" stroke-width="1.72" stroke-linecap="square" stroke-linejoin="round"/>
<path d="M19.3501 10.1008L22.6101 8.30078" stroke="#033058" stroke-width="1.72" stroke-linecap="square"/>
<path d="M19.53 6.65039L23 8.09039L22.35 11.7804" stroke="#033058" stroke-width="1.72" stroke-linecap="square" stroke-linejoin="round"/>
<path d="M4.97005 14.64L1.30005 14" stroke="#033058" stroke-width="1.72" stroke-linecap="square"/>
<path d="M2.68011 17.2212L0.860107 13.9312L3.67011 11.4512" stroke="#033058" stroke-width="1.72" stroke-linecap="square" stroke-linejoin="round"/>
<path d="M8.45 8.17109L6 5.37109" stroke="#033058" stroke-width="1.72" stroke-linecap="square"/>
<path d="M9.46005 4.88086L5.71005 5.04086L5.05005 8.73086" stroke="#033058" stroke-width="1.72" stroke-linecap="square" stroke-linejoin="round"/>
</g>
<defs>
<clipPath id="clip0_3977_437">
<rect width="141.29" height="28.49" fill="white"/>
</clipPath>
</defs>
</svg>
