<svg width="100" height="22" viewBox="0 0 100 22" fill="none" xmlns="http://www.w3.org/2000/svg">
<g clip-path="url(#clip0_3986_11692)">
<path d="M0 2.07087C0 1.08465 0.799492 0.285156 1.78571 0.285156H8.92857C9.91482 0.285156 10.7143 1.08465 10.7143 2.07087V3.85659C10.7143 4.34969 10.3146 4.74944 9.82143 4.74944H0.892857C0.399746 4.74944 0 4.34969 0 3.85659V2.07087Z" fill="#033058"/>
<path d="M10.7142 18.1429C10.7142 17.6497 11.114 17.25 11.6071 17.25H20.5357C21.0288 17.25 21.4285 17.6497 21.4285 18.1429V19.9286C21.4285 20.9148 20.6291 21.7143 19.6428 21.7143H12.4999C11.5137 21.7143 10.7142 20.9148 10.7142 19.9286V18.1429Z" fill="#033058"/>
<path d="M0 7.8743C0 7.3812 0.399746 6.98145 0.892857 6.98145H19.6429C20.6291 6.98145 21.4286 7.78094 21.4286 8.76716V14.1243C21.4286 14.6174 21.0288 15.0172 20.5357 15.0172H1.78571C0.799491 15.0172 0 14.2177 0 13.2314V7.8743Z" fill="#033058"/>
<path d="M33.3268 13.4472H35.3907L39.2629 19.9284H43.9558L39.6658 13.0049C42.0245 12.1941 43.4004 10.3759 43.4004 7.74693C43.4004 4.06145 40.8206 2.07129 36.6683 2.07129H29.2236V19.9284H33.3268V13.4472ZM33.3268 10.1057V5.53565H36.4471C38.3882 5.53565 39.371 6.37102 39.371 7.82065C39.371 9.24566 38.3882 10.1057 36.4471 10.1057H33.3268Z" fill="#033058"/>
<path d="M50.9764 19.982C53.5563 19.982 55.915 18.6799 56.8732 16.1983L53.5808 15.1417C53.2122 16.272 52.254 16.8617 51.0255 16.8617C49.5268 16.8617 48.4703 15.8543 48.2 14.0852H56.9714V13.0534C56.9714 9.39237 54.8339 6.49316 50.9027 6.49316C47.168 6.49316 44.4163 9.39237 44.4163 13.2253C44.4163 17.2548 47.0698 19.982 50.9764 19.982ZM50.8536 9.53987C52.3032 9.53987 53.0648 10.5226 53.0895 11.6774H48.3229C48.716 10.2524 49.6497 9.53987 50.8536 9.53987Z" fill="#033058"/>
<path d="M59.1996 16.3568C59.1996 19.0104 60.6001 19.9441 63.4011 19.9441C64.3347 19.9441 65.0719 19.8703 65.7598 19.772V16.5533C65.3175 16.6025 65.0964 16.6271 64.6295 16.6271C63.6468 16.6271 63.0817 16.4306 63.0817 15.2406V10.0072H65.6124V6.76396H63.0817V3.17676H59.1996V6.76396H57.5535V10.0072H59.1996V16.3568Z" fill="#033058"/>
<path d="M79.7992 13.1962C79.7992 9.16671 77.1211 6.43945 73.3128 6.43945C69.4799 6.43945 66.8263 9.16671 66.8263 13.1962C66.8263 17.2256 69.4799 19.9283 73.3128 19.9283C77.1211 19.9283 79.7992 17.2256 79.7992 13.1962ZM70.7329 13.1962C70.7329 10.9357 71.7403 9.65814 73.3128 9.65814C74.8852 9.65814 75.8926 10.9357 75.8926 13.1962C75.8926 15.4566 74.8852 16.7342 73.3128 16.7342C71.7403 16.7342 70.7329 15.4566 70.7329 13.1962Z" fill="#033058"/>
<path d="M93.9554 13.1962C93.9554 9.16671 91.2777 6.43945 87.4693 6.43945C83.6364 6.43945 80.9829 9.16671 80.9829 13.1962C80.9829 17.2256 83.6364 19.9283 87.4693 19.9283C91.2777 19.9283 93.9554 17.2256 93.9554 13.1962ZM84.8895 13.1962C84.8895 10.9357 85.8968 9.65814 87.4693 9.65814C89.0418 9.65814 90.0492 10.9357 90.0492 13.1962C90.0492 15.4566 89.0418 16.7342 87.4693 16.7342C85.8968 16.7342 84.8895 15.4566 84.8895 13.1962Z" fill="#033058"/>
<path d="M99.759 2.07129H95.8286V19.9284H99.759V2.07129Z" fill="#033058"/>
</g>
<defs>
<clipPath id="clip0_3986_11692">
<rect width="100" height="21.4286" fill="white" transform="translate(0 0.286133)"/>
</clipPath>
</defs>
</svg>
