<svg width="145" height="65" viewBox="0 0 145 65" fill="none" xmlns="http://www.w3.org/2000/svg">
<path d="M18.5495 32.3835C13.9938 31.6238 10.1052 30.9939 10.1052 27.8771C10.1052 25.312 12.4597 23.786 16.375 23.786C20.5105 23.786 22.8583 25.864 22.8583 29.5393H31.5895C31.5895 22.3315 25.8866 18.0977 16.3417 18.0977C6.79685 18.0977 1.00056 22.0523 1.00056 28.6368C1.00056 36.6172 8.411 37.7927 14.6075 38.7667C19.3099 39.5264 23.512 40.2213 23.512 43.8965C23.512 46.8122 20.8773 48.442 16.315 48.442C11.646 48.442 8.83787 46.1564 8.83787 42.2667H0.100098C0.100098 49.8642 6.10316 54.2994 16.3417 54.2994C26.5802 54.2994 32.5832 50.0006 32.5832 42.8576C32.5832 34.6693 24.8927 33.4226 18.5762 32.3835" fill="#003149"/>
<path d="M50.9396 50.2763H50.8328L42.6621 18.7891H32.5835L43.0022 53.601H43.5558H57.1227H58.7769L69.1956 18.7891H59.1105L50.9396 50.2763Z" fill="#003149"/>
<path d="M90.0122 47.1347C85.7635 47.1347 82.8086 44.7192 81.5881 40.7841C81.1557 39.3349 80.9445 37.8318 80.9611 36.323C80.9507 34.8508 81.1619 33.385 81.5881 31.9721C82.7153 28.297 85.4167 25.4332 90.0122 25.4332C96.8623 25.4332 99.0569 30.8229 99.0569 36.323C99.0569 42.7125 96.0419 47.1347 90.0122 47.1347ZM93.0005 18.1864C90.5734 18.1074 88.1805 18.7615 86.1502 20.059C84.1201 21.3565 82.552 23.2337 81.6614 25.4332H81.5546V0.199219H72.1499V53.6024H78.1394L81.6147 47.4983H81.7213C82.7539 49.5698 84.3656 51.3155 86.3713 52.5353C88.3769 53.7553 90.6955 54.3997 93.0604 54.3945C102.599 54.5244 108.735 46.9594 108.735 36.2968C108.735 25.4397 103.045 18.1929 93.0604 18.1929" fill="#003149"/>
<path d="M120.407 7.39062L112.99 11.8712L127.044 36.1962L112.99 60.5211L120.407 65.0016L144.299 36.1962L120.407 7.39062Z" fill="#00C0FF"/>
</svg>
