<svg width="199" height="18" viewBox="0 0 199 18" fill="none" xmlns="http://www.w3.org/2000/svg">
<path d="M73.2539 8.75616V5.80859H111.916V8.75616H73.2539Z" fill="white"/>
<path d="M6.85837 12.4099C7.40603 11.1393 7.92379 9.93799 8.44087 8.73668C8.82953 7.83501 9.22226 6.93471 9.60209 6.02965C9.68023 5.84347 9.78555 5.78096 9.98464 5.78572C10.5167 5.79931 11.0494 5.80406 11.5807 5.78572C11.8185 5.77689 11.9082 5.87201 11.9952 6.07789C12.8445 8.0837 13.7014 10.0866 14.5657 12.0865C14.599 12.1646 14.6397 12.2394 14.7104 12.3814C14.9496 11.8154 15.1643 11.3119 15.3763 10.8077C16.0456 9.21503 16.7108 7.62166 17.3902 6.03373C17.4344 5.92977 17.5846 5.80407 17.6872 5.80203C18.6493 5.78504 19.6114 5.79183 20.6143 5.79183C20.244 6.67855 19.8859 7.54012 19.5272 8.39966C18.3313 11.2399 17.137 14.0803 15.9443 16.921C15.839 17.1737 15.7119 17.2607 15.4449 17.2478C14.9693 17.2254 14.4936 17.224 14.018 17.2478C13.7381 17.262 13.6028 17.1676 13.4921 16.908C12.6319 14.8818 11.7547 12.8638 10.8815 10.843C10.8598 10.7928 10.8299 10.7466 10.7837 10.6623C10.376 11.6047 9.98668 12.5159 9.59326 13.4264C9.07346 14.6284 8.55706 15.8311 8.02299 17.0276C7.98873 17.0835 7.94226 17.1308 7.88706 17.1661C7.83187 17.2015 7.76939 17.2238 7.70432 17.2315C7.139 17.2523 6.57277 17.2523 6.00564 17.2315C5.94056 17.2218 5.87857 17.1973 5.8244 17.16C5.77022 17.1227 5.7253 17.0734 5.69307 17.0161C4.51078 14.2316 3.33597 11.4442 2.16863 8.65378C1.83162 7.85246 1.49438 7.05158 1.1569 6.25116C1.09711 6.10847 1.04207 5.96306 0.974121 5.79183C1.98178 5.79183 2.95479 5.78572 3.92712 5.80271C4.01952 5.80271 4.15135 5.93452 4.19415 6.03509C4.94022 7.80172 5.68017 9.57243 6.414 11.3472C6.55193 11.6781 6.69122 12.0111 6.85837 12.4099Z" fill="white"/>
<path d="M121.025 6.57221C121.937 5.8971 123.045 5.53912 124.179 5.553C125.405 5.54518 126.599 5.94218 127.577 6.6824C128.554 7.42261 129.259 8.46465 129.584 9.64683C130.182 11.8212 129.85 13.8433 128.353 15.582C127.295 16.8105 125.899 17.3942 124.292 17.4757C123.051 17.5383 121.934 17.1802 120.914 16.3764V17.2114H117.934V0.505859H121.025V6.57221ZM121.038 11.5154C121.038 12.0134 121.027 12.5108 121.045 13.0102C121.05 13.1543 121.103 13.3357 121.201 13.4302C121.482 13.7019 121.772 13.9853 122.107 14.1776C123.541 15.0106 125.329 14.6396 126.209 13.3547C127.138 11.9958 126.859 10.0362 125.59 9.00609C124.408 8.04735 122.352 8.2974 121.262 9.52453C121.184 9.60269 121.123 9.69654 121.083 9.79993C121.043 9.90332 121.026 10.0139 121.032 10.1245C121.054 10.5879 121.038 11.052 121.038 11.5154Z" fill="white"/>
<path d="M56.2799 0.5H59.3675V9.43849C59.979 8.86977 60.5103 8.37511 61.0403 7.8757C61.715 7.24039 62.383 6.59829 63.0638 5.96977C63.1672 5.87122 63.3007 5.81041 63.4429 5.79719C64.7897 5.78563 66.1364 5.79107 67.4838 5.79243C67.5021 5.79243 67.5212 5.80806 67.583 5.83592L62.0113 10.9639L68.2869 17.2395H67.903C66.771 17.2395 65.639 17.2314 64.5056 17.2457C64.3892 17.2507 64.273 17.2296 64.1658 17.1839C64.0586 17.1381 63.9629 17.0689 63.886 16.9813C62.5003 15.5522 61.1101 14.1278 59.7153 12.7081C59.6297 12.6212 59.5387 12.5403 59.3926 12.401V17.2124H56.2786L56.2799 0.5Z" fill="white"/>
<path d="M189.768 17.2207H186.689V0.511719H189.747V6.54206C190.15 6.33006 190.494 6.1235 190.853 5.96382C193.175 4.93986 196.017 5.85511 197.299 8.03826C197.823 8.93041 197.997 9.92381 198.012 10.9342C198.039 12.9835 198.019 15.0335 198.019 17.0828C198.015 17.1261 198.009 17.1692 198.002 17.2119H194.928V16.8089C194.928 14.9295 194.932 13.0494 194.924 11.1693C194.92 10.8531 194.89 10.5378 194.832 10.2269C194.591 8.85703 193.417 8.33383 192.318 8.42149C191.463 8.48943 190.741 8.86518 190.111 9.43526C189.994 9.53142 189.901 9.65315 189.839 9.79102C189.777 9.92889 189.748 10.0792 189.753 10.2302C189.77 12.4154 189.762 14.6013 189.762 16.7872L189.768 17.2207Z" fill="white"/>
<path d="M36.9871 11.5439C37.0102 14.8448 34.3249 17.5471 30.7631 17.4798C27.5369 17.4186 24.8156 15.0187 24.8021 11.5453C24.7885 8.07178 27.5424 5.53462 30.9486 5.54889C34.3548 5.56316 36.9871 8.16826 36.9871 11.5439ZM27.9168 11.5255C27.9168 13.2983 29.1935 14.626 30.8949 14.6233C32.5963 14.6206 33.8955 13.2874 33.8948 11.531C33.8948 9.76095 32.582 8.3986 30.8847 8.4054C29.1874 8.41219 27.9168 9.75076 27.9168 11.5255Z" fill="white"/>
<path d="M138.245 12.3137C138.407 13.4688 138.998 14.2781 140.035 14.715C141.198 15.2062 142.629 15.1084 144.158 13.6958L145.925 15.4672C145.712 15.6676 145.477 15.9204 145.21 16.1351C143.077 17.8521 139.734 17.9445 137.52 16.3335C136.06 15.2715 135.363 13.778 135.249 12.0141C135.138 10.2943 135.579 8.72948 136.703 7.37936C138.519 5.19893 142.132 4.91491 144.231 6.81676C145.766 8.20764 146.337 9.97088 146.189 12.0066C146.17 12.2689 146.078 12.3191 145.839 12.3185C143.439 12.311 141.038 12.3137 138.637 12.3137H138.245ZM143.03 10.0144C142.875 8.81645 141.834 7.98002 140.61 8.07107C139.385 8.16212 138.423 9.22617 138.435 10.0144H143.03Z" fill="white"/>
<path d="M152.306 5.80669H155.273V6.62206C155.651 6.40938 155.989 6.19467 156.346 6.02276C159.193 4.65838 163.226 6.27213 163.561 10.1438C163.664 11.3464 163.629 12.5614 163.638 13.7708C163.65 14.913 163.638 16.0545 163.638 17.2171H160.546V16.8217C160.546 14.8974 160.553 12.9724 160.546 11.0461C160.546 10.3965 160.458 9.75512 160.026 9.22649C159.496 8.57759 158.774 8.36355 157.97 8.41655C157.101 8.47363 156.367 8.85277 155.732 9.43576C155.616 9.53276 155.524 9.65483 155.463 9.79271C155.402 9.93058 155.373 10.0806 155.378 10.2314C155.395 12.4159 155.387 14.6011 155.387 16.7863V17.211H152.307L152.306 5.80669Z" fill="white"/>
<path d="M178.478 13.1147L180.842 14.8861C180.05 15.9685 179.071 16.7887 177.793 17.1637C175.891 17.7236 174.028 17.621 172.302 16.5712C170.64 15.5602 169.693 14.0517 169.527 12.1139C169.229 8.65467 171.594 5.89057 175.09 5.58684C177.145 5.40814 178.889 6.07674 180.289 7.60692C180.357 7.68098 180.413 7.76592 180.487 7.86308L178.299 9.78532C177.574 8.902 176.684 8.37541 175.539 8.41278C175.125 8.42191 174.717 8.5179 174.343 8.69452C173.968 8.87115 173.635 9.12448 173.364 9.43811C172.255 10.6829 172.361 12.7723 173.585 13.8459C175.028 15.1158 176.932 14.8393 178.478 13.1147Z" fill="white"/>
<path d="M46.0552 6.85955C47.3462 5.65144 48.7901 5.3878 50.414 5.65212C50.2938 6.6292 50.1783 7.56348 50.0743 8.42166C49.4281 8.45155 48.8254 8.4169 48.2485 8.52154C47.4536 8.66627 46.8284 9.1487 46.3555 9.79759C46.2371 9.97168 46.1725 10.1768 46.17 10.3874C46.1571 12.5386 46.1619 14.6891 46.1619 16.8424V17.2243H43.0947V5.80908H46.0572L46.0552 6.85955Z" fill="white"/>
</svg>
