<svg width="18" height="19" viewBox="0 0 18 19" fill="none" xmlns="http://www.w3.org/2000/svg">
<path d="M13.3125 15.5449H4.6875C3.65213 15.5449 2.8125 14.7053 2.8125 13.6699V5.04492C2.8125 4.00955 3.65213 3.16992 4.6875 3.16992H13.3125C14.3479 3.16992 15.1875 4.00955 15.1875 5.04492V13.6699C15.1875 14.7053 14.3479 15.5449 13.3125 15.5449Z" stroke="#06B2D0" stroke-width="1.125" stroke-miterlimit="10"/>
<path d="M2.8125 6.16992H15.1875" stroke="#06B2D0" stroke-width="1.125" stroke-miterlimit="10"/>
<path d="M5.8125 10.1074C6.33027 10.1074 6.75 9.68769 6.75 9.16992C6.75 8.65215 6.33027 8.23242 5.8125 8.23242C5.29473 8.23242 4.875 8.65215 4.875 9.16992C4.875 9.68769 5.29473 10.1074 5.8125 10.1074Z" fill="#06B2D0"/>
<path d="M9 10.1074C9.51777 10.1074 9.9375 9.68769 9.9375 9.16992C9.9375 8.65215 9.51777 8.23242 9 8.23242C8.48223 8.23242 8.0625 8.65215 8.0625 9.16992C8.0625 9.68769 8.48223 10.1074 9 10.1074Z" fill="#06B2D0"/>
<path d="M5.8125 13.4824C6.33027 13.4824 6.75 13.0627 6.75 12.5449C6.75 12.0272 6.33027 11.6074 5.8125 11.6074C5.29473 11.6074 4.875 12.0272 4.875 12.5449C4.875 13.0627 5.29473 13.4824 5.8125 13.4824Z" fill="#06B2D0"/>
<path d="M9 13.4824C9.51777 13.4824 9.9375 13.0627 9.9375 12.5449C9.9375 12.0272 9.51777 11.6074 9 11.6074C8.48223 11.6074 8.0625 12.0272 8.0625 12.5449C8.0625 13.0627 8.48223 13.4824 9 13.4824Z" fill="#06B2D0"/>
<path d="M12.1875 10.1074C12.7053 10.1074 13.125 9.68769 13.125 9.16992C13.125 8.65215 12.7053 8.23242 12.1875 8.23242C11.6697 8.23242 11.25 8.65215 11.25 9.16992C11.25 9.68769 11.6697 10.1074 12.1875 10.1074Z" fill="#06B2D0"/>
</svg>
