<svg width="36" height="35" viewBox="0 0 36 35" fill="none" xmlns="http://www.w3.org/2000/svg">
<path d="M6.87012 25.3246V9.74023" stroke="#F4D052" stroke-width="1.5" stroke-miterlimit="10" stroke-linejoin="round"/>
<path d="M28.6883 9.74023V25.3246" stroke="#F4D052" stroke-width="1.5" stroke-miterlimit="10" stroke-linejoin="round"/>
<path d="M5.62341 25.3242H29.9351" stroke="#F4D052" stroke-width="1.5" stroke-miterlimit="10" stroke-linecap="round" stroke-linejoin="round"/>
<path d="M17.7792 25.3242V27.8177" stroke="#F4D052" stroke-width="1.5" stroke-miterlimit="10" stroke-linecap="round" stroke-linejoin="round"/>
<path d="M28.6883 6C27.7532 6 7.80519 6 6.87013 6C5.81039 6 5 6.81039 5 7.87013C5 8.92987 5.81039 9.74026 6.87013 9.74026C7.80519 9.74026 27.7532 9.74026 28.6883 9.74026C29.7481 9.74026 30.5584 8.92987 30.5584 7.87013C30.5584 6.81039 29.7481 6 28.6883 6Z" stroke="#F4D052" stroke-width="1.5" stroke-miterlimit="10" stroke-linecap="round" stroke-linejoin="round"/>
<path d="M17.7793 29.9994C18.4678 29.9994 19.026 29.4412 19.026 28.7526C19.026 28.064 18.4678 27.5059 17.7793 27.5059C17.0907 27.5059 16.5325 28.064 16.5325 28.7526C16.5325 29.4412 17.0907 29.9994 17.7793 29.9994Z" fill="#F4D052"/>
<path d="M24.013 14.415L19.026 19.4021L15.9091 16.2852L11.5455 20.6488" stroke="#F4D052" stroke-width="1.5" stroke-miterlimit="10" stroke-linecap="round" stroke-linejoin="round"/>
<path d="M11.5455 21.8959C12.2341 21.8959 12.7923 21.3377 12.7923 20.6491C12.7923 19.9605 12.2341 19.4023 11.5455 19.4023C10.857 19.4023 10.2988 19.9605 10.2988 20.6491C10.2988 21.3377 10.857 21.8959 11.5455 21.8959Z" fill="#F4D052"/>
<path d="M24.013 15.6625C24.7016 15.6625 25.2597 15.1043 25.2597 14.4157C25.2597 13.7271 24.7016 13.1689 24.013 13.1689C23.3244 13.1689 22.7662 13.7271 22.7662 14.4157C22.7662 15.1043 23.3244 15.6625 24.013 15.6625Z" fill="#F4D052"/>
<path d="M15.9091 17.5316C16.5977 17.5316 17.1559 16.9734 17.1559 16.2848C17.1559 15.5963 16.5977 15.0381 15.9091 15.0381C15.2205 15.0381 14.6624 15.5963 14.6624 16.2848C14.6624 16.9734 15.2205 17.5316 15.9091 17.5316Z" fill="#F4D052"/>
<path d="M19.026 20.6488C19.7146 20.6488 20.2727 20.0906 20.2727 19.402C20.2727 18.7135 19.7146 18.1553 19.026 18.1553C18.3374 18.1553 17.7792 18.7135 17.7792 19.402C17.7792 20.0906 18.3374 20.6488 19.026 20.6488Z" fill="#F4D052"/>
</svg>
