<svg width="18" height="19" viewBox="0 0 18 19" fill="none" xmlns="http://www.w3.org/2000/svg">
<path d="M9 9.91992C9.93198 9.91992 10.6875 9.1644 10.6875 8.23242C10.6875 7.30044 9.93198 6.54492 9 6.54492C8.06802 6.54492 7.3125 7.30044 7.3125 8.23242C7.3125 9.1644 8.06802 9.91992 9 9.91992Z" stroke="#06B2D0" stroke-width="1.125" stroke-miterlimit="10"/>
<path d="M14.8125 8.23242C14.8125 5.02242 12.21 2.41992 9 2.41992C5.79 2.41992 3.1875 5.02242 3.1875 8.23242C3.1875 9.6728 3.71437 10.9883 4.58212 12.0038C4.58212 12.0038 7.34063 15.1399 8.22525 15.984C8.65988 16.3984 9.33937 16.3984 9.774 15.984C10.8049 15.0008 13.4171 12.0038 13.4171 12.0038C14.2856 10.9883 14.8125 9.6728 14.8125 8.23242Z" stroke="#06B2D0" stroke-width="1.125" stroke-miterlimit="10"/>
</svg>
