<svg width="36" height="35" viewBox="0 0 36 35" fill="none" xmlns="http://www.w3.org/2000/svg">
<path d="M17.7707 20.1543C18.9605 20.1543 19.925 19.1898 19.925 18C19.925 16.8102 18.9605 15.8457 17.7707 15.8457C16.581 15.8457 15.6165 16.8102 15.6165 18C15.6165 19.1898 16.581 20.1543 17.7707 20.1543Z" stroke="#F4D052" stroke-width="1.5" stroke-miterlimit="10"/>
<path d="M17.7707 10.3086C18.9605 10.3086 19.925 9.34405 19.925 8.15428C19.925 6.9645 18.9605 6 17.7707 6C16.581 6 15.6165 6.9645 15.6165 8.15428C15.6165 9.34405 16.581 10.3086 17.7707 10.3086Z" stroke="#F4D052" stroke-width="1.5" stroke-miterlimit="10"/>
<path d="M17.7707 30C18.9605 30 19.925 29.0355 19.925 27.8457C19.925 26.6559 18.9605 25.6914 17.7707 25.6914C16.581 25.6914 15.6165 26.6559 15.6165 27.8457C15.6165 29.0355 16.581 30 17.7707 30Z" stroke="#F4D052" stroke-width="1.5" stroke-miterlimit="10"/>
<path d="M17.7703 25.391V20.1592" stroke="#F4D052" stroke-width="1.5" stroke-miterlimit="10"/>
<path d="M26.3882 25.0759C27.5776 25.0759 28.5418 24.1117 28.5418 22.9222C28.5418 21.7328 27.5776 20.7686 26.3882 20.7686C25.1987 20.7686 24.2345 21.7328 24.2345 22.9222C24.2345 24.1117 25.1987 25.0759 26.3882 25.0759Z" stroke="#F4D052" stroke-width="1.5" stroke-miterlimit="10"/>
<path d="M9.15366 25.0759C10.3431 25.0759 11.3073 24.1117 11.3073 22.9222C11.3073 21.7328 10.3431 20.7686 9.15366 20.7686C7.96423 20.7686 7 21.7328 7 22.9222C7 24.1117 7.96423 25.0759 9.15366 25.0759Z" stroke="#F4D052" stroke-width="1.5" stroke-miterlimit="10"/>
<path d="M26.3882 15.2302C27.5776 15.2302 28.5418 14.2659 28.5418 13.0765C28.5418 11.8871 27.5776 10.9229 26.3882 10.9229C25.1987 10.9229 24.2345 11.8871 24.2345 13.0765C24.2345 14.2659 25.1987 15.2302 26.3882 15.2302Z" stroke="#F4D052" stroke-width="1.5" stroke-miterlimit="10"/>
<path d="M9.15366 15.2302C10.3431 15.2302 11.3073 14.2659 11.3073 13.0765C11.3073 11.8871 10.3431 10.9229 9.15366 10.9229C7.96423 10.9229 7 11.8871 7 13.0765C7 14.2659 7.96423 15.2302 9.15366 15.2302Z" stroke="#F4D052" stroke-width="1.5" stroke-miterlimit="10"/>
<path d="M16.2031 9.04785L10.7214 12.1808" stroke="#F4D052" stroke-width="1.5" stroke-miterlimit="10"/>
<path d="M19.3379 26.9611L24.8196 23.8281" stroke="#F4D052" stroke-width="1.5" stroke-miterlimit="10"/>
<path d="M16.2031 26.9611L10.7214 23.8281" stroke="#F4D052" stroke-width="1.5" stroke-miterlimit="10"/>
<path d="M19.3379 17.1036L24.8196 13.9707" stroke="#F4D052" stroke-width="1.5" stroke-miterlimit="10"/>
<path d="M16.2031 17.1036L10.7214 13.9707" stroke="#F4D052" stroke-width="1.5" stroke-miterlimit="10"/>
</svg>
