<svg width="401" height="392" viewBox="0 0 401 392" fill="none" xmlns="http://www.w3.org/2000/svg">
<path d="M186.005 19.9267H185.583C185.16 19.9267 185.16 19.5061 185.16 19.5061V1.84053C185.16 1.41992 185.583 1.41992 185.583 1.41992H187.695C188.117 1.41992 188.117 1.41992 188.117 1.84053L192.763 18.6649V1.84053C192.763 1.41992 193.186 1.41992 193.186 1.41992H193.608C194.031 1.41992 194.031 1.84053 194.031 1.84053V19.5061C194.031 19.9267 193.608 19.9267 193.608 19.9267H191.496C191.074 19.9267 191.074 19.9267 191.074 19.5061L186.428 2.68175V19.5061C186.85 19.9267 186.428 19.9267 186.005 19.9267Z" fill="#002D5C" stroke="#002D5C" stroke-width="1.92357"/>
<path d="M204.168 19.9274H203.745C203.323 19.9274 203.323 19.9274 203.323 19.5068V13.1977L199.099 1.84122H200.366C200.366 1.84122 200.789 1.84122 200.789 2.26183L203.745 9.83279C203.745 10.2534 204.59 10.2534 204.59 9.83279L207.547 1.42061L207.969 1H209.237L205.013 12.7771V19.0862C205.013 19.9274 204.59 19.9274 204.168 19.9274Z" fill="#002D5C" stroke="#002D5C" stroke-width="1.92357"/>
<path d="M221.064 5.62601H220.642C220.219 5.62601 220.219 5.2054 220.219 5.2054C219.797 3.94358 218.952 3.10236 217.685 3.10236C216.418 3.10236 215.151 4.36418 215.151 5.62601V16.1412C215.151 17.4031 216.418 18.6649 217.685 18.6649C218.952 18.6649 220.219 17.4031 220.219 16.1412H221.486C221.486 18.6649 219.797 20.3473 217.263 20.3473C214.728 20.3473 213.039 18.2443 213.039 16.1412V5.62601C213.039 3.10236 215.151 1.41992 217.263 1.41992C219.375 1.41992 221.064 3.10236 221.486 5.2054C221.909 5.2054 221.486 5.62601 221.064 5.62601Z" fill="#002D5C" stroke="#002D5C" stroke-width="1.92357"/>
<path d="M165.731 9.19041V11.0703C165.731 12.1982 163.619 12.9502 161.085 12.9502H5.64638C3.11206 13.3261 1.00012 12.1982 1.00012 11.4463V9.19041C1.00012 8.06249 3.11206 7.31055 5.64638 7.31055H161.085C163.619 7.31055 165.731 8.43847 165.731 9.19041Z" fill="#377293"/>
<path d="M401 9.21531V11.1201C401 12.2629 398.888 13.0248 396.354 13.0248H244.717C242.183 13.0248 240.071 12.2629 240.071 11.1201V9.21531C240.071 8.07245 242.183 7.31055 244.717 7.31055H396.354C398.888 7.31055 401 8.4534 401 9.21531Z" fill="#377293"/>
<path d="M401 387.666V389.571C401 390.714 398.884 391.476 396.345 391.476H5.65481C3.11582 391.476 1 390.714 1 389.571V387.666C1 386.524 3.11582 385.762 5.65481 385.762H396.345C398.884 385.762 401 386.524 401 387.666Z" fill="#377293"/>
<path d="M26.9907 75.1414V77.249C26.9907 78.5135 26.1494 79.3565 24.8876 79.3565H12.2693C11.0075 79.3565 10.1663 80.1995 10.1663 81.464V106.333C10.1663 107.597 11.0075 108.44 12.2693 108.44H32.8792C34.141 108.44 34.9822 109.283 34.9822 110.548V112.656C34.9822 113.92 34.141 114.763 32.8792 114.763H5.96017C4.69834 114.763 3.85712 113.92 3.85712 112.656V43.5284C3.85712 42.2639 4.69834 41.4209 5.96017 41.4209H32.8792C34.141 41.4209 34.9822 42.2639 34.9822 43.5284V45.636C34.9822 46.9005 34.141 47.7435 32.8792 47.7435H12.2693C11.0075 47.7435 10.1663 48.5865 10.1663 49.851V70.9264C10.1663 72.1909 11.0075 73.0339 12.2693 73.0339H24.467C25.7288 73.0339 26.9907 74.2984 26.9907 75.1414Z" fill="#002D5C"/>
<path d="M47.6005 114.763H45.4975C44.2357 114.763 43.3944 113.92 43.3944 112.656V43.5284C43.3944 42.2639 44.2357 41.4209 45.4975 41.4209H53.4891C54.3303 41.4209 55.1715 42.2639 55.5921 43.1069L74.0989 108.019L74.5196 108.44C74.5196 108.44 74.9402 108.44 74.9402 108.019V43.5284C74.9402 42.2639 75.7814 41.4209 77.0432 41.4209H79.1463C80.4081 41.4209 81.2493 42.2639 81.2493 43.5284V112.656C81.2493 113.92 80.4081 114.763 79.1463 114.763H71.1547C70.3135 114.763 69.4722 113.92 69.0516 113.077L50.5448 48.165L50.1242 47.7435C50.1242 47.7435 49.7036 47.7435 49.7036 48.165V112.656C49.7036 113.499 48.8624 114.763 47.6005 114.763Z" fill="#002D5C"/>
<path d="M124.572 43.5284V45.636C124.572 46.9005 123.731 47.7435 122.469 47.7435H112.374C111.113 47.7435 110.271 48.5865 110.271 49.851V112.656C110.271 113.92 109.43 114.763 108.168 114.763H106.065C104.803 114.763 103.962 113.92 103.962 112.656V49.851C103.962 48.5865 103.121 47.7435 101.859 47.7435H91.7646C90.5027 47.7435 89.6615 46.9005 89.6615 45.636V43.5284C89.6615 42.2639 90.5027 41.4209 91.7646 41.4209H122.469C123.731 41.8424 124.572 42.6854 124.572 43.5284Z" fill="#002D5C"/>
<path d="M154.015 75.1414V77.249C154.015 78.5135 153.174 79.3565 151.912 79.3565H141.397C140.135 79.3565 139.293 80.1995 139.293 81.464V106.333C139.293 107.597 140.135 108.44 141.397 108.44H162.006C163.268 108.44 164.109 109.283 164.109 110.548V112.656C164.109 113.92 163.268 114.763 162.006 114.763H135.087C133.826 114.763 132.984 113.92 132.984 112.656V43.5284C132.984 42.2639 133.826 41.4209 135.087 41.4209H162.006C163.268 41.4209 164.109 42.2639 164.109 43.5284V45.636C164.109 46.9005 163.268 47.7435 162.006 47.7435H141.397C140.135 47.7435 139.293 48.5865 139.293 49.851V70.9264C139.293 72.1909 140.135 73.0339 141.397 73.0339H151.912C153.174 73.0339 154.015 74.2984 154.015 75.1414Z" fill="#002D5C"/>
<path d="M176.728 114.763H174.625C173.363 114.763 172.522 113.92 172.522 112.656V43.5284C172.522 42.2639 173.363 41.4209 174.625 41.4209H188.925C200.702 41.4209 210.377 51.1156 210.377 62.9177C210.377 71.3479 205.329 78.5135 198.599 82.3071C198.179 82.3071 198.179 83.1501 198.599 83.5716L199.441 84.4146C203.647 87.7866 206.591 92.4232 208.273 95.3738C210.797 99.5888 213.741 102.961 217.106 105.49C220.051 107.597 223.836 109.283 227.622 110.127C235.192 111.813 244.025 110.97 251.176 110.548H252.858C253.699 110.548 254.961 111.391 254.961 112.234L255.382 116.028C255.382 116.028 255.382 116.449 254.961 116.449C254.12 116.449 252.858 116.449 251.596 116.871C247.39 117.292 242.763 117.714 238.137 117.714C233.931 117.714 230.145 117.292 225.939 116.449C220.892 115.606 216.686 113.499 212.9 110.97C208.694 108.019 204.909 103.804 202.385 99.1673C201.123 96.6383 198.179 92.4232 194.814 89.4727C191.449 86.5221 187.664 84.8361 183.878 84.8361H180.513C179.251 84.8361 178.41 85.6791 178.41 86.9436V112.656C178.831 113.499 177.569 114.763 176.728 114.763ZM180.934 78.5135H188.925C197.338 78.5135 204.488 71.7694 204.488 63.3393C204.488 54.9091 197.338 47.7435 188.925 47.7435H180.934C179.672 47.7435 178.831 48.5865 178.831 49.851V76.406C178.831 77.6705 179.672 78.5135 180.934 78.5135ZM226.78 94.1092H224.677C223.415 94.1092 222.574 93.2662 222.574 92.0017V43.5284C222.574 42.2639 223.415 41.4209 224.677 41.4209H242.343C249.914 41.4209 256.223 47.7435 256.223 55.3306C256.223 62.9177 249.914 69.2403 242.343 69.2403H230.986C229.725 69.2403 228.883 70.0834 228.883 71.3479V92.0017C228.883 93.2662 228.042 94.1092 226.78 94.1092ZM228.883 49.851V60.8102C228.883 62.0747 229.725 62.9177 230.986 62.9177H242.343C246.549 62.9177 249.914 59.5457 249.914 55.3306C249.914 51.1156 246.549 47.7435 242.343 47.7435H230.986C229.725 47.7435 228.883 48.5865 228.883 49.851Z" fill="#002D5C"/>
<path d="M302.49 109.705V112.656C302.49 113.92 301.649 114.763 300.387 114.342C295.76 113.499 292.395 108.862 290.713 104.225L286.086 92.0017C284.404 87.7866 280.198 84.8361 275.571 84.8361H273.047C271.786 84.8361 270.944 85.6791 270.944 86.9436V112.656C270.944 113.92 270.103 114.763 268.841 114.763H266.738C265.476 114.763 264.635 113.92 264.635 112.656V43.5284C264.635 42.2639 265.476 41.4209 266.738 41.4209H281.039C292.816 41.4209 302.49 51.1156 302.49 62.9177C302.49 72.1909 297.022 79.778 289.031 82.7286C288.61 83.1501 288.189 83.5716 288.61 83.9931C289.872 85.6791 290.713 87.3651 291.554 89.4727L296.181 101.696C297.022 103.804 298.705 106.754 300.808 107.597C301.649 108.44 302.49 109.283 302.49 109.705ZM273.047 78.5135H281.039C289.451 78.5135 296.181 71.7694 296.181 62.9177C296.181 54.4876 289.451 47.7435 281.039 47.7435H273.047C271.786 47.7435 270.944 48.5865 270.944 49.851V76.406C270.944 77.6705 271.786 78.5135 273.047 78.5135Z" fill="#002D5C"/>
<path d="M315.108 114.763H313.005C311.743 114.763 310.902 113.92 310.902 112.656V43.5284C310.902 42.2639 311.743 41.4209 313.005 41.4209H315.108C316.37 41.4209 317.211 42.2639 317.211 43.5284V112.656C317.211 113.499 316.37 114.763 315.108 114.763Z" fill="#002D5C"/>
<path d="M325.624 57.0166C325.624 48.5865 332.353 41.8424 340.766 41.8424H342.027C350.44 41.8424 357.169 48.5865 357.169 57.0166V59.9672C357.169 61.2317 356.328 62.0747 355.066 62.0747H352.963C351.701 62.0747 350.86 61.2317 350.86 59.9672V57.0166C350.86 51.9586 347.075 48.165 342.027 48.165H340.766C335.718 48.165 331.933 52.3801 331.933 57.0166V64.1823C331.933 67.5543 333.615 70.5049 336.98 72.1909L349.178 78.092C351.701 79.3565 353.804 81.464 355.487 83.5716C357.169 86.1006 357.59 88.6297 357.59 91.5802V97.9028C357.59 98.7458 358.011 99.5888 358.852 100.01C375.676 105.49 379.462 108.019 394.604 108.019C395.865 108.019 397.127 108.862 397.127 110.127V112.656C397.127 113.92 395.865 114.763 394.604 114.763C379.041 114.342 374.835 111.813 357.59 106.333C356.749 106.333 355.908 106.754 355.487 107.176C352.963 111.391 347.916 114.342 342.869 114.342H341.607C333.195 114.342 326.465 107.597 326.465 99.1673C326.465 97.0598 327.306 94.9523 329.409 93.6877C331.091 92.4232 333.615 92.0017 335.718 92.8447L349.598 97.0598C350.86 97.4813 352.122 96.6383 352.122 94.9523V91.5802C352.122 88.2082 350.44 85.2576 347.075 83.5716L334.877 77.6705C332.353 76.406 330.25 74.2984 328.568 72.1909C327.306 69.6619 326.465 67.1328 326.465 64.1823V57.0166H325.624ZM340.766 108.44H342.027C344.551 108.44 347.075 107.176 348.757 105.49C349.178 105.068 349.178 104.225 348.336 103.804L332.774 98.7458C332.353 98.7458 331.933 98.7458 331.933 99.1673C331.933 104.225 335.718 108.44 340.766 108.44ZM387.033 65.4468V67.5543C387.033 68.8188 386.191 69.6619 384.93 69.6619H375.676C374.414 69.6619 373.573 70.5049 373.573 71.7694V86.1006C373.573 87.3651 374.414 88.2081 375.676 88.2081H392.921C394.183 88.2081 395.024 89.0512 395.024 90.3157V92.4232C395.024 93.6877 394.183 94.5308 392.921 94.5308H369.367C368.105 94.5308 367.264 93.6877 367.264 92.4232V43.5284C367.264 42.2639 368.105 41.4209 369.367 41.4209H392.921C394.183 41.4209 395.024 42.2639 395.024 43.5284V45.636C395.024 46.9005 394.183 47.7435 392.921 47.7435H375.676C374.414 47.7435 373.573 48.5865 373.573 49.851V60.8102C373.573 62.0747 374.414 62.9177 375.676 62.9177H384.93C386.191 63.3393 387.033 64.1823 387.033 65.4468Z" fill="#002D5C"/>
<path d="M26.9907 75.1414V77.249C26.9907 78.5135 26.1494 79.3565 24.8876 79.3565H12.2693C11.0075 79.3565 10.1663 80.1995 10.1663 81.464V106.333C10.1663 107.597 11.0075 108.44 12.2693 108.44H32.8792C34.141 108.44 34.9822 109.283 34.9822 110.548V112.656C34.9822 113.92 34.141 114.763 32.8792 114.763H5.96017C4.69834 114.763 3.85712 113.92 3.85712 112.656V43.5284C3.85712 42.2639 4.69834 41.4209 5.96017 41.4209H32.8792C34.141 41.4209 34.9822 42.2639 34.9822 43.5284V45.636C34.9822 46.9005 34.141 47.7435 32.8792 47.7435H12.2693C11.0075 47.7435 10.1663 48.5865 10.1663 49.851V70.9264C10.1663 72.1909 11.0075 73.0339 12.2693 73.0339H24.467C25.7288 73.0339 26.9907 74.2984 26.9907 75.1414Z" stroke="#002D5C" stroke-width="0.952381"/>
<path d="M47.6005 114.763H45.4975C44.2357 114.763 43.3944 113.92 43.3944 112.656V43.5284C43.3944 42.2639 44.2357 41.4209 45.4975 41.4209H53.4891C54.3303 41.4209 55.1715 42.2639 55.5921 43.1069L74.0989 108.019L74.5196 108.44C74.5196 108.44 74.9402 108.44 74.9402 108.019V43.5284C74.9402 42.2639 75.7814 41.4209 77.0432 41.4209H79.1463C80.4081 41.4209 81.2493 42.2639 81.2493 43.5284V112.656C81.2493 113.92 80.4081 114.763 79.1463 114.763H71.1547C70.3135 114.763 69.4722 113.92 69.0516 113.077L50.5448 48.165L50.1242 47.7435C50.1242 47.7435 49.7036 47.7435 49.7036 48.165V112.656C49.7036 113.499 48.8624 114.763 47.6005 114.763Z" stroke="#002D5C" stroke-width="0.952381"/>
<path d="M124.572 43.5284V45.636C124.572 46.9005 123.731 47.7435 122.469 47.7435H112.374C111.113 47.7435 110.271 48.5865 110.271 49.851V112.656C110.271 113.92 109.43 114.763 108.168 114.763H106.065C104.803 114.763 103.962 113.92 103.962 112.656V49.851C103.962 48.5865 103.121 47.7435 101.859 47.7435H91.7646C90.5027 47.7435 89.6615 46.9005 89.6615 45.636V43.5284C89.6615 42.2639 90.5027 41.4209 91.7646 41.4209H122.469C123.731 41.8424 124.572 42.6854 124.572 43.5284Z" stroke="#002D5C" stroke-width="0.952381"/>
<path d="M154.015 75.1414V77.249C154.015 78.5135 153.174 79.3565 151.912 79.3565H141.397C140.135 79.3565 139.293 80.1995 139.293 81.464V106.333C139.293 107.597 140.135 108.44 141.397 108.44H162.006C163.268 108.44 164.109 109.283 164.109 110.548V112.656C164.109 113.92 163.268 114.763 162.006 114.763H135.087C133.826 114.763 132.984 113.92 132.984 112.656V43.5284C132.984 42.2639 133.826 41.4209 135.087 41.4209H162.006C163.268 41.4209 164.109 42.2639 164.109 43.5284V45.636C164.109 46.9005 163.268 47.7435 162.006 47.7435H141.397C140.135 47.7435 139.293 48.5865 139.293 49.851V70.9264C139.293 72.1909 140.135 73.0339 141.397 73.0339H151.912C153.174 73.0339 154.015 74.2984 154.015 75.1414Z" stroke="#002D5C" stroke-width="0.952381"/>
<path d="M176.728 114.763H174.625C173.363 114.763 172.522 113.92 172.522 112.656V43.5284C172.522 42.2639 173.363 41.4209 174.625 41.4209H188.925C200.702 41.4209 210.377 51.1156 210.377 62.9177C210.377 71.3479 205.329 78.5135 198.599 82.3071C198.179 82.3071 198.179 83.1501 198.599 83.5716L199.441 84.4146C203.647 87.7866 206.591 92.4232 208.273 95.3738C210.797 99.5888 213.741 102.961 217.106 105.49C220.051 107.597 223.836 109.283 227.622 110.127C235.192 111.813 244.025 110.97 251.176 110.548H252.858C253.699 110.548 254.961 111.391 254.961 112.234L255.382 116.028C255.382 116.028 255.382 116.449 254.961 116.449C254.12 116.449 252.858 116.449 251.596 116.871C247.39 117.292 242.763 117.714 238.137 117.714C233.931 117.714 230.145 117.292 225.939 116.449C220.892 115.606 216.686 113.499 212.9 110.97C208.694 108.019 204.909 103.804 202.385 99.1673C201.123 96.6383 198.179 92.4232 194.814 89.4727C191.449 86.5221 187.664 84.8361 183.878 84.8361H180.513C179.251 84.8361 178.41 85.6791 178.41 86.9436V112.656C178.831 113.499 177.569 114.763 176.728 114.763ZM180.934 78.5135H188.925C197.338 78.5135 204.488 71.7694 204.488 63.3393C204.488 54.9091 197.338 47.7435 188.925 47.7435H180.934C179.672 47.7435 178.831 48.5865 178.831 49.851V76.406C178.831 77.6705 179.672 78.5135 180.934 78.5135ZM226.78 94.1092H224.677C223.415 94.1092 222.574 93.2662 222.574 92.0017V43.5284C222.574 42.2639 223.415 41.4209 224.677 41.4209H242.343C249.914 41.4209 256.223 47.7435 256.223 55.3306C256.223 62.9177 249.914 69.2403 242.343 69.2403H230.986C229.725 69.2403 228.883 70.0834 228.883 71.3479V92.0017C228.883 93.2662 228.042 94.1092 226.78 94.1092ZM228.883 49.851V60.8102C228.883 62.0747 229.725 62.9177 230.986 62.9177H242.343C246.549 62.9177 249.914 59.5457 249.914 55.3306C249.914 51.1156 246.549 47.7435 242.343 47.7435H230.986C229.725 47.7435 228.883 48.5865 228.883 49.851Z" stroke="#002D5C" stroke-width="0.952381"/>
<path d="M302.49 109.705V112.656C302.49 113.92 301.649 114.763 300.387 114.342C295.76 113.499 292.395 108.862 290.713 104.225L286.086 92.0017C284.404 87.7866 280.198 84.8361 275.571 84.8361H273.047C271.786 84.8361 270.944 85.6791 270.944 86.9436V112.656C270.944 113.92 270.103 114.763 268.841 114.763H266.738C265.476 114.763 264.635 113.92 264.635 112.656V43.5284C264.635 42.2639 265.476 41.4209 266.738 41.4209H281.039C292.816 41.4209 302.49 51.1156 302.49 62.9177C302.49 72.1909 297.022 79.778 289.031 82.7286C288.61 83.1501 288.189 83.5716 288.61 83.9931C289.872 85.6791 290.713 87.3651 291.554 89.4727L296.181 101.696C297.022 103.804 298.705 106.754 300.808 107.597C301.649 108.44 302.49 109.283 302.49 109.705ZM273.047 78.5135H281.039C289.451 78.5135 296.181 71.7694 296.181 62.9177C296.181 54.4876 289.451 47.7435 281.039 47.7435H273.047C271.786 47.7435 270.944 48.5865 270.944 49.851V76.406C270.944 77.6705 271.786 78.5135 273.047 78.5135Z" stroke="#002D5C" stroke-width="0.952381"/>
<path d="M315.108 114.763H313.005C311.743 114.763 310.902 113.92 310.902 112.656V43.5284C310.902 42.2639 311.743 41.4209 313.005 41.4209H315.108C316.37 41.4209 317.211 42.2639 317.211 43.5284V112.656C317.211 113.499 316.37 114.763 315.108 114.763Z" stroke="#002D5C" stroke-width="0.952381"/>
<path d="M325.624 57.0166C325.624 48.5865 332.353 41.8424 340.766 41.8424H342.027C350.44 41.8424 357.169 48.5865 357.169 57.0166V59.9672C357.169 61.2317 356.328 62.0747 355.066 62.0747H352.963C351.701 62.0747 350.86 61.2317 350.86 59.9672V57.0166C350.86 51.9586 347.075 48.165 342.027 48.165H340.766C335.718 48.165 331.933 52.3801 331.933 57.0166V64.1823C331.933 67.5543 333.615 70.5049 336.98 72.1909L349.178 78.092C351.701 79.3565 353.804 81.464 355.487 83.5716C357.169 86.1006 357.59 88.6297 357.59 91.5802V97.9028C357.59 98.7458 358.011 99.5888 358.852 100.01C375.676 105.49 379.462 108.019 394.604 108.019C395.865 108.019 397.127 108.862 397.127 110.127V112.656C397.127 113.92 395.865 114.763 394.604 114.763C379.041 114.342 374.835 111.813 357.59 106.333C356.749 106.333 355.908 106.754 355.487 107.176C352.963 111.391 347.916 114.342 342.869 114.342H341.607C333.195 114.342 326.465 107.597 326.465 99.1673C326.465 97.0598 327.306 94.9523 329.409 93.6877C331.091 92.4232 333.615 92.0017 335.718 92.8447L349.598 97.0598C350.86 97.4813 352.122 96.6383 352.122 94.9523V91.5802C352.122 88.2082 350.44 85.2576 347.075 83.5716L334.877 77.6705C332.353 76.406 330.25 74.2984 328.568 72.1909C327.306 69.6619 326.465 67.1328 326.465 64.1823V57.0166H325.624ZM340.766 108.44H342.027C344.551 108.44 347.075 107.176 348.757 105.49C349.178 105.068 349.178 104.225 348.336 103.804L332.774 98.7458C332.353 98.7458 331.933 98.7458 331.933 99.1673C331.933 104.225 335.718 108.44 340.766 108.44ZM387.033 65.4468V67.5543C387.033 68.8188 386.191 69.6619 384.93 69.6619H375.676C374.414 69.6619 373.573 70.5049 373.573 71.7694V86.1006C373.573 87.3651 374.414 88.2081 375.676 88.2081H392.921C394.183 88.2081 395.024 89.0512 395.024 90.3157V92.4232C395.024 93.6877 394.183 94.5308 392.921 94.5308H369.367C368.105 94.5308 367.264 93.6877 367.264 92.4232V43.5284C367.264 42.2639 368.105 41.4209 369.367 41.4209H392.921C394.183 41.4209 395.024 42.2639 395.024 43.5284V45.636C395.024 46.9005 394.183 47.7435 392.921 47.7435H375.676C374.414 47.7435 373.573 48.5865 373.573 49.851V60.8102C373.573 62.0747 374.414 62.9177 375.676 62.9177H384.93C386.191 63.3393 387.033 64.1823 387.033 65.4468Z" stroke="#002D5C" stroke-width="0.952381"/>
<path d="M1.01094 181.361V152.698C0.590327 139.631 12.3674 128.672 24.9857 128.672C37.604 128.672 48.9604 139.21 48.9604 152.698V181.361C49.3811 194.006 38.0246 205.808 24.9857 205.387C12.3674 205.808 0.590327 194.427 1.01094 181.361ZM7.74069 152.698V181.361C7.74069 191.055 15.7323 198.642 24.9857 198.642C34.6597 198.642 42.2307 190.634 42.2307 181.361V152.698C42.2307 143.004 34.2391 135.416 24.9857 135.416C15.3117 135.416 7.74069 143.425 7.74069 152.698Z" fill="#002D5C"/>
<path d="M62.9518 204.49H60.8488C59.587 204.49 58.7458 203.647 58.7458 202.382V130.726C58.7458 129.461 59.587 128.618 60.8488 128.618H65.0549C77.2526 128.618 87.3472 138.735 87.3472 151.38C87.3472 163.182 78.0938 172.877 66.7373 173.72C65.4755 173.72 65.0549 174.984 65.0549 175.827V202.382C65.0549 203.647 64.2137 204.49 62.9518 204.49ZM67.1579 166.975C75.1495 166.132 81.0381 159.388 81.0381 150.958C81.0381 142.95 75.1495 135.784 67.1579 134.941C65.8961 134.941 65.0549 135.784 65.0549 137.048V164.868C65.0549 166.132 65.8961 166.975 67.1579 166.975Z" fill="#002D5C"/>
<path d="M118.052 164.079V166.186C118.052 167.451 117.21 168.294 115.949 168.294H105.013C103.751 168.294 102.91 169.137 102.91 170.401V196.113C102.91 197.378 103.751 198.221 105.013 198.221H126.884C128.146 198.221 128.988 199.064 128.988 200.328V202.436C128.988 203.7 128.146 204.544 126.884 204.544H98.283C97.0212 204.544 96.1799 203.7 96.1799 202.436V130.78C96.1799 129.515 97.0212 128.672 98.283 128.672H126.464C127.726 128.672 128.567 129.515 128.567 130.78V132.887C128.567 134.152 127.726 134.995 126.464 134.995H104.592C103.33 134.995 102.489 135.838 102.489 137.102V159.021C102.489 160.285 103.33 161.128 104.592 161.128H115.528C117.21 161.971 118.052 162.814 118.052 164.079Z" fill="#002D5C"/>
<path d="M176.937 199.907V202.857C176.937 204.122 176.096 204.965 174.834 204.965C169.787 203.7 166.422 199.485 164.739 194.427L160.113 181.782C158.43 177.145 154.224 174.195 149.177 174.195H146.233C144.971 174.195 144.129 175.038 144.129 176.302V202.857C144.129 204.122 143.288 204.965 142.026 204.965H139.923C138.662 204.965 137.82 204.122 137.82 202.857V131.201C137.82 129.937 138.662 129.094 139.923 129.094H154.645C166.842 129.094 176.937 139.21 176.937 151.433C176.937 160.707 171.048 168.715 163.057 172.087C162.636 172.509 162.216 172.93 162.636 173.352C163.898 175.038 165.16 176.724 166.001 178.831L170.628 191.477C171.469 193.584 173.152 196.535 175.255 197.378C175.675 198.221 176.937 199.485 176.937 199.907ZM145.812 167.451H154.224C163.057 167.451 170.207 160.285 170.207 151.433C170.207 142.582 163.057 135.416 154.224 135.416H145.812C144.55 135.416 143.709 136.259 143.709 137.524V165.343C143.709 166.608 144.971 167.451 145.812 167.451Z" fill="#002D5C"/>
<path d="M225.109 202.382C225.109 203.647 224.268 204.49 223.006 204.49H220.903C219.641 204.49 218.8 203.647 218.8 202.382V194.373C218.8 189.737 218.379 185.522 217.538 180.885C217.117 179.621 216.276 178.778 215.014 178.778C211.229 179.199 207.864 178.356 204.92 176.67C202.396 175.406 199.872 174.984 197.349 175.406C196.507 175.827 196.087 176.249 196.087 176.67C194.825 183.414 194.404 188.894 194.404 194.373V202.382C194.404 203.647 193.563 204.49 192.301 204.49H190.198C188.936 204.49 188.095 203.647 188.095 202.382V194.373C188.095 188.472 188.516 182.15 189.778 176.249L199.452 130.304C199.452 129.461 200.713 128.618 201.555 128.618H212.07C212.911 128.618 214.173 129.461 214.173 130.304L223.847 176.249C225.109 182.15 225.95 188.472 225.95 194.373V202.382H225.109ZM206.181 134.941C204.92 134.941 204.078 135.784 204.078 136.627L197.769 166.554C197.349 167.397 198.61 168.24 199.452 168.661C202.396 168.661 205.34 169.505 208.284 170.769C210.387 172.034 212.49 172.455 214.594 172.034C215.435 172.034 215.855 171.191 215.855 170.348L208.705 136.627C208.284 135.784 207.023 134.941 206.181 134.941Z" fill="#002D5C"/>
<path d="M267.678 131.201V133.309C267.678 134.573 266.836 135.416 265.575 135.416H254.639C253.377 135.416 252.536 136.259 252.536 137.524V202.857C252.536 204.122 251.694 204.965 250.433 204.965H248.33C247.068 204.965 246.227 204.122 246.227 202.857V137.524C246.227 136.259 245.385 135.416 244.123 135.416H233.608C232.346 135.416 231.505 134.573 231.505 133.309V131.201C231.505 129.937 232.346 129.094 233.608 129.094H265.995C266.416 129.094 267.678 129.937 267.678 131.201Z" fill="#002D5C"/>
<path d="M275.137 186.84V146.797C275.137 136.681 283.129 128.251 293.224 128.251C303.318 128.251 311.73 136.681 311.73 146.797V186.84C311.73 196.957 303.318 204.965 293.224 204.965C283.549 204.965 275.137 196.957 275.137 186.84ZM281.867 146.797V186.84C281.867 193.163 287.335 198.643 293.644 198.643C299.953 198.643 305.421 193.163 305.421 186.84V146.797C305.421 140.475 299.953 134.995 293.644 134.995C286.914 134.995 281.867 140.053 281.867 146.797Z" fill="#002D5C"/>
<path d="M358.109 200.75V202.857C358.109 204.122 357.267 204.965 356.006 204.965C349.696 204.122 344.229 199.907 342.125 194.006L337.499 181.36C336.658 179.253 334.975 177.145 333.293 175.881C332.031 175.038 330.769 174.195 329.087 174.195C328.666 174.195 328.245 174.616 328.245 175.038V202.857C328.245 204.122 327.404 204.965 326.142 204.965H324.039C322.777 204.965 321.936 204.122 321.936 202.857V131.201C321.936 129.937 322.777 129.094 324.039 129.094H332.451C344.649 129.094 354.744 138.788 354.744 151.433C354.744 160.707 348.855 169.137 340.864 172.509C340.443 172.93 340.022 173.773 340.443 174.195C341.705 175.881 342.967 177.567 343.808 179.674L348.435 192.32C349.696 195.692 352.641 198.221 356.426 199.064C356.847 198.642 358.109 199.907 358.109 200.75ZM329.928 167.451H332.031C340.864 167.451 348.014 159.864 348.014 151.012C348.014 142.16 340.864 135.416 332.031 135.416H329.928C328.666 135.416 327.825 136.259 327.825 137.524V165.343C327.825 166.608 328.666 167.451 329.928 167.451Z" fill="#002D5C"/>
<path d="M393.44 180.939C393.44 177.146 391.337 174.195 388.393 172.509L375.774 166.186C370.306 163.657 366.942 157.335 366.942 151.012V144.268C366.942 135.416 374.092 128.672 382.504 128.672H384.187C393.019 128.672 399.749 135.838 399.749 144.268V147.64C399.749 148.905 398.908 149.748 397.646 149.748H395.543C394.281 149.748 393.44 148.905 393.44 147.64V144.268C393.44 139.21 389.234 134.995 384.187 134.995H382.504C377.457 134.995 373.251 139.21 373.251 144.268V151.012C373.251 154.384 375.354 158.599 378.298 160.285L390.916 166.608C396.384 169.137 399.749 175.038 399.749 180.939V188.948C399.749 197.799 392.599 204.544 384.187 204.544H382.504C373.671 204.544 366.942 197.378 366.942 188.948V185.576C366.942 184.311 367.783 183.468 369.045 183.468H371.148C372.41 183.468 373.251 184.311 373.251 185.576V188.948C373.251 194.006 377.457 198.221 382.504 198.221H384.187C389.234 198.221 393.019 194.427 393.44 189.369V180.939Z" fill="#002D5C"/>
<path d="M1.01094 181.361V152.698C0.590327 139.631 12.3674 128.672 24.9857 128.672C37.604 128.672 48.9604 139.21 48.9604 152.698V181.361C49.3811 194.006 38.0246 205.808 24.9857 205.387C12.3674 205.808 0.590327 194.427 1.01094 181.361ZM7.74069 152.698V181.361C7.74069 191.055 15.7323 198.642 24.9857 198.642C34.6597 198.642 42.2307 190.634 42.2307 181.361V152.698C42.2307 143.004 34.2391 135.416 24.9857 135.416C15.3117 135.416 7.74069 143.425 7.74069 152.698Z" stroke="#002D5C" stroke-width="0.952381"/>
<path d="M62.9518 204.49H60.8488C59.587 204.49 58.7458 203.647 58.7458 202.382V130.726C58.7458 129.461 59.587 128.618 60.8488 128.618H65.0549C77.2526 128.618 87.3472 138.735 87.3472 151.38C87.3472 163.182 78.0938 172.877 66.7373 173.72C65.4755 173.72 65.0549 174.984 65.0549 175.827V202.382C65.0549 203.647 64.2137 204.49 62.9518 204.49ZM67.1579 166.975C75.1495 166.132 81.0381 159.388 81.0381 150.958C81.0381 142.95 75.1495 135.784 67.1579 134.941C65.8961 134.941 65.0549 135.784 65.0549 137.048V164.868C65.0549 166.132 65.8961 166.975 67.1579 166.975Z" stroke="#002D5C" stroke-width="0.952381"/>
<path d="M118.052 164.079V166.186C118.052 167.451 117.21 168.294 115.949 168.294H105.013C103.751 168.294 102.91 169.137 102.91 170.401V196.113C102.91 197.378 103.751 198.221 105.013 198.221H126.884C128.146 198.221 128.988 199.064 128.988 200.328V202.436C128.988 203.7 128.146 204.544 126.884 204.544H98.283C97.0212 204.544 96.1799 203.7 96.1799 202.436V130.78C96.1799 129.515 97.0212 128.672 98.283 128.672H126.464C127.726 128.672 128.567 129.515 128.567 130.78V132.887C128.567 134.152 127.726 134.995 126.464 134.995H104.592C103.33 134.995 102.489 135.838 102.489 137.102V159.021C102.489 160.285 103.33 161.128 104.592 161.128H115.528C117.21 161.971 118.052 162.814 118.052 164.079Z" stroke="#002D5C" stroke-width="0.952381"/>
<path d="M176.937 199.907V202.857C176.937 204.122 176.096 204.965 174.834 204.965C169.787 203.7 166.422 199.485 164.739 194.427L160.113 181.782C158.43 177.145 154.224 174.195 149.177 174.195H146.233C144.971 174.195 144.129 175.038 144.129 176.302V202.857C144.129 204.122 143.288 204.965 142.026 204.965H139.923C138.662 204.965 137.82 204.122 137.82 202.857V131.201C137.82 129.937 138.662 129.094 139.923 129.094H154.645C166.842 129.094 176.937 139.21 176.937 151.433C176.937 160.707 171.048 168.715 163.057 172.087C162.636 172.509 162.216 172.93 162.636 173.352C163.898 175.038 165.16 176.724 166.001 178.831L170.628 191.477C171.469 193.584 173.152 196.535 175.255 197.378C175.675 198.221 176.937 199.485 176.937 199.907ZM145.812 167.451H154.224C163.057 167.451 170.207 160.285 170.207 151.433C170.207 142.582 163.057 135.416 154.224 135.416H145.812C144.55 135.416 143.709 136.259 143.709 137.524V165.343C143.709 166.608 144.971 167.451 145.812 167.451Z" stroke="#002D5C" stroke-width="0.952381"/>
<path d="M225.109 202.382C225.109 203.647 224.268 204.49 223.006 204.49H220.903C219.641 204.49 218.8 203.647 218.8 202.382V194.373C218.8 189.737 218.379 185.522 217.538 180.885C217.117 179.621 216.276 178.778 215.014 178.778C211.229 179.199 207.864 178.356 204.92 176.67C202.396 175.406 199.872 174.984 197.349 175.406C196.507 175.827 196.087 176.249 196.087 176.67C194.825 183.414 194.404 188.894 194.404 194.373V202.382C194.404 203.647 193.563 204.49 192.301 204.49H190.198C188.936 204.49 188.095 203.647 188.095 202.382V194.373C188.095 188.472 188.516 182.15 189.778 176.249L199.452 130.304C199.452 129.461 200.713 128.618 201.555 128.618H212.07C212.911 128.618 214.173 129.461 214.173 130.304L223.847 176.249C225.109 182.15 225.95 188.472 225.95 194.373V202.382H225.109ZM206.181 134.941C204.92 134.941 204.078 135.784 204.078 136.627L197.769 166.554C197.349 167.397 198.61 168.24 199.452 168.661C202.396 168.661 205.34 169.505 208.284 170.769C210.387 172.034 212.49 172.455 214.594 172.034C215.435 172.034 215.855 171.191 215.855 170.348L208.705 136.627C208.284 135.784 207.023 134.941 206.181 134.941Z" stroke="#002D5C" stroke-width="0.952381"/>
<path d="M267.678 131.201V133.309C267.678 134.573 266.836 135.416 265.575 135.416H254.639C253.377 135.416 252.536 136.259 252.536 137.524V202.857C252.536 204.122 251.694 204.965 250.433 204.965H248.33C247.068 204.965 246.227 204.122 246.227 202.857V137.524C246.227 136.259 245.385 135.416 244.123 135.416H233.608C232.346 135.416 231.505 134.573 231.505 133.309V131.201C231.505 129.937 232.346 129.094 233.608 129.094H265.995C266.416 129.094 267.678 129.937 267.678 131.201Z" stroke="#002D5C" stroke-width="0.952381"/>
<path d="M275.137 186.84V146.797C275.137 136.681 283.129 128.251 293.224 128.251C303.318 128.251 311.73 136.681 311.73 146.797V186.84C311.73 196.957 303.318 204.965 293.224 204.965C283.549 204.965 275.137 196.957 275.137 186.84ZM281.867 146.797V186.84C281.867 193.163 287.335 198.643 293.644 198.643C299.953 198.643 305.421 193.163 305.421 186.84V146.797C305.421 140.475 299.953 134.995 293.644 134.995C286.914 134.995 281.867 140.053 281.867 146.797Z" stroke="#002D5C" stroke-width="0.952381"/>
<path d="M358.109 200.75V202.857C358.109 204.122 357.267 204.965 356.006 204.965C349.696 204.122 344.229 199.907 342.125 194.006L337.499 181.36C336.658 179.253 334.975 177.145 333.293 175.881C332.031 175.038 330.769 174.195 329.087 174.195C328.666 174.195 328.245 174.616 328.245 175.038V202.857C328.245 204.122 327.404 204.965 326.142 204.965H324.039C322.777 204.965 321.936 204.122 321.936 202.857V131.201C321.936 129.937 322.777 129.094 324.039 129.094H332.451C344.649 129.094 354.744 138.788 354.744 151.433C354.744 160.707 348.855 169.137 340.864 172.509C340.443 172.93 340.022 173.773 340.443 174.195C341.705 175.881 342.967 177.567 343.808 179.674L348.435 192.32C349.696 195.692 352.641 198.221 356.426 199.064C356.847 198.642 358.109 199.907 358.109 200.75ZM329.928 167.451H332.031C340.864 167.451 348.014 159.864 348.014 151.012C348.014 142.16 340.864 135.416 332.031 135.416H329.928C328.666 135.416 327.825 136.259 327.825 137.524V165.343C327.825 166.608 328.666 167.451 329.928 167.451Z" stroke="#002D5C" stroke-width="0.952381"/>
<path d="M393.44 180.939C393.44 177.146 391.337 174.195 388.393 172.509L375.774 166.186C370.306 163.657 366.942 157.335 366.942 151.012V144.268C366.942 135.416 374.092 128.672 382.504 128.672H384.187C393.019 128.672 399.749 135.838 399.749 144.268V147.64C399.749 148.905 398.908 149.748 397.646 149.748H395.543C394.281 149.748 393.44 148.905 393.44 147.64V144.268C393.44 139.21 389.234 134.995 384.187 134.995H382.504C377.457 134.995 373.251 139.21 373.251 144.268V151.012C373.251 154.384 375.354 158.599 378.298 160.285L390.916 166.608C396.384 169.137 399.749 175.038 399.749 180.939V188.948C399.749 197.799 392.599 204.544 384.187 204.544H382.504C373.671 204.544 366.942 197.378 366.942 188.948V185.576C366.942 184.311 367.783 183.468 369.045 183.468H371.148C372.41 183.468 373.251 184.311 373.251 185.576V188.948C373.251 194.006 377.457 198.221 382.504 198.221H384.187C389.234 198.221 393.019 194.427 393.44 189.369V180.939Z" stroke="#002D5C" stroke-width="0.952381"/>
<path d="M34.2283 276.841C44.7435 272.626 51.8939 262.088 51.8939 250.286C51.8939 234.269 38.855 221.624 23.2924 221.624H3.94439C2.26195 221.624 1.00012 222.888 1.00012 224.574V316.463C1.00012 318.149 2.26195 319.413 3.94439 319.413H6.88866C8.5711 319.413 9.83293 318.149 9.83293 316.463V282.321C9.83293 280.635 11.0948 279.37 12.7772 279.37H16.5627C22.8718 279.37 28.3398 283.164 30.4428 289.065L36.752 305.504C38.855 311.826 43.4817 317.306 49.7909 318.992C51.4733 319.413 52.7351 318.149 52.7351 316.463V312.669C52.7351 311.826 51.4733 310.562 50.6321 310.14C47.6878 308.876 45.5848 305.082 44.3229 302.553L37.5932 285.693C36.3313 283.164 35.0695 280.635 33.3871 278.527C32.9665 278.106 33.3871 277.263 34.2283 276.841ZM23.2924 270.519H12.3566C10.6741 270.519 9.41232 269.254 9.41232 267.568V232.161C9.41232 230.475 10.6741 229.211 12.3566 229.211H22.8718C34.2283 229.211 43.4817 238.484 43.4817 249.865C43.4817 261.667 34.2283 270.519 23.2924 270.519Z" fill="#002D5C"/>
<path d="M98.6927 221.202H62.5202C60.8378 221.202 59.576 222.467 59.576 224.153V316.041C59.576 317.727 60.8378 318.992 62.5202 318.992H98.6927C100.375 318.992 101.637 317.727 101.637 316.041V313.091C101.637 311.405 100.375 310.14 98.6927 310.14H70.9324C69.25 310.14 67.9882 308.876 67.9882 307.19V274.312C67.9882 272.626 69.25 271.362 70.9324 271.362H85.2332C86.9156 271.362 88.1774 270.097 88.1774 268.411V265.46C88.1774 263.774 86.9156 262.51 85.2332 262.51H70.9324C69.25 262.51 67.9882 261.245 67.9882 259.559V231.318C67.9882 229.632 69.25 228.368 70.9324 228.368H98.6927C100.375 228.368 101.637 227.103 101.637 225.417V222.467C101.216 222.467 99.9545 221.202 98.6927 221.202Z" fill="#002D5C"/>
<path d="M152.11 221.202H110.891C109.208 221.202 107.946 222.467 107.946 224.153V227.103C107.946 228.789 109.208 230.054 110.891 230.054H124.35C126.032 230.054 127.294 231.318 127.294 233.004V316.463C127.294 318.149 128.556 319.413 130.239 319.413H133.183C134.865 319.413 136.127 318.149 136.127 316.463V232.583C136.127 230.897 137.389 229.632 139.071 229.632H152.951C154.634 229.632 155.896 228.368 155.896 226.682V223.731C155.055 222.467 153.793 221.202 152.11 221.202Z" fill="#002D5C"/>
<path d="M234.421 302.132H266.807C268.49 302.132 269.752 300.867 269.752 299.181V296.23C269.752 294.544 268.49 293.28 266.807 293.28H242.833C241.15 293.28 239.888 292.015 239.888 290.329V268.833C239.888 267.146 241.15 265.882 242.833 265.882H255.451C257.133 265.882 258.395 264.617 258.395 262.931V259.981C258.395 258.295 257.133 257.03 255.451 257.03H242.833C241.15 257.03 239.888 255.766 239.888 254.08V230.897C239.888 229.211 241.15 227.946 242.833 227.946H266.807C268.49 227.946 269.752 226.682 269.752 224.996V222.045C269.752 220.359 268.49 219.095 266.807 219.095H234.421C232.738 219.095 231.476 220.359 231.476 222.045V297.495C231.476 300.867 232.738 302.132 234.421 302.132Z" fill="#002D5C"/>
<path d="M395.559 221.202H331.563C329.881 221.202 328.619 222.467 328.619 224.153V227.103C328.619 228.789 329.881 230.054 331.563 230.054H356.848C358.53 230.054 359.792 231.318 359.792 233.004V316.463C359.792 318.149 361.054 319.413 362.737 319.413H365.681C367.363 319.413 368.625 318.149 368.625 316.463V232.583C368.625 230.897 369.887 229.632 371.569 229.632H396.4C398.083 229.632 399.345 228.368 399.345 226.682V223.731C398.083 222.467 396.821 221.202 395.559 221.202Z" fill="#002D5C"/>
<path d="M330.554 312.669C330.554 310.983 328.871 310.14 327.61 310.14L288.802 313.622C272.399 315.308 249.352 316.041 240.519 313.934C235.051 312.669 228.322 310.14 224.116 307.19C219.489 303.818 215.703 299.603 212.339 293.701C209.815 289.486 206.029 283.585 200.561 278.949L199.3 277.684C198.458 277.263 198.879 276.42 199.3 275.998C208.553 271.362 215.283 261.667 215.283 250.286C215.283 234.269 202.244 221.202 186.681 221.202H167.754C166.071 221.202 164.81 222.467 164.81 224.153V316.041C164.81 317.727 166.071 318.992 167.754 318.992H170.698C172.381 318.992 173.642 317.727 173.642 316.041V281.899C173.642 280.213 174.904 278.949 176.587 278.949H181.213C186.261 278.949 191.308 281.056 195.935 285.271C200.561 289.065 203.926 294.123 206.029 297.916C209.815 304.661 214.442 310.14 220.33 313.934C225.377 317.727 232.948 320.678 239.678 321.942C245.146 323.207 250.614 323.628 256.082 323.628C259.867 323.628 277.867 322.895 290.905 321.63L329.713 318.57C331.395 318.57 332.236 316.884 332.236 315.62L330.554 312.669ZM186.261 270.519H175.745C174.063 270.519 172.801 269.254 172.801 267.568V232.161C172.801 230.475 174.063 229.211 175.745 229.211H186.261C197.617 229.211 206.871 238.484 206.871 249.865C206.871 261.667 197.617 270.519 186.261 270.519Z" fill="#002D5C"/>
<path d="M328.619 299.117C328.619 300.378 327.624 301.219 326.132 301.219H323.646C322.153 301.219 321.159 300.378 321.159 299.117V290.707C321.159 286.082 320.661 281.457 319.667 276.832C319.169 275.571 318.175 274.73 316.683 274.73C312.206 275.15 308.228 274.309 304.746 272.207C301.762 270.945 298.778 270.525 295.794 270.945C294.799 271.366 294.302 271.786 294.302 272.207C292.81 279.355 292.312 285.241 292.312 290.287V298.696C292.312 299.958 291.318 300.798 289.825 300.798H286.344C284.852 300.798 283.857 299.958 283.857 298.696V290.287C283.857 283.98 284.355 277.673 285.847 271.786L297.286 223.853C297.286 223.012 298.778 222.171 299.773 222.171H312.206C313.201 222.171 314.693 223.012 314.693 223.853L326.132 272.207C327.624 278.514 328.619 284.821 328.619 290.707V299.117ZM306.238 229.319C304.746 229.319 303.751 230.16 303.751 231.001L296.291 262.116C295.794 262.957 297.286 264.218 298.28 264.218C301.762 264.218 305.243 265.059 308.725 266.741C311.212 268.002 313.698 268.423 316.185 268.002C317.18 268.002 317.677 267.161 317.677 266.32L309.222 231.422C308.725 230.16 307.233 229.319 306.238 229.319Z" fill="#002D5C"/>
<path d="M394.333 309.627C397.429 309.627 400.048 312.233 400.048 315.313C400.048 318.512 397.429 320.999 394.333 320.999C391.119 320.999 388.619 318.512 388.619 315.313C388.619 312.233 391.119 309.627 394.333 309.627ZM394.333 266.714C397.429 266.714 400.048 269.32 400.048 272.4C400.048 275.598 397.429 278.086 394.333 278.086C391.119 278.086 388.619 275.598 388.619 272.4C388.619 269.32 391.119 266.714 394.333 266.714Z" fill="#002D5C"/>
<path d="M5.88417 367.182C3.6691 367.182 1.85346 365.367 1.85346 363.152V361.481C1.85346 361.082 2.18027 360.755 2.57971 360.755H3.30597C3.70541 360.755 4.03222 361.082 4.03222 361.481V363.152C4.03222 364.168 4.86742 365.004 5.88417 365.004C6.93724 365.004 7.77243 364.168 7.77243 363.152V342.49C7.77243 342.09 8.09925 341.763 8.49869 341.763H9.22494C9.62438 341.763 9.9512 342.09 9.9512 342.49V363.152C9.9512 365.367 8.13556 367.182 5.88417 367.182Z" fill="#002D5C"/>
<path d="M142.767 353.493C142.767 353.093 142.441 352.766 142.041 352.766H138.301C137.901 352.766 137.575 352.439 137.575 352.04V344.669C137.575 344.269 137.901 343.942 138.301 343.942H146.943C147.343 343.942 147.67 343.615 147.67 343.216V342.49C147.67 342.09 147.343 341.763 146.943 341.763H136.122C135.723 341.763 135.396 342.09 135.396 342.49V366.456C135.396 366.856 135.723 367.182 136.122 367.182H136.848C137.248 367.182 137.575 366.856 137.575 366.456V355.671C137.575 355.272 137.901 354.945 138.301 354.945H142.077C142.477 354.945 142.804 354.618 142.804 354.219L142.767 353.493Z" fill="#002D5C"/>
<path fill-rule="evenodd" clip-rule="evenodd" d="M165.843 364.895C165.988 364.967 166.351 365.331 166.351 365.512V366.456C166.351 366.928 166.061 367.219 165.589 367.11C163.919 366.747 162.793 365.222 162.212 363.624L160.614 359.339C160.033 357.85 158.581 356.833 156.983 356.833H156.039C155.639 356.833 155.312 357.16 155.312 357.56V366.456C155.312 366.856 154.986 367.183 154.586 367.183H153.86C153.46 367.183 153.134 366.856 153.134 366.456V342.49C153.134 342.09 153.46 341.764 153.86 341.764H158.835C162.974 341.764 166.351 345.141 166.351 349.28C166.351 352.44 164.427 355.127 161.703 356.252C161.522 356.361 161.413 356.579 161.558 356.724C162.03 357.305 162.357 357.923 162.648 358.576L164.245 362.861C164.536 363.624 165.081 364.604 165.843 364.895ZM155.312 353.928C155.312 354.328 155.639 354.655 156.039 354.655H158.835C161.776 354.655 164.173 352.258 164.173 349.28C164.173 346.339 161.776 343.942 158.835 343.942H156.039C155.639 343.942 155.312 344.269 155.312 344.669V353.928Z" fill="#002D5C"/>
<path fill-rule="evenodd" clip-rule="evenodd" d="M171.83 359.375C171.685 363.66 175.534 367.509 179.819 367.364C184.104 367.509 187.953 363.66 187.808 359.375V349.752C187.917 345.359 184.068 341.764 179.819 341.764C175.571 341.764 171.721 345.359 171.83 349.752V359.375ZM174.009 349.752C174.009 346.557 176.624 343.942 179.819 343.942C183.015 343.942 185.629 346.557 185.629 349.752V359.375C185.629 362.571 183.015 365.185 179.819 365.185C176.624 365.185 174.009 362.571 174.009 359.375V349.752Z" fill="#002D5C"/>
<path d="M194.743 367.183C195.143 367.183 195.469 366.856 195.469 366.456V344.124C195.469 344.015 195.542 343.942 195.651 343.942C195.76 343.942 195.833 344.015 195.869 344.124L200.517 366.602C200.553 366.928 200.88 367.183 201.207 367.183H202.151C202.478 367.183 202.805 366.928 202.877 366.602L207.162 344.124C207.198 344.015 207.271 343.942 207.38 343.942C207.489 343.942 207.562 344.015 207.562 344.124V366.456C207.562 366.856 207.888 367.183 208.288 367.183H209.014C209.414 367.183 209.74 366.856 209.74 366.456V342.49C209.74 342.09 209.414 341.764 209.014 341.764H206.036C205.71 341.764 205.383 342.018 205.31 342.345L202.333 357.85C202.187 358.613 201.062 358.613 200.916 357.85L197.721 342.345C197.684 342.018 197.358 341.764 197.031 341.764H194.017C193.617 341.764 193.291 342.09 193.291 342.49V366.456C193.291 366.856 193.617 367.183 194.017 367.183H194.743Z" fill="#002D5C"/>
<path d="M115.591 366.456C115.591 366.856 115.264 367.183 114.865 367.183H114.138C113.739 367.183 113.412 366.856 113.412 366.456V357.233C113.412 357.16 113.34 356.87 113.267 356.833L111.851 354.764C110.544 352.875 109.527 350.769 108.837 348.59C108.219 346.593 107.856 344.56 107.784 342.454C107.784 342.054 108.111 341.764 108.51 341.764H109.236C109.636 341.764 109.962 342.163 109.962 342.562C110.035 344.378 110.362 346.194 110.907 347.937C111.524 349.934 112.432 351.786 113.63 353.529L114.175 354.291C114.211 354.364 114.393 354.473 114.502 354.473C114.611 354.473 114.792 354.364 114.828 354.291L115.409 353.493C116.571 351.786 117.479 349.898 118.097 347.937C118.641 346.194 118.968 344.378 119.041 342.562C119.041 342.163 119.367 341.764 119.767 341.764H120.493C120.893 341.764 121.219 342.054 121.219 342.454C121.147 344.56 120.784 346.593 120.166 348.59C119.513 350.769 118.496 352.839 117.189 354.727L115.736 356.797C115.7 356.833 115.591 357.124 115.591 357.197V366.456Z" fill="#002D5C"/>
<path d="M99.3821 353.493C99.3821 353.093 99.0553 352.766 98.6559 352.766H94.3347C93.9352 352.766 93.6084 352.44 93.6084 352.04V344.669C93.6084 344.269 93.9352 343.942 94.3347 343.942H101.597C101.997 343.942 102.323 343.616 102.323 343.216V342.49C102.323 342.09 101.997 341.764 101.597 341.764H92.1559C91.7564 341.764 91.4296 342.09 91.4296 342.49V366.456C91.4296 366.856 91.7564 367.183 92.1559 367.183H101.597C101.997 367.183 102.323 366.856 102.323 366.456V365.73C102.323 365.331 101.997 365.004 101.597 365.004H94.3347C93.9352 365.004 93.6084 364.677 93.6084 364.277V355.671C93.6084 355.272 93.9352 354.945 94.3347 354.945H98.6196C99.019 354.945 99.3458 354.618 99.3458 354.219L99.3821 353.493Z" fill="#002D5C"/>
<path d="M75.0187 366.456C75.0187 366.856 74.6919 367.183 74.2924 367.183H73.5662C73.1667 367.183 72.8399 366.856 72.8399 366.456V342.49C72.8399 342.09 73.1667 341.764 73.5662 341.764H76.3623C76.6528 341.764 76.9796 342.018 77.0522 342.308L83.5159 364.895C83.5522 364.931 83.6248 365.004 83.6974 365.004C83.7337 365.004 83.8064 364.931 83.8064 364.858V342.49C83.8064 342.09 84.1332 341.764 84.5326 341.764H85.2589C85.6583 341.764 85.9851 342.09 85.9851 342.49V366.456C85.9851 366.856 85.6583 367.183 85.2589 367.183H82.4265C82.136 367.183 81.8092 366.928 81.7365 366.638L75.3092 344.051C75.2729 344.015 75.2002 343.942 75.1639 343.942C75.0913 343.942 75.0187 344.015 75.0187 344.051V366.456Z" fill="#002D5C"/>
<path fill-rule="evenodd" clip-rule="evenodd" d="M67.398 365.512C67.398 365.331 67.0349 364.967 66.8896 364.895C66.1271 364.604 65.5824 363.624 65.2919 362.861L63.6941 358.576C63.4036 357.923 63.0768 357.305 62.6048 356.724C62.4595 356.579 62.5684 356.361 62.75 356.252C65.4735 355.127 67.398 352.44 67.398 349.28C67.398 345.141 64.0209 341.764 59.8813 341.764H54.9065C54.507 341.764 54.1802 342.09 54.1802 342.49V366.456C54.1802 366.856 54.507 367.183 54.9065 367.183H55.6327C56.0322 367.183 56.359 366.856 56.359 366.456V357.56C56.359 357.16 56.6858 356.833 57.0852 356.833H58.0293C59.6271 356.833 61.0796 357.85 61.6606 359.339L63.2584 363.624C63.8394 365.222 64.9651 366.747 66.6355 367.11C67.1075 367.219 67.398 366.928 67.398 366.456V365.512ZM57.0852 354.655C56.6858 354.655 56.359 354.328 56.359 353.928V344.669C56.359 344.269 56.6858 343.942 57.0852 343.942H59.8813C62.8226 343.942 65.2193 346.339 65.2193 349.28C65.2193 352.258 62.8226 354.655 59.8813 354.655H57.0852Z" fill="#002D5C"/>
<path d="M36.9031 361.481L37.0483 342.49C37.0483 342.09 37.3752 341.764 37.7746 341.764H38.3556C38.755 341.764 39.0819 342.09 39.0819 342.49V361.481C39.0819 363.551 40.7522 365.222 42.8221 365.222C44.8919 365.222 46.5623 363.551 46.5623 361.481V342.49C46.5623 342.09 46.8891 341.764 47.2885 341.764H48.0148C48.4142 341.764 48.741 342.09 48.741 342.49V361.481C48.741 364.75 46.0902 367.4 42.8221 367.4C39.5539 367.4 36.9031 364.75 36.9031 361.481Z" fill="#002D5C"/>
<path fill-rule="evenodd" clip-rule="evenodd" d="M15.4427 359.375C15.2975 363.66 19.1466 367.509 23.4315 367.364C27.7164 367.509 31.5656 363.66 31.4203 359.375V349.752C31.5293 345.359 27.6801 341.764 23.4315 341.764C19.1829 341.764 15.3338 345.359 15.4427 349.752V359.375ZM17.6215 349.752C17.6215 346.557 20.236 343.942 23.4315 343.942C26.6271 343.942 29.2416 346.557 29.2416 349.752V359.375C29.2416 362.571 26.6271 365.185 23.4315 365.185C20.236 365.185 17.6215 362.571 17.6215 359.375V349.752Z" fill="#002D5C"/>
<path d="M229.596 367.038C230.378 367.36 231.201 367.699 232.243 367.727C233.15 367.727 234.058 367.509 234.893 367.146C235.184 367.001 235.22 366.747 235.075 366.456L234.603 365.657C234.421 365.33 233.949 365.185 233.623 365.33C232.403 365.864 231.61 365.509 230.61 365.061C230.18 364.868 229.712 364.659 229.156 364.495C228.285 364.241 227.377 364.205 226.505 364.35C226.251 364.386 226.033 364.168 226.033 363.914V363.152C226.103 362.225 226.661 360.788 227.027 360.091C227.026 360.059 227.033 360.026 227.05 359.992L235.257 343.289C235.257 343.271 235.275 343.198 235.293 343.126C235.311 343.053 235.329 342.98 235.329 342.962V342.453C235.329 342.09 235.002 341.763 234.639 341.763H224.581C224.181 341.763 223.854 342.09 223.854 342.49V343.216C223.854 343.615 224.181 343.942 224.581 343.942H231.262C231.843 343.942 232.17 344.487 231.916 344.995L223.927 361.191C223.927 361.209 223.909 361.282 223.891 361.354L223.884 361.382C223.536 362.343 222.928 364.441 222.853 366.386L222.86 366.38L222.86 366.384C222.86 366.747 223.186 367.073 223.549 367.073H224.094C224.13 367.073 224.348 367.037 224.385 367.001L224.494 366.928C226.228 366.061 228.359 366.528 229.596 367.038Z" fill="#002D5C"/>
<path d="M248.098 352.766C248.498 352.766 248.825 353.093 248.825 353.493L248.788 354.219C248.788 354.618 248.461 354.945 248.062 354.945H243.777C243.378 354.945 243.051 355.272 243.051 355.671V364.277C243.051 364.677 243.378 365.004 243.777 365.004H251.04C251.439 365.004 251.766 365.33 251.766 365.73V366.456C251.766 366.856 251.439 367.182 251.04 367.182H241.598C241.199 367.182 240.872 366.856 240.872 366.456V342.49C240.872 342.09 241.199 341.763 241.598 341.763H251.04C251.439 341.763 251.766 342.09 251.766 342.49V343.216C251.766 343.615 251.439 343.942 251.04 343.942H243.777C243.378 343.942 243.051 344.269 243.051 344.669V352.04C243.051 352.439 243.378 352.766 243.777 352.766H248.098Z" fill="#002D5C"/>
<path fill-rule="evenodd" clip-rule="evenodd" d="M270.445 365.512C270.445 365.33 270.082 364.967 269.937 364.895C269.174 364.604 268.629 363.624 268.339 362.861L266.741 358.576C266.451 357.923 266.124 357.305 265.652 356.724C265.506 356.579 265.615 356.361 265.797 356.252C268.52 355.127 270.445 352.439 270.445 349.28C270.445 345.141 267.068 341.763 262.928 341.763H257.953C257.554 341.763 257.227 342.09 257.227 342.49V366.456C257.227 366.856 257.554 367.182 257.953 367.182H258.68C259.079 367.182 259.406 366.856 259.406 366.456V357.56C259.406 357.16 259.733 356.833 260.132 356.833H261.076C262.674 356.833 264.127 357.85 264.708 359.339L266.305 363.624C266.886 365.222 268.012 366.747 269.682 367.11C270.155 367.219 270.445 366.928 270.445 366.456V365.512ZM260.132 354.655C259.733 354.655 259.406 354.328 259.406 353.928V344.669C259.406 344.269 259.733 343.942 260.132 343.942H262.928C265.87 343.942 268.266 346.339 268.266 349.28C268.266 352.258 265.87 354.655 262.928 354.655H260.132Z" fill="#002D5C"/>
<path fill-rule="evenodd" clip-rule="evenodd" d="M275.923 359.375C275.777 363.66 279.627 367.509 283.911 367.364C288.196 367.509 292.046 363.66 291.9 359.375V349.752C292.009 345.358 288.16 341.763 283.911 341.763C279.663 341.763 275.814 345.358 275.923 349.752V359.375ZM278.101 349.752C278.101 346.557 280.716 343.942 283.911 343.942C287.107 343.942 289.721 346.557 289.721 349.752V359.375C289.721 362.571 287.107 365.185 283.911 365.185C280.716 365.185 278.101 362.571 278.101 359.375V349.752Z" fill="#002D5C"/>
<path d="M303.205 348.3C303.205 348.699 303.532 349.026 303.931 349.026H307.49C307.889 349.026 308.216 349.353 308.216 349.752V366.456C308.216 366.856 308.543 367.182 308.942 367.182H309.669C310.068 367.182 310.395 366.856 310.395 366.456V349.752C310.395 349.353 310.722 349.026 311.121 349.026H314.716C315.116 349.026 315.442 348.699 315.442 348.3V347.574C315.442 347.174 315.116 346.847 314.716 346.847H311.121C310.722 346.847 310.395 346.52 310.395 346.121V342.49C310.395 342.09 310.068 341.763 309.669 341.763H308.942C308.543 341.763 308.216 342.09 308.216 342.49V346.121C308.216 346.52 307.889 346.847 307.49 346.847H303.931C303.532 346.847 303.205 347.174 303.205 347.574V348.3Z" fill="#002D5C"/>
<path fill-rule="evenodd" clip-rule="evenodd" d="M349.204 359.375C349.059 363.66 352.908 367.509 357.193 367.364C361.477 367.509 365.327 363.66 365.181 359.375V349.752C365.29 345.358 361.441 341.763 357.193 341.763C352.944 341.763 349.095 345.358 349.204 349.752V359.375ZM351.383 349.752C351.383 346.557 353.997 343.942 357.193 343.942C360.388 343.942 363.003 346.557 363.003 349.752V359.375C363.003 362.571 360.388 365.185 357.193 365.185C353.997 365.185 351.383 362.571 351.383 359.375V349.752Z" fill="#002D5C"/>
<path d="M372.843 366.456C372.843 366.856 372.516 367.183 372.117 367.183H371.391C370.991 367.183 370.664 366.856 370.664 366.456V342.49C370.664 342.09 370.991 341.764 371.391 341.764H374.187C374.477 341.764 374.804 342.018 374.877 342.308L381.34 364.895C381.377 364.931 381.449 365.004 381.522 365.004C381.558 365.004 381.631 364.931 381.631 364.858V342.49C381.631 342.09 381.958 341.764 382.357 341.764H383.083C383.483 341.764 383.81 342.09 383.81 342.49V366.456C383.81 366.856 383.483 367.183 383.083 367.183H380.251C379.96 367.183 379.634 366.928 379.561 366.638L373.134 344.051C373.097 344.015 373.025 343.942 372.988 343.942C372.916 343.942 372.843 344.015 372.843 344.051V366.456Z" fill="#002D5C"/>
<path d="M396.479 352.766C396.879 352.766 397.205 353.093 397.205 353.493L397.169 354.219C397.169 354.618 396.842 354.945 396.443 354.945H392.158C391.758 354.945 391.432 355.272 391.432 355.671V364.277C391.432 364.677 391.758 365.004 392.158 365.004H399.42C399.82 365.004 400.147 365.331 400.147 365.73V366.456C400.147 366.856 399.82 367.183 399.42 367.183H389.979C389.58 367.183 389.253 366.856 389.253 366.456V342.49C389.253 342.09 389.58 341.764 389.979 341.764H399.42C399.82 341.764 400.147 342.09 400.147 342.49V343.216C400.147 343.616 399.82 343.942 399.42 343.942H392.158C391.758 343.942 391.432 344.269 391.432 344.669V352.04C391.432 352.44 391.758 352.766 392.158 352.766H396.479Z" fill="#002D5C"/>
<path fill-rule="evenodd" clip-rule="evenodd" d="M327.901 367.364C323.617 367.509 319.767 363.66 319.913 359.375V349.752C319.804 345.359 323.653 341.764 327.901 341.764C332.15 341.764 335.999 345.359 335.89 349.752V359.375C336.035 363.66 332.186 367.509 327.901 367.364ZM327.901 343.942C324.706 343.942 322.091 346.557 322.091 349.752V359.375C322.091 362.571 324.706 365.185 327.901 365.185C331.097 365.185 333.712 362.571 333.712 359.375V349.752C333.712 346.557 331.097 343.942 327.901 343.942Z" fill="#002D5C"/>
<path fill-rule="evenodd" clip-rule="evenodd" d="M6.9191 342.49C6.9191 341.619 7.62796 340.91 8.49869 340.91H9.22494C10.0957 340.91 10.8045 341.619 10.8045 342.49V363.152C10.8045 365.843 8.60186 368.036 5.88417 368.036C3.19781 368.036 1.00012 365.838 1.00012 363.152V361.481C1.00012 360.611 1.70899 359.902 2.57971 359.902H3.30597C4.17669 359.902 4.88556 360.611 4.88556 361.481V363.152C4.88556 363.697 5.3387 364.15 5.88417 364.15C6.47679 364.15 6.9191 363.686 6.9191 363.152V342.49ZM8.62577 342.617V363.152C8.62577 364.65 7.39769 365.857 5.88417 365.857C4.39613 365.857 3.17889 364.64 3.17889 363.152V361.608H2.7068V363.152C2.7068 364.895 4.14038 366.329 5.88417 366.329C7.66926 366.329 9.09786 364.891 9.09786 363.152V342.617H8.62577ZM136.249 342.617V366.329H136.721V355.671C136.721 354.801 137.43 354.092 138.301 354.092H141.943L141.919 353.62H138.301C137.43 353.62 136.721 352.911 136.721 352.04V344.669C136.721 343.798 137.43 343.089 138.301 343.089H146.816V342.617H136.249ZM134.543 342.49C134.543 341.619 135.251 340.91 136.122 340.91H146.943C147.814 340.91 148.523 341.619 148.523 342.49V343.216C148.523 344.087 147.814 344.796 146.943 344.796H138.428V351.913H142.041C142.903 351.913 143.607 352.608 143.621 353.467L143.657 354.197V354.219C143.657 355.089 142.948 355.798 142.077 355.798H138.428V366.456C138.428 367.327 137.719 368.036 136.848 368.036H136.122C135.251 368.036 134.543 367.327 134.543 366.456V342.49ZM224.708 342.617V343.089H231.262C231.834 343.089 232.344 343.366 232.63 343.832C232.913 344.294 232.932 344.871 232.68 345.375L232.679 345.377L224.741 361.469C224.737 361.486 224.733 361.504 224.729 361.521L224.701 361.632L224.686 361.673C224.465 362.284 224.135 363.376 223.918 364.575L224.13 364.424L223.764 366.22H224.017L224.064 366.189L224.112 366.165C226.18 365.131 228.606 365.708 229.92 366.249C230.707 366.572 231.394 366.848 232.254 366.874C232.878 366.872 233.515 366.75 234.128 366.531L233.898 366.141C233.172 366.446 232.523 366.509 231.896 366.406C231.31 366.31 230.773 366.069 230.305 365.859L230.261 365.84C229.829 365.646 229.41 365.459 228.916 365.314C228.177 365.099 227.4 365.066 226.646 365.192L226.636 365.193L226.626 365.195C225.784 365.315 225.18 364.61 225.18 363.914V363.12L225.182 363.088C225.225 362.515 225.41 361.842 225.612 361.257C225.797 360.721 226.016 360.203 226.209 359.817C226.227 359.746 226.253 359.678 226.285 359.614L226.287 359.611L234.442 343.011C234.45 342.979 234.458 342.946 234.465 342.919L234.476 342.875V342.617H224.708ZM234.488 342.826C234.488 342.822 234.488 342.823 234.488 342.823L234.488 342.826ZM222.618 367.603L221.933 368.092L222 366.353C222.078 364.313 222.7 362.155 223.066 361.134L223.074 361.104V360.992L231.063 344.796H224.581C223.71 344.796 223.001 344.087 223.001 343.216V342.49C223.001 341.619 223.71 340.91 224.581 340.91H234.639C235.474 340.91 236.183 341.619 236.183 342.453V342.962C236.183 343.054 236.166 343.135 236.165 343.143C236.16 343.17 236.154 343.196 236.149 343.215C236.141 343.253 236.13 343.297 236.121 343.331L236.121 343.333L236.11 343.376V343.487L227.886 360.225L227.889 360.287L227.783 360.488C227.623 360.792 227.408 361.284 227.226 361.813C227.045 362.338 226.918 362.834 226.887 363.187V363.441C227.714 363.365 228.566 363.434 229.395 363.676L229.397 363.677C230.009 363.857 230.521 364.086 230.945 364.276L230.959 364.282C231.481 364.516 231.826 364.665 232.172 364.722C232.477 364.772 232.813 364.753 233.279 364.55C233.67 364.377 234.091 364.395 234.431 364.505C234.771 364.616 235.126 364.85 235.342 365.231L235.825 366.048L235.838 366.075C235.961 366.319 236.067 366.666 235.979 367.047C235.883 367.464 235.597 367.749 235.275 367.909L235.255 367.92L235.234 367.929C234.309 368.331 233.285 368.58 232.243 368.58H232.231L232.22 368.58C231.021 368.548 230.075 368.158 229.305 367.841L229.271 367.827C228.123 367.354 226.315 366.999 224.92 367.669L224.881 367.696C224.811 367.747 224.751 367.775 224.726 367.787C224.674 367.811 224.626 367.828 224.594 367.839C224.528 367.86 224.465 367.875 224.418 367.885C224.369 367.896 224.32 367.904 224.278 367.911L224.276 367.911C224.253 367.915 224.174 367.927 224.094 367.927H223.549C223.203 367.927 222.879 367.805 222.618 367.603ZM223.074 361.18V361.191C223.074 361.187 223.074 361.183 223.074 361.18ZM223.085 361.055C223.086 361.051 223.086 361.052 223.086 361.052L223.085 361.055ZM240.019 342.49C240.019 341.619 240.728 340.91 241.598 340.91H251.04C251.91 340.91 252.619 341.619 252.619 342.49V343.216C252.619 344.087 251.91 344.796 251.04 344.796H243.904V351.913H248.098C248.969 351.913 249.678 352.622 249.678 353.493V353.514L249.641 354.244C249.628 355.103 248.924 355.798 248.062 355.798H243.904V364.15H251.04C251.91 364.15 252.619 364.859 252.619 365.73V366.456C252.619 367.327 251.91 368.036 251.04 368.036H241.598C240.728 368.036 240.019 367.327 240.019 366.456V342.49ZM241.725 342.617V366.329H250.913V365.857H243.777C242.906 365.857 242.197 365.148 242.197 364.277V355.671C242.197 354.801 242.906 354.092 243.777 354.092H247.94L247.964 353.62H243.777C242.906 353.62 242.197 352.911 242.197 352.04V344.669C242.197 343.798 242.906 343.089 243.777 343.089H250.913V342.617H241.725ZM258.081 342.617V366.329H258.553V357.56C258.553 356.689 259.261 355.98 260.132 355.98H261.076C263.035 355.98 264.797 357.221 265.503 359.029L265.507 359.041L267.107 363.332C267.608 364.708 268.475 365.828 269.592 366.201V365.712C269.569 365.688 269.547 365.666 269.527 365.649C268.974 365.406 268.56 364.964 268.265 364.549C267.944 364.097 267.704 363.591 267.541 363.165L267.539 363.159L265.951 358.899C265.683 358.299 265.399 357.771 265.007 357.285C264.698 356.942 264.681 356.506 264.801 356.18C264.912 355.878 265.133 355.655 265.358 355.521L265.412 355.488L265.471 355.464C267.886 354.466 269.592 352.083 269.592 349.28C269.592 345.612 266.597 342.617 262.928 342.617H258.081ZM256.374 342.49C256.374 341.619 257.083 340.91 257.953 340.91H262.928C267.539 340.91 271.298 344.669 271.298 349.28C271.298 352.555 269.439 355.375 266.734 356.759C267.054 357.243 267.302 357.738 267.521 358.23L267.532 358.254L269.136 362.557L269.138 362.561C269.266 362.896 269.443 363.261 269.656 363.561C269.878 363.873 270.084 364.038 270.24 364.097L270.28 364.112L270.318 364.131C270.451 364.198 270.565 364.29 270.635 364.351C270.719 364.423 270.804 364.507 270.883 364.596C270.96 364.682 271.046 364.79 271.118 364.911C271.173 365.003 271.298 365.226 271.298 365.512V366.456C271.298 366.855 271.174 367.31 270.81 367.636C270.429 367.978 269.938 368.043 269.497 367.943C267.408 367.486 266.127 365.627 265.505 363.919L265.503 363.915L263.913 359.649C263.912 359.647 263.911 359.645 263.91 359.643C263.452 358.476 262.311 357.687 261.076 357.687H260.259V366.456C260.259 367.327 259.55 368.036 258.68 368.036H257.953C257.083 368.036 256.374 367.327 256.374 366.456V342.49ZM283.911 342.617C280.104 342.617 276.68 345.854 276.776 349.731L276.776 349.742V359.39L276.776 359.404C276.647 363.195 280.091 366.64 283.883 366.511L283.911 366.51L283.94 366.511C287.732 366.64 291.176 363.195 291.047 359.404L291.047 359.39V349.742L291.047 349.731C291.143 345.854 287.719 342.617 283.911 342.617ZM275.069 349.763C274.954 344.857 279.225 340.91 283.911 340.91C288.598 340.91 292.869 344.857 292.754 349.763V359.361C292.906 364.124 288.673 368.361 283.911 368.218C279.15 368.361 274.917 364.124 275.069 359.361V349.763ZM309.069 342.617V346.121C309.069 346.992 308.361 347.701 307.49 347.701H304.058V348.173H307.49C308.361 348.173 309.069 348.882 309.069 349.752V366.329H309.542V349.752C309.542 348.882 310.25 348.173 311.121 348.173H314.589V347.701H311.121C310.25 347.701 309.542 346.992 309.542 346.121V342.617H309.069ZM307.363 342.49C307.363 341.619 308.072 340.91 308.942 340.91H309.669C310.539 340.91 311.248 341.619 311.248 342.49V345.994H314.716C315.587 345.994 316.296 346.703 316.296 347.574V348.3C316.296 349.17 315.587 349.879 314.716 349.879H311.248V366.456C311.248 367.327 310.539 368.036 309.669 368.036H308.942C308.072 368.036 307.363 367.327 307.363 366.456V349.879H303.931C303.06 349.879 302.352 349.17 302.352 348.3V347.574C302.352 346.703 303.06 345.994 303.931 345.994H307.363V342.49ZM357.193 342.617C353.385 342.617 349.961 345.854 350.057 349.731L350.057 349.742V359.39L350.057 359.404C349.928 363.195 353.373 366.64 357.164 366.511L357.193 366.51L357.221 366.511C361.013 366.64 364.457 363.195 364.329 359.404L364.328 359.39V349.742L364.328 349.731C364.424 345.854 361 342.617 357.193 342.617ZM348.35 349.763C348.235 344.857 352.506 340.91 357.193 340.91C361.879 340.91 366.15 344.857 366.035 349.763V359.361C366.187 364.124 361.954 368.361 357.193 368.218C352.431 368.361 348.198 364.124 348.35 359.361V349.763ZM23.4315 342.617C19.6242 342.617 16.1997 345.854 16.2958 349.731L16.2961 349.742V359.39L16.2956 359.404C16.1671 363.195 19.6115 366.64 23.4026 366.511L23.4315 366.51L23.4604 366.511C27.2516 366.64 30.696 363.195 30.5675 359.404L30.567 359.39V349.742L30.5673 349.731C30.6634 345.854 27.2389 342.617 23.4315 342.617ZM14.5894 349.763C14.4742 344.857 18.7451 340.91 23.4315 340.91C28.118 340.91 32.3889 344.857 32.2737 349.763V359.361C32.4261 364.124 28.1935 368.362 23.4315 368.218C18.6696 368.362 14.437 364.124 14.5894 359.361V349.763ZM36.195 342.486C36.1971 341.617 36.9051 340.91 37.7746 340.91H38.3556C39.2263 340.91 39.9352 341.619 39.9352 342.49V361.481C39.9352 363.08 41.2235 364.368 42.8221 364.368C44.4206 364.368 45.7089 363.08 45.7089 361.481V342.49C45.7089 341.619 46.4178 340.91 47.2885 340.91H48.0148C48.8855 340.91 49.5944 341.619 49.5944 342.49V361.481C49.5944 365.221 46.5615 368.254 42.8221 368.254C39.0826 368.254 36.0498 365.221 36.0498 361.481L36.0498 361.475L36.195 342.49L36.195 342.486ZM37.9007 342.617L37.7564 361.481V361.485C37.7581 364.28 40.0262 366.547 42.8221 366.547C45.6189 366.547 47.8877 364.278 47.8877 361.481V342.617H47.4156V361.481C47.4156 364.023 45.3632 366.075 42.8221 366.075C40.281 366.075 38.2285 364.023 38.2285 361.481V342.617H37.9007ZM55.0335 342.617V366.329H55.5056V357.56C55.5056 356.689 56.2145 355.98 57.0852 355.98H58.0293C59.9877 355.98 61.7501 357.221 62.4556 359.029L62.4603 359.041L64.0604 363.332C64.5607 364.708 65.428 365.828 66.5447 366.201V365.712C66.5225 365.688 66.4998 365.666 66.4803 365.649C65.9275 365.406 65.5132 364.964 65.2182 364.549C64.8965 364.097 64.6569 363.591 64.4945 363.165L64.4923 363.159L62.9038 358.899C62.6358 358.299 62.3517 357.772 61.9605 357.285C61.6506 356.942 61.6339 356.506 61.7541 356.18C61.8652 355.878 62.0861 355.656 62.311 355.521L62.3654 355.488L62.424 355.464C64.8386 354.466 66.5447 352.083 66.5447 349.28C66.5447 345.612 63.5497 342.617 59.8813 342.617H55.0335ZM53.3269 342.49C53.3269 341.619 54.0357 340.91 54.9065 340.91H59.8813C64.4922 340.91 68.2514 344.669 68.2514 349.28C68.2514 352.555 66.3923 355.375 63.687 356.759C64.0074 357.243 64.2552 357.738 64.4739 358.23L64.4846 358.254L66.0893 362.558L66.0904 362.56C66.2184 362.896 66.396 363.261 66.6093 363.561C66.8314 363.873 67.0369 364.038 67.1934 364.097L67.2332 364.113L67.2713 364.132C67.404 364.198 67.5181 364.29 67.5885 364.351C67.6717 364.423 67.7573 364.507 67.8361 364.596C67.9128 364.682 67.999 364.79 68.0714 364.911C68.1262 365.003 68.2514 365.226 68.2514 365.512V366.456C68.2514 366.855 68.1273 367.31 67.7634 367.636C67.3823 367.978 66.8908 368.043 66.4495 367.943C64.3608 367.486 63.0793 365.626 62.4576 363.919L62.4564 363.915L60.8635 359.644C60.4056 358.477 59.2646 357.687 58.0293 357.687H57.2123V366.456C57.2123 367.327 56.5034 368.036 55.6327 368.036H54.9065C54.0357 368.036 53.3269 367.327 53.3269 366.456V342.49ZM71.9866 342.49C71.9866 341.619 72.6954 340.91 73.5662 340.91H76.3623C76.7434 340.91 77.0781 341.069 77.3161 341.256C77.5516 341.441 77.7804 341.723 77.8756 342.084L82.953 359.826V342.49C82.953 341.619 83.6619 340.91 84.5326 340.91H85.2589C86.1296 340.91 86.8385 341.619 86.8385 342.49V366.456C86.8385 367.327 86.1296 368.036 85.2589 368.036H82.4265C82.0453 368.036 81.7106 367.877 81.4726 367.69C81.237 367.505 81.008 367.223 80.9129 366.861L75.872 349.147V366.456C75.872 367.327 75.1632 368.036 74.2924 368.036H73.5662C72.6954 368.036 71.9866 367.327 71.9866 366.456V342.49ZM73.6933 342.617V366.329H74.1653V344.051C74.1653 343.793 74.2774 343.611 74.3212 343.546C74.3811 343.456 74.4507 343.384 74.5178 343.328C74.6363 343.229 74.8599 343.089 75.1639 343.089C75.4102 343.089 75.5873 343.194 75.6293 343.219L75.631 343.22C75.6994 343.26 75.7527 343.302 75.7829 343.328C75.8409 343.376 75.892 343.427 75.9096 343.445L76.0693 343.605L82.5359 366.329H85.1318V342.617H84.6597V364.858C84.6597 365.163 84.5199 365.386 84.4211 365.505C84.3652 365.572 84.293 365.641 84.2031 365.701C84.1374 365.745 83.9552 365.857 83.6974 365.857C83.3936 365.857 83.1776 365.715 83.097 365.657C83.0057 365.592 82.9354 365.521 82.9155 365.501L82.9125 365.498L82.7562 365.342L76.2529 342.617H73.6933ZM92.283 342.617V366.329H101.47V365.857H94.3347C93.4639 365.857 92.7551 365.148 92.7551 364.277V355.671C92.7551 354.801 93.4639 354.092 94.3347 354.092H98.4978L98.5214 353.62H94.3347C93.4639 353.62 92.7551 352.911 92.7551 352.04V344.669C92.7551 343.798 93.4639 343.089 94.3347 343.089H101.47V342.617H92.283ZM90.5763 342.49C90.5763 341.619 91.2852 340.91 92.1559 340.91H101.597C102.468 340.91 103.177 341.619 103.177 342.49V343.216C103.177 344.087 102.468 344.796 101.597 344.796H94.4617V351.913H98.6559C99.5266 351.913 100.235 352.622 100.235 353.493V353.514L100.199 354.244C100.185 355.103 99.4818 355.798 98.6196 355.798H94.4617V364.15H101.597C102.468 364.15 103.177 364.859 103.177 365.73V366.456C103.177 367.327 102.468 368.036 101.597 368.036H92.1559C91.2852 368.036 90.5763 367.327 90.5763 366.456V342.49ZM106.93 342.454C106.93 341.526 107.698 340.91 108.51 340.91H109.236C109.731 340.91 110.132 341.156 110.39 341.45C110.642 341.737 110.81 342.125 110.816 342.542C110.886 344.274 111.199 346.011 111.721 347.682L111.722 347.685C112.312 349.594 113.18 351.366 114.329 353.039L114.505 353.286L114.711 353.002C115.822 351.368 116.691 349.559 117.283 347.681C117.804 346.01 118.117 344.274 118.187 342.542C118.193 342.125 118.361 341.737 118.613 341.45C118.871 341.156 119.273 340.91 119.767 340.91H120.493C121.305 340.91 122.073 341.526 122.073 342.454V342.468L122.072 342.483C121.997 344.669 121.62 346.776 120.983 348.839C120.302 351.107 119.245 353.256 117.89 355.213L117.887 355.217L116.462 357.248C116.459 357.257 116.455 357.267 116.451 357.278C116.448 357.284 116.446 357.29 116.444 357.296V366.456C116.444 367.327 115.735 368.036 114.865 368.036H114.138C113.268 368.036 112.559 367.327 112.559 366.456V357.31L111.149 355.249L111.148 355.248C109.791 353.287 108.738 351.104 108.023 348.848L108.022 348.842C107.383 346.778 107.006 344.67 106.931 342.483L106.93 342.468V342.454ZM108.644 342.617C108.729 344.573 109.074 346.468 109.651 348.335C110.316 350.435 111.296 352.463 112.552 354.278L112.555 354.282L113.922 356.279C113.942 356.301 113.957 356.321 113.969 356.336C114.022 356.404 114.058 356.469 114.081 356.514C114.127 356.605 114.159 356.696 114.181 356.763C114.203 356.834 114.221 356.905 114.235 356.97C114.244 357.015 114.266 357.12 114.266 357.233V366.329H114.738V357.197C114.738 357.05 114.776 356.916 114.786 356.88L114.788 356.876C114.806 356.812 114.828 356.746 114.849 356.688C114.87 356.631 114.896 356.568 114.922 356.509C114.935 356.481 114.953 356.444 114.974 356.406L114.976 356.403C114.983 356.389 115.009 356.344 115.051 356.288L116.487 354.242L116.489 354.239C117.747 352.421 118.723 350.433 119.349 348.345L119.351 348.338C119.929 346.47 120.274 344.574 120.359 342.617H119.893C119.815 344.505 119.475 346.387 118.911 348.191L118.911 348.193C118.269 350.232 117.325 352.196 116.115 353.973L116.107 353.984L115.538 354.766C115.463 354.882 115.378 354.96 115.333 354.998C115.261 355.06 115.186 355.11 115.116 355.15C115.007 355.212 114.778 355.326 114.502 355.326C114.225 355.326 113.996 355.212 113.888 355.15C113.817 355.11 113.742 355.06 113.67 354.998C113.625 354.959 113.538 354.88 113.462 354.762L112.931 354.019L112.927 354.012C111.682 352.201 110.735 350.272 110.092 348.19C109.528 346.386 109.188 344.504 109.111 342.617H108.644ZM152.28 342.49C152.28 341.619 152.989 340.91 153.86 340.91H158.835C163.446 340.91 167.205 344.669 167.205 349.28C167.205 352.555 165.346 355.375 162.64 356.759C162.961 357.243 163.209 357.738 163.427 358.23L163.438 358.254L165.043 362.558L165.044 362.56C165.172 362.896 165.349 363.261 165.563 363.561C165.785 363.873 165.99 364.038 166.147 364.097L166.187 364.113L166.225 364.132C166.357 364.198 166.472 364.29 166.542 364.351C166.625 364.423 166.711 364.507 166.79 364.596C166.866 364.682 166.952 364.79 167.025 364.911C167.08 365.003 167.205 365.226 167.205 365.512V366.456C167.205 366.855 167.081 367.31 166.717 367.636C166.336 367.978 165.844 368.043 165.403 367.943C163.314 367.486 162.033 365.626 161.411 363.919L161.41 363.915L159.819 359.649L159.817 359.644C159.359 358.477 158.218 357.687 156.983 357.687H156.166V366.456C156.166 367.327 155.457 368.036 154.586 368.036H153.86C152.989 368.036 152.28 367.327 152.28 366.456V342.49ZM153.987 342.617V366.329H154.459V357.56C154.459 356.689 155.168 355.98 156.039 355.98H156.983C158.941 355.98 160.704 357.221 161.409 359.029L161.414 359.041L163.014 363.332C163.514 364.708 164.381 365.828 165.498 366.201V365.712C165.476 365.688 165.453 365.666 165.434 365.649C164.881 365.406 164.467 364.964 164.172 364.549C163.85 364.097 163.61 363.591 163.448 363.165L163.446 363.159L161.857 358.899C161.589 358.299 161.305 357.772 160.914 357.285C160.604 356.942 160.587 356.506 160.708 356.18C160.819 355.878 161.04 355.656 161.264 355.521L161.319 355.488L161.377 355.464C163.792 354.466 165.498 352.083 165.498 349.28C165.498 345.612 162.503 342.617 158.835 342.617H153.987ZM179.819 342.617C176.012 342.617 172.587 345.854 172.683 349.731L172.684 349.742V359.39L172.683 359.404C172.555 363.195 175.999 366.64 179.79 366.511L179.819 366.51L179.848 366.511C183.639 366.64 187.084 363.195 186.955 359.404L186.955 359.39V349.742L186.955 349.731C187.051 345.854 183.626 342.617 179.819 342.617ZM170.977 349.763C170.862 344.857 175.133 340.91 179.819 340.91C184.506 340.91 188.776 344.857 188.661 349.763V359.361C188.814 364.124 184.581 368.362 179.819 368.218C175.057 368.362 170.824 364.124 170.977 359.361V349.763ZM194.144 342.617V366.329H194.616V344.124C194.616 343.876 194.703 343.602 194.916 343.389C195.129 343.176 195.403 343.089 195.651 343.089C196.251 343.089 196.57 343.53 196.678 343.854L196.694 343.902L201.332 366.329H202.06L206.335 343.908L206.353 343.854C206.461 343.53 206.78 343.089 207.38 343.089C207.628 343.089 207.902 343.176 208.115 343.389C208.328 343.602 208.415 343.876 208.415 344.124V366.329H208.887V342.617H206.127L203.171 358.01C202.85 359.695 200.406 359.697 200.079 358.016C200.079 358.014 200.078 358.012 200.078 358.01L196.906 342.617H194.144ZM192.437 342.49C192.437 341.619 193.146 340.91 194.017 340.91H197.031C197.713 340.91 198.449 341.409 198.563 342.203L201.62 357.036L204.474 342.172L204.477 342.159C204.638 341.434 205.318 340.91 206.036 340.91H209.014C209.885 340.91 210.594 341.619 210.594 342.49V366.456C210.594 367.327 209.885 368.036 209.014 368.036H208.288C207.417 368.036 206.708 367.327 206.708 366.456V351.062L203.713 366.774L203.71 366.787C203.549 367.512 202.87 368.036 202.151 368.036H201.207C200.525 368.036 199.789 367.537 199.675 366.743L196.323 350.533V366.456C196.323 367.327 195.614 368.036 194.743 368.036H194.017C193.146 368.036 192.437 367.327 192.437 366.456V342.49ZM319.059 349.763C318.944 344.857 323.215 340.91 327.901 340.91C332.588 340.91 336.859 344.857 336.744 349.763V359.361C336.896 364.124 332.663 368.362 327.901 368.218C323.14 368.362 318.907 364.124 319.059 359.361V349.763ZM327.901 342.617C324.094 342.617 320.67 345.854 320.766 349.731L320.766 349.742V359.39L320.766 359.404C320.637 363.195 324.081 366.64 327.873 366.511L327.901 366.51L327.93 366.511C331.721 366.64 335.166 363.195 335.037 359.404L335.037 359.39V349.742L335.037 349.731C335.133 345.854 331.709 342.617 327.901 342.617ZM369.811 342.49C369.811 341.619 370.52 340.91 371.391 340.91H374.187C374.568 340.91 374.903 341.069 375.141 341.256C375.376 341.441 375.605 341.723 375.7 342.085L380.777 359.827V342.49C380.777 341.619 381.486 340.91 382.357 340.91H383.083C383.954 340.91 384.663 341.619 384.663 342.49V366.456C384.663 367.327 383.954 368.036 383.083 368.036H380.251C379.87 368.036 379.535 367.877 379.297 367.69C379.061 367.505 378.832 367.223 378.737 366.861C378.736 366.855 378.734 366.85 378.733 366.845L373.696 349.147V366.456C373.696 367.327 372.988 368.036 372.117 368.036H371.391C370.52 368.036 369.811 367.327 369.811 366.456V342.49ZM371.518 342.617V366.329H371.99V344.051C371.99 343.793 372.102 343.611 372.146 343.546C372.205 343.456 372.275 343.384 372.342 343.328C372.461 343.229 372.684 343.089 372.988 343.089C373.235 343.089 373.412 343.194 373.454 343.219L373.455 343.22C373.524 343.26 373.577 343.303 373.607 343.328C373.665 343.376 373.716 343.427 373.734 343.445L373.894 343.605L380.36 366.329H382.956V342.617H382.484V364.858C382.484 365.163 382.344 365.386 382.245 365.505C382.19 365.572 382.117 365.641 382.027 365.701C381.962 365.745 381.78 365.857 381.522 365.857C381.218 365.857 381.002 365.715 380.922 365.657C380.825 365.588 380.752 365.513 380.737 365.498L380.581 365.342L374.077 342.617H371.518ZM388.4 342.49C388.4 341.619 389.108 340.91 389.979 340.91H399.42C400.291 340.91 401 341.619 401 342.49V343.216C401 344.087 400.291 344.796 399.42 344.796H392.285V351.913H396.479C397.35 351.913 398.059 352.622 398.059 353.493V353.514L398.022 354.244C398.009 355.103 397.305 355.798 396.443 355.798H392.285V364.15H399.42C400.291 364.15 401 364.859 401 365.73V366.456C401 367.327 400.291 368.036 399.42 368.036H389.979C389.108 368.036 388.4 367.327 388.4 366.456V342.49ZM390.106 342.617V366.329H399.293V365.857H392.158C391.287 365.857 390.578 365.148 390.578 364.277V355.671C390.578 354.801 391.287 354.092 392.158 354.092H396.321L396.345 353.62H392.158C391.287 353.62 390.578 352.911 390.578 352.04V344.669C390.578 343.798 391.287 343.089 392.158 343.089H399.293V342.617H390.106ZM258.553 344.669C258.553 343.798 259.261 343.089 260.132 343.089H262.928C266.341 343.089 269.12 345.868 269.12 349.28C269.12 352.725 266.345 355.508 262.928 355.508H260.132C259.261 355.508 258.553 354.799 258.553 353.928V344.669ZM260.259 344.796V353.801H262.928C265.395 353.801 267.413 351.79 267.413 349.28C267.413 346.81 265.398 344.796 262.928 344.796H260.259ZM277.248 349.752C277.248 346.085 280.245 343.089 283.911 343.089C287.578 343.089 290.575 346.085 290.575 349.752V359.375C290.575 363.042 287.578 366.039 283.911 366.039C280.245 366.039 277.248 363.042 277.248 359.375V349.752ZM283.911 344.796C281.187 344.796 278.955 347.028 278.955 349.752V359.375C278.955 362.099 281.187 364.332 283.911 364.332C286.636 364.332 288.868 362.099 288.868 359.375V349.752C288.868 347.028 286.636 344.796 283.911 344.796ZM350.529 349.752C350.529 346.085 353.526 343.089 357.193 343.089C360.859 343.089 363.856 346.085 363.856 349.752V359.375C363.856 363.042 360.859 366.039 357.193 366.039C353.526 366.039 350.529 363.042 350.529 359.375V349.752ZM357.193 344.796C354.468 344.796 352.236 347.028 352.236 349.752V359.375C352.236 362.099 354.468 364.332 357.193 364.332C359.917 364.332 362.149 362.099 362.149 359.375V349.752C362.149 347.028 359.917 344.796 357.193 344.796ZM16.7682 349.752C16.7682 346.086 19.7647 343.089 23.4315 343.089C27.0983 343.089 30.0949 346.086 30.0949 349.752V359.375C30.0949 363.042 27.0983 366.039 23.4315 366.039C19.7647 366.039 16.7682 363.042 16.7682 359.375V349.752ZM23.4315 344.796C20.7073 344.796 18.4748 347.028 18.4748 349.752V359.375C18.4748 362.1 20.7073 364.332 23.4315 364.332C26.1558 364.332 28.3882 362.1 28.3882 359.375V349.752C28.3882 347.028 26.1558 344.796 23.4315 344.796ZM55.5056 344.669C55.5056 343.798 56.2145 343.089 57.0852 343.089H59.8813C63.2939 343.089 66.0726 345.868 66.0726 349.28C66.0726 352.725 63.2977 355.508 59.8813 355.508H57.0852C56.2145 355.508 55.5056 354.799 55.5056 353.928V344.669ZM57.2123 344.796H59.8813C62.3513 344.796 64.3659 346.81 64.3659 349.28C64.3659 351.79 62.3476 353.801 59.8813 353.801H57.2123V344.796ZM156.166 344.796H158.835C161.305 344.796 163.319 346.81 163.319 349.28C163.319 351.79 161.301 353.801 158.835 353.801H156.166V344.796ZM154.459 344.669C154.459 343.798 155.168 343.089 156.039 343.089H158.835C162.247 343.089 165.026 345.868 165.026 349.28C165.026 352.725 162.251 355.508 158.835 355.508H156.039C155.168 355.508 154.459 354.799 154.459 353.928V344.669ZM173.156 349.752C173.156 346.086 176.152 343.089 179.819 343.089C183.486 343.089 186.482 346.086 186.482 349.752V359.375C186.482 363.042 183.486 366.039 179.819 366.039C176.152 366.039 173.156 363.042 173.156 359.375V349.752ZM179.819 344.796C177.095 344.796 174.862 347.028 174.862 349.752V359.375C174.862 362.1 177.095 364.332 179.819 364.332C182.543 364.332 184.776 362.1 184.776 359.375V349.752C184.776 347.028 182.543 344.796 179.819 344.796ZM327.901 344.796C325.177 344.796 322.945 347.028 322.945 349.752V359.375C322.945 362.1 325.177 364.332 327.901 364.332C330.626 364.332 332.858 362.1 332.858 359.375V349.752C332.858 347.028 330.626 344.796 327.901 344.796ZM321.238 349.752C321.238 346.086 324.235 343.089 327.901 343.089C331.568 343.089 334.565 346.086 334.565 349.752V359.375C334.565 363.042 331.568 366.039 327.901 366.039C324.235 366.039 321.238 363.042 321.238 359.375V349.752Z" fill="#002D5C"/>
</svg>
