<svg width="423" height="380" viewBox="0 0 423 380" fill="none" xmlns="http://www.w3.org/2000/svg">
<path d="M194.255 20.8736H193.812C193.368 20.8736 193.368 20.4319 193.368 20.4319V1.88305C193.368 1.44141 193.812 1.44141 193.812 1.44141H196.029C196.473 1.44141 196.473 1.44141 196.473 1.88305L201.352 19.5486V1.88305C201.352 1.44141 201.795 1.44141 201.795 1.44141H202.239C202.682 1.44141 202.682 1.88305 202.682 1.88305V20.4319C202.682 20.8736 202.239 20.8736 202.239 20.8736H200.021C199.577 20.8736 199.577 20.8736 199.577 20.4319L194.699 2.76633V20.4319C195.142 20.8736 194.699 20.8736 194.255 20.8736Z" fill="#002D5C" stroke="#002D5C" stroke-width="2.01975"/>
<path d="M213.326 20.8738H212.883C212.439 20.8738 212.439 20.8738 212.439 20.4321V13.8075L208.004 1.88328H209.335C209.335 1.88328 209.778 1.88328 209.778 2.32492L212.883 10.2744C212.883 10.7161 213.77 10.7161 213.77 10.2744L216.874 1.44164L217.318 1H218.648L214.213 13.3659V19.9905C214.213 20.8738 213.77 20.8738 213.326 20.8738Z" fill="#002D5C" stroke="#002D5C" stroke-width="2.01975"/>
<path d="M231.067 5.8578H230.624C230.18 5.8578 230.18 5.41616 230.18 5.41616C229.737 4.09124 228.85 3.20796 227.519 3.20796C226.189 3.20796 224.858 4.53288 224.858 5.8578V16.8988C224.858 18.2237 226.189 19.5486 227.519 19.5486C228.85 19.5486 230.18 18.2237 230.18 16.8988H231.511C231.511 19.5486 229.737 21.3152 227.076 21.3152C224.415 21.3152 222.641 19.107 222.641 16.8988V5.8578C222.641 3.20796 224.858 1.44141 227.076 1.44141C229.293 1.44141 231.067 3.20796 231.511 5.41616C231.954 5.41616 231.511 5.8578 231.067 5.8578Z" fill="#002D5C" stroke="#002D5C" stroke-width="2.01975"/>
<path d="M172.967 9.59984V11.5737C172.967 12.758 170.75 13.5476 168.089 13.5476H4.87857C2.21753 13.9423 0 12.758 0 11.9685V9.59984C0 8.41552 2.21753 7.62598 4.87857 7.62598H168.089C170.75 7.62598 172.967 8.81029 172.967 9.59984Z" fill="#377293"/>
<path d="M420 9.62598V11.626C420 12.826 417.783 13.626 415.121 13.626H255.903C253.242 13.626 251.024 12.826 251.024 11.626V9.62598C251.024 8.42598 253.242 7.62598 255.903 7.62598H415.121C417.783 7.62598 420 8.82598 420 9.62598Z" fill="#377293"/>
<path d="M172.785 364.56V366.56C172.785 367.76 170.569 368.56 167.911 368.56H4.87341C2.21519 368.56 0 367.76 0 366.56V364.56C0 363.36 2.21519 362.56 4.87341 362.56H167.911C170.569 362.56 172.785 363.36 172.785 364.56Z" fill="#377293"/>
<path d="M420 364.56V366.56C420 367.76 417.785 368.56 415.127 368.56H252.089C249.431 368.56 247.216 367.76 247.216 366.56V364.56C247.216 363.36 249.431 362.56 252.089 362.56H415.127C417.785 362.56 420 363.36 420 364.56Z" fill="#377293"/>
<path d="M195.38 378.016L200.253 364.766L203.355 366.975L210 354.167L214.874 364.766L218.418 361.233L220.633 364.766L224.177 378.016H195.38Z" stroke="#002D5C" stroke-width="2.5" stroke-miterlimit="10" stroke-linecap="round" stroke-linejoin="round"/>
<path d="M195.38 378.016L198.924 369.625L201.139 370.95L204.684 363.884L206.899 366.092L209.114 362.559L211.329 364.767L213.544 362.117L216.203 368.3L217.532 366.092L221.076 367.417L223.734 378.016H195.38Z" fill="#002D5C"/>
<path d="M416.259 257.21L414.492 255.882C414.05 255.439 414.05 254.997 414.05 254.997C414.05 254.997 414.05 254.112 414.492 254.112C414.934 253.669 415.375 253.669 415.817 253.669C416.259 253.669 416.7 253.669 417.142 254.112L418.908 255.439C420.233 256.767 421.117 258.537 421.117 260.308C421.117 262.078 420.233 263.848 418.908 265.176C417.583 266.504 415.375 266.946 413.167 267.389C410.959 267.389 409.192 266.504 407.426 265.619L399.918 259.423V267.832C399.918 268.274 399.918 268.717 399.476 268.717C399.035 269.159 398.593 269.159 398.151 269.159C397.71 269.159 397.268 269.159 396.826 268.717C396.385 268.274 396.385 268.274 396.385 267.832V255.882C396.385 255.439 396.826 254.554 397.268 254.554C398.151 254.554 398.593 254.554 399.035 254.997L409.634 263.848C410.517 264.734 411.401 264.734 412.725 265.176C414.05 265.176 414.934 264.734 415.817 263.848C416.7 262.963 417.142 262.078 417.142 261.193C417.583 258.98 417.142 258.095 416.259 257.21Z" fill="#002D5C" stroke="#002D5C"/>
<path d="M418.467 277.126C420.233 278.454 421.117 280.224 421.117 282.437C421.117 284.65 420.233 286.42 418.467 287.748C416.7 289.076 414.934 289.961 412.284 289.961H405.218C402.568 289.961 400.801 289.076 399.035 287.748C397.268 286.42 396.385 284.65 396.385 282.437C396.385 280.224 397.268 278.454 399.035 277.126C400.801 275.798 402.568 274.913 405.218 274.913H412.284C414.934 274.913 417.142 275.356 418.467 277.126ZM416.259 278.896C415.375 278.011 414.05 277.569 412.725 277.569H405.659C404.334 277.569 403.009 278.011 402.126 278.896C401.243 279.781 400.801 280.667 400.801 281.994C400.801 283.322 401.243 284.207 402.126 285.092C403.009 285.978 404.334 286.42 405.659 286.42H412.725C414.05 286.42 415.375 285.978 416.259 285.092C417.142 284.207 417.583 283.322 417.583 281.994C417.583 281.109 417.142 279.781 416.259 278.896Z" fill="#002D5C" stroke="#002D5C"/>
<path d="M416.259 300.14L414.492 298.813C414.05 298.37 414.05 297.927 414.05 297.927C414.05 297.485 414.05 297.042 414.492 297.042C414.934 296.6 415.375 296.6 415.817 296.6C416.259 296.6 416.7 296.6 417.142 297.042L418.908 298.37C420.233 299.698 421.117 301.468 421.117 303.238C421.117 305.009 420.233 306.779 418.908 308.107C417.583 309.435 415.375 309.877 413.167 310.32C410.959 310.32 409.192 309.434 407.426 308.549L399.918 302.353V310.762C399.918 311.205 399.918 311.647 399.476 311.647C399.035 312.09 398.593 312.09 398.151 312.09C397.71 312.09 397.268 312.09 396.826 311.647C396.385 311.205 396.385 311.205 396.385 310.762V298.813C396.385 298.37 396.826 297.485 397.268 297.485C398.151 297.485 398.593 297.485 399.035 297.927L409.634 306.779C410.517 307.664 411.401 307.664 412.725 308.107C414.05 308.107 414.934 307.664 415.817 306.779C416.7 305.894 417.142 305.009 417.142 304.124C417.583 301.911 417.142 301.025 416.259 300.14Z" fill="#002D5C" stroke="#002D5C"/>
<path d="M418.467 325.367L406.101 320.499V328.465H414.05C414.492 328.465 414.934 328.465 415.375 328.908C415.817 329.35 415.817 329.35 415.817 329.793C415.817 330.236 415.817 330.678 415.375 330.678C414.934 331.121 414.492 331.121 414.05 331.121H406.101V332.449C406.101 332.891 406.101 333.334 405.659 333.334C405.218 333.776 404.776 333.776 404.334 333.776C403.893 333.776 403.451 333.776 403.009 333.334C402.568 332.891 402.568 332.891 402.568 332.449V331.121H398.151C397.71 331.121 397.268 331.121 396.826 330.678C396.385 330.236 396.385 330.236 396.385 329.793C396.385 329.35 396.385 328.908 396.826 328.908C397.268 328.465 397.71 328.465 398.151 328.465H402.568V317.843C402.568 317.401 403.009 316.958 403.451 316.516C403.893 316.073 404.776 316.073 405.218 316.516L420.233 322.269C420.675 322.269 421.117 322.712 421.117 323.154C421.117 323.597 421.117 324.039 421.117 324.482C421.117 324.925 420.675 324.925 420.233 325.367C419.792 325.367 418.908 325.367 418.467 325.367Z" fill="#002D5C" stroke="#002D5C"/>
<path d="M36.8896 290.403C47.9306 285.977 55.4385 274.913 55.4385 262.52C55.4385 245.702 41.7476 232.425 25.4069 232.425H5.09148C3.32492 232.425 2 233.753 2 235.523V332.006C2 333.776 3.32492 335.104 5.09148 335.104H8.18297C9.94953 335.104 11.2744 333.776 11.2744 332.006V296.157C11.2744 294.386 12.5994 293.059 14.3659 293.059H18.3407C24.9653 293.059 30.7066 297.042 32.9148 303.238L39.5394 320.499C41.7476 327.137 46.6057 332.891 53.2303 334.661C54.9968 335.104 56.3218 333.776 56.3218 332.006V328.023C56.3218 327.137 54.9968 325.81 54.1136 325.367C51.0221 324.039 48.8139 320.056 47.489 317.401L40.4227 299.697C39.0978 297.042 37.7729 294.386 36.0063 292.173C35.5647 291.731 36.0063 290.846 36.8896 290.403ZM25.4069 283.764H13.9243C12.1577 283.764 10.8328 282.437 10.8328 280.666V243.489C10.8328 241.719 12.1577 240.391 13.9243 240.391H24.9653C36.8896 240.391 46.6057 250.128 46.6057 262.078C46.6057 274.47 36.8896 283.764 25.4069 283.764Z" fill="#002D5C"/>
<path d="M103.577 231.982H65.5961C63.8296 231.982 62.5046 233.31 62.5046 235.081V331.563C62.5046 333.334 63.8296 334.662 65.5961 334.662H103.577C105.344 334.662 106.669 333.334 106.669 331.563V328.465C106.669 326.695 105.344 325.367 103.577 325.367H74.4289C72.6624 325.367 71.3374 324.04 71.3374 322.269V287.748C71.3374 285.977 72.6624 284.65 74.4289 284.65H89.4447C91.2113 284.65 92.5362 283.322 92.5362 281.552V278.454C92.5362 276.683 91.2113 275.355 89.4447 275.355H74.4289C72.6624 275.355 71.3374 274.028 71.3374 272.257V242.604C71.3374 240.834 72.6624 239.506 74.4289 239.506H103.577C105.344 239.506 106.669 238.179 106.669 236.408V233.31C106.227 233.31 104.902 231.982 103.577 231.982Z" fill="#002D5C"/>
<path d="M159.666 231.982H116.385C114.618 231.982 113.293 233.31 113.293 235.081V238.179C113.293 239.949 114.618 241.277 116.385 241.277H130.517C132.284 241.277 133.609 242.604 133.609 244.375V332.006C133.609 333.776 134.934 335.104 136.7 335.104H139.792C141.558 335.104 142.883 333.776 142.883 332.006V243.932C142.883 242.162 144.208 240.834 145.975 240.834H160.549C162.316 240.834 163.64 239.506 163.64 237.736V234.638C162.757 233.31 161.432 231.982 159.666 231.982Z" fill="#002D5C"/>
<path d="M244.902 316.958H278.909C280.675 316.958 282 315.63 282 313.86V310.762C282 308.992 280.675 307.664 278.909 307.664H253.735C251.969 307.664 250.644 306.336 250.644 304.566V281.994C250.644 280.224 251.969 278.896 253.735 278.896H266.984C268.751 278.896 270.076 277.568 270.076 275.798V272.7C270.076 270.93 268.751 269.602 266.984 269.602H253.735C251.969 269.602 250.644 268.274 250.644 266.504V242.162C250.644 240.392 251.969 239.064 253.735 239.064H278.909C280.675 239.064 282 237.736 282 235.966V232.868C282 231.097 280.675 229.77 278.909 229.77H244.902C243.136 229.77 241.811 231.097 241.811 232.868V312.09C241.811 315.63 243.136 316.958 244.902 316.958Z" fill="#002D5C"/>
<path d="M418.467 231.982H344.271C342.505 231.982 341.18 233.31 341.18 235.081V238.179C341.18 239.949 342.505 241.277 344.271 241.277H362.82C364.587 241.277 365.912 242.604 365.912 244.375V332.006C365.912 333.776 367.236 335.104 369.003 335.104H372.095C373.861 335.104 375.186 333.776 375.186 332.006V243.932C375.186 242.162 376.511 240.834 378.277 240.834H419.35C421.117 240.834 422.441 239.506 422.441 237.736V234.638C421.117 233.31 419.792 231.982 418.467 231.982Z" fill="#002D5C"/>
<path d="M340.296 328.023C340.296 326.252 338.53 325.367 337.205 325.367L297.457 328.023C280.233 329.793 259.035 331.563 249.76 329.351C244.019 328.023 236.953 325.367 232.536 322.269C227.678 318.729 223.703 314.303 220.17 308.107C217.52 303.681 213.546 297.485 207.804 292.616L206.479 291.288C205.596 290.846 206.038 289.961 206.479 289.518C216.195 284.65 223.262 274.47 223.262 262.521C223.262 245.702 209.571 231.982 193.23 231.982H173.356C171.59 231.982 170.265 233.31 170.265 235.081V331.563C170.265 333.334 171.59 334.662 173.356 334.662H176.448C178.214 334.662 179.539 333.334 179.539 331.563V295.714C179.539 293.944 180.864 292.616 182.631 292.616H187.489C192.789 292.616 198.088 294.829 202.946 299.255C207.804 303.238 211.337 308.549 213.546 312.532C217.52 319.614 222.378 325.367 228.561 329.351C233.861 333.334 241.811 336.432 248.877 337.76C254.618 339.087 260.36 339.53 266.101 339.53C270.076 339.53 285.975 337.76 299.666 336.432L339.413 334.219C341.18 334.219 342.063 332.449 342.063 331.121L340.296 328.023ZM192.789 283.765H181.748C179.981 283.765 178.656 282.437 178.656 280.666V243.49C178.656 241.719 179.981 240.391 181.748 240.391H192.789C204.713 240.391 214.429 250.128 214.429 262.078C214.429 274.47 204.713 283.765 192.789 283.765Z" fill="#002D5C"/>
<path d="M335.439 313.861C335.439 315.188 334.555 316.074 333.23 316.074H331.022C329.697 316.074 328.814 315.188 328.814 313.861V305.009C328.814 300.141 328.372 295.272 327.489 290.404C327.047 289.076 326.164 288.191 324.839 288.191C320.864 288.634 317.331 287.748 314.24 285.535C311.59 284.208 308.94 283.765 306.29 284.208C305.407 284.65 304.965 285.093 304.965 285.535C303.64 293.059 303.199 299.255 303.199 304.566V313.418C303.199 314.746 302.316 315.631 300.991 315.631H297.899C296.574 315.631 295.691 314.746 295.691 313.418V304.566C295.691 297.928 296.133 291.289 297.457 285.093L307.615 234.638C307.615 233.753 308.94 232.868 309.823 232.868H320.864C321.748 232.868 323.073 233.753 323.073 234.638L333.23 285.535C334.555 292.174 335.439 298.813 335.439 305.009V313.861ZM315.565 240.392C314.24 240.392 313.357 241.277 313.357 242.162L306.732 274.913C306.29 275.799 307.615 277.126 308.498 277.126C311.59 277.126 314.681 278.012 317.773 279.782C319.981 281.11 322.189 281.552 324.398 281.11C325.281 281.11 325.722 280.224 325.722 279.339L318.215 242.605C317.773 241.277 316.448 240.392 315.565 240.392Z" fill="#002D5C" stroke="#002D5C"/>
<path d="M29.8234 78.849V81.0619C29.8234 82.3896 28.9401 83.2748 27.6152 83.2748H14.366C13.0411 83.2748 12.1578 84.16 12.1578 85.4877V111.6C12.1578 112.928 13.0411 113.813 14.366 113.813H36.0064C37.3313 113.813 38.2146 114.698 38.2146 116.026V118.239C38.2146 119.567 37.3313 120.452 36.0064 120.452H7.74141C6.41648 120.452 5.5332 119.567 5.5332 118.239V45.6553C5.5332 44.3275 6.41648 43.4424 7.74141 43.4424H36.0064C37.3313 43.4424 38.2146 44.3275 38.2146 45.6553V47.8682C38.2146 49.196 37.3313 50.0811 36.0064 50.0811H14.366C13.0411 50.0811 12.1578 50.9663 12.1578 52.294V74.4231C12.1578 75.7509 13.0411 76.6361 14.366 76.6361H27.1736C28.4985 76.6361 29.8234 77.9638 29.8234 78.849Z" fill="#002D5C" stroke="#002D5C"/>
<path d="M51.4638 120.452H49.2556C47.9306 120.452 47.0474 119.567 47.0474 118.239V45.6553C47.0474 44.3275 47.9306 43.4424 49.2556 43.4424H57.6467C58.53 43.4424 59.4133 44.3275 59.8549 45.2127L79.2871 113.37L79.7288 113.813C79.7288 113.813 80.1704 113.813 80.1704 113.37V45.6553C80.1704 44.3275 81.0537 43.4424 82.3786 43.4424H84.5868C85.9117 43.4424 86.795 44.3275 86.795 45.6553V118.239C86.795 119.567 85.9117 120.452 84.5868 120.452H76.1956C75.3123 120.452 74.4291 119.567 73.9874 118.681L54.5552 50.5237L54.1136 50.0811C54.1136 50.0811 53.672 50.0811 53.672 50.5237V118.239C53.672 119.124 52.7887 120.452 51.4638 120.452Z" fill="#002D5C" stroke="#002D5C"/>
<path d="M132.284 45.6553V47.8682C132.284 49.196 131.401 50.0811 130.076 50.0811H119.477C118.152 50.0811 117.268 50.9663 117.268 52.294V118.239C117.268 119.567 116.385 120.452 115.06 120.452H112.852C111.527 120.452 110.644 119.567 110.644 118.239V52.294C110.644 50.9663 109.76 50.0811 108.435 50.0811H97.8361C96.5112 50.0811 95.6279 49.196 95.6279 47.8682V45.6553C95.6279 44.3275 96.5112 43.4424 97.8361 43.4424H130.076C131.401 43.885 132.284 44.7701 132.284 45.6553Z" fill="#002D5C" stroke="#002D5C"/>
<path d="M163.199 78.849V81.0619C163.199 82.3896 162.315 83.2748 160.991 83.2748H149.95C148.625 83.2748 147.741 84.16 147.741 85.4877V111.6C147.741 112.928 148.625 113.813 149.95 113.813H171.59C172.915 113.813 173.798 114.698 173.798 116.026V118.239C173.798 119.567 172.915 120.452 171.59 120.452H143.325C142 120.452 141.117 119.567 141.117 118.239V45.6553C141.117 44.3275 142 43.4424 143.325 43.4424H171.59C172.915 43.4424 173.798 44.3275 173.798 45.6553V47.8682C173.798 49.196 172.915 50.0811 171.59 50.0811H149.95C148.625 50.0811 147.741 50.9663 147.741 52.294V74.4231C147.741 75.7509 148.625 76.6361 149.95 76.6361H160.991C162.315 76.6361 163.199 77.9638 163.199 78.849Z" fill="#002D5C" stroke="#002D5C"/>
<path d="M187.048 120.452H184.839C183.514 120.452 182.631 119.567 182.631 118.239V45.6553C182.631 44.3275 183.514 43.4424 184.839 43.4424H199.855C212.221 43.4424 222.379 53.6218 222.379 66.0141C222.379 74.8657 217.079 82.3896 210.013 86.3729C209.571 86.3729 209.571 87.258 210.013 87.7006L210.896 88.5858C215.312 92.1264 218.404 96.9948 220.171 100.093C222.82 104.519 225.912 108.059 229.445 110.715C232.536 112.928 236.511 114.698 240.486 115.583C248.436 117.354 257.71 116.468 265.218 116.026H266.984C267.868 116.026 269.193 116.911 269.193 117.796L269.634 121.779C269.634 121.779 269.634 122.222 269.193 122.222C268.309 122.222 266.984 122.222 265.659 122.665C261.243 123.107 256.385 123.55 251.527 123.55C247.111 123.55 243.136 123.107 238.719 122.222C233.42 121.337 229.003 119.124 225.029 116.468C220.612 113.37 216.637 108.945 213.988 104.076C212.663 101.421 209.571 96.9948 206.038 93.8968C202.505 90.7987 198.53 89.0284 194.555 89.0284H191.022C189.697 89.0284 188.814 89.9135 188.814 91.2413V118.239C189.256 119.124 187.931 120.452 187.048 120.452ZM191.464 82.3896H199.855C208.688 82.3896 216.196 75.3083 216.196 66.4567C216.196 57.605 208.688 50.0811 199.855 50.0811H191.464C190.139 50.0811 189.256 50.9663 189.256 52.294V80.1767C189.256 81.5045 190.139 82.3896 191.464 82.3896ZM239.603 98.7652H237.395C236.07 98.7652 235.186 97.88 235.186 96.5523V45.6553C235.186 44.3275 236.07 43.4424 237.395 43.4424H255.943C263.893 43.4424 270.518 50.0811 270.518 58.0476C270.518 66.0141 263.893 72.6528 255.943 72.6528H244.019C242.694 72.6528 241.811 73.538 241.811 74.8657V96.5523C241.811 97.88 240.928 98.7652 239.603 98.7652ZM241.811 52.294V63.8012C241.811 65.1289 242.694 66.0141 244.019 66.0141H255.943C260.36 66.0141 263.893 62.4734 263.893 58.0476C263.893 53.6218 260.36 50.0811 255.943 50.0811H244.019C242.694 50.0811 241.811 50.9663 241.811 52.294Z" fill="#002D5C" stroke="#002D5C"/>
<path d="M319.098 115.141V118.239C319.098 119.567 318.215 120.452 316.89 120.009C312.032 119.124 308.499 114.256 306.732 109.387L301.874 96.5523C300.107 92.1264 295.691 89.0284 290.833 89.0284H288.183C286.858 89.0284 285.975 89.9135 285.975 91.2413V118.239C285.975 119.567 285.092 120.452 283.767 120.452H281.559C280.234 120.452 279.35 119.567 279.35 118.239V45.6553C279.35 44.3275 280.234 43.4424 281.559 43.4424H296.574C308.94 43.4424 319.098 53.6218 319.098 66.0141C319.098 75.7509 313.357 83.7174 304.965 86.8154C304.524 87.258 304.082 87.7006 304.524 88.1432C305.849 89.9135 306.732 91.6838 307.615 93.8968L312.473 106.732C313.357 108.945 315.123 112.043 317.331 112.928C318.215 113.813 319.098 114.698 319.098 115.141ZM288.183 82.3896H296.574C305.407 82.3896 312.473 75.3083 312.473 66.0141C312.473 57.1624 305.407 50.0811 296.574 50.0811H288.183C286.858 50.0811 285.975 50.9663 285.975 52.294V80.1767C285.975 81.5045 286.858 82.3896 288.183 82.3896Z" fill="#002D5C" stroke="#002D5C"/>
<path d="M332.347 120.452H330.139C328.814 120.452 327.931 119.567 327.931 118.239V45.6553C327.931 44.3275 328.814 43.4424 330.139 43.4424H332.347C333.672 43.4424 334.555 44.3275 334.555 45.6553V118.239C334.555 119.124 333.672 120.452 332.347 120.452Z" fill="#002D5C" stroke="#002D5C"/>
<path d="M343.388 59.8179C343.388 50.9663 350.454 43.885 359.287 43.885H360.612C369.445 43.885 376.511 50.9663 376.511 59.8179V62.916C376.511 64.2437 375.628 65.1289 374.303 65.1289H372.095C370.77 65.1289 369.887 64.2437 369.887 62.916V59.8179C369.887 54.5069 365.912 50.5237 360.612 50.5237H359.287C353.988 50.5237 350.013 54.9495 350.013 59.8179V67.3418C350.013 70.8825 351.779 73.9806 355.312 75.7509L368.12 81.947C370.77 83.2748 372.978 85.4877 374.745 87.7006C376.511 90.3561 376.953 93.0116 376.953 96.1097V102.748C376.953 103.634 377.394 104.519 378.278 104.961C395.943 110.715 399.918 113.37 415.817 113.37C417.142 113.37 418.467 114.256 418.467 115.583V118.239C418.467 119.567 417.142 120.452 415.817 120.452C399.476 120.009 395.06 117.354 376.953 111.6C376.07 111.6 375.186 112.043 374.745 112.485C372.095 116.911 366.795 120.009 361.495 120.009H360.17C351.338 120.009 344.271 112.928 344.271 104.076C344.271 101.863 345.155 99.6503 347.363 98.3226C349.129 96.9948 351.779 96.5523 353.988 97.4374L368.562 101.863C369.887 102.306 371.212 101.421 371.212 99.6503V96.1097C371.212 92.569 369.445 89.4709 365.912 87.7006L353.104 81.5045C350.454 80.1767 348.246 77.9638 346.48 75.7509C345.155 73.0954 344.271 70.4399 344.271 67.3418V59.8179H343.388ZM359.287 113.813H360.612C363.262 113.813 365.912 112.485 367.678 110.715C368.12 110.272 368.12 109.387 367.237 108.945L350.896 103.634C350.454 103.634 350.013 103.634 350.013 104.076C350.013 109.387 353.988 113.813 359.287 113.813ZM407.868 68.6696V70.8825C407.868 72.2102 406.984 73.0954 405.659 73.0954H395.943C394.618 73.0954 393.735 73.9806 393.735 75.3083V90.3561C393.735 91.6838 394.618 92.569 395.943 92.569H414.051C415.376 92.569 416.259 93.4542 416.259 94.7819V96.9948C416.259 98.3226 415.376 99.2077 414.051 99.2077H389.319C387.994 99.2077 387.111 98.3226 387.111 96.9948V45.6553C387.111 44.3275 387.994 43.4424 389.319 43.4424H414.051C415.376 43.4424 416.259 44.3275 416.259 45.6553V47.8682C416.259 49.196 415.376 50.0811 414.051 50.0811H395.943C394.618 50.0811 393.735 50.9663 393.735 52.294V63.8012C393.735 65.1289 394.618 66.0141 395.943 66.0141H405.659C406.984 66.4567 407.868 67.3418 407.868 68.6696Z" fill="#002D5C" stroke="#002D5C"/>
<path d="M2.44166 190.379V160.284C2.00002 146.564 14.366 135.057 27.6152 135.057C40.8644 135.057 52.7887 146.121 52.7887 160.284V190.379C53.2303 203.657 41.306 216.049 27.6152 215.607C14.366 216.049 2.00002 204.099 2.44166 190.379ZM9.50791 160.284V190.379C9.50791 200.559 17.8991 208.525 27.6152 208.525C37.7729 208.525 45.7224 200.116 45.7224 190.379V160.284C45.7224 150.104 37.3312 142.138 27.6152 142.138C17.4574 142.138 9.50791 150.547 9.50791 160.284Z" fill="#002D5C" stroke="#002D5C"/>
<path d="M67.4796 214.665H65.2714C63.9465 214.665 63.0632 213.78 63.0632 212.452V137.213C63.0632 135.885 63.9465 135 65.2714 135H69.6878C82.4954 135 93.0948 145.622 93.0948 158.899C93.0948 171.292 83.3787 181.471 71.4544 182.356C70.1295 182.356 69.6878 183.684 69.6878 184.569V212.452C69.6878 213.78 68.8046 214.665 67.4796 214.665ZM71.896 175.275C80.2872 174.39 86.4702 167.309 86.4702 158.457C86.4702 150.048 80.2872 142.524 71.896 141.639C70.5711 141.639 69.6878 142.524 69.6878 143.852V173.062C69.6878 174.39 70.5711 175.275 71.896 175.275Z" fill="#002D5C" stroke="#002D5C"/>
<path d="M125.334 172.234V174.446C125.334 175.774 124.451 176.659 123.126 176.659H111.644C110.319 176.659 109.435 177.545 109.435 178.872V205.87C109.435 207.198 110.319 208.083 111.644 208.083H134.609C135.934 208.083 136.817 208.968 136.817 210.296V212.509C136.817 213.836 135.934 214.721 134.609 214.721H104.577C103.252 214.721 102.369 213.836 102.369 212.509V137.27C102.369 135.942 103.252 135.057 104.577 135.057H134.167C135.492 135.057 136.375 135.942 136.375 137.27V139.482C136.375 140.81 135.492 141.695 134.167 141.695H111.202C109.877 141.695 108.994 142.581 108.994 143.908V166.923C108.994 168.25 109.877 169.135 111.202 169.135H122.685C124.451 170.021 125.334 170.906 125.334 172.234Z" fill="#002D5C" stroke="#002D5C"/>
<path d="M187.164 209.853V212.951C187.164 214.279 186.281 215.164 184.956 215.164C179.656 213.836 176.123 209.41 174.357 204.099L169.498 190.822C167.732 185.953 163.316 182.855 158.016 182.855H154.924C153.599 182.855 152.716 183.74 152.716 185.068V212.951C152.716 214.279 151.833 215.164 150.508 215.164H148.3C146.975 215.164 146.092 214.279 146.092 212.951V137.712C146.092 136.384 146.975 135.499 148.3 135.499H163.757C176.565 135.499 187.164 146.121 187.164 158.956C187.164 168.693 180.981 177.102 172.59 180.642C172.148 181.085 171.707 181.528 172.148 181.97C173.473 183.74 174.798 185.511 175.681 187.724L180.54 201.001C181.423 203.214 183.189 206.312 185.398 207.197C185.839 208.083 187.164 209.41 187.164 209.853ZM154.483 175.774H163.316C172.59 175.774 180.098 168.25 180.098 158.956C180.098 149.662 172.59 142.138 163.316 142.138H154.483C153.158 142.138 152.275 143.023 152.275 144.351V173.561C152.275 174.889 153.599 175.774 154.483 175.774Z" fill="#002D5C" stroke="#002D5C"/>
<path d="M237.744 212.452C237.744 213.78 236.861 214.665 235.536 214.665H233.328C232.003 214.665 231.12 213.78 231.12 212.452V204.043C231.12 199.174 230.678 194.749 229.795 189.88C229.353 188.552 228.47 187.667 227.145 187.667C223.17 188.11 219.637 187.225 216.546 185.454C213.896 184.127 211.246 183.684 208.596 184.127C207.713 184.569 207.271 185.012 207.271 185.454C205.946 192.536 205.505 198.289 205.505 204.043V212.452C205.505 213.78 204.621 214.665 203.297 214.665H201.088C199.763 214.665 198.88 213.78 198.88 212.452V204.043C198.88 197.847 199.322 191.208 200.647 185.012L210.804 136.77C210.804 135.885 212.129 135 213.013 135H224.054C224.937 135 226.262 135.885 226.262 136.77L236.42 185.012C237.744 191.208 238.628 197.847 238.628 204.043V212.452H237.744ZM217.871 141.639C216.546 141.639 215.662 142.524 215.662 143.409L209.038 174.832C208.596 175.718 209.921 176.603 210.804 177.045C213.896 177.045 216.987 177.93 220.079 179.258C222.287 180.586 224.495 181.029 226.703 180.586C227.587 180.586 228.028 179.701 228.028 178.816L220.52 143.409C220.079 142.524 218.754 141.639 217.871 141.639Z" fill="#002D5C" stroke="#002D5C"/>
<path d="M282.442 137.712V139.925C282.442 141.253 281.558 142.138 280.234 142.138H268.751C267.426 142.138 266.543 143.023 266.543 144.351V212.951C266.543 214.279 265.659 215.164 264.335 215.164H262.126C260.801 215.164 259.918 214.279 259.918 212.951V144.351C259.918 143.023 259.035 142.138 257.71 142.138H246.669C245.344 142.138 244.461 141.253 244.461 139.925V137.712C244.461 136.384 245.344 135.499 246.669 135.499H280.675C281.117 135.499 282.442 136.384 282.442 137.712Z" fill="#002D5C" stroke="#002D5C"/>
<path d="M290.274 196.133V154.088C290.274 143.466 298.666 134.614 309.265 134.614C319.864 134.614 328.697 143.466 328.697 154.088V196.133C328.697 206.755 319.864 215.164 309.265 215.164C299.107 215.164 290.274 206.755 290.274 196.133ZM297.341 154.088V196.133C297.341 202.772 303.082 208.525 309.707 208.525C316.331 208.525 322.073 202.772 322.073 196.133V154.088C322.073 147.449 316.331 141.696 309.707 141.696C302.64 141.696 297.341 147.007 297.341 154.088Z" fill="#002D5C" stroke="#002D5C"/>
<path d="M377.394 210.738V212.951C377.394 214.279 376.511 215.164 375.186 215.164C368.562 214.279 362.82 209.853 360.612 203.657L355.754 190.379C354.871 188.166 353.104 185.953 351.338 184.626C350.013 183.74 348.688 182.855 346.921 182.855C346.48 182.855 346.038 183.298 346.038 183.74V212.951C346.038 214.279 345.155 215.164 343.83 215.164H341.622C340.297 215.164 339.413 214.279 339.413 212.951V137.712C339.413 136.384 340.297 135.499 341.622 135.499H350.454C363.262 135.499 373.861 145.678 373.861 158.956C373.861 168.693 367.678 177.544 359.287 181.085C358.846 181.528 358.404 182.413 358.846 182.855C360.17 184.626 361.495 186.396 362.379 188.609L367.237 201.886C368.562 205.427 371.653 208.083 375.628 208.968C376.069 208.525 377.394 209.853 377.394 210.738ZM347.805 175.774H350.013C359.287 175.774 366.795 167.808 366.795 158.513C366.795 149.219 359.287 142.138 350.013 142.138H347.805C346.48 142.138 345.596 143.023 345.596 144.351V173.561C345.596 174.889 346.48 175.774 347.805 175.774Z" fill="#002D5C" stroke="#002D5C"/>
<path d="M414.492 189.937C414.492 185.954 412.284 182.856 409.193 181.085L395.943 174.446C390.202 171.791 386.669 165.152 386.669 158.514V151.432C386.669 142.138 394.177 135.057 403.01 135.057H404.776C414.051 135.057 421.117 142.581 421.117 151.432V154.973C421.117 156.301 420.234 157.186 418.909 157.186H416.701C415.376 157.186 414.492 156.301 414.492 154.973V151.432C414.492 146.121 410.076 141.695 404.776 141.695H403.01C397.71 141.695 393.294 146.121 393.294 151.432V158.514C393.294 162.054 395.502 166.48 398.593 168.25L411.842 174.889C417.584 177.545 421.117 183.741 421.117 189.937V198.346C421.117 207.64 413.609 214.721 404.776 214.721H403.01C393.735 214.721 386.669 207.198 386.669 198.346V194.805C386.669 193.477 387.552 192.592 388.877 192.592H391.085C392.41 192.592 393.294 193.477 393.294 194.805V198.346C393.294 203.657 397.71 208.083 403.01 208.083H404.776C410.076 208.083 414.051 204.099 414.492 198.788V189.937Z" fill="#002D5C" stroke="#002D5C"/>
</svg>
