<svg width="401" height="391" viewBox="0 0 401 391" fill="none" xmlns="http://www.w3.org/2000/svg">
<path d="M185.78 19.9042H185.358C184.936 19.9042 184.936 19.4841 184.936 19.4841V1.84002C184.936 1.41992 185.358 1.41992 185.358 1.41992H187.468C187.889 1.41992 187.889 1.41992 187.889 1.84002L192.53 18.6439V1.84002C192.53 1.41992 192.952 1.41992 192.952 1.41992H193.374C193.796 1.41992 193.796 1.84002 193.796 1.84002V19.4841C193.796 19.9042 193.374 19.9042 193.374 19.9042H191.264C190.842 19.9042 190.842 19.9042 190.842 19.4841L186.202 2.68021V19.4841C186.624 19.9042 186.202 19.9042 185.78 19.9042Z" fill="#002D5C" stroke="#002D5C" stroke-width="1.92123"/>
<path d="M203.921 19.9044H203.499C203.077 19.9044 203.077 19.9044 203.077 19.4843V13.1828L198.858 1.84019H200.124C200.124 1.84019 200.546 1.84019 200.546 2.26029L203.499 9.82204C203.499 10.2421 204.342 10.2421 204.342 9.82204L207.296 1.4201L207.717 1H208.983L204.764 12.7627V19.0642C204.764 19.9044 204.343 19.9044 203.921 19.9044Z" fill="#002D5C" stroke="#002D5C" stroke-width="1.92123"/>
<path d="M220.796 5.62089H220.374C219.952 5.62089 219.952 5.2008 219.952 5.2008C219.531 3.9405 218.687 3.10031 217.421 3.10031C216.156 3.10031 214.89 4.3606 214.89 5.62089V16.1233C214.89 17.3836 216.156 18.6439 217.421 18.6439C218.687 18.6439 219.952 17.3836 219.952 16.1233H221.218C221.218 18.6439 219.531 20.3243 216.999 20.3243C214.468 20.3243 212.781 18.2238 212.781 16.1233V5.62089C212.781 3.10031 214.89 1.41992 216.999 1.41992C219.109 1.41992 220.796 3.10031 221.218 5.2008C221.64 5.2008 221.218 5.62089 220.796 5.62089Z" fill="#002D5C" stroke="#002D5C" stroke-width="1.92123"/>
<path d="M165.531 9.18031V11.0579C165.531 12.1844 163.421 12.9355 160.89 12.9355H5.64078C3.10955 13.311 1.00018 12.1844 1.00018 11.4334V9.18031C1.00018 8.05377 3.10955 7.30273 5.64078 7.30273H160.89C163.421 7.30273 165.531 8.42928 165.531 9.18031Z" fill="#377293"/>
<path d="M400.513 9.20518V11.1076C400.513 12.2491 398.404 13.0101 395.873 13.0101H244.42C241.889 13.0101 239.78 12.2491 239.78 11.1076V9.20518C239.78 8.06371 241.889 7.30273 244.42 7.30273H395.873C398.404 7.30273 400.513 8.4442 400.513 9.20518Z" fill="#377293"/>
<path d="M400.513 387.195V389.098C400.513 390.239 398.4 391 395.864 391H5.64914C3.11324 391 1 390.239 1 389.098V387.195C1 386.054 3.11324 385.293 5.64914 385.293H395.864C398.4 385.293 400.513 386.054 400.513 387.195Z" fill="#377293"/>
<path d="M26.9591 75.0516V77.1565C26.9591 78.4195 26.1189 79.2615 24.8586 79.2615H12.2557C10.9954 79.2615 10.1552 80.1035 10.1552 81.3665V106.205C10.1552 107.468 10.9954 108.31 12.2557 108.31H32.8404C34.1007 108.31 34.9409 109.152 34.9409 110.415V112.52C34.9409 113.783 34.1007 114.625 32.8404 114.625H5.95419C4.69389 114.625 3.8537 113.783 3.8537 112.52V43.477C3.8537 42.2141 4.69389 41.3721 5.95419 41.3721H32.8404C34.1007 41.3721 34.9409 42.2141 34.9409 43.477V45.582C34.9409 46.845 34.1007 47.687 32.8404 47.687H12.2557C10.9954 47.687 10.1552 48.529 10.1552 49.7919V70.8416C10.1552 72.1046 10.9954 72.9466 12.2557 72.9466H24.4385C25.6988 72.9466 26.9591 74.2096 26.9591 75.0516Z" fill="#002D5C"/>
<path d="M47.5439 114.625H45.4434C44.1831 114.625 43.3429 113.783 43.3429 112.52V43.477C43.3429 42.2141 44.1831 41.3721 45.4434 41.3721H53.4252C54.2654 41.3721 55.1056 42.2141 55.5257 43.056L74.01 107.889L74.4301 108.31C74.4301 108.31 74.8502 108.31 74.8502 107.889V43.477C74.8502 42.2141 75.6904 41.3721 76.9507 41.3721H79.0512C80.3115 41.3721 81.1517 42.2141 81.1517 43.477V112.52C81.1517 113.783 80.3115 114.625 79.0512 114.625H71.0693C70.2291 114.625 69.3889 113.783 68.9689 112.941L50.4846 48.108L50.0645 47.687C50.0645 47.687 49.6444 47.687 49.6444 48.108V112.52C49.6444 113.362 48.8042 114.625 47.5439 114.625Z" fill="#002D5C"/>
<path d="M124.422 43.477V45.582C124.422 46.845 123.582 47.687 122.321 47.687H112.239C110.979 47.687 110.138 48.529 110.138 49.7919V112.52C110.138 113.783 109.298 114.625 108.038 114.625H105.937C104.677 114.625 103.837 113.783 103.837 112.52V49.7919C103.837 48.529 102.997 47.687 101.736 47.687H91.6541C90.3938 47.687 89.5537 46.845 89.5537 45.582V43.477C89.5537 42.2141 90.3938 41.3721 91.6541 41.3721H122.321C123.582 41.7931 124.422 42.6351 124.422 43.477Z" fill="#002D5C"/>
<path d="M153.829 75.0516V77.1565C153.829 78.4195 152.988 79.2615 151.728 79.2615H141.226C139.965 79.2615 139.125 80.1035 139.125 81.3665V106.205C139.125 107.468 139.965 108.31 141.226 108.31H161.81C163.071 108.31 163.911 109.152 163.911 110.415V112.52C163.911 113.783 163.071 114.625 161.81 114.625H134.924C133.664 114.625 132.824 113.783 132.824 112.52V43.477C132.824 42.2141 133.664 41.3721 134.924 41.3721H161.81C163.071 41.3721 163.911 42.2141 163.911 43.477V45.582C163.911 46.845 163.071 47.687 161.81 47.687H141.226C139.965 47.687 139.125 48.529 139.125 49.7919V70.8416C139.125 72.1046 139.965 72.9466 141.226 72.9466H151.728C152.988 72.9466 153.829 74.2096 153.829 75.0516Z" fill="#002D5C"/>
<path d="M176.514 114.625H174.413C173.153 114.625 172.313 113.783 172.313 112.52V43.477C172.313 42.2141 173.153 41.3721 174.413 41.3721H188.697C200.459 41.3721 210.122 51.0549 210.122 62.8427C210.122 71.2626 205.081 78.4195 198.359 82.2085C197.939 82.2085 197.939 83.0504 198.359 83.4714L199.199 84.3134C203.4 87.6814 206.341 92.3123 208.021 95.2593C210.542 99.4692 213.483 102.837 216.843 105.363C219.784 107.468 223.565 109.152 227.346 109.994C234.907 111.678 243.73 110.836 250.871 110.415H252.552C253.392 110.415 254.652 111.257 254.652 112.099L255.072 115.888C255.072 115.888 255.072 116.309 254.652 116.309C253.812 116.309 252.552 116.309 251.291 116.73C247.09 117.151 242.469 117.572 237.848 117.572C233.647 117.572 229.866 117.151 225.665 116.309C220.624 115.467 216.423 113.362 212.642 110.836C208.441 107.889 204.66 103.679 202.14 99.0482C200.88 96.5222 197.939 92.3123 194.578 89.3654C191.217 86.4184 187.436 84.7344 183.656 84.7344H180.295C179.034 84.7344 178.194 85.5764 178.194 86.8394V112.52C178.614 113.362 177.354 114.625 176.514 114.625ZM180.715 78.4195H188.697C197.099 78.4195 204.24 71.6836 204.24 63.2637C204.24 54.8439 197.099 47.687 188.697 47.687H180.715C179.455 47.687 178.614 48.529 178.614 49.7919V76.3145C178.614 77.5775 179.455 78.4195 180.715 78.4195ZM226.506 93.9963H224.405C223.145 93.9963 222.305 93.1543 222.305 91.8913V43.477C222.305 42.2141 223.145 41.3721 224.405 41.3721H242.049C249.611 41.3721 255.912 47.687 255.912 55.2649C255.912 62.8428 249.611 69.1577 242.049 69.1577H230.707C229.446 69.1577 228.606 69.9996 228.606 71.2626V91.8913C228.606 93.1543 227.766 93.9963 226.506 93.9963ZM228.606 49.7919V60.7378C228.606 62.0008 229.446 62.8427 230.707 62.8427H242.049C246.25 62.8427 249.611 59.4748 249.611 55.2649C249.611 51.0549 246.25 47.687 242.049 47.687H230.707C229.446 47.687 228.606 48.529 228.606 49.7919Z" fill="#002D5C"/>
<path d="M302.123 109.573V112.52C302.123 113.783 301.283 114.625 300.023 114.204C295.402 113.362 292.041 108.731 290.36 104.1L285.739 91.8913C284.059 87.6814 279.858 84.7344 275.237 84.7344H272.716C271.456 84.7344 270.616 85.5764 270.616 86.8394V112.52C270.616 113.783 269.776 114.625 268.515 114.625H266.415C265.155 114.625 264.314 113.783 264.314 112.52V43.477C264.314 42.2141 265.155 41.3721 266.415 41.3721H280.698C292.461 41.3721 302.123 51.0549 302.123 62.8427C302.123 72.1046 296.662 79.6825 288.68 82.6294C288.26 83.0504 287.84 83.4714 288.26 83.8924C289.52 85.5764 290.36 87.2604 291.201 89.3654L295.822 101.574C296.662 103.679 298.342 106.626 300.443 107.468C301.283 108.31 302.123 109.152 302.123 109.573ZM272.716 78.4195H280.698C289.1 78.4195 295.822 71.6836 295.822 62.8427C295.822 54.4229 289.1 47.687 280.698 47.687H272.716C271.456 47.687 270.616 48.529 270.616 49.7919V76.3145C270.616 77.5775 271.456 78.4195 272.716 78.4195Z" fill="#002D5C"/>
<path d="M314.726 114.625H312.626C311.365 114.625 310.525 113.783 310.525 112.52V43.477C310.525 42.2141 311.365 41.3721 312.626 41.3721H314.726C315.986 41.3721 316.827 42.2141 316.827 43.477V112.52C316.827 113.362 315.986 114.625 314.726 114.625Z" fill="#002D5C"/>
<path d="M325.229 56.9488C325.229 48.529 331.95 41.7931 340.352 41.7931H341.612C350.014 41.7931 356.736 48.529 356.736 56.9488V59.8958C356.736 61.1588 355.896 62.0008 354.635 62.0008H352.535C351.275 62.0008 350.434 61.1588 350.434 59.8958V56.9488C350.434 51.8969 346.653 48.108 341.612 48.108H340.352C335.311 48.108 331.53 52.3179 331.53 56.9488V64.1057C331.53 67.4737 333.21 70.4206 336.571 72.1046L348.754 77.9985C351.275 79.2615 353.375 81.3665 355.055 83.4714C356.736 85.9974 357.156 88.5234 357.156 91.4703V97.7852C357.156 98.6272 357.576 99.4692 358.416 99.8902C375.22 105.363 379.001 107.889 394.125 107.889C395.385 107.889 396.645 108.731 396.645 109.994V112.52C396.645 113.783 395.385 114.625 394.125 114.625C378.581 114.204 374.38 111.678 357.156 106.205C356.316 106.205 355.476 106.626 355.055 107.047C352.535 111.257 347.494 114.204 342.453 114.204H341.192C332.79 114.204 326.069 107.468 326.069 99.0482C326.069 96.9432 326.909 94.8383 329.009 93.5753C330.69 92.3123 333.21 91.8913 335.311 92.7333L349.174 96.9432C350.434 97.3642 351.695 96.5222 351.695 94.8383V91.4703C351.695 88.1024 350.014 85.1554 346.654 83.4714L334.471 77.5775C331.95 76.3145 329.85 74.2096 328.169 72.1046C326.909 69.5786 326.069 67.0527 326.069 64.1057V56.9488H325.229ZM340.352 108.31H341.612C344.133 108.31 346.654 107.047 348.334 105.363C348.754 104.942 348.754 104.1 347.914 103.679L332.37 98.6272C331.95 98.6272 331.53 98.6272 331.53 99.0482C331.53 104.1 335.311 108.31 340.352 108.31ZM386.563 65.3687V67.4737C386.563 68.7367 385.723 69.5786 384.462 69.5786H375.22C373.96 69.5786 373.12 70.4206 373.12 71.6836V85.9974C373.12 87.2604 373.96 88.1024 375.22 88.1024H392.444C393.704 88.1024 394.545 88.9444 394.545 90.2073V92.3123C394.545 93.5753 393.704 94.4173 392.444 94.4173H368.919C367.658 94.4173 366.818 93.5753 366.818 92.3123V43.477C366.818 42.2141 367.658 41.3721 368.919 41.3721H392.444C393.704 41.3721 394.545 42.2141 394.545 43.477V45.582C394.545 46.845 393.704 47.687 392.444 47.687H375.22C373.96 47.687 373.12 48.529 373.12 49.7919V60.7378C373.12 62.0008 373.96 62.8427 375.22 62.8427H384.462C385.723 63.2637 386.563 64.1057 386.563 65.3687Z" fill="#002D5C"/>
<path d="M26.9591 75.0516V77.1565C26.9591 78.4195 26.1189 79.2615 24.8586 79.2615H12.2557C10.9954 79.2615 10.1552 80.1035 10.1552 81.3665V106.205C10.1552 107.468 10.9954 108.31 12.2557 108.31H32.8404C34.1007 108.31 34.9409 109.152 34.9409 110.415V112.52C34.9409 113.783 34.1007 114.625 32.8404 114.625H5.95419C4.69389 114.625 3.8537 113.783 3.8537 112.52V43.477C3.8537 42.2141 4.69389 41.3721 5.95419 41.3721H32.8404C34.1007 41.3721 34.9409 42.2141 34.9409 43.477V45.582C34.9409 46.845 34.1007 47.687 32.8404 47.687H12.2557C10.9954 47.687 10.1552 48.529 10.1552 49.7919V70.8416C10.1552 72.1046 10.9954 72.9466 12.2557 72.9466H24.4385C25.6988 72.9466 26.9591 74.2096 26.9591 75.0516Z" stroke="#002D5C" stroke-width="0.951221"/>
<path d="M47.5439 114.625H45.4434C44.1831 114.625 43.3429 113.783 43.3429 112.52V43.477C43.3429 42.2141 44.1831 41.3721 45.4434 41.3721H53.4252C54.2654 41.3721 55.1056 42.2141 55.5257 43.056L74.01 107.889L74.4301 108.31C74.4301 108.31 74.8502 108.31 74.8502 107.889V43.477C74.8502 42.2141 75.6904 41.3721 76.9507 41.3721H79.0512C80.3115 41.3721 81.1517 42.2141 81.1517 43.477V112.52C81.1517 113.783 80.3115 114.625 79.0512 114.625H71.0693C70.2291 114.625 69.3889 113.783 68.9689 112.941L50.4846 48.108L50.0645 47.687C50.0645 47.687 49.6444 47.687 49.6444 48.108V112.52C49.6444 113.362 48.8042 114.625 47.5439 114.625Z" stroke="#002D5C" stroke-width="0.951221"/>
<path d="M124.422 43.477V45.582C124.422 46.845 123.582 47.687 122.321 47.687H112.239C110.979 47.687 110.138 48.529 110.138 49.7919V112.52C110.138 113.783 109.298 114.625 108.038 114.625H105.937C104.677 114.625 103.837 113.783 103.837 112.52V49.7919C103.837 48.529 102.997 47.687 101.736 47.687H91.6541C90.3938 47.687 89.5537 46.845 89.5537 45.582V43.477C89.5537 42.2141 90.3938 41.3721 91.6541 41.3721H122.321C123.582 41.7931 124.422 42.6351 124.422 43.477Z" stroke="#002D5C" stroke-width="0.951221"/>
<path d="M153.829 75.0516V77.1565C153.829 78.4195 152.988 79.2615 151.728 79.2615H141.226C139.965 79.2615 139.125 80.1035 139.125 81.3665V106.205C139.125 107.468 139.965 108.31 141.226 108.31H161.81C163.071 108.31 163.911 109.152 163.911 110.415V112.52C163.911 113.783 163.071 114.625 161.81 114.625H134.924C133.664 114.625 132.824 113.783 132.824 112.52V43.477C132.824 42.2141 133.664 41.3721 134.924 41.3721H161.81C163.071 41.3721 163.911 42.2141 163.911 43.477V45.582C163.911 46.845 163.071 47.687 161.81 47.687H141.226C139.965 47.687 139.125 48.529 139.125 49.7919V70.8416C139.125 72.1046 139.965 72.9466 141.226 72.9466H151.728C152.988 72.9466 153.829 74.2096 153.829 75.0516Z" stroke="#002D5C" stroke-width="0.951221"/>
<path d="M176.514 114.625H174.413C173.153 114.625 172.313 113.783 172.313 112.52V43.477C172.313 42.2141 173.153 41.3721 174.413 41.3721H188.697C200.459 41.3721 210.122 51.0549 210.122 62.8427C210.122 71.2626 205.081 78.4195 198.359 82.2085C197.939 82.2085 197.939 83.0504 198.359 83.4714L199.199 84.3134C203.4 87.6814 206.341 92.3123 208.021 95.2593C210.542 99.4692 213.483 102.837 216.843 105.363C219.784 107.468 223.565 109.152 227.346 109.994C234.907 111.678 243.73 110.836 250.871 110.415H252.552C253.392 110.415 254.652 111.257 254.652 112.099L255.072 115.888C255.072 115.888 255.072 116.309 254.652 116.309C253.812 116.309 252.552 116.309 251.291 116.73C247.09 117.151 242.469 117.572 237.848 117.572C233.647 117.572 229.866 117.151 225.665 116.309C220.624 115.467 216.423 113.362 212.642 110.836C208.441 107.889 204.66 103.679 202.14 99.0482C200.88 96.5222 197.939 92.3123 194.578 89.3654C191.217 86.4184 187.436 84.7344 183.656 84.7344H180.295C179.034 84.7344 178.194 85.5764 178.194 86.8394V112.52C178.614 113.362 177.354 114.625 176.514 114.625ZM180.715 78.4195H188.697C197.099 78.4195 204.24 71.6836 204.24 63.2637C204.24 54.8439 197.099 47.687 188.697 47.687H180.715C179.455 47.687 178.614 48.529 178.614 49.7919V76.3145C178.614 77.5775 179.455 78.4195 180.715 78.4195ZM226.506 93.9963H224.405C223.145 93.9963 222.305 93.1543 222.305 91.8913V43.477C222.305 42.2141 223.145 41.3721 224.405 41.3721H242.049C249.611 41.3721 255.912 47.687 255.912 55.2649C255.912 62.8428 249.611 69.1577 242.049 69.1577H230.707C229.446 69.1577 228.606 69.9996 228.606 71.2626V91.8913C228.606 93.1543 227.766 93.9963 226.506 93.9963ZM228.606 49.7919V60.7378C228.606 62.0008 229.446 62.8427 230.707 62.8427H242.049C246.25 62.8427 249.611 59.4748 249.611 55.2649C249.611 51.0549 246.25 47.687 242.049 47.687H230.707C229.446 47.687 228.606 48.529 228.606 49.7919Z" stroke="#002D5C" stroke-width="0.951221"/>
<path d="M302.123 109.573V112.52C302.123 113.783 301.283 114.625 300.023 114.204C295.402 113.362 292.041 108.731 290.36 104.1L285.739 91.8913C284.059 87.6814 279.858 84.7344 275.237 84.7344H272.716C271.456 84.7344 270.616 85.5764 270.616 86.8394V112.52C270.616 113.783 269.776 114.625 268.515 114.625H266.415C265.155 114.625 264.314 113.783 264.314 112.52V43.477C264.314 42.2141 265.155 41.3721 266.415 41.3721H280.698C292.461 41.3721 302.123 51.0549 302.123 62.8427C302.123 72.1046 296.662 79.6825 288.68 82.6294C288.26 83.0504 287.84 83.4714 288.26 83.8924C289.52 85.5764 290.36 87.2604 291.201 89.3654L295.822 101.574C296.662 103.679 298.342 106.626 300.443 107.468C301.283 108.31 302.123 109.152 302.123 109.573ZM272.716 78.4195H280.698C289.1 78.4195 295.822 71.6836 295.822 62.8427C295.822 54.4229 289.1 47.687 280.698 47.687H272.716C271.456 47.687 270.616 48.529 270.616 49.7919V76.3145C270.616 77.5775 271.456 78.4195 272.716 78.4195Z" stroke="#002D5C" stroke-width="0.951221"/>
<path d="M314.726 114.625H312.626C311.365 114.625 310.525 113.783 310.525 112.52V43.477C310.525 42.2141 311.365 41.3721 312.626 41.3721H314.726C315.986 41.3721 316.827 42.2141 316.827 43.477V112.52C316.827 113.362 315.986 114.625 314.726 114.625Z" stroke="#002D5C" stroke-width="0.951221"/>
<path d="M325.229 56.9488C325.229 48.529 331.95 41.7931 340.352 41.7931H341.612C350.014 41.7931 356.736 48.529 356.736 56.9488V59.8958C356.736 61.1588 355.896 62.0008 354.635 62.0008H352.535C351.275 62.0008 350.434 61.1588 350.434 59.8958V56.9488C350.434 51.8969 346.653 48.108 341.612 48.108H340.352C335.311 48.108 331.53 52.3179 331.53 56.9488V64.1057C331.53 67.4737 333.21 70.4206 336.571 72.1046L348.754 77.9985C351.275 79.2615 353.375 81.3665 355.055 83.4714C356.736 85.9974 357.156 88.5234 357.156 91.4703V97.7852C357.156 98.6272 357.576 99.4692 358.416 99.8902C375.22 105.363 379.001 107.889 394.125 107.889C395.385 107.889 396.645 108.731 396.645 109.994V112.52C396.645 113.783 395.385 114.625 394.125 114.625C378.581 114.204 374.38 111.678 357.156 106.205C356.316 106.205 355.476 106.626 355.055 107.047C352.535 111.257 347.494 114.204 342.453 114.204H341.192C332.79 114.204 326.069 107.468 326.069 99.0482C326.069 96.9432 326.909 94.8383 329.009 93.5753C330.69 92.3123 333.21 91.8913 335.311 92.7333L349.174 96.9432C350.434 97.3642 351.695 96.5222 351.695 94.8383V91.4703C351.695 88.1024 350.014 85.1554 346.654 83.4714L334.471 77.5775C331.95 76.3145 329.85 74.2096 328.169 72.1046C326.909 69.5786 326.069 67.0527 326.069 64.1057V56.9488H325.229ZM340.352 108.31H341.612C344.133 108.31 346.654 107.047 348.334 105.363C348.754 104.942 348.754 104.1 347.914 103.679L332.37 98.6272C331.95 98.6272 331.53 98.6272 331.53 99.0482C331.53 104.1 335.311 108.31 340.352 108.31ZM386.563 65.3687V67.4737C386.563 68.7367 385.723 69.5786 384.462 69.5786H375.22C373.96 69.5786 373.12 70.4206 373.12 71.6836V85.9974C373.12 87.2604 373.96 88.1024 375.22 88.1024H392.444C393.704 88.1024 394.545 88.9444 394.545 90.2073V92.3123C394.545 93.5753 393.704 94.4173 392.444 94.4173H368.919C367.658 94.4173 366.818 93.5753 366.818 92.3123V43.477C366.818 42.2141 367.658 41.3721 368.919 41.3721H392.444C393.704 41.3721 394.545 42.2141 394.545 43.477V45.582C394.545 46.845 393.704 47.687 392.444 47.687H375.22C373.96 47.687 373.12 48.529 373.12 49.7919V60.7378C373.12 62.0008 373.96 62.8427 375.22 62.8427H384.462C385.723 63.2637 386.563 64.1057 386.563 65.3687Z" stroke="#002D5C" stroke-width="0.951221"/>
<path d="M1.01092 181.141V152.513C0.590826 139.462 12.3536 128.517 24.9565 128.517C37.5594 128.517 48.9021 139.041 48.9021 152.513V181.141C49.3222 193.771 37.9795 205.558 24.9565 205.137C12.3536 205.558 0.590826 194.192 1.01092 181.141ZM7.73249 152.513V181.141C7.73249 190.824 15.7143 198.401 24.9565 198.401C34.6187 198.401 42.1805 190.403 42.1805 181.141V152.513C42.1805 142.83 34.1986 135.252 24.9565 135.252C15.2942 135.252 7.73249 143.251 7.73249 152.513Z" fill="#002D5C"/>
<path d="M62.8764 204.241H60.776C59.5157 204.241 58.6755 203.4 58.6755 202.137V130.568C58.6755 129.305 59.5157 128.463 60.776 128.463H64.9769C77.1598 128.463 87.2421 138.566 87.2421 151.196C87.2421 162.984 78 172.667 66.6573 173.509C65.397 173.509 64.9769 174.772 64.9769 175.614V202.137C64.9769 203.4 64.1367 204.241 62.8764 204.241ZM67.0774 166.773C75.0593 165.931 80.9406 159.195 80.9406 150.775C80.9406 142.776 75.0593 135.62 67.0774 134.778C65.8171 134.778 64.9769 135.62 64.9769 136.883V164.668C64.9769 165.931 65.8171 166.773 67.0774 166.773Z" fill="#002D5C"/>
<path d="M117.909 163.88V165.985C117.909 167.248 117.069 168.09 115.809 168.09H104.886C103.626 168.09 102.786 168.932 102.786 170.195V195.875C102.786 197.138 103.626 197.98 104.886 197.98H126.731C127.992 197.98 128.832 198.822 128.832 200.085V202.19C128.832 203.453 127.992 204.295 126.731 204.295H98.1646C96.9043 204.295 96.0641 203.453 96.0641 202.19V130.621C96.0641 129.358 96.9043 128.517 98.1646 128.517H126.311C127.571 128.517 128.412 129.358 128.412 130.621V132.726C128.412 133.989 127.571 134.831 126.311 134.831H104.466C103.206 134.831 102.366 135.673 102.366 136.936V158.828C102.366 160.091 103.206 160.933 104.466 160.933H115.389C117.069 161.775 117.909 162.617 117.909 163.88Z" fill="#002D5C"/>
<path d="M176.723 199.664V202.611C176.723 203.874 175.883 204.716 174.622 204.716C169.581 203.453 166.22 199.243 164.54 194.191L159.919 181.562C158.239 176.931 154.038 173.984 148.996 173.984H146.056C144.795 173.984 143.955 174.826 143.955 176.089V202.611C143.955 203.874 143.115 204.716 141.855 204.716H139.754C138.494 204.716 137.654 203.874 137.654 202.611V131.042C137.654 129.779 138.494 128.937 139.754 128.937H154.458C166.641 128.937 176.723 139.041 176.723 151.25C176.723 160.512 170.842 168.511 162.86 171.879C162.44 172.3 162.019 172.721 162.44 173.142C163.7 174.826 164.96 176.51 165.8 178.615L170.421 191.244C171.262 193.349 172.942 196.296 175.042 197.138C175.463 197.98 176.723 199.243 176.723 199.664ZM145.636 167.248H154.038C162.86 167.248 170.001 160.091 170.001 151.25C170.001 142.409 162.86 135.252 154.038 135.252H145.636C144.375 135.252 143.535 136.094 143.535 137.357V165.143C143.535 166.406 144.795 167.248 145.636 167.248Z" fill="#002D5C"/>
<path d="M224.836 202.137C224.836 203.4 223.996 204.241 222.736 204.241H220.635C219.375 204.241 218.535 203.4 218.535 202.137V194.138C218.535 189.507 218.114 185.297 217.274 180.666C216.854 179.403 216.014 178.561 214.754 178.561C210.973 178.982 207.612 178.14 204.671 176.456C202.151 175.193 199.63 174.772 197.11 175.193C196.269 175.614 195.849 176.035 195.849 176.456C194.589 183.192 194.169 188.665 194.169 194.138V202.137C194.169 203.4 193.329 204.241 192.068 204.241H189.968C188.708 204.241 187.867 203.4 187.867 202.137V194.138C187.867 188.244 188.287 181.929 189.548 176.035L199.21 130.147C199.21 129.305 200.47 128.463 201.311 128.463H211.813C212.653 128.463 213.913 129.305 213.913 130.147L223.576 176.035C224.836 181.929 225.676 188.244 225.676 194.138V202.137H224.836ZM205.932 134.778C204.671 134.778 203.831 135.62 203.831 136.462L197.53 166.352C197.11 167.194 198.37 168.036 199.21 168.457C202.151 168.457 205.091 169.299 208.032 170.562C210.133 171.825 212.233 172.246 214.334 171.825C215.174 171.825 215.594 170.983 215.594 170.141L208.452 136.462C208.032 135.62 206.772 134.778 205.932 134.778Z" fill="#002D5C"/>
<path d="M267.353 131.042V133.147C267.353 134.41 266.513 135.252 265.253 135.252H254.33C253.07 135.252 252.23 136.094 252.23 137.357V202.611C252.23 203.874 251.389 204.716 250.129 204.716H248.029C246.768 204.716 245.928 203.874 245.928 202.611V137.357C245.928 136.094 245.088 135.252 243.828 135.252H233.325C232.065 135.252 231.225 134.41 231.225 133.147V131.042C231.225 129.779 232.065 128.937 233.325 128.937H265.673C266.093 128.937 267.353 129.779 267.353 131.042Z" fill="#002D5C"/>
<path d="M274.804 186.614V146.619C274.804 136.516 282.785 128.096 292.868 128.096C302.95 128.096 311.352 136.516 311.352 146.619V186.614C311.352 196.718 302.95 204.717 292.868 204.717C283.206 204.717 274.804 196.718 274.804 186.614ZM281.525 146.619V186.614C281.525 192.929 286.986 198.402 293.288 198.402C299.589 198.402 305.051 192.929 305.051 186.614V146.619C305.051 140.305 299.589 134.832 293.288 134.832C286.566 134.832 281.525 139.884 281.525 146.619Z" fill="#002D5C"/>
<path d="M357.674 200.506V202.611C357.674 203.874 356.834 204.716 355.573 204.716C349.272 203.874 343.811 199.664 341.71 193.77L337.089 181.141C336.249 179.036 334.569 176.931 332.888 175.668C331.628 174.826 330.368 173.984 328.687 173.984C328.267 173.984 327.847 174.405 327.847 174.826V202.611C327.847 203.874 327.007 204.716 325.747 204.716H323.646C322.386 204.716 321.546 203.874 321.546 202.611V131.042C321.546 129.779 322.386 128.937 323.646 128.937H332.048C344.231 128.937 354.313 138.62 354.313 151.25C354.313 160.512 348.432 168.932 340.45 172.3C340.03 172.721 339.61 173.563 340.03 173.984C341.29 175.668 342.55 177.352 343.391 179.457L348.012 192.086C349.272 195.454 352.213 197.98 355.994 198.822C356.414 198.401 357.674 199.664 357.674 200.506ZM329.527 167.248H331.628C340.45 167.248 347.592 159.67 347.592 150.829C347.592 141.988 340.45 135.252 331.628 135.252H329.527C328.267 135.252 327.427 136.094 327.427 137.357V165.143C327.427 166.406 328.267 167.248 329.527 167.248Z" fill="#002D5C"/>
<path d="M392.962 180.72C392.962 176.931 390.862 173.984 387.921 172.3L375.318 165.985C369.857 163.459 366.496 157.144 366.496 150.829V144.093C366.496 135.252 373.638 128.517 382.04 128.517H383.72C392.542 128.517 399.264 135.673 399.264 144.093V147.461C399.264 148.724 398.424 149.566 397.163 149.566H395.063C393.803 149.566 392.962 148.724 392.962 147.461V144.093C392.962 139.041 388.761 134.831 383.72 134.831H382.04C376.999 134.831 372.798 139.041 372.798 144.093V150.829C372.798 154.197 374.898 158.407 377.839 160.091L390.442 166.406C395.903 168.932 399.264 174.826 399.264 180.72V188.719C399.264 197.559 392.122 204.295 383.72 204.295H382.04C373.218 204.295 366.496 197.138 366.496 188.719V185.351C366.496 184.088 367.336 183.246 368.597 183.246H370.697C371.957 183.246 372.798 184.088 372.798 185.351V188.719C372.798 193.771 376.999 197.98 382.04 197.98H383.72C388.761 197.98 392.542 194.192 392.962 189.14V180.72Z" fill="#002D5C"/>
<path d="M1.01092 181.141V152.513C0.590826 139.462 12.3536 128.517 24.9565 128.517C37.5594 128.517 48.9021 139.041 48.9021 152.513V181.141C49.3222 193.771 37.9795 205.558 24.9565 205.137C12.3536 205.558 0.590826 194.192 1.01092 181.141ZM7.73249 152.513V181.141C7.73249 190.824 15.7143 198.401 24.9565 198.401C34.6187 198.401 42.1805 190.403 42.1805 181.141V152.513C42.1805 142.83 34.1986 135.252 24.9565 135.252C15.2942 135.252 7.73249 143.251 7.73249 152.513Z" stroke="#002D5C" stroke-width="0.951221"/>
<path d="M62.8764 204.241H60.776C59.5157 204.241 58.6755 203.4 58.6755 202.137V130.568C58.6755 129.305 59.5157 128.463 60.776 128.463H64.9769C77.1598 128.463 87.2421 138.566 87.2421 151.196C87.2421 162.984 78 172.667 66.6573 173.509C65.397 173.509 64.9769 174.772 64.9769 175.614V202.137C64.9769 203.4 64.1367 204.241 62.8764 204.241ZM67.0774 166.773C75.0593 165.931 80.9406 159.195 80.9406 150.775C80.9406 142.776 75.0593 135.62 67.0774 134.778C65.8171 134.778 64.9769 135.62 64.9769 136.883V164.668C64.9769 165.931 65.8171 166.773 67.0774 166.773Z" stroke="#002D5C" stroke-width="0.951221"/>
<path d="M117.909 163.88V165.985C117.909 167.248 117.069 168.09 115.809 168.09H104.886C103.626 168.09 102.786 168.932 102.786 170.195V195.875C102.786 197.138 103.626 197.98 104.886 197.98H126.731C127.992 197.98 128.832 198.822 128.832 200.085V202.19C128.832 203.453 127.992 204.295 126.731 204.295H98.1646C96.9043 204.295 96.0641 203.453 96.0641 202.19V130.621C96.0641 129.358 96.9043 128.517 98.1646 128.517H126.311C127.571 128.517 128.412 129.358 128.412 130.621V132.726C128.412 133.989 127.571 134.831 126.311 134.831H104.466C103.206 134.831 102.366 135.673 102.366 136.936V158.828C102.366 160.091 103.206 160.933 104.466 160.933H115.389C117.069 161.775 117.909 162.617 117.909 163.88Z" stroke="#002D5C" stroke-width="0.951221"/>
<path d="M176.723 199.664V202.611C176.723 203.874 175.883 204.716 174.622 204.716C169.581 203.453 166.22 199.243 164.54 194.191L159.919 181.562C158.239 176.931 154.038 173.984 148.996 173.984H146.056C144.795 173.984 143.955 174.826 143.955 176.089V202.611C143.955 203.874 143.115 204.716 141.855 204.716H139.754C138.494 204.716 137.654 203.874 137.654 202.611V131.042C137.654 129.779 138.494 128.937 139.754 128.937H154.458C166.641 128.937 176.723 139.041 176.723 151.25C176.723 160.512 170.842 168.511 162.86 171.879C162.44 172.3 162.019 172.721 162.44 173.142C163.7 174.826 164.96 176.51 165.8 178.615L170.421 191.244C171.262 193.349 172.942 196.296 175.042 197.138C175.463 197.98 176.723 199.243 176.723 199.664ZM145.636 167.248H154.038C162.86 167.248 170.001 160.091 170.001 151.25C170.001 142.409 162.86 135.252 154.038 135.252H145.636C144.375 135.252 143.535 136.094 143.535 137.357V165.143C143.535 166.406 144.795 167.248 145.636 167.248Z" stroke="#002D5C" stroke-width="0.951221"/>
<path d="M224.836 202.137C224.836 203.4 223.996 204.241 222.736 204.241H220.635C219.375 204.241 218.535 203.4 218.535 202.137V194.138C218.535 189.507 218.114 185.297 217.274 180.666C216.854 179.403 216.014 178.561 214.754 178.561C210.973 178.982 207.612 178.14 204.671 176.456C202.151 175.193 199.63 174.772 197.11 175.193C196.269 175.614 195.849 176.035 195.849 176.456C194.589 183.192 194.169 188.665 194.169 194.138V202.137C194.169 203.4 193.329 204.241 192.068 204.241H189.968C188.708 204.241 187.867 203.4 187.867 202.137V194.138C187.867 188.244 188.287 181.929 189.548 176.035L199.21 130.147C199.21 129.305 200.47 128.463 201.311 128.463H211.813C212.653 128.463 213.913 129.305 213.913 130.147L223.576 176.035C224.836 181.929 225.676 188.244 225.676 194.138V202.137H224.836ZM205.932 134.778C204.671 134.778 203.831 135.62 203.831 136.462L197.53 166.352C197.11 167.194 198.37 168.036 199.21 168.457C202.151 168.457 205.091 169.299 208.032 170.562C210.133 171.825 212.233 172.246 214.334 171.825C215.174 171.825 215.594 170.983 215.594 170.141L208.452 136.462C208.032 135.62 206.772 134.778 205.932 134.778Z" stroke="#002D5C" stroke-width="0.951221"/>
<path d="M267.353 131.042V133.147C267.353 134.41 266.513 135.252 265.253 135.252H254.33C253.07 135.252 252.23 136.094 252.23 137.357V202.611C252.23 203.874 251.389 204.716 250.129 204.716H248.029C246.768 204.716 245.928 203.874 245.928 202.611V137.357C245.928 136.094 245.088 135.252 243.828 135.252H233.325C232.065 135.252 231.225 134.41 231.225 133.147V131.042C231.225 129.779 232.065 128.937 233.325 128.937H265.673C266.093 128.937 267.353 129.779 267.353 131.042Z" stroke="#002D5C" stroke-width="0.951221"/>
<path d="M274.804 186.614V146.619C274.804 136.516 282.785 128.096 292.868 128.096C302.95 128.096 311.352 136.516 311.352 146.619V186.614C311.352 196.718 302.95 204.717 292.868 204.717C283.206 204.717 274.804 196.718 274.804 186.614ZM281.525 146.619V186.614C281.525 192.929 286.986 198.402 293.288 198.402C299.589 198.402 305.051 192.929 305.051 186.614V146.619C305.051 140.305 299.589 134.832 293.288 134.832C286.566 134.832 281.525 139.884 281.525 146.619Z" stroke="#002D5C" stroke-width="0.951221"/>
<path d="M357.674 200.506V202.611C357.674 203.874 356.834 204.716 355.573 204.716C349.272 203.874 343.811 199.664 341.71 193.77L337.089 181.141C336.249 179.036 334.569 176.931 332.888 175.668C331.628 174.826 330.368 173.984 328.687 173.984C328.267 173.984 327.847 174.405 327.847 174.826V202.611C327.847 203.874 327.007 204.716 325.747 204.716H323.646C322.386 204.716 321.546 203.874 321.546 202.611V131.042C321.546 129.779 322.386 128.937 323.646 128.937H332.048C344.231 128.937 354.313 138.62 354.313 151.25C354.313 160.512 348.432 168.932 340.45 172.3C340.03 172.721 339.61 173.563 340.03 173.984C341.29 175.668 342.55 177.352 343.391 179.457L348.012 192.086C349.272 195.454 352.213 197.98 355.994 198.822C356.414 198.401 357.674 199.664 357.674 200.506ZM329.527 167.248H331.628C340.45 167.248 347.592 159.67 347.592 150.829C347.592 141.988 340.45 135.252 331.628 135.252H329.527C328.267 135.252 327.427 136.094 327.427 137.357V165.143C327.427 166.406 328.267 167.248 329.527 167.248Z" stroke="#002D5C" stroke-width="0.951221"/>
<path d="M392.962 180.72C392.962 176.931 390.862 173.984 387.921 172.3L375.318 165.985C369.857 163.459 366.496 157.144 366.496 150.829V144.093C366.496 135.252 373.638 128.517 382.04 128.517H383.72C392.542 128.517 399.264 135.673 399.264 144.093V147.461C399.264 148.724 398.424 149.566 397.163 149.566H395.063C393.803 149.566 392.962 148.724 392.962 147.461V144.093C392.962 139.041 388.761 134.831 383.72 134.831H382.04C376.999 134.831 372.798 139.041 372.798 144.093V150.829C372.798 154.197 374.898 158.407 377.839 160.091L390.442 166.406C395.903 168.932 399.264 174.826 399.264 180.72V188.719C399.264 197.559 392.122 204.295 383.72 204.295H382.04C373.218 204.295 366.496 197.138 366.496 188.719V185.351C366.496 184.088 367.336 183.246 368.597 183.246H370.697C371.957 183.246 372.798 184.088 372.798 185.351V188.719C372.798 193.771 376.999 197.98 382.04 197.98H383.72C388.761 197.98 392.542 194.192 392.962 189.14V180.72Z" stroke="#002D5C" stroke-width="0.951221"/>
<path d="M34.1878 276.505C44.6903 272.295 51.832 261.77 51.832 249.983C51.832 233.985 38.8089 221.355 23.2653 221.355H3.94081C2.26042 221.355 1.00012 222.618 1.00012 224.302V316.079C1.00012 317.763 2.26042 319.026 3.94081 319.026H6.88149C8.56188 319.026 9.82217 317.763 9.82217 316.079V281.978C9.82217 280.294 11.0825 279.031 12.7629 279.031H16.5437C22.8452 279.031 28.3065 282.82 30.407 288.714L36.7084 305.133C38.8089 311.448 43.43 316.921 49.7315 318.605C51.4119 319.026 52.6721 317.763 52.6721 316.079V312.29C52.6721 311.448 51.4119 310.185 50.5717 309.764C47.631 308.501 45.5305 304.712 44.2702 302.186L37.5486 285.346C36.2883 282.82 35.028 280.294 33.3477 278.189C32.9276 277.768 33.3477 276.926 34.1878 276.505ZM23.2653 270.19H12.3428C10.6624 270.19 9.40208 268.927 9.40208 267.243V231.88C9.40208 230.196 10.6624 228.933 12.3428 228.933H22.8452C34.1878 228.933 43.43 238.195 43.43 249.562C43.43 261.349 34.1878 270.19 23.2653 270.19Z" fill="#002D5C"/>
<path d="M98.5737 220.934H62.4453C60.7649 220.934 59.5047 222.197 59.5047 223.881V315.658C59.5047 317.342 60.7649 318.605 62.4453 318.605H98.5737C100.254 318.605 101.514 317.342 101.514 315.658V312.711C101.514 311.027 100.254 309.764 98.5737 309.764H70.8473C69.1669 309.764 67.9066 308.501 67.9066 306.817V273.979C67.9066 272.295 69.1669 271.032 70.8473 271.032H85.1306C86.811 271.032 88.0713 269.769 88.0713 268.085V265.138C88.0713 263.454 86.811 262.191 85.1306 262.191H70.8473C69.1669 262.191 67.9066 260.928 67.9066 259.244V231.038C67.9066 229.354 69.1669 228.091 70.8473 228.091H98.5737C100.254 228.091 101.514 226.828 101.514 225.144V222.197C101.094 222.197 99.834 220.934 98.5737 220.934Z" fill="#002D5C"/>
<path d="M151.926 220.934H110.757C109.076 220.934 107.816 222.197 107.816 223.881V226.828C107.816 228.512 109.076 229.775 110.757 229.775H124.2C125.88 229.775 127.141 231.038 127.141 232.722V316.079C127.141 317.763 128.401 319.026 130.081 319.026H133.022C134.702 319.026 135.963 317.763 135.963 316.079V232.301C135.963 230.617 137.223 229.354 138.903 229.354H152.767C154.447 229.354 155.707 228.091 155.707 226.407V223.46C154.867 222.197 153.607 220.934 151.926 220.934Z" fill="#002D5C"/>
<path d="M234.136 301.765H266.484C268.164 301.765 269.425 300.502 269.425 298.818V295.871C269.425 294.187 268.164 292.924 266.484 292.924H242.538C240.858 292.924 239.598 291.661 239.598 289.977V268.506C239.598 266.822 240.858 265.559 242.538 265.559H255.141C256.822 265.559 258.082 264.296 258.082 262.612V259.665C258.082 257.982 256.822 256.719 255.141 256.719H242.538C240.858 256.719 239.598 255.456 239.598 253.772V230.617C239.598 228.933 240.858 227.67 242.538 227.67H266.484C268.164 227.67 269.425 226.407 269.425 224.723V221.776C269.425 220.092 268.164 218.829 266.484 218.829H234.136C232.456 218.829 231.196 220.092 231.196 221.776V297.134C231.196 300.502 232.456 301.765 234.136 301.765Z" fill="#002D5C"/>
<path d="M395.079 220.934H331.161C329.481 220.934 328.22 222.197 328.22 223.881V226.828C328.22 228.512 329.481 229.775 331.161 229.775H356.415C358.095 229.775 359.356 231.038 359.356 232.722V316.079C359.356 317.763 360.616 319.026 362.296 319.026H365.237C366.917 319.026 368.178 317.763 368.178 316.079V232.301C368.178 230.617 369.438 229.354 371.118 229.354H395.919C397.599 229.354 398.86 228.091 398.86 226.407V223.46C397.599 222.197 396.339 220.934 395.079 220.934Z" fill="#002D5C"/>
<path d="M330.153 312.29C330.153 310.606 328.472 309.764 327.212 309.764L288.452 313.241C272.068 314.925 249.05 315.658 240.228 313.553C234.767 312.29 228.045 309.764 223.844 306.817C219.223 303.449 215.442 299.239 212.081 293.345C209.561 289.135 205.78 283.241 200.319 278.61L199.058 277.347C198.218 276.926 198.638 276.084 199.058 275.663C208.3 271.032 215.022 261.349 215.022 249.983C215.022 233.985 201.999 220.934 186.455 220.934H167.551C165.871 220.934 164.61 222.197 164.61 223.881V315.658C164.61 317.342 165.871 318.605 167.551 318.605H170.492C172.172 318.605 173.432 317.342 173.432 315.658V281.557C173.432 279.873 174.693 278.61 176.373 278.61H180.994C186.035 278.61 191.076 280.715 195.697 284.925C200.319 288.714 203.679 293.766 205.78 297.555C209.561 304.291 214.182 309.764 220.063 313.553C225.104 317.342 232.666 320.289 239.388 321.552C244.849 322.815 250.31 323.236 255.771 323.236C259.552 323.236 277.529 322.503 290.553 321.24L329.313 318.184C330.993 318.184 331.833 316.5 331.833 315.237L330.153 312.29ZM186.035 270.19H175.533C173.852 270.19 172.592 268.927 172.592 267.243V231.88C172.592 230.196 173.852 228.933 175.533 228.933H186.035C197.378 228.933 206.62 238.195 206.62 249.562C206.62 261.349 197.378 270.19 186.035 270.19Z" fill="#002D5C"/>
<path d="M328.22 298.754C328.22 300.013 327.227 300.853 325.737 300.853H323.253C321.763 300.853 320.769 300.013 320.769 298.754V290.355C320.769 285.735 320.272 281.116 319.279 276.496C318.782 275.236 317.789 274.396 316.298 274.396C311.828 274.816 307.854 273.976 304.376 271.877C301.396 270.617 298.415 270.197 295.435 270.617C294.441 271.037 293.945 271.457 293.945 271.877C292.454 279.016 291.958 284.895 291.958 289.935V298.334C291.958 299.593 290.964 300.433 289.474 300.433H285.997C284.506 300.433 283.513 299.593 283.513 298.334V289.935C283.513 283.635 284.01 277.336 285.5 271.457L296.925 223.582C296.925 222.742 298.415 221.902 299.409 221.902H311.828C312.821 221.902 314.311 222.742 314.311 223.582L325.737 271.877C327.227 278.176 328.22 284.475 328.22 290.355V298.754ZM305.867 229.041C304.376 229.041 303.383 229.881 303.383 230.721L295.932 261.798C295.435 262.638 296.925 263.897 297.919 263.897C301.396 263.897 304.873 264.737 308.35 266.417C310.834 267.677 313.318 268.097 315.802 267.677C316.795 267.677 317.292 266.837 317.292 265.997L308.847 231.141C308.35 229.881 306.86 229.041 305.867 229.041Z" fill="#002D5C"/>
<path d="M5.87823 366.736C3.66585 366.736 1.85242 364.923 1.85242 362.711V361.042C1.85242 360.643 2.17884 360.317 2.57779 360.317H3.30316C3.70212 360.317 4.02853 360.643 4.02853 361.042V362.711C4.02853 363.726 4.86271 364.56 5.87823 364.56C6.93001 364.56 7.76419 363.726 7.76419 362.711V342.074C7.76419 341.675 8.09061 341.348 8.48956 341.348H9.21493C9.61389 341.348 9.9403 341.675 9.9403 342.074V362.711C9.9403 364.923 8.12688 366.736 5.87823 366.736Z" fill="#002D5C"/>
<path d="M142.595 353.063C142.595 352.664 142.268 352.338 141.869 352.338H138.134C137.735 352.338 137.408 352.011 137.408 351.612V344.25C137.408 343.851 137.735 343.525 138.134 343.525H146.766C147.165 343.525 147.491 343.198 147.491 342.799V342.074C147.491 341.675 147.165 341.348 146.766 341.348H135.958C135.559 341.348 135.232 341.675 135.232 342.074V366.011C135.232 366.41 135.559 366.736 135.958 366.736H136.683C137.082 366.736 137.408 366.41 137.408 366.011V355.239C137.408 354.84 137.735 354.514 138.134 354.514H141.906C142.305 354.514 142.631 354.187 142.631 353.788L142.595 353.063Z" fill="#002D5C"/>
<path fill-rule="evenodd" clip-rule="evenodd" d="M165.642 364.452C165.788 364.524 166.15 364.887 166.15 365.068V366.011C166.15 366.483 165.86 366.773 165.389 366.664C163.72 366.301 162.596 364.778 162.016 363.182L160.42 358.902C159.839 357.415 158.389 356.4 156.793 356.4H155.85C155.451 356.4 155.125 356.726 155.125 357.125V366.011C155.125 366.41 154.798 366.736 154.399 366.736H153.674C153.275 366.736 152.948 366.41 152.948 366.011V342.074C152.948 341.675 153.275 341.348 153.674 341.348H158.643C162.777 341.348 166.15 344.721 166.15 348.856C166.15 352.011 164.228 354.695 161.508 355.82C161.326 355.928 161.218 356.146 161.363 356.291C161.834 356.871 162.161 357.488 162.451 358.141L164.047 362.421C164.337 363.182 164.881 364.161 165.642 364.452ZM155.125 353.498C155.125 353.897 155.451 354.224 155.85 354.224H158.643C161.58 354.224 163.974 351.83 163.974 348.856C163.974 345.918 161.58 343.525 158.643 343.525H155.85C155.451 343.525 155.125 343.851 155.125 344.25V353.498Z" fill="#002D5C"/>
<path fill-rule="evenodd" clip-rule="evenodd" d="M171.622 358.939C171.477 363.218 175.322 367.063 179.601 366.918C183.881 367.063 187.726 363.218 187.581 358.939V349.328C187.689 344.939 183.845 341.348 179.601 341.348C175.358 341.348 171.514 344.939 171.622 349.328V358.939ZM173.798 349.328C173.798 346.136 176.41 343.525 179.601 343.525C182.793 343.525 185.404 346.136 185.404 349.328V358.939C185.404 362.13 182.793 364.742 179.601 364.742C176.41 364.742 173.798 362.13 173.798 358.939V349.328Z" fill="#002D5C"/>
<path d="M194.507 366.736C194.906 366.736 195.233 366.41 195.233 366.011V343.706C195.233 343.597 195.305 343.525 195.414 343.525C195.523 343.525 195.595 343.597 195.632 343.706L200.274 366.156C200.31 366.483 200.637 366.736 200.963 366.736H201.906C202.233 366.736 202.559 366.483 202.632 366.156L206.911 343.706C206.947 343.597 207.02 343.525 207.129 343.525C207.238 343.525 207.31 343.597 207.31 343.706V366.011C207.31 366.41 207.637 366.736 208.036 366.736H208.761C209.16 366.736 209.486 366.41 209.486 366.011V342.074C209.486 341.675 209.16 341.348 208.761 341.348H205.787C205.46 341.348 205.134 341.602 205.061 341.929L202.087 357.415C201.942 358.177 200.818 358.177 200.673 357.415L197.481 341.929C197.445 341.602 197.119 341.348 196.792 341.348H193.782C193.383 341.348 193.057 341.675 193.057 342.074V366.011C193.057 366.41 193.383 366.736 193.782 366.736H194.507Z" fill="#002D5C"/>
<path d="M115.451 366.011C115.451 366.41 115.125 366.736 114.726 366.736H114.001C113.602 366.736 113.275 366.41 113.275 366.011V356.799C113.275 356.726 113.203 356.436 113.13 356.4L111.716 354.333C110.41 352.447 109.395 350.343 108.706 348.167C108.089 346.172 107.726 344.141 107.654 342.038C107.654 341.639 107.98 341.348 108.379 341.348H109.105C109.503 341.348 109.83 341.747 109.83 342.146C109.902 343.96 110.229 345.773 110.773 347.514C111.389 349.509 112.296 351.359 113.493 353.099L114.037 353.861C114.073 353.934 114.255 354.042 114.363 354.042C114.472 354.042 114.654 353.934 114.69 353.861L115.27 353.063C116.431 351.359 117.337 349.473 117.954 347.514C118.498 345.773 118.824 343.96 118.897 342.146C118.897 341.747 119.223 341.348 119.622 341.348H120.348C120.747 341.348 121.073 341.639 121.073 342.038C121.001 344.141 120.638 346.172 120.021 348.167C119.368 350.343 118.353 352.41 117.047 354.296L115.597 356.364C115.56 356.4 115.451 356.69 115.451 356.763V366.011Z" fill="#002D5C"/>
<path d="M99.2624 353.063C99.2624 352.664 98.936 352.338 98.537 352.338H94.2211C93.8221 352.338 93.4957 352.011 93.4957 351.612V344.25C93.4957 343.851 93.8221 343.525 94.2211 343.525H101.475C101.874 343.525 102.2 343.198 102.2 342.799V342.074C102.2 341.675 101.874 341.348 101.475 341.348H92.0449C91.646 341.348 91.3196 341.675 91.3196 342.074V366.011C91.3196 366.41 91.646 366.736 92.0449 366.736H101.475C101.874 366.736 102.2 366.41 102.2 366.011V365.286C102.2 364.887 101.874 364.56 101.475 364.56H94.2211C93.8221 364.56 93.4957 364.234 93.4957 363.835V355.239C93.4957 354.84 93.8221 354.514 94.2211 354.514H98.5007C98.8997 354.514 99.2261 354.188 99.2261 353.789L99.2624 353.063Z" fill="#002D5C"/>
<path d="M74.9286 366.011C74.9286 366.41 74.6022 366.736 74.2032 366.736H73.4778C73.0789 366.736 72.7525 366.41 72.7525 366.011V342.074C72.7525 341.675 73.0789 341.348 73.4778 341.348H76.2705C76.5607 341.348 76.8871 341.602 76.9596 341.893L83.4154 364.452C83.4517 364.488 83.5242 364.56 83.5968 364.56C83.633 364.56 83.7056 364.488 83.7056 364.415V342.074C83.7056 341.675 84.032 341.348 84.4309 341.348H85.1563C85.5553 341.348 85.8817 341.675 85.8817 342.074V366.011C85.8817 366.41 85.5553 366.736 85.1563 366.736H82.3274C82.0372 366.736 81.7108 366.483 81.6383 366.192L75.2187 343.633C75.1825 343.597 75.1099 343.525 75.0737 343.525C75.0011 343.525 74.9286 343.597 74.9286 343.633V366.011Z" fill="#002D5C"/>
<path fill-rule="evenodd" clip-rule="evenodd" d="M67.3172 365.068C67.3172 364.887 66.9545 364.524 66.8095 364.452C66.0478 364.161 65.5038 363.182 65.2136 362.421L63.6178 358.141C63.3277 357.488 63.0013 356.871 62.5298 356.291C62.3847 356.146 62.4935 355.928 62.6748 355.82C65.395 354.695 67.3172 352.011 67.3172 348.856C67.3172 344.721 63.9442 341.348 59.8096 341.348H54.8408C54.4419 341.348 54.1155 341.675 54.1155 342.074V366.011C54.1155 366.41 54.4419 366.736 54.8408 366.736H55.5662C55.9652 366.736 56.2916 366.41 56.2916 366.011V357.125C56.2916 356.726 56.618 356.4 57.0169 356.4H57.9599C59.5557 356.4 61.0065 357.415 61.5868 358.902L63.1826 363.182C63.7629 364.778 64.8872 366.301 66.5556 366.664C67.0271 366.773 67.3172 366.483 67.3172 366.011V365.068ZM57.0169 354.224C56.618 354.224 56.2916 353.897 56.2916 353.498V344.25C56.2916 343.851 56.618 343.525 57.0169 343.525H59.8096C62.7474 343.525 65.1411 345.918 65.1411 348.856C65.1411 351.83 62.7474 354.224 59.8096 354.224H57.0169Z" fill="#002D5C"/>
<path d="M36.8594 361.042L37.0045 342.074C37.0045 341.675 37.3309 341.348 37.7298 341.348H38.3101C38.7091 341.348 39.0355 341.675 39.0355 342.074V361.042C39.0355 363.11 40.7039 364.778 42.7712 364.778C44.8385 364.778 46.5068 363.11 46.5068 361.042V342.074C46.5068 341.675 46.8332 341.348 47.2322 341.348H47.9576C48.3565 341.348 48.6829 341.675 48.6829 342.074V361.042C48.6829 364.306 46.0353 366.954 42.7712 366.954C39.507 366.954 36.8594 364.306 36.8594 361.042Z" fill="#002D5C"/>
<path fill-rule="evenodd" clip-rule="evenodd" d="M15.4252 358.939C15.2801 363.218 19.1245 367.063 23.4042 366.918C27.6839 367.063 31.5284 363.218 31.3833 358.939V349.328C31.4921 344.939 27.6477 341.348 23.4042 341.348C19.1608 341.348 15.3163 344.939 15.4252 349.328V358.939ZM17.6013 349.328C17.6013 346.136 20.2126 343.525 23.4042 343.525C26.5959 343.525 29.2072 346.136 29.2072 349.328V358.939C29.2072 362.13 26.5959 364.742 23.4042 364.742C20.2126 364.742 17.6013 362.13 17.6013 358.939V349.328Z" fill="#002D5C"/>
<path d="M229.317 366.592C230.099 366.914 230.921 367.252 231.961 367.28C232.868 367.28 233.775 367.063 234.609 366.7C234.899 366.555 234.935 366.301 234.79 366.011L234.319 365.213C234.137 364.887 233.666 364.742 233.339 364.887C232.122 365.419 231.33 365.065 230.331 364.617C229.901 364.425 229.434 364.216 228.878 364.052C228.008 363.799 227.101 363.762 226.231 363.907C225.977 363.944 225.759 363.726 225.759 363.472V362.711C225.829 361.785 226.386 360.349 226.752 359.653C226.751 359.622 226.758 359.589 226.775 359.555L234.971 342.872C234.971 342.854 234.99 342.781 235.008 342.709C235.026 342.636 235.044 342.563 235.044 342.545V342.037C235.044 341.675 234.718 341.348 234.355 341.348H224.309C223.91 341.348 223.583 341.675 223.583 342.074V342.799C223.583 343.198 223.91 343.525 224.309 343.525H230.982C231.562 343.525 231.889 344.069 231.635 344.576L223.656 360.752C223.656 360.77 223.638 360.843 223.619 360.915L223.612 360.943C223.265 361.903 222.657 363.998 222.583 365.94L222.59 365.935L222.589 365.938C222.589 366.301 222.916 366.628 223.279 366.628H223.823C223.859 366.628 224.077 366.591 224.113 366.555L224.222 366.482C225.954 365.616 228.082 366.083 229.317 366.592Z" fill="#002D5C"/>
<path d="M247.798 352.338C248.196 352.338 248.523 352.664 248.523 353.063L248.487 353.788C248.487 354.187 248.16 354.514 247.761 354.514H243.482C243.083 354.514 242.756 354.84 242.756 355.239V363.835C242.756 364.234 243.083 364.56 243.482 364.56H250.735C251.134 364.56 251.461 364.887 251.461 365.286V366.011C251.461 366.41 251.134 366.736 250.735 366.736H241.305C240.906 366.736 240.58 366.41 240.58 366.011V342.074C240.58 341.675 240.906 341.348 241.305 341.348H250.735C251.134 341.348 251.461 341.675 251.461 342.074V342.799C251.461 343.198 251.134 343.525 250.735 343.525H243.482C243.083 343.525 242.756 343.851 242.756 344.25V351.612C242.756 352.011 243.083 352.338 243.482 352.338H247.798Z" fill="#002D5C"/>
<path fill-rule="evenodd" clip-rule="evenodd" d="M270.117 365.068C270.117 364.887 269.754 364.524 269.609 364.451C268.848 364.161 268.304 363.182 268.013 362.42L266.418 358.141C266.128 357.488 265.801 356.871 265.33 356.291C265.185 356.146 265.293 355.928 265.475 355.82C268.195 354.695 270.117 352.011 270.117 348.856C270.117 344.721 266.744 341.348 262.609 341.348H257.641C257.242 341.348 256.915 341.675 256.915 342.074V366.011C256.915 366.41 257.242 366.736 257.641 366.736H258.366C258.765 366.736 259.091 366.41 259.091 366.011V357.125C259.091 356.726 259.418 356.4 259.817 356.4H260.76C262.356 356.4 263.806 357.415 264.387 358.902L265.982 363.182C266.563 364.778 267.687 366.301 269.355 366.664C269.827 366.773 270.117 366.482 270.117 366.011V365.068ZM259.817 354.224C259.418 354.224 259.091 353.897 259.091 353.498V344.25C259.091 343.851 259.418 343.525 259.817 343.525H262.609C265.547 343.525 267.941 345.918 267.941 348.856C267.941 351.83 265.547 354.224 262.609 354.224H259.817Z" fill="#002D5C"/>
<path fill-rule="evenodd" clip-rule="evenodd" d="M275.588 358.939C275.443 363.218 279.287 367.063 283.567 366.918C287.847 367.063 291.691 363.218 291.546 358.939V349.327C291.655 344.939 287.811 341.348 283.567 341.348C279.324 341.348 275.479 344.939 275.588 349.327V358.939ZM277.764 349.327C277.764 346.136 280.376 343.525 283.567 343.525C286.759 343.525 289.37 346.136 289.37 349.327V358.939C289.37 362.13 286.759 364.742 283.567 364.742C280.376 364.742 277.764 362.13 277.764 358.939V349.327Z" fill="#002D5C"/>
<path fill-rule="evenodd" clip-rule="evenodd" d="M348.78 358.939C348.635 363.218 352.479 367.063 356.759 366.918C361.039 367.063 364.883 363.218 364.738 358.939V349.327C364.847 344.939 361.002 341.348 356.759 341.348C352.516 341.348 348.671 344.939 348.78 349.327V358.939ZM350.956 349.327C350.956 346.136 353.567 343.525 356.759 343.525C359.951 343.525 362.562 346.136 362.562 349.327V358.939C362.562 362.13 359.951 364.742 356.759 364.742C353.567 364.742 350.956 362.13 350.956 358.939V349.327Z" fill="#002D5C"/>
<path d="M372.391 366.011C372.391 366.41 372.064 366.736 371.665 366.736H370.94C370.541 366.736 370.214 366.41 370.214 366.011V342.074C370.214 341.675 370.541 341.348 370.94 341.348H373.732C374.023 341.348 374.349 341.602 374.422 341.893L380.877 364.452C380.914 364.488 380.986 364.56 381.059 364.56C381.095 364.56 381.167 364.488 381.167 364.415V342.074C381.167 341.675 381.494 341.348 381.893 341.348H382.618C383.017 341.348 383.344 341.675 383.344 342.074V366.011C383.344 366.41 383.017 366.736 382.618 366.736H379.789C379.499 366.736 379.173 366.483 379.1 366.192L372.681 343.633C372.644 343.597 372.572 343.525 372.536 343.525C372.463 343.525 372.391 343.597 372.391 343.633V366.011Z" fill="#002D5C"/>
<path d="M395.998 352.338C396.397 352.338 396.723 352.664 396.723 353.063L396.687 353.789C396.687 354.188 396.36 354.514 395.961 354.514H391.682C391.283 354.514 390.956 354.84 390.956 355.239V363.835C390.956 364.234 391.283 364.56 391.682 364.56H398.935C399.334 364.56 399.661 364.887 399.661 365.286V366.011C399.661 366.41 399.334 366.736 398.935 366.736H389.506C389.107 366.736 388.78 366.41 388.78 366.011V342.074C388.78 341.675 389.107 341.348 389.506 341.348H398.935C399.334 341.348 399.661 341.675 399.661 342.074V342.799C399.661 343.198 399.334 343.525 398.935 343.525H391.682C391.283 343.525 390.956 343.851 390.956 344.25V351.612C390.956 352.011 391.283 352.338 391.682 352.338H395.998Z" fill="#002D5C"/>
<path fill-rule="evenodd" clip-rule="evenodd" d="M327.504 366.918C323.224 367.063 319.379 363.218 319.524 358.939V349.328C319.416 344.939 323.26 341.348 327.504 341.348C331.747 341.348 335.591 344.939 335.483 349.328V358.939C335.628 363.218 331.783 367.063 327.504 366.918ZM327.504 343.525C324.312 343.525 321.701 346.136 321.701 349.328V358.939C321.701 362.13 324.312 364.742 327.504 364.742C330.695 364.742 333.307 362.13 333.307 358.939V349.328C333.307 346.136 330.695 343.525 327.504 343.525Z" fill="#002D5C"/>
<path fill-rule="evenodd" clip-rule="evenodd" d="M6.91189 342.074C6.91189 341.204 7.6199 340.496 8.48956 340.496H9.21493C10.0846 340.496 10.7926 341.204 10.7926 342.074V362.711C10.7926 365.399 8.5926 367.589 5.87823 367.589C3.19514 367.589 1.00012 365.394 1.00012 362.711V361.042C1.00012 360.173 1.70812 359.465 2.57779 359.465H3.30316C4.17283 359.465 4.88083 360.173 4.88083 361.042V362.711C4.88083 363.255 5.33342 363.708 5.87823 363.708C6.47013 363.708 6.91189 363.245 6.91189 362.711V342.074ZM8.61649 342.201V362.711C8.61649 364.208 7.3899 365.413 5.87823 365.413C4.392 365.413 3.17623 364.197 3.17623 362.711V361.169H2.70472V362.711C2.70472 364.452 4.13656 365.884 5.87823 365.884C7.66115 365.884 9.088 364.447 9.088 362.711V342.201H8.61649ZM136.085 342.201V365.884H136.556V355.239C136.556 354.37 137.264 353.662 138.134 353.662H141.771L141.748 353.19H138.134C137.264 353.19 136.556 352.482 136.556 351.612V344.25C136.556 343.38 137.264 342.672 138.134 342.672H146.639V342.201H136.085ZM134.38 342.074C134.38 341.204 135.088 340.496 135.958 340.496H146.766C147.635 340.496 148.343 341.204 148.343 342.074V342.799C148.343 343.669 147.635 344.377 146.766 344.377H138.261V351.485H141.869C142.731 351.485 143.433 352.18 143.447 353.038L143.483 353.767V353.788C143.483 354.658 142.775 355.366 141.906 355.366H138.261V366.011C138.261 366.881 137.553 367.589 136.683 367.589H135.958C135.088 367.589 134.38 366.881 134.38 366.011V342.074ZM224.435 342.201V342.672H230.982C231.553 342.672 232.062 342.949 232.348 343.414C232.631 343.876 232.649 344.452 232.398 344.956L232.397 344.957L224.469 361.03C224.465 361.047 224.46 361.065 224.456 361.082L224.429 361.192L224.414 361.234C224.193 361.844 223.863 362.935 223.647 364.132L223.858 363.981L223.493 365.775H223.746L223.793 365.744L223.84 365.72C225.906 364.687 228.329 365.263 229.642 365.804C230.427 366.127 231.113 366.403 231.973 366.428C232.596 366.427 233.232 366.304 233.845 366.086L233.614 365.696C232.89 366 232.241 366.064 231.615 365.961C231.029 365.865 230.494 365.624 230.026 365.415L229.982 365.395C229.55 365.202 229.132 365.015 228.638 364.87C227.9 364.655 227.124 364.623 226.371 364.748L226.361 364.75L226.351 364.751C225.51 364.871 224.907 364.167 224.907 363.472V362.678L224.909 362.646C224.953 362.074 225.137 361.402 225.339 360.818C225.524 360.283 225.742 359.765 225.934 359.38C225.953 359.309 225.979 359.241 226.011 359.177L226.013 359.174L234.158 342.594C234.166 342.563 234.174 342.529 234.181 342.502L234.192 342.458V342.201H224.435ZM234.203 342.41C234.204 342.406 234.204 342.406 234.204 342.406L234.203 342.41ZM222.348 367.156L221.664 367.644L221.731 365.908C221.809 363.871 222.431 361.715 222.796 360.695L222.803 360.665V360.553L230.783 344.377H224.309C223.439 344.377 222.731 343.669 222.731 342.799V342.074C222.731 341.204 223.439 340.496 224.309 340.496H234.355C235.188 340.496 235.896 341.204 235.896 342.037V342.545C235.896 342.638 235.88 342.718 235.878 342.726C235.873 342.753 235.867 342.779 235.863 342.798C235.854 342.836 235.843 342.88 235.835 342.914L235.834 342.916L235.824 342.959V343.07L227.61 359.788L227.612 359.849L227.507 360.05C227.347 360.353 227.133 360.845 226.95 361.374C226.77 361.898 226.643 362.393 226.612 362.745V362.999C227.439 362.924 228.289 362.993 229.117 363.234L229.119 363.235C229.73 363.415 230.242 363.644 230.665 363.833L230.679 363.84C231.2 364.073 231.545 364.222 231.891 364.279C232.195 364.328 232.531 364.31 232.996 364.107C233.386 363.934 233.807 363.952 234.147 364.063C234.486 364.173 234.841 364.406 235.057 364.788L235.539 365.603L235.552 365.63C235.675 365.874 235.781 366.22 235.693 366.602C235.597 367.018 235.311 367.302 234.99 367.462L234.97 367.473L234.949 367.482C234.025 367.883 233.002 368.133 231.961 368.133H231.95L231.938 368.132C230.741 368.1 229.796 367.711 229.027 367.394L228.993 367.38C227.847 366.908 226.041 366.553 224.648 367.223L224.608 367.249C224.538 367.3 224.479 367.328 224.454 367.34C224.401 367.365 224.354 367.381 224.321 367.392C224.256 367.413 224.193 367.428 224.146 367.438C224.097 367.449 224.048 367.458 224.006 367.464L224.004 367.464C223.981 367.468 223.903 367.48 223.823 367.48H223.279C222.933 367.48 222.609 367.358 222.348 367.156ZM222.803 360.741V360.752C222.803 360.748 222.803 360.745 222.803 360.741ZM222.815 360.617C222.816 360.613 222.816 360.613 222.816 360.613L222.815 360.617ZM239.728 342.074C239.728 341.204 240.436 340.496 241.305 340.496H250.735C251.605 340.496 252.313 341.204 252.313 342.074V342.799C252.313 343.669 251.605 344.377 250.735 344.377H243.608V351.485H247.798C248.667 351.485 249.375 352.193 249.375 353.063V353.084L249.339 353.814C249.325 354.672 248.622 355.366 247.761 355.366H243.608V363.708H250.735C251.605 363.708 252.313 364.416 252.313 365.286V366.011C252.313 366.881 251.605 367.589 250.735 367.589H241.305C240.436 367.589 239.728 366.881 239.728 366.011V342.074ZM241.432 342.201V365.884H250.608V365.413H243.482C242.612 365.413 241.904 364.705 241.904 363.835V355.239C241.904 354.37 242.612 353.662 243.482 353.662H247.64L247.663 353.19H243.482C242.612 353.19 241.904 352.482 241.904 351.612V344.25C241.904 343.38 242.612 342.672 243.482 342.672H250.608V342.201H241.432ZM257.768 342.201V365.884H258.239V357.125C258.239 356.256 258.947 355.548 259.817 355.548H260.76C262.716 355.548 264.476 356.787 265.181 358.593L265.185 358.605L266.783 362.891C267.283 364.265 268.149 365.383 269.265 365.756V365.268C269.243 365.244 269.22 365.222 269.2 365.205C268.648 364.962 268.235 364.521 267.94 364.107C267.619 363.654 267.379 363.15 267.217 362.724L267.215 362.718L265.628 358.463C265.361 357.864 265.077 357.337 264.686 356.851C264.377 356.508 264.36 356.073 264.48 355.747C264.591 355.446 264.812 355.223 265.036 355.089L265.091 355.056L265.149 355.032C267.561 354.035 269.265 351.655 269.265 348.856C269.265 345.192 266.273 342.201 262.609 342.201H257.768ZM256.063 342.074C256.063 341.204 256.771 340.496 257.641 340.496H262.609C267.215 340.496 270.969 344.251 270.969 348.856C270.969 352.126 269.113 354.943 266.411 356.325C266.731 356.809 266.978 357.303 267.196 357.795L267.207 357.818L268.81 362.117L268.811 362.121C268.939 362.456 269.116 362.82 269.329 363.119C269.551 363.431 269.756 363.595 269.913 363.655L269.952 363.67L269.99 363.689C270.123 363.755 270.237 363.847 270.307 363.908C270.39 363.98 270.476 364.064 270.555 364.153C270.631 364.239 270.717 364.347 270.79 364.468C270.844 364.559 270.969 364.783 270.969 365.068V366.011C270.969 366.41 270.845 366.864 270.482 367.19C270.101 367.531 269.611 367.596 269.17 367.496C267.084 367.04 265.804 365.182 265.183 363.477L265.181 363.473L263.593 359.212C263.592 359.21 263.591 359.208 263.59 359.206C263.132 358.041 261.993 357.252 260.76 357.252H259.944V366.011C259.944 366.881 259.236 367.589 258.366 367.589H257.641C256.771 367.589 256.063 366.881 256.063 366.011V342.074ZM283.567 342.201C279.764 342.201 276.344 345.434 276.44 349.306L276.44 349.317V358.953L276.44 358.968C276.312 362.754 279.752 366.194 283.538 366.066L283.567 366.065L283.596 366.066C287.383 366.194 290.823 362.754 290.694 358.968L290.694 358.953V349.317L290.694 349.306C290.79 345.434 287.37 342.201 283.567 342.201ZM274.736 349.338C274.621 344.438 278.886 340.496 283.567 340.496C288.248 340.496 292.514 344.438 292.398 349.338V358.925C292.551 363.682 288.323 367.914 283.567 367.77C278.811 367.914 274.584 363.682 274.736 358.925V349.338ZM356.759 342.201C352.956 342.201 349.536 345.434 349.632 349.306L349.632 349.317V358.953L349.632 358.968C349.503 362.754 352.944 366.194 356.73 366.066L356.759 366.065L356.788 366.066C360.574 366.194 364.015 362.754 363.886 358.968L363.886 358.953V349.317L363.886 349.306C363.982 345.434 360.562 342.201 356.759 342.201ZM347.928 349.338C347.813 344.438 352.078 340.496 356.759 340.496C361.44 340.496 365.705 344.438 365.59 349.338V358.925C365.743 363.682 361.515 367.914 356.759 367.77C352.003 367.914 347.776 363.682 347.928 358.925V349.338ZM23.4042 342.201C19.6015 342.201 16.1812 345.434 16.2772 349.306L16.2775 349.317V358.953L16.277 358.968C16.1486 362.754 19.5888 366.194 23.3754 366.066L23.4042 366.065L23.4331 366.066C27.2196 366.194 30.6599 362.754 30.5315 358.968L30.531 358.953V349.317L30.5313 349.306C30.6273 345.434 27.2069 342.201 23.4042 342.201ZM14.5729 349.338C14.4578 344.438 18.7235 340.496 23.4042 340.496C28.0849 340.496 32.3507 344.438 32.2356 349.338V358.925C32.3878 363.682 28.1604 367.914 23.4042 367.771C18.6481 367.914 14.4207 363.682 14.5729 358.925V349.338ZM36.1522 342.07C36.1542 341.202 36.8614 340.496 37.7298 340.496H38.3101C39.1798 340.496 39.8878 341.204 39.8878 342.074V361.042C39.8878 362.639 41.1746 363.926 42.7712 363.926C44.3678 363.926 45.6545 362.639 45.6545 361.042V342.074C45.6545 341.204 46.3625 340.496 47.2322 340.496H47.9576C48.8272 340.496 49.5352 341.204 49.5352 342.074V361.042C49.5352 364.777 46.506 367.806 42.7712 367.806C39.0363 367.806 36.0071 364.777 36.0071 361.042L36.0071 361.036L36.1522 342.074L36.1522 342.07ZM37.8558 342.201L37.7117 361.042V361.045C37.7134 363.837 39.9787 366.102 42.7712 366.102C45.5646 366.102 47.8306 363.836 47.8306 361.042V342.201H47.3591V361.042C47.3591 363.58 45.3092 365.63 42.7712 365.63C40.2332 365.63 38.1832 363.58 38.1832 361.042V342.201H37.8558ZM54.9678 342.201V365.884H55.4393V357.125C55.4393 356.256 56.1473 355.548 57.0169 355.548H57.9599C59.9159 355.548 61.6761 356.787 62.3808 358.593L62.3855 358.605L63.9836 362.891C64.4833 364.265 65.3496 365.383 66.4649 365.756V365.268C66.4427 365.244 66.4201 365.222 66.4006 365.205C65.8484 364.962 65.4347 364.521 65.1401 364.107C64.8187 363.655 64.5794 363.15 64.4172 362.724L64.4151 362.718L62.8285 358.463C62.5608 357.864 62.277 357.337 61.8863 356.851C61.5768 356.508 61.5601 356.073 61.6801 355.747C61.7911 355.446 62.0117 355.224 62.2363 355.089L62.2907 355.056L62.3493 355.032C64.7609 354.035 66.4649 351.656 66.4649 348.856C66.4649 345.192 63.4735 342.201 59.8096 342.201H54.9678ZM53.2632 342.074C53.2632 341.204 53.9712 340.496 54.8408 340.496H59.8096C64.415 340.496 68.1695 344.251 68.1695 348.856C68.1695 352.127 66.3127 354.943 63.6107 356.326C63.9307 356.809 64.1782 357.303 64.3967 357.795L64.4073 357.819L66.0101 362.117L66.0111 362.12C66.139 362.455 66.3164 362.819 66.5294 363.119C66.7513 363.431 66.9565 363.596 67.1129 363.655L67.1526 363.67L67.1906 363.689C67.3232 363.756 67.4371 363.847 67.5074 363.908C67.5905 363.98 67.676 364.064 67.7547 364.153C67.8314 364.239 67.9175 364.347 67.9897 364.468C68.0444 364.559 68.1695 364.783 68.1695 365.068V366.011C68.1695 366.41 68.0456 366.864 67.6821 367.19C67.3015 367.531 66.8106 367.596 66.3698 367.496C64.2836 367.04 63.0037 365.182 62.3828 363.477L62.3816 363.473L60.7906 359.207C60.3333 358.041 59.1937 357.252 57.9599 357.252H57.1439V366.011C57.1439 366.881 56.4359 367.589 55.5662 367.589H54.8408C53.9712 367.589 53.2632 366.881 53.2632 366.011V342.074ZM71.9002 342.074C71.9002 341.204 72.6082 340.496 73.4778 340.496H76.2705C76.6512 340.496 76.9855 340.655 77.2233 340.842C77.4584 341.026 77.6869 341.308 77.7821 341.669L82.8533 359.389V342.074C82.8533 341.204 83.5613 340.496 84.4309 340.496H85.1563C86.026 340.496 86.734 341.204 86.734 342.074V366.011C86.734 366.881 86.026 367.589 85.1563 367.589H82.3274C81.9466 367.589 81.6124 367.43 81.3746 367.243C81.1393 367.059 80.9107 366.777 80.8156 366.416L75.7809 348.723V366.011C75.7809 366.881 75.0729 367.589 74.2032 367.589H73.4778C72.6082 367.589 71.9002 366.881 71.9002 366.011V342.074ZM73.6048 342.201V365.884H74.0763V343.633C74.0763 343.376 74.1882 343.194 74.2319 343.128C74.2917 343.039 74.3613 342.966 74.4283 342.911C74.5467 342.812 74.77 342.672 75.0737 342.672C75.3197 342.672 75.4965 342.777 75.5385 342.802L75.5401 342.803C75.6084 342.843 75.6617 342.886 75.6918 342.911C75.7498 342.959 75.8008 343.01 75.8185 343.028L75.9779 343.187L82.4367 365.884H85.0294V342.201H84.5579V364.415C84.5579 364.719 84.4182 364.942 84.3195 365.061C84.2637 365.128 84.1916 365.197 84.1018 365.257C84.0362 365.301 83.8543 365.413 83.5968 365.413C83.2933 365.413 83.0776 365.271 82.9971 365.213C82.9059 365.148 82.8357 365.077 82.8158 365.057L82.8128 365.054L82.6567 364.898L76.1613 342.201H73.6048ZM92.1719 342.201V365.884H101.348V365.413H94.2211C93.3514 365.413 92.6434 364.705 92.6434 363.835V355.239C92.6434 354.37 93.3514 353.662 94.2211 353.662H98.3791L98.4027 353.19H94.2211C93.3514 353.19 92.6434 352.482 92.6434 351.612V344.25C92.6434 343.38 93.3514 342.672 94.2211 342.672H101.348V342.201H92.1719ZM90.4673 342.074C90.4673 341.204 91.1753 340.496 92.0449 340.496H101.475C102.344 340.496 103.052 341.204 103.052 342.074V342.799C103.052 343.669 102.344 344.377 101.475 344.377H94.348V351.486H98.537C99.4067 351.486 100.115 352.194 100.115 353.063V353.085L100.078 353.814C100.065 354.672 99.3619 355.366 98.5007 355.366H94.348V363.708H101.475C102.344 363.708 103.052 364.416 103.052 365.286V366.011C103.052 366.881 102.344 367.589 101.475 367.589H92.0449C91.1753 367.589 90.4673 366.881 90.4673 366.011V342.074ZM106.801 342.038C106.801 341.112 107.568 340.496 108.379 340.496H109.105C109.598 340.496 109.999 340.742 110.257 341.035C110.509 341.322 110.677 341.71 110.682 342.126C110.753 343.856 111.065 345.591 111.586 347.26L111.587 347.262C112.177 349.17 113.043 350.94 114.191 352.61L114.367 352.856L114.573 352.573C115.682 350.941 116.55 349.135 117.141 347.258C117.662 345.59 117.974 343.856 118.045 342.126C118.05 341.71 118.218 341.322 118.47 341.035C118.728 340.742 119.129 340.496 119.622 340.496H120.348C121.159 340.496 121.925 341.112 121.925 342.038V342.052L121.925 342.067C121.85 344.25 121.473 346.355 120.837 348.415C120.157 350.681 119.101 352.827 117.748 354.781L117.745 354.786L116.322 356.814C116.318 356.823 116.314 356.833 116.31 356.844C116.308 356.85 116.306 356.856 116.304 356.862V366.011C116.304 366.881 115.596 367.589 114.726 367.589H114.001C113.131 367.589 112.423 366.881 112.423 366.011V356.876L111.015 354.818L111.014 354.816C109.658 352.858 108.607 350.678 107.893 348.424L107.891 348.419C107.254 346.357 106.877 344.251 106.802 342.067L106.801 342.052V342.038ZM108.513 342.201C108.598 344.155 108.943 346.047 109.519 347.912C110.183 350.01 111.162 352.035 112.417 353.847L112.419 353.851L113.784 355.846C113.804 355.868 113.82 355.888 113.832 355.903C113.884 355.971 113.92 356.036 113.943 356.081C113.99 356.172 114.022 356.262 114.043 356.329C114.065 356.4 114.084 356.472 114.097 356.537C114.107 356.581 114.128 356.687 114.128 356.799V365.884H114.599V356.763C114.599 356.616 114.638 356.483 114.648 356.446L114.649 356.442C114.667 356.378 114.689 356.313 114.711 356.255C114.732 356.197 114.757 356.134 114.784 356.076C114.797 356.048 114.814 356.011 114.836 355.973L114.837 355.971C114.845 355.957 114.87 355.911 114.912 355.855L116.347 353.811L116.348 353.809C117.605 351.993 118.58 350.007 119.205 347.922L119.207 347.915C119.784 346.049 120.129 344.156 120.214 342.201H119.748C119.67 344.086 119.331 345.966 118.768 347.768L118.767 347.77C118.126 349.806 117.183 351.768 115.975 353.543L115.967 353.554L115.399 354.335C115.324 354.451 115.239 354.529 115.194 354.567C115.122 354.628 115.047 354.679 114.977 354.719C114.868 354.781 114.64 354.895 114.363 354.895C114.087 354.895 113.858 354.781 113.75 354.719C113.68 354.679 113.605 354.628 113.533 354.567C113.488 354.528 113.401 354.449 113.325 354.331L112.795 353.589L112.791 353.582C111.547 351.773 110.602 349.846 109.959 347.767C109.396 345.965 109.056 344.086 108.979 342.201H108.513ZM152.096 342.074C152.096 341.204 152.804 340.496 153.674 340.496H158.643C163.248 340.496 167.003 344.251 167.003 348.856C167.003 352.127 165.146 354.943 162.444 356.326C162.764 356.809 163.011 357.303 163.23 357.795L163.24 357.819L164.843 362.117L164.844 362.12C164.972 362.455 165.149 362.819 165.362 363.119C165.584 363.431 165.789 363.596 165.946 363.655L165.986 363.67L166.024 363.689C166.156 363.756 166.27 363.847 166.34 363.908C166.424 363.98 166.509 364.064 166.588 364.153C166.664 364.239 166.75 364.347 166.823 364.468C166.877 364.559 167.003 364.783 167.003 365.068V366.011C167.003 366.41 166.879 366.864 166.515 367.19C166.135 367.531 165.644 367.596 165.203 367.496C163.117 367.04 161.837 365.182 161.216 363.477L161.215 363.473L159.626 359.212L159.624 359.207C159.166 358.042 158.027 357.252 156.793 357.252H155.977V366.011C155.977 366.881 155.269 367.589 154.399 367.589H153.674C152.804 367.589 152.096 366.881 152.096 366.011V342.074ZM153.801 342.201V365.884H154.272V357.125C154.272 356.256 154.98 355.548 155.85 355.548H156.793C158.749 355.548 160.509 356.787 161.214 358.593L161.218 358.605L162.817 362.891C163.316 364.265 164.183 365.383 165.298 365.756V365.268C165.276 365.244 165.253 365.222 165.234 365.205C164.681 364.962 164.268 364.521 163.973 364.107C163.652 363.655 163.412 363.15 163.25 362.724L163.248 362.718L161.662 358.463C161.394 357.864 161.11 357.337 160.719 356.851C160.41 356.508 160.393 356.073 160.513 355.747C160.624 355.446 160.845 355.224 161.069 355.089L161.124 355.056L161.182 355.032C163.594 354.035 165.298 351.656 165.298 348.856C165.298 345.192 162.307 342.201 158.643 342.201H153.801ZM179.601 342.201C175.799 342.201 172.378 345.434 172.474 349.306L172.475 349.317V358.953L172.474 358.968C172.346 362.754 175.786 366.194 179.573 366.066L179.601 366.065L179.63 366.066C183.417 366.194 186.857 362.754 186.729 358.968L186.728 358.953V349.317L186.728 349.306C186.824 345.434 183.404 342.201 179.601 342.201ZM170.77 349.338C170.655 344.438 174.921 340.496 179.601 340.496C184.282 340.496 188.548 344.438 188.433 349.338V358.924C188.585 363.682 184.358 367.914 179.601 367.771C174.845 367.914 170.618 363.682 170.77 358.924V349.338ZM193.909 342.201V365.884H194.38V343.706C194.38 343.458 194.467 343.185 194.68 342.972C194.893 342.759 195.166 342.672 195.414 342.672C196.013 342.672 196.332 343.113 196.44 343.436L196.456 343.484L201.088 365.884H201.816L206.085 343.49L206.103 343.436C206.21 343.113 206.53 342.672 207.129 342.672C207.377 342.672 207.65 342.759 207.863 342.972C208.076 343.185 208.162 343.458 208.162 343.706V365.884H208.634V342.201H205.877L202.925 357.575C202.604 359.258 200.163 359.26 199.837 357.581C199.837 357.579 199.836 357.577 199.836 357.575L196.667 342.201H193.909ZM192.204 342.074C192.204 341.204 192.912 340.496 193.782 340.496H196.792C197.473 340.496 198.208 340.994 198.322 341.787L201.376 356.603L204.227 341.756L204.229 341.744C204.39 341.02 205.069 340.496 205.787 340.496H208.761C209.631 340.496 210.339 341.204 210.339 342.074V366.011C210.339 366.881 209.631 367.589 208.761 367.589H208.036C207.166 367.589 206.458 366.881 206.458 366.011V350.636L203.466 366.328L203.464 366.341C203.303 367.065 202.624 367.589 201.906 367.589H200.963C200.282 367.589 199.547 367.091 199.433 366.298L196.085 350.107V366.011C196.085 366.881 195.377 367.589 194.507 367.589H193.782C192.912 367.589 192.204 366.881 192.204 366.011V342.074ZM318.672 349.338C318.557 344.438 322.823 340.496 327.504 340.496C332.184 340.496 336.45 344.438 336.335 349.338V358.925C336.487 363.682 332.26 367.914 327.504 367.771C322.747 367.914 318.52 363.682 318.672 358.925V349.338ZM327.504 342.201C323.701 342.201 320.281 345.434 320.377 349.306L320.377 349.317V358.953L320.376 358.968C320.248 362.754 323.688 366.194 327.475 366.066L327.504 366.065L327.532 366.066C331.319 366.194 334.759 362.754 334.631 358.968L334.63 358.953V349.317L334.631 349.306C334.727 345.434 331.306 342.201 327.504 342.201ZM369.362 342.074C369.362 341.204 370.07 340.496 370.94 340.496H373.732C374.113 340.496 374.447 340.655 374.685 340.842C374.92 341.026 375.149 341.308 375.244 341.669L380.315 359.389V342.074C380.315 341.204 381.023 340.496 381.893 340.496H382.618C383.488 340.496 384.196 341.204 384.196 342.074V366.011C384.196 366.881 383.488 367.589 382.618 367.589H379.789C379.409 367.589 379.074 367.43 378.837 367.243C378.601 367.058 378.372 366.777 378.277 366.415C378.276 366.41 378.275 366.404 378.273 366.399L373.243 348.723V366.011C373.243 366.881 372.535 367.589 371.665 367.589H370.94C370.07 367.589 369.362 366.881 369.362 366.011V342.074ZM371.067 342.201V365.884H371.538V343.633C371.538 343.376 371.65 343.194 371.694 343.128C371.754 343.039 371.823 342.967 371.89 342.911C372.009 342.812 372.232 342.672 372.536 342.672C372.782 342.672 372.958 342.777 373 342.802L373.002 342.803C373.07 342.843 373.124 342.886 373.154 342.911C373.212 342.959 373.263 343.01 373.28 343.028L373.44 343.187L379.899 365.884H382.491V342.201H382.02V364.415C382.02 364.719 381.88 364.942 381.781 365.061C381.726 365.128 381.653 365.197 381.564 365.257C381.498 365.301 381.316 365.413 381.059 365.413C380.755 365.413 380.54 365.271 380.459 365.213C380.363 365.144 380.29 365.069 380.275 365.054L380.119 364.898L373.623 342.201H371.067ZM387.928 342.074C387.928 341.204 388.636 340.496 389.506 340.496H398.935C399.805 340.496 400.513 341.204 400.513 342.074V342.799C400.513 343.669 399.805 344.377 398.935 344.377H391.809V351.486H395.998C396.867 351.486 397.575 352.194 397.575 353.063V353.085L397.539 353.814C397.525 354.672 396.823 355.366 395.961 355.366H391.809V363.708H398.935C399.805 363.708 400.513 364.416 400.513 365.286V366.011C400.513 366.881 399.805 367.589 398.935 367.589H389.506C388.636 367.589 387.928 366.881 387.928 366.011V342.074ZM389.633 342.201V365.884H398.809V365.413H391.682C390.812 365.413 390.104 364.705 390.104 363.835V355.239C390.104 354.37 390.812 353.662 391.682 353.662H395.84L395.863 353.19H391.682C390.812 353.19 390.104 352.482 390.104 351.612V344.25C390.104 343.38 390.812 342.672 391.682 342.672H398.809V342.201H389.633ZM258.239 344.25C258.239 343.38 258.947 342.672 259.817 342.672H262.609C266.018 342.672 268.793 345.448 268.793 348.856C268.793 352.297 266.022 355.076 262.609 355.076H259.817C258.947 355.076 258.239 354.368 258.239 353.498V344.25ZM259.944 344.377V353.371H262.609C265.073 353.371 267.089 351.363 267.089 348.856C267.089 346.389 265.076 344.377 262.609 344.377H259.944ZM276.912 349.327C276.912 345.665 279.905 342.672 283.567 342.672C287.229 342.672 290.222 345.665 290.222 349.327V358.939C290.222 362.601 287.229 365.594 283.567 365.594C279.905 365.594 276.912 362.601 276.912 358.939V349.327ZM283.567 344.377C280.846 344.377 278.616 346.607 278.616 349.327V358.939C278.616 361.66 280.846 363.889 283.567 363.889C286.288 363.889 288.518 361.66 288.518 358.939V349.327C288.518 346.607 286.288 344.377 283.567 344.377ZM350.104 349.327C350.104 345.665 353.097 342.672 356.759 342.672C360.421 342.672 363.414 345.665 363.414 349.327V358.939C363.414 362.601 360.421 365.594 356.759 365.594C353.097 365.594 350.104 362.601 350.104 358.939V349.327ZM356.759 344.377C354.038 344.377 351.808 346.607 351.808 349.327V358.939C351.808 361.66 354.038 363.889 356.759 363.889C359.48 363.889 361.71 361.66 361.71 358.939V349.327C361.71 346.607 359.48 344.377 356.759 344.377ZM16.749 349.328C16.749 345.665 19.7419 342.672 23.4042 342.672C27.0666 342.672 30.0595 345.665 30.0595 349.328V358.939C30.0595 362.601 27.0666 365.594 23.4042 365.594C19.7419 365.594 16.749 362.601 16.749 358.939V349.328ZM23.4042 344.377C20.6833 344.377 18.4536 346.607 18.4536 349.328V358.939C18.4536 361.66 20.6833 363.889 23.4042 363.889C26.1252 363.889 28.3549 361.66 28.3549 358.939V349.328C28.3549 346.607 26.1252 344.377 23.4042 344.377ZM55.4393 344.25C55.4393 343.38 56.1473 342.672 57.0169 342.672H59.8096C63.2181 342.672 65.9934 345.448 65.9934 348.856C65.9934 352.297 63.2218 355.076 59.8096 355.076H57.0169C56.1473 355.076 55.4393 354.368 55.4393 353.498V344.25ZM57.1439 344.377H59.8096C62.2767 344.377 64.2888 346.389 64.2888 348.856C64.2888 351.363 62.2729 353.372 59.8096 353.372H57.1439V344.377ZM155.977 344.377H158.643C161.11 344.377 163.122 346.389 163.122 348.856C163.122 351.363 161.106 353.372 158.643 353.372H155.977V344.377ZM154.272 344.25C154.272 343.38 154.98 342.672 155.85 342.672H158.643C162.051 342.672 164.826 345.448 164.826 348.856C164.826 352.297 162.055 355.076 158.643 355.076H155.85C154.98 355.076 154.272 354.368 154.272 353.498V344.25ZM172.946 349.328C172.946 345.665 175.939 342.672 179.601 342.672C183.264 342.672 186.257 345.665 186.257 349.328V358.939C186.257 362.601 183.264 365.594 179.601 365.594C175.939 365.594 172.946 362.601 172.946 358.939V349.328ZM179.601 344.377C176.881 344.377 174.651 346.607 174.651 349.328V358.939C174.651 361.66 176.881 363.889 179.601 363.889C182.322 363.889 184.552 361.66 184.552 358.939V349.328C184.552 346.607 182.322 344.377 179.601 344.377ZM327.504 344.377C324.783 344.377 322.553 346.607 322.553 349.328V358.939C322.553 361.66 324.783 363.889 327.504 363.889C330.224 363.889 332.454 361.66 332.454 358.939V349.328C332.454 346.607 330.224 344.377 327.504 344.377ZM320.848 349.328C320.848 345.665 323.841 342.672 327.504 342.672C331.166 342.672 334.159 345.665 334.159 349.328V358.939C334.159 362.601 331.166 365.594 327.504 365.594C323.841 365.594 320.848 362.601 320.848 358.939V349.328Z" fill="#002D5C"/>
<path d="M311.102 340.625H315.398C316.268 340.625 316.975 341.333 316.975 342.203V342.928C316.975 343.798 316.268 344.506 315.398 344.506H311.102V366.056C311.102 366.926 310.394 367.634 309.524 367.634H308.799C307.929 367.634 307.221 366.926 307.221 366.056V344.506H302.961C302.092 344.506 301.384 343.798 301.384 342.928V342.203C301.384 341.333 302.092 340.625 302.961 340.625H307.221H311.102Z" fill="#002D5C"/>
</svg>
