<svg width="36" height="35" viewBox="0 0 36 35" fill="none" xmlns="http://www.w3.org/2000/svg">
<path d="M29.0935 13.9432V11.1208C29.0935 9.39731 27.6962 8 25.9727 8H9.10192C7.37839 8 5.98108 9.39731 5.98108 11.1208V13.9432" stroke="#F4D052" stroke-width="1.5" stroke-miterlimit="10" stroke-linecap="round" stroke-linejoin="round"/>
<path d="M29.0934 27.15L27.1123 25.1689" stroke="#F4D052" stroke-width="1.5" stroke-miterlimit="10" stroke-linecap="round" stroke-linejoin="round"/>
<path d="M5.98108 27.15L7.96214 25.1689" stroke="#F4D052" stroke-width="1.5" stroke-miterlimit="10" stroke-linecap="round" stroke-linejoin="round"/>
<path d="M29.0935 13.9434C27.9993 13.9434 27.1124 14.8302 27.1124 15.9244V20.5469H7.96213V15.9244C7.96213 14.8302 7.07527 13.9434 5.98107 13.9434C4.88686 13.9434 4 14.8302 4 15.9244V23.1883C4 24.2825 4.88686 25.1694 5.98107 25.1694H29.0935C30.1877 25.1694 31.0746 24.2825 31.0746 23.1883V15.9244C31.0746 14.8302 30.1877 13.9434 29.0935 13.9434Z" stroke="#F4D052" stroke-width="1.5" stroke-miterlimit="10" stroke-linejoin="round"/>
</svg>
