<svg width="215" height="35" viewBox="0 0 215 35" fill="none" xmlns="http://www.w3.org/2000/svg">
<path d="M0 3C0 1.34315 1.34315 0 3 0L212 0C213.657 0 215 1.34315 215 3V27L0 27L0 3Z" fill="url(#paint0_linear_3759_12083)"/>
<path d="M11.3395 17.7002L11.3395 10.6202L13.6995 10.6202L15.3295 15.2402H15.3495L16.9895 10.6202L19.3395 10.6202L19.3395 17.7002H17.7795L17.7795 12.2702H17.7595L15.8995 17.7002H14.7095L12.9195 12.2702H12.8995L12.8995 17.7002H11.3395ZM21.6029 14.1602C21.6029 11.8902 23.2129 10.4402 25.4229 10.4402C27.6329 10.4402 29.2429 11.8902 29.2429 14.1602C29.2429 16.4302 27.6329 17.8802 25.4229 17.8802C23.2129 17.8802 21.6029 16.4302 21.6029 14.1602ZM23.2229 14.1602C23.2229 15.4802 24.0929 16.4402 25.4229 16.4402C26.7529 16.4402 27.6229 15.4802 27.6229 14.1602C27.6229 12.8402 26.7529 11.8802 25.4229 11.8802C24.0929 11.8802 23.2229 12.8402 23.2229 14.1602ZM31.5032 17.7002L31.5032 10.6202L34.2432 10.6202C35.6932 10.6202 36.9132 11.1202 36.9132 12.7702C36.9132 13.7602 36.3832 14.5302 35.3832 14.7102L37.1832 17.7002H35.3132L33.8332 14.8702L33.0632 14.8702L33.0632 17.7002H31.5032ZM33.0632 11.9402V13.5502L33.9832 13.5502C34.5532 13.5502 35.2932 13.5302 35.2932 12.7602C35.2932 12.0502 34.6532 11.9402 34.0832 11.9402L33.0632 11.9402ZM39.2476 17.7002L39.2476 10.6202L44.0576 10.6202V12.0602L40.8076 12.0602V13.3802L43.8776 13.3802L43.8776 14.8202L40.8076 14.8202L40.8076 16.2602L44.2376 16.2602V17.7002L39.2476 17.7002ZM55.4154 11.1802L54.3454 12.3502C54.0954 12.0302 53.5954 11.8802 53.2154 11.8802C52.7754 11.8802 52.1654 12.0802 52.1654 12.6102C52.1654 13.9002 55.4254 13.0702 55.4254 15.5502C55.4254 17.1302 54.1554 17.8802 52.6954 17.8802C51.7854 17.8802 50.9854 17.6102 50.3154 16.9902L51.4254 15.7702C51.7454 16.1902 52.2654 16.4402 52.7854 16.4402C53.2954 16.4402 53.8654 16.2002 53.8654 15.7002C53.8654 14.4002 50.5454 15.1002 50.5454 12.7402C50.5454 11.2302 51.8554 10.4402 53.2454 10.4402C54.0454 10.4402 54.8154 10.6502 55.4154 11.1802ZM57.7876 17.7002L57.7876 10.6202L60.4176 10.6202C61.8876 10.6202 63.1076 11.0902 63.1076 12.7702C63.1076 14.4302 61.9776 14.9402 60.4876 14.9402L59.3476 14.9402V17.7002L57.7876 17.7002ZM59.3476 11.9402V13.6202L60.3876 13.6202C60.9376 13.6202 61.4876 13.4302 61.4876 12.7702C61.4876 12.0402 60.7476 11.9402 60.1476 11.9402L59.3476 11.9402ZM65.3464 17.7002V10.6202L70.1564 10.6202V12.0602L66.9064 12.0602V13.3802L69.9764 13.3802V14.8202L66.9064 14.8202V16.2602L70.3364 16.2602V17.7002L65.3464 17.7002ZM72.0552 17.7002L75.1152 10.6202H76.4052L79.4852 17.7002H77.7252L77.1152 16.2002H74.3652L73.7752 17.7002H72.0552ZM76.5852 14.8802L75.7152 12.6802L74.8552 14.8802H76.5852ZM81.4573 17.7002V10.6202H83.0173V13.5602L85.7673 10.6202L87.8073 10.6202L84.6573 13.9102L88.0773 17.7002H85.8973L83.0173 14.3402V17.7002H81.4573ZM89.8741 17.7002V10.6202L94.6841 10.6202V12.0602L91.4341 12.0602V13.3802H94.5041V14.8202H91.4341V16.2602L94.8641 16.2602V17.7002L89.8741 17.7002ZM97.313 17.7002V10.6202L100.053 10.6202C101.503 10.6202 102.723 11.1202 102.723 12.7702C102.723 13.7602 102.193 14.5302 101.193 14.7102L102.993 17.7002L101.123 17.7002L99.643 14.8702L98.873 14.8702V17.7002H97.313ZM98.873 11.9402V13.5502L99.793 13.5502C100.363 13.5502 101.103 13.5302 101.103 12.7602C101.103 12.0502 100.463 11.9402 99.893 11.9402H98.873ZM109.567 11.1802L108.497 12.3502C108.247 12.0302 107.747 11.8802 107.367 11.8802C106.927 11.8802 106.317 12.0802 106.317 12.6102C106.317 13.9002 109.577 13.0702 109.577 15.5502C109.577 17.1302 108.307 17.8802 106.847 17.8802C105.937 17.8802 105.137 17.6102 104.467 16.9902L105.577 15.7702C105.897 16.1902 106.417 16.4402 106.937 16.4402C107.447 16.4402 108.017 16.2002 108.017 15.7002C108.017 14.4002 104.697 15.1002 104.697 12.7402C104.697 11.2302 106.007 10.4402 107.397 10.4402C108.197 10.4402 108.967 10.6502 109.567 11.1802ZM121.929 11.4802L120.729 12.4602C120.419 12.0902 119.969 11.8802 119.389 11.8802C118.209 11.8802 117.339 12.8402 117.339 14.1602C117.339 15.4802 118.209 16.4402 119.339 16.4402C119.969 16.4402 120.479 16.1602 120.799 15.6802L122.099 16.6502C121.509 17.4902 120.509 17.8802 119.539 17.8802C117.329 17.8802 115.719 16.4302 115.719 14.1602C115.719 11.8902 117.329 10.4402 119.539 10.4402C120.329 10.4402 121.329 10.7102 121.929 11.4802ZM123.764 14.1602C123.764 11.8902 125.374 10.4402 127.584 10.4402C129.794 10.4402 131.404 11.8902 131.404 14.1602C131.404 16.4302 129.794 17.8802 127.584 17.8802C125.374 17.8802 123.764 16.4302 123.764 14.1602ZM125.384 14.1602C125.384 15.4802 126.254 16.4402 127.584 16.4402C128.914 16.4402 129.784 15.4802 129.784 14.1602C129.784 12.8402 128.914 11.8802 127.584 11.8802C126.254 11.8802 125.384 12.8402 125.384 14.1602ZM133.665 17.7002V10.6202L136.025 10.6202L137.655 15.2402H137.675L139.315 10.6202L141.665 10.6202V17.7002H140.105V12.2702H140.085L138.225 17.7002L137.035 17.7002L135.245 12.2702H135.225V17.7002H133.665ZM144.288 17.7002V10.6202H145.848V17.7002H144.288ZM148.467 17.7002V10.6202L150.587 10.6202L153.597 15.5402H153.617V10.6202L155.177 10.6202V17.7002L153.137 17.7002L150.047 12.6602H150.027V17.7002H148.467ZM164.231 13.5002V17.2002C163.311 17.6802 162.301 17.8802 161.261 17.8802C159.051 17.8802 157.441 16.4302 157.441 14.1602C157.441 11.8902 159.051 10.4402 161.261 10.4402C162.381 10.4402 163.371 10.6902 164.081 11.3502L162.981 12.5502C162.561 12.1102 162.051 11.8802 161.261 11.8802C159.931 11.8802 159.061 12.8402 159.061 14.1602C159.061 15.4802 159.931 16.4402 161.261 16.4402C161.941 16.4402 162.441 16.2502 162.731 16.0902V14.9402H161.461V13.5002L164.231 13.5002ZM175.533 11.1802L174.463 12.3502C174.213 12.0302 173.713 11.8802 173.333 11.8802C172.893 11.8802 172.283 12.0802 172.283 12.6102C172.283 13.9002 175.543 13.0702 175.543 15.5502C175.543 17.1302 174.273 17.8802 172.813 17.8802C171.903 17.8802 171.103 17.6102 170.433 16.9902L171.543 15.7702C171.863 16.1902 172.383 16.4402 172.903 16.4402C173.413 16.4402 173.983 16.2002 173.983 15.7002C173.983 14.4002 170.663 15.1002 170.663 12.7402C170.663 11.2302 171.973 10.4402 173.363 10.4402C174.163 10.4402 174.933 10.6502 175.533 11.1802ZM177.526 14.1602C177.526 11.8902 179.136 10.4402 181.346 10.4402C183.556 10.4402 185.166 11.8902 185.166 14.1602C185.166 16.4302 183.556 17.8802 181.346 17.8802C179.136 17.8802 177.526 16.4302 177.526 14.1602ZM179.146 14.1602C179.146 15.4802 180.016 16.4402 181.346 16.4402C182.676 16.4402 183.546 15.4802 183.546 14.1602C183.546 12.8402 182.676 11.8802 181.346 11.8802C180.016 11.8802 179.146 12.8402 179.146 14.1602ZM187.046 14.1602C187.046 11.8902 188.656 10.4402 190.866 10.4402C193.076 10.4402 194.686 11.8902 194.686 14.1602C194.686 16.4302 193.076 17.8802 190.866 17.8802C188.656 17.8802 187.046 16.4302 187.046 14.1602ZM188.666 14.1602C188.666 15.4802 189.536 16.4402 190.866 16.4402C192.196 16.4402 193.066 15.4802 193.066 14.1602C193.066 12.8402 192.196 11.8802 190.866 11.8802C189.536 11.8802 188.666 12.8402 188.666 14.1602ZM196.946 17.7002V10.6202L199.066 10.6202L202.076 15.5402H202.096V10.6202L203.656 10.6202V17.7002H201.616L198.526 12.6602H198.506V17.7002L196.946 17.7002Z" fill="white"/>
<path d="M0 27H7.5V34.5L0 27Z" fill="#584C39"/>
<path d="M215 27H207.5V34.5L215 27Z" fill="#584C39"/>
<defs>
<linearGradient id="paint0_linear_3759_12083" x1="107.022" y1="0" x2="107.022" y2="27" gradientUnits="userSpaceOnUse">
<stop stop-color="#BCA072"/>
<stop offset="1" stop-color="#917D5C"/>
</linearGradient>
</defs>
</svg>
